<svg width="392" height="200" viewBox="0 0 392 200" fill="none" xmlns="http://www.w3.org/2000/svg">
<g clip-path="url(#clip0_71_902)">
<path d="M66.783 56.3477H2.69507C2.69507 56.3477 2.69507 59.3913 2.69507 63.0435V76.6963C2.69507 80.3484 2.69507 83.3921 2.69507 83.3921H65.6494C82.1711 83.3921 89.393 90.8696 89.393 104.087C89.393 117.304 81.9102 124.783 65.6494 124.783H2.69507C2.69507 124.783 2.69507 127.827 2.69507 131.479V185.914V197.132H30.3487V151.651H66.783C97.1313 151.651 117.042 132.87 117.042 104.087C117.042 75.3041 97.1313 56.3477 66.783 56.3477Z" fill="#1F1F4E"/>
<path d="M193.477 56.3477H170.694L111.217 197.132H141.651L154.088 167.304H214.346L215.48 170.088L228.175 197.132H257.476L197.825 56.3477H193.477ZM196.781 140.349H165.39L184.259 95.3044L203.044 140.349H196.781Z" fill="#1F1F4E"/>
<path d="M350.954 56.3477L298.696 131.74C297.913 132.87 297.392 134.001 297.392 135.392V197.132H325.39V142.262L384.87 56.3477H351.044H350.954Z" fill="#1F1F4E"/>
<path d="M269.305 102L244.955 66.869C244.172 65.7386 237.737 56.3477 237.737 56.3477H267.912C269.999 56.3477 272.088 57.3047 273.479 59.0438L305.391 104.87H275.042C272.781 104.87 270.61 103.739 269.305 102Z" fill="#6C56A2"/>
<path d="M34.5236 35.6531H25.9129L23.3908 27.8257H10.9587L8.52157 35.6531H0L12.6953 0.609314H22.0023L34.4344 35.6531H34.5236ZM21.6542 21.8262L17.9136 10.0013C17.6527 9.13176 17.4803 8.08732 17.3063 6.86993H17.1323C17.1323 7.91341 16.8687 8.95776 16.5209 9.91428L12.6953 21.8262H21.6542Z" fill="#1F1F4E"/>
<path d="M61.4767 35.6531H40.6973V0.609314H48.6074V29.3054H61.566V35.7401L61.4767 35.6531Z" fill="#1F1F4E"/>
<path d="M74.1762 21.1298H60.8695V15.7396H74.1762V21.1298Z" fill="#1F1F4E"/>
<path d="M79.3903 34.3474V26.5222C80.7816 27.7396 82.3492 28.6097 84.0014 29.2183C85.6536 29.827 87.3061 30.0866 89.0452 30.0866C90.0018 30.0866 90.8696 29.9994 91.6522 29.8255C92.4348 29.6516 93.0435 29.3921 93.4783 29.0443C94 28.6964 94.347 28.3475 94.6079 27.9127C94.8687 27.4779 94.9557 27.0439 94.9557 26.5222C94.9557 25.8265 94.7835 25.2182 94.3487 24.6964C94.0009 24.1747 93.3905 23.6537 92.7818 23.2189C92.1731 22.7841 91.3052 22.348 90.3487 21.9132C89.3922 21.4784 88.4331 21.0445 87.3896 20.6097C84.6939 19.4793 82.6096 18.0882 81.3052 16.436C80.0009 14.7838 79.3054 12.7822 79.3054 10.4343C79.3054 8.60827 79.6522 7.04483 80.4348 5.74049C81.2174 4.43614 82.1725 3.30469 83.3899 2.52208C84.6073 1.65251 86.0856 1.04407 87.7374 0.60929C89.3896 0.174508 91.1322 0 93.0452 0C94.9583 0 96.4374 0.0872965 97.9157 0.348166C99.307 0.609036 100.609 0.870922 101.826 1.39266V8.69565C101.217 8.26087 100.61 7.91415 99.9148 7.65328C99.2192 7.39241 98.5235 7.13077 97.7409 6.8699C97.0452 6.69599 96.2626 6.52165 95.567 6.4347C94.8713 6.34774 94.1739 6.26062 93.4783 6.26062C92.6087 6.26062 91.7409 6.34783 91.0452 6.52174C90.3496 6.69565 89.6548 6.9572 89.22 7.21807C88.7852 7.47894 88.347 7.9127 88.0861 8.34749C87.8252 8.78226 87.6531 9.30548 87.6531 9.82722C87.6531 10.4359 87.8252 10.957 88.0861 11.3918C88.4339 11.8266 88.8722 12.2605 89.3939 12.6953C89.9157 13.1301 90.6087 13.4791 91.4783 13.9139C92.2609 14.3487 93.2157 14.6956 94.2592 15.1303C95.6505 15.739 96.9566 16.3475 98 17.0431C99.1305 17.7388 100.088 18.4345 100.87 19.3041C101.653 20.1737 102.262 21.1309 102.697 22.1743C103.131 23.2178 103.304 24.5216 103.304 25.9129C103.304 27.9129 102.957 29.4787 102.174 30.87C101.391 32.1743 100.434 33.3058 99.1296 34.0884C97.8252 34.871 96.3487 35.4793 94.6965 35.8271C93.0444 36.175 91.22 36.3472 89.3939 36.3472C87.5679 36.3472 85.6513 36.175 83.9122 35.8271C82.1731 35.4793 80.6946 35.043 79.3903 34.3474Z" fill="#1F1F4E"/>
<path d="M131.653 35.6531H110.696V0.609314H130.868V7.04401H118.61V14.8692H130.002V21.3039H118.61V29.3054H131.738V35.7401L131.653 35.6531Z" fill="#1F1F4E"/>
<path d="M168.347 35.6531H159.303L153.825 26.6092C153.39 25.9136 153.044 25.3052 152.697 24.7835C152.349 24.2618 151.915 23.8256 151.567 23.3908C151.219 22.956 150.783 22.6965 150.348 22.5226C149.913 22.3486 149.477 22.1744 148.956 22.1744H146.87V35.566H138.957V0.522278H151.477C159.999 0.522278 164.173 3.74052 164.173 10.0884C164.173 11.3058 163.998 12.4352 163.65 13.4787C163.303 14.5222 162.784 15.4793 162.088 16.2619C161.392 17.0446 160.608 17.8272 159.651 18.4359C158.695 19.0446 157.567 19.4785 156.437 19.8264C156.958 20.0872 157.48 20.349 157.915 20.6968C158.437 21.0446 158.868 21.4785 159.303 22.0003C159.737 22.522 160.176 23.0432 160.61 23.5649C161.045 24.0866 161.392 24.697 161.74 25.2187L168.347 35.566V35.6531ZM146.87 6.52177V16.2619H150.264C151.916 16.2619 153.304 15.7387 154.348 14.7822C155.391 13.8257 155.915 12.522 155.915 11.1307C155.915 8.08724 154.085 6.52177 150.433 6.52177H146.87Z" fill="#1F1F4E"/>
<path d="M204.089 35.6531H195.478L192.956 27.8257H180.524L178.087 35.6531H169.565L182.261 0.609314H191.568L204 35.6531H204.089ZM191.219 21.8262L187.479 10.0013C187.218 9.13176 187.045 8.08732 186.871 6.86993H186.697C186.697 7.91341 186.434 8.95776 186.086 9.91428L182.261 21.8262H191.219Z" fill="#1F1F4E"/>
<path d="M224.783 21.7392C224.783 26.4348 223.739 29.9999 221.565 32.5217C219.391 35.0434 216.26 36.2624 212.173 36.2624C210.347 36.2624 208.61 35.9136 207.044 35.3049V27.9127C208.436 28.9562 209.914 29.4795 211.566 29.4795C215.131 29.4795 216.958 26.7824 216.958 21.478V0.609314H224.783V21.7392Z" fill="#1F1F4E"/>
</g>
<defs>
<clipPath id="clip0_71_902">
<rect width="391.304" height="200" fill="white"/>
</clipPath>
</defs>
</svg>
