<svg width="305" height="200" viewBox="0 0 305 200" fill="none" xmlns="http://www.w3.org/2000/svg">
<path d="M304.132 27.0207V172.979C304.132 187.909 292.068 200 277.172 200H26.9607C12.064 200 0 187.909 0 172.979V27.0207C0 12.0908 12.064 0 26.9607 0H277.172C292.068 0 304.132 12.0908 304.132 27.0207Z" fill="url(#paint0_linear_71_933)"/>
<path d="M272.306 190.614H31.1598C18.9292 190.614 8.99805 180.661 8.99805 168.403V31.5631C8.99805 19.3053 18.9292 9.35205 31.1598 9.35205H272.273C284.503 9.35205 294.434 19.3053 294.434 31.5631V168.37C294.434 180.661 284.537 190.614 272.306 190.614Z" fill="url(#paint1_linear_71_933)"/>
<path d="M165.963 40.3473C146.667 38.7107 141.102 56.8136 141.102 56.8136C141.102 56.8136 137.236 70.8416 146.068 78.5904H111.175L127.038 65.3974C127.272 65.197 127.372 64.9298 127.338 64.6292C126.938 61.2224 123.373 40.6479 96.8785 38.2431C96.8785 38.2431 69.0847 36.3059 64.1192 64.4956C64.0525 64.863 64.1858 65.2304 64.4857 65.4642L80.7488 78.9913C80.7488 78.9913 62.3196 80.6279 60.4866 102.138C60.4866 102.138 59.5868 119.105 76.1831 125.284C78.8159 126.252 81.5819 126.72 84.3813 126.72H105.81V115.264H85.4811C82.2151 115.264 78.9825 114.128 76.5497 111.957C74.2836 109.953 72.3173 106.847 72.4506 102.138C72.4506 102.138 72.5839 94.3887 80.7821 91.1155C81.8485 90.6813 82.9816 90.4809 84.1147 90.4809H91.0132C92.1129 90.4809 93.2127 90.1469 94.0792 89.4789C94.8456 88.8777 95.5455 87.9759 95.6788 86.6399V90.2805L188.025 90.4809V64.362C188.025 58.7842 186.225 53.34 182.759 48.9979C179.46 44.8229 174.228 41.0487 165.963 40.3473ZM80.1156 62.2578C80.1156 62.2578 84.2147 52.2378 95.7121 52.1376C107.21 52.0374 111.275 62.1576 111.275 62.1576L95.7121 75.2504L80.1156 62.2578ZM175.294 75.384H163.364C162.031 75.384 160.731 75.05 159.565 74.4488C157.832 73.5136 156.299 72.2444 155.132 70.6412C151.366 65.4308 153.099 61.1222 155.465 58.3166C157.898 55.3774 161.597 53.7408 165.397 53.9412C170.162 54.2084 172.662 57.0808 173.995 59.7194C174.928 61.5898 175.361 63.6272 175.361 65.7314V75.384H175.294ZM157.698 27.3213C157.698 23.2799 160.964 20.0067 164.997 20.0067C169.029 20.0067 172.295 23.2799 172.295 27.3213C172.295 31.3627 169.029 34.6359 164.997 34.6359C160.998 34.6359 157.698 31.3627 157.698 27.3213ZM255.743 101.303H259.876V105.578H244.112V101.303L247.178 101.47L246.812 100.401C245.779 97.3279 247.445 94.0213 250.478 93.0527L250.544 93.0193C251.944 92.5517 253.41 92.3513 254.877 92.3513H258.709L258.243 96.5263L254.044 96.4261C253.577 96.4261 253.144 96.5597 252.777 96.8269C251.511 97.6953 251.544 99.5991 252.844 100.434C253.71 101.002 254.71 101.303 255.743 101.303ZM259.876 22.9125V90.2137H245.479V22.9125H259.876ZM237.88 56.7468L238.08 90.2805H194.857V78.7909H223.484V55.845V55.8116C223.284 53.2064 221.151 51.1356 218.551 51.0354H201.489V39.5791H218.785C220.751 39.5791 222.684 39.8129 224.583 40.2137C232.348 41.9171 237.847 48.7976 237.88 56.7468ZM214.252 175.718C214.252 179.759 210.986 183.033 206.954 183.033C202.922 183.033 199.656 179.759 199.656 175.718C199.656 171.677 202.922 168.403 206.954 168.403C210.986 168.403 214.252 171.677 214.252 175.718ZM187.425 168.403C183.393 168.403 180.127 171.677 180.127 175.718C180.127 179.759 183.393 183.033 187.425 183.033C191.457 183.033 194.723 179.759 194.723 175.718C194.723 171.677 191.457 168.403 187.425 168.403ZM269.907 22.9125L269.773 140.214H215.652V126.687C216.152 115.564 210.82 109.82 205.788 106.88C202.355 104.876 198.423 103.908 194.457 103.908H178.994V139.345C176.694 164.228 153.766 163.894 153.766 163.894C119.707 164.195 124.506 131.864 124.506 131.864L111.609 125.15C107.21 180.594 153.733 177.021 153.733 177.021C172.962 175.484 182.493 165.798 187.225 156.98C190.324 151.236 191.824 144.789 191.824 138.243V115.698C201.722 115.631 202.055 123.547 202.055 123.547V151.636H283.204V22.9125H269.907Z" fill="#0E2316"/>
<path d="M145.268 200H61.8529L2.09952 144.89L0.666504 66.5998L145.268 200Z" fill="#0E2316"/>
<path d="M136.536 197.996L101.777 200H64.0192L59.7868 199.833H59.5202L0.266726 149.766L0.166748 149.666L0.266726 139.946L1.03322 77.2878L1.16653 77.388L96.3453 158.55L136.536 197.996Z" fill="#0E2316"/>
<path d="M140.069 200H59.6534L59.3201 199.666L0 142.886V65.865L96.2785 158.083L136.969 197.027L140.069 200Z" fill="url(#paint2_linear_71_933)"/>
<path d="M163.864 38.2432C144.568 36.6065 139.002 54.7094 139.002 54.7094C139.002 54.7094 135.137 68.7375 143.968 76.4863H109.076L124.939 63.2932C125.172 63.0928 125.272 62.8256 125.239 62.525C124.839 59.1182 121.273 38.5437 94.7789 36.1389C94.7789 36.1389 66.9851 34.2017 62.0196 62.3914C61.9529 62.7588 62.0862 63.1262 62.3861 63.36L78.6492 76.8871C78.6492 76.8871 60.22 78.5237 58.387 100.033C58.387 100.033 57.4872 117.001 74.0835 123.18C76.7163 124.148 79.4823 124.616 82.2817 124.616H103.71V113.16H83.3815C80.1155 113.16 76.8829 112.024 74.4501 109.853C72.184 107.849 70.2177 104.743 70.351 100.033C70.351 100.033 70.4843 92.2845 78.6825 89.0113C79.7489 88.5771 80.882 88.3767 82.0151 88.3767H88.9136C90.0133 88.3767 91.1131 88.0427 91.9796 87.3747C92.746 86.7735 93.4459 85.8717 93.5792 84.5357V88.1763L185.925 88.3767V62.2578C185.925 56.68 184.126 51.2358 180.66 46.8938C177.361 42.7188 172.128 38.9446 163.864 38.2432ZM78.016 60.1536C78.016 60.1536 82.1151 50.1336 93.6125 50.0334C105.11 49.9332 109.176 60.0534 109.176 60.0534L93.6125 73.1463L78.016 60.1536ZM173.195 73.2799H161.264C159.931 73.2799 158.631 72.9459 157.465 72.3447C155.732 71.4095 154.199 70.1403 153.033 68.5371C149.267 63.3266 151 59.018 153.366 56.2124C155.799 53.2732 159.498 51.6366 163.297 51.837C168.063 52.1042 170.562 54.9766 171.895 57.6152C172.828 59.4856 173.261 61.523 173.261 63.6272V73.2799H173.195Z" fill="white"/>
<path d="M162.93 32.5317C166.961 32.5317 170.229 29.2568 170.229 25.2171C170.229 21.1773 166.961 17.9025 162.93 17.9025C158.9 17.9025 155.632 21.1773 155.632 25.2171C155.632 29.2568 158.9 32.5317 162.93 32.5317Z" fill="white"/>
<path d="M250.778 98.3633C249.478 97.5283 249.444 95.6245 250.711 94.7561C251.077 94.4889 251.544 94.3553 251.977 94.3553L256.176 94.4555L256.643 90.2805H252.81C251.344 90.2805 249.878 90.5143 248.478 90.9485L248.411 90.9819C245.379 91.9505 243.712 95.2571 244.746 98.3299L245.112 99.3988L242.046 99.2318V103.507H257.809V99.2318H253.677C252.644 99.1984 251.644 98.8978 250.778 98.3633Z" fill="white"/>
<path d="M257.809 20.8083H243.412V88.1095H257.809V20.8083Z" fill="white"/>
<path d="M222.517 38.0761C220.618 37.6419 218.651 37.4415 216.718 37.4415H199.389V48.8978H216.452C219.085 48.998 221.184 51.0688 221.384 53.674V53.7074V76.6533H192.757V88.1429H235.981L235.781 54.6092C235.748 46.6934 230.249 39.8129 222.517 38.0761Z" fill="white"/>
<path d="M212.186 173.614C212.186 177.655 208.92 180.928 204.888 180.928C200.855 180.928 197.589 177.655 197.589 173.614C197.589 169.572 200.855 166.299 204.888 166.299C208.92 166.299 212.186 169.572 212.186 173.614ZM185.325 166.299C181.293 166.299 178.027 169.572 178.027 173.614C178.027 177.655 181.293 180.928 185.325 180.928C189.358 180.928 192.624 177.655 192.624 173.614C192.624 169.572 189.358 166.299 185.325 166.299ZM267.807 20.8083L267.707 138.109H213.552V124.582C214.052 113.46 208.72 107.715 203.688 104.776C200.255 102.772 196.323 101.804 192.357 101.804H176.894V137.241C174.594 162.124 151.666 161.79 151.666 161.79C117.607 162.091 122.406 129.759 122.406 129.759L109.509 123.046C105.143 178.49 151.666 174.916 151.666 174.916C170.895 173.38 180.426 163.694 185.159 154.876C188.258 149.132 189.758 142.685 189.758 136.139V113.56C199.655 113.494 199.989 121.409 199.989 121.409V149.499H281.137V20.8083H267.807Z" fill="#FEE600"/>
<defs>
<linearGradient id="paint0_linear_71_933" x1="0.00333259" y1="99.9999" x2="304.129" y2="99.9999" gradientUnits="userSpaceOnUse">
<stop offset="0.0135135" stop-color="#F6B11A"/>
<stop offset="0.5" stop-color="#FCEE1E"/>
<stop offset="1" stop-color="#F6B11A"/>
</linearGradient>
<linearGradient id="paint1_linear_71_933" x1="9.01431" y1="99.9844" x2="294.445" y2="99.9844" gradientUnits="userSpaceOnUse">
<stop stop-color="#00AB4B"/>
<stop offset="1" stop-color="#0A7C41"/>
</linearGradient>
<linearGradient id="paint2_linear_71_933" x1="-21.714" y1="99.3899" x2="138.149" y2="202.976" gradientUnits="userSpaceOnUse">
<stop offset="0.0135135" stop-color="#F6B11A"/>
<stop offset="0.5" stop-color="#FCEE1E"/>
<stop offset="1" stop-color="#F6B11A"/>
</linearGradient>
</defs>
</svg>
