<svg width="483" height="200" viewBox="0 0 483 200" fill="none" xmlns="http://www.w3.org/2000/svg">
<g clip-path="url(#clip0_71_713)">
<mask id="mask0_71_713" style="mask-type:luminance" maskUnits="userSpaceOnUse" x="0" y="0" width="482" height="200">
<path d="M481.332 0H0V200H481.332V0Z" fill="white"/>
</mask>
<g mask="url(#mask0_71_713)">
<path fill-rule="evenodd" clip-rule="evenodd" d="M372.961 150.542H359.322L365.64 131.406H384.781L380.192 145.326C379.137 148.484 376.31 150.542 372.978 150.542M347.489 131.406H361.128L354.811 150.542H335.67L340.259 136.622C341.313 133.464 344.14 131.406 347.472 131.406H347.489ZM436.591 96.1509H436.719C437.707 96.1037 438.667 95.8523 439.546 95.4123C441.133 94.6112 442.423 93.2287 443.02 91.4376L459.048 44.3048H481.316L479.415 49.7565H477.074L476.1 52.7731L460.904 97.4392C458.64 104.211 453.862 109.411 447.969 112.349C443.835 114.407 439.152 115.365 434.391 114.973H403.12L415.061 78.9473H411.085C410.098 78.9945 409.138 79.2459 408.258 79.6859C406.671 80.487 405.381 81.8695 404.785 83.6606L402.554 90.5265L396.439 109.38C394.178 116.151 389.4 121.351 383.507 124.289C379.39 126.347 374.69 127.306 369.929 126.913H338.955L341.185 120.031L345.1 108.107L346.765 103.016L354.622 78.9631H376.324L374.501 84.4306H372.678L368.891 95.9781L364.949 108.123H372.254C373.244 108.075 374.204 107.824 375.084 107.384C376.671 106.583 377.958 105.2 378.557 103.409L382.722 90.542H382.705L386.9 77.6906C389.164 70.9193 393.942 65.7187 399.835 62.7809C403.952 60.7229 408.649 59.7643 413.413 60.157H444.684L438.053 78.9473H435.146C433.245 84.6818 431.359 90.4165 429.489 96.1823H436.591V96.1509Z" fill="#4EB3A7"/>
<path fill-rule="evenodd" clip-rule="evenodd" d="M219.27 150.542H205.629L211.947 131.406H231.088L226.499 145.326C225.462 148.484 222.617 150.542 219.286 150.542" fill="#17A3DD"/>
<path fill-rule="evenodd" clip-rule="evenodd" d="M193.78 131.406H207.421L201.103 150.542H181.963L186.551 136.622C187.588 133.448 190.433 131.406 193.764 131.406" fill="#17A3DD"/>
<path fill-rule="evenodd" clip-rule="evenodd" d="M252.209 106.221L261.371 78.9156H257.395C256.405 78.9629 255.446 79.2143 254.566 79.654C252.979 80.4554 251.69 81.8379 251.093 83.629L248.861 90.4945L242.748 109.348C240.486 116.119 235.708 121.32 229.815 124.257C225.698 126.316 220.999 127.274 216.237 126.881H184.933L191.125 107.84L195.808 93.4954L200.585 78.9315H221.816L219.993 84.3987H218.626L214.839 95.9462L210.894 108.091H218.563C219.553 108.044 220.512 107.792 221.392 107.353C222.979 106.551 224.268 105.169 224.865 103.378L229.029 90.5104H229.014L233.209 77.6587C235.472 70.8873 240.25 65.687 246.143 62.7493C250.26 60.6909 254.959 59.7326 259.72 60.1254H287.552L279.82 83.849C278.563 87.6509 277.274 91.4687 276.001 95.2865C273.77 101.932 267.814 106.221 260.805 106.221H252.209Z" fill="#17A3DD"/>
<path fill-rule="evenodd" clip-rule="evenodd" d="M320.585 84.2109H318.18L320.002 78.7434H322.377L323.068 78.7275H342.256L334.729 101.54L334.665 101.713L334.602 101.87L330.784 112.695C328.223 117.722 324.153 121.634 319.342 124.022C315.225 126.08 310.528 127.039 305.767 126.646H274.493L284.675 95.9467H284.708L287.111 88.5311L301.191 44.1792H321.229L323.193 44.195L321.417 49.6467H319.517L305.814 92.7731V92.8203C304.146 97.8164 302.495 102.828 300.861 107.84H308.092C309.082 107.793 310.039 107.541 310.919 107.101C312.509 106.3 313.796 104.918 314.392 103.127L320.602 84.1323L320.585 84.2109Z" fill="#17A3DD"/>
<path fill-rule="evenodd" clip-rule="evenodd" d="M296.084 150.542H282.444L288.762 131.406H307.903L303.314 145.326C302.276 148.484 299.432 150.542 296.1 150.542" fill="#17A3DD"/>
<mask id="mask1_71_713" style="mask-type:luminance" maskUnits="userSpaceOnUse" x="0" y="2" width="177" height="126">
<path d="M6.94585 52.49C8.15588 53.2442 9.38165 53.967 10.6231 54.6425C12.6189 55.7264 13.7818 57.8317 13.5147 59.8742L13.4675 60.2825C13.279 61.7123 12.4775 62.765 11.1732 63.2834C9.86882 63.8175 8.43877 63.6761 7.04013 62.9064C5.61008 62.105 4.19574 61.2411 2.7971 60.3611C0.989893 59.1986 -0.000146404 57.2506 0.251292 55.3336L0.298435 54.9881C0.487017 53.527 1.33562 52.4428 2.70282 51.94C4.07003 51.4375 5.56292 51.6259 6.94585 52.5059M26.7152 41.9009C27.9409 42.6392 29.1666 43.3306 30.424 43.9903C32.4355 45.0431 33.6296 47.1325 33.4096 49.175L33.3625 49.5836C33.2054 51.0131 32.4355 52.0814 31.1468 52.6473C29.8583 53.2128 28.4281 53.1028 27.0295 52.3487C25.5837 51.5631 24.1694 50.7462 22.755 49.8664C20.9321 48.735 19.9106 46.787 20.1149 44.8703L20.1464 44.5089C20.3035 43.032 21.1364 41.9481 22.4722 41.3981C23.8236 40.8639 25.3166 41.0367 26.7152 41.8853V41.9009ZM18.3863 14.8467C19.5963 15.6165 20.8064 16.355 22.0479 17.0462C24.0279 18.1617 25.1751 20.267 24.8765 22.3094L24.8137 22.7179C24.6094 24.1318 23.7922 25.1688 22.4879 25.6872C21.1835 26.2057 19.7378 26.0486 18.3549 25.2473C16.9248 24.4303 15.5262 23.5663 14.1433 22.655C12.3518 21.4767 11.3774 19.5128 11.6603 17.6118L11.7075 17.2662C11.9117 15.8051 12.7761 14.7367 14.1433 14.2497C15.5105 13.7626 17.0034 13.9669 18.3863 14.8624V14.8467ZM48.8576 42.5764C43.2002 40.7225 37.7628 38.0203 32.7027 34.5639C30.6124 33.1342 29.5911 30.6989 30.1724 28.5467L30.2353 28.3267C30.644 26.8498 31.6498 25.8443 33.1427 25.4358C34.6354 25.0274 36.2071 25.3416 37.6371 26.3157C41.7072 29.1123 46.1073 31.2961 50.6805 32.7886C52.1418 33.2598 53.289 34.1867 54.0906 35.5223C54.8921 36.8578 55.1121 38.2245 54.7506 39.56L54.6876 39.78C54.0276 42.215 51.482 43.4248 48.8418 42.5609L48.8576 42.5764ZM45.5732 19.8428C45.2117 19.6856 44.8344 19.5285 44.4731 19.3714C41.8487 18.2245 39.3029 16.9048 36.8355 15.4594C34.6512 14.1711 33.4568 11.7988 33.8655 9.56782L33.9126 9.33215C34.1954 7.80821 35.107 6.72415 36.5528 6.18998C37.9986 5.67151 39.5543 5.86004 41.0472 6.73987C43.09 7.94959 45.2117 9.03365 47.3802 9.99201C47.7417 10.1491 48.1188 10.3062 48.4803 10.4633C51.9062 12.0973 55.5677 13.3227 59.4023 14.0611C71.4871 16.4021 79.0772 12.8671 86.9348 9.22218C96.7251 4.68173 106.846 -0.0158336 124.981 3.48771C136.61 5.73437 147.374 11.0446 156.41 18.3816C163.938 24.5089 170.255 32.0186 174.844 40.3456C176.902 44.1003 177.358 47.8712 176.148 51.4845L151.586 124.886C151.24 125.907 150.328 126.488 149.197 126.41C148.05 126.347 147.013 125.64 146.463 124.572C143.006 117.863 138.684 111.814 133.671 106.74C133.545 106.614 133.419 106.488 133.294 106.363C131.848 104.808 130.308 103.331 128.673 101.964C122.702 96.9675 115.489 93.3384 107.631 91.8145C107.27 91.7359 106.893 91.6731 106.531 91.6103H106.515C95.2008 89.7092 87.8148 93.1184 80.1931 96.6378C70.3398 101.178 60.1564 105.876 42.0529 102.388C34.3369 100.895 26.9981 98.0517 20.2878 94.1553C17.7891 92.71 15.369 91.1075 13.0589 89.3792C11.016 87.8553 10.1202 85.3886 10.8274 83.2834L10.906 83.0634C11.3932 81.6181 12.4618 80.6753 13.9861 80.3456C15.5105 80.0156 17.0662 80.4084 18.4649 81.4453C20.3821 82.875 22.3779 84.2103 24.4522 85.4045C29.9682 88.6095 36.0498 90.9503 42.4772 92.1914C57.375 95.0667 66.1282 91.0289 74.5984 87.1325C83.8859 82.8437 92.8908 78.6959 108.055 81.6181C117.972 83.5348 127.102 88.1381 134.692 94.4853C139.03 98.1145 142.848 102.325 146.023 106.928L166.578 45.53C162.728 38.0517 157.227 31.2961 150.58 25.9072C143.147 19.8742 134.252 15.4908 124.587 13.6212C109.674 10.7304 100.984 14.7681 92.5606 18.6801C83.2888 22.985 74.3156 27.1483 59.0094 24.1947C54.3577 23.2992 49.8634 21.7909 45.5887 19.7799L45.5732 19.8428ZM135.368 116.559L132.335 125.97C131.989 127.038 131.094 127.73 129.962 127.793C128.831 127.855 127.809 127.258 127.275 126.253C123.912 119.843 119.669 114.218 114.75 109.662C114.624 109.552 114.499 109.426 114.373 109.316C112.959 107.903 111.45 106.583 109.831 105.389C103.954 101.005 96.8508 98.1459 89.0875 97.5017C88.7263 97.4703 88.3648 97.4389 88.0032 97.4234H87.9877C86.2589 97.3289 84.6089 97.3448 83.053 97.4703C89.2448 94.7525 95.7035 92.6473 104.881 94.1867H104.897C105.242 94.2498 105.588 94.3125 105.95 94.3753C113.462 95.8364 120.376 99.3086 126.08 104.085C127.652 105.389 129.129 106.803 130.497 108.295C130.622 108.421 130.748 108.547 130.858 108.657C132.099 109.913 133.294 111.218 134.441 112.6C135.446 113.81 135.792 115.255 135.368 116.559ZM35.877 80.1884C30.3297 78.3659 25.0337 75.695 20.1778 72.27C18.1663 70.8561 17.2705 68.4209 17.962 66.2528L18.0406 66.0328C18.512 64.5403 19.5806 63.5348 21.0893 63.1106C22.5979 62.6864 24.1536 62.985 25.5208 63.9748C29.4496 66.7398 33.7084 68.9081 38.2028 70.3848C39.6328 70.8561 40.7328 71.7673 41.4714 73.1028C42.21 74.4381 42.3515 75.805 41.9273 77.1562L41.8643 77.3762C41.0785 79.827 38.4855 81.0525 35.8928 80.2042L35.877 80.1884Z" fill="white"/>
</mask>
<g mask="url(#mask1_71_713)">
<path d="M177.343 0H0V127.856H177.343V0Z" fill="url(#paint0_linear_71_713)"/>
</g>
<path d="M174.34 180.047L175.488 176.183C176.179 173.826 175.236 172.318 173.209 172.318C171.182 172.318 169.5 173.951 168.872 176.073C168.196 178.351 169.045 180.063 171.119 180.063H174.356L174.34 180.047ZM179.023 185.389H178.254H172.832C172.879 185.311 172.926 185.232 172.973 185.153C172.486 185.311 171.339 185.389 169.469 185.389C164.252 185.389 161.549 181.603 163.12 176.293C164.723 170.904 169.548 167.275 174.843 167.275C180.139 167.275 182.56 171.108 180.988 176.402L179.904 180.032H180.281L178.992 185.373L179.023 185.389Z" fill="#606163"/>
<path d="M450.5 159.592L444.92 178.366C443.539 183.032 440.881 185.389 436.969 185.389H433.495L434.313 182.64H436.858C438.572 182.64 439.86 182.074 440.739 180.959C441.352 180.236 441.935 178.963 442.47 177.125L447.686 159.576H450.483L450.5 159.592ZM434.172 185.389H420.405L421.224 182.64H423.768C425.482 182.64 426.77 182.074 427.649 181.006C428.279 180.251 428.859 178.979 429.394 177.141L434.61 159.592H437.41L431.83 178.366C431.328 180.079 430.651 181.508 429.819 182.592H435.004L434.172 185.389ZM421.254 185.389H397.288L398.12 182.592H412.878C413.932 179.042 414.151 176.167 413.474 174.014C412.659 171.422 410.583 170.071 407.332 169.867H406.247L407.032 167.243C415.439 167.243 418.363 172.349 415.755 182.592H422.103L421.271 185.389H421.254ZM394.003 176.057C395.182 172.066 394.114 169.631 390.846 169.631C387.294 169.631 384.67 172.302 383.413 176.528C382.234 180.519 383.413 183.064 386.698 183.064C390.169 183.064 392.621 180.707 394.003 176.041V176.057ZM396.991 176.339C395.451 181.524 391.034 185.389 386.004 185.389H371.846L372.679 182.592H380.458C379.609 180.99 379.545 178.932 380.317 176.371C381.856 171.186 386.24 167.321 391.428 167.321C396.614 167.321 398.609 170.904 397.005 176.339H396.991ZM372.726 185.389H364.319L365.151 182.592H373.558L372.726 185.389ZM364.821 185.389H356.415L357.247 182.592H365.654L364.821 185.389ZM356.933 185.389H348.527L349.359 182.592H357.766L356.933 185.389ZM349.029 185.389H340.622L341.455 182.592H349.861L349.029 185.389ZM341.138 185.389H332.732L333.564 182.592H341.973L341.138 185.389ZM333.234 185.389H324.827L325.66 182.592H334.069L333.234 185.389ZM325.346 185.389H316.939L317.772 182.592H326.178L325.346 185.389ZM318.291 185.389H317.206C311.815 185.389 308.671 181.21 310.056 175.742H301.161C297.168 175.742 293.759 178.492 292.532 182.64C291.403 186.473 293.115 189.018 297.374 189.018H302.401L301.522 191.972H296.494C290.79 191.972 287.818 188.264 289.547 182.435C290.884 177.926 294.719 174.187 298.991 173.182C298.567 171.909 298.661 170.275 299.244 168.311C300.767 163.174 304.837 159.544 309.662 159.544C313.654 159.544 315.885 161.697 315.588 164.965L312.459 165.279C312.775 162.765 311.626 161.524 309.113 161.524C306.002 161.524 303.55 163.991 302.293 168.264C301.791 169.945 301.885 171.501 302.559 172.883H313.294L312.822 174.47C311.471 179.01 313.654 182.561 319.106 182.561L318.274 185.357L318.291 185.389ZM276.001 185.389H270.422L278.061 159.67H283.64L276.001 185.389ZM268.647 177.691C268.018 179.796 266.902 181.556 265.331 182.954C263.524 184.588 261.465 185.389 259.108 185.389H253.843L255.43 180.047H259.532C261.402 180.047 262.754 178.727 263.524 176.135L268.411 159.702H273.99L268.647 177.691ZM247.086 177.376C248.972 176.261 250.182 174.753 250.763 172.789C251.502 170.275 250.527 168.201 247.856 168.201C246.536 168.201 245.357 168.672 244.257 169.599C243.314 170.479 242.639 171.548 242.277 172.789C241.696 174.737 242.01 176.261 243.22 177.376C243.723 177.848 244.241 178.256 244.776 178.571C245.514 178.256 246.269 177.848 247.086 177.376ZM255.949 185.389H252.712C248.846 185.389 245.671 184.918 243.173 183.912C240.093 184.902 236.635 185.389 232.77 185.389H229.139L230.727 180.047H234.357C236.117 180.047 237.217 179.922 237.72 179.733C236.588 177.785 236.352 175.585 237.076 173.197C237.374 172.207 237.845 171.171 238.458 170.165C240.878 166.3 244.964 163.865 249.144 163.865C253.325 163.865 255.996 166.3 256.09 170.165C256.106 171.155 255.965 172.192 255.666 173.197C254.959 175.585 253.419 177.785 251.125 179.733C251.549 179.937 252.586 180.047 254.299 180.047H257.536L255.949 185.389ZM230.428 185.389H221.895L223.482 180.047H232.015L230.428 185.389ZM222.523 185.389H213.99L215.578 180.047H224.111L222.523 185.389ZM214.634 185.389H206.101L207.689 180.047H216.222L214.634 185.389ZM206.73 185.389H198.197L199.784 180.047H208.317L206.73 185.389ZM198.841 185.389H190.308L191.895 180.047H200.428L198.841 185.389ZM190.937 185.389H182.403L183.99 180.047H192.524L190.937 185.389ZM183.488 185.389H172.801C172.801 185.389 172.896 185.232 172.943 185.153C172.472 185.311 171.356 185.389 169.533 185.389H169.439C164.221 185.389 161.518 181.603 163.09 176.292C164.693 170.904 169.517 167.274 174.813 167.274C178.474 167.274 180.847 169.238 181.319 172.302H173.163C171.041 172.302 169.454 173.936 168.826 176.057C168.15 178.335 168.999 180.047 171.073 180.047H185.075L183.488 185.389ZM144.043 179.01C142.833 182.608 140.586 185.64 137.239 188.107C133.719 190.699 129.978 192.019 125.955 192.019H125.72C121.697 192.019 118.695 190.699 116.715 188.107C114.735 185.515 114.342 182.278 115.489 178.413L116.919 173.621H122.498L121.225 177.895C120.754 179.497 120.581 180.88 120.707 182.074C121.084 184.949 123.567 186.819 127.386 186.819C131.204 186.819 134.756 184.949 136.846 182.074C137.459 181.194 138.009 180.157 138.433 179.01H132.226C127.527 178.633 125.185 174.973 126.678 169.945C128.281 164.556 133.106 160.927 138.402 160.927C142.959 160.927 145.536 163.991 144.907 168.421H139.266C139.266 166.882 138.354 165.955 136.752 165.955C134.63 165.955 133.043 167.589 132.414 169.709C131.738 171.987 132.587 173.7 134.661 173.7H139.077H139.219H145.552L143.996 179.01H144.043Z" fill="#606163"/>
<path fill-rule="evenodd" clip-rule="evenodd" d="M122.497 193.967C124.163 193.967 125.514 195.318 125.514 196.984C125.514 198.649 124.163 200 122.497 200C120.831 200 119.48 198.649 119.48 196.984C119.48 195.318 120.831 193.967 122.497 193.967Z" fill="#606163"/>
<path fill-rule="evenodd" clip-rule="evenodd" d="M130.088 193.967C131.753 193.967 133.105 195.318 133.105 196.984C133.105 198.649 131.753 200 130.088 200C128.422 200 127.07 198.649 127.07 196.984C127.07 195.318 128.422 193.967 130.088 193.967Z" fill="#606163"/>
<path fill-rule="evenodd" clip-rule="evenodd" d="M254.33 156.167C255.995 156.167 257.347 157.518 257.347 159.183C257.347 160.848 255.995 162.2 254.33 162.2C252.664 162.2 251.312 160.848 251.312 159.183C251.312 157.518 252.664 156.167 254.33 156.167Z" fill="#606163"/>
<path fill-rule="evenodd" clip-rule="evenodd" d="M396.173 159.701C397.413 159.701 398.42 160.707 398.42 161.948C398.42 163.189 397.413 164.195 396.173 164.195C394.93 164.195 393.926 163.189 393.926 161.948C393.926 160.707 394.93 159.701 396.173 159.701Z" fill="#606163"/>
<path d="M179.024 183.284C177.94 186.944 176.227 189.568 173.87 191.218C171.686 192.757 168.668 193.527 164.849 193.527L166.185 189.018C169.847 189.018 172.204 187.258 173.257 183.755L174.373 180.031H179.999L179.024 183.284Z" fill="#606163"/>
<path d="M157.557 183.284C156.473 186.944 154.76 189.584 152.403 191.218C150.219 192.773 147.217 193.527 143.383 193.527L144.718 189.018C148.38 189.018 150.737 187.259 151.79 183.755L156.206 168.877H161.832L157.557 183.268V183.284Z" fill="#606163"/>
<path fill-rule="evenodd" clip-rule="evenodd" d="M76.4528 62.4978H76.4841C76.7513 62.4978 77.0185 62.4194 77.2699 62.2936C77.7099 62.0736 78.0714 61.6967 78.2285 61.1939L78.5428 60.2511H73.7654C72.3824 60.3611 71.2667 60.0942 70.4968 59.5286C69.538 58.8058 69.1296 57.6117 69.4753 56.0564L72.3038 47.5253L72.7439 46.2214L73.074 45.2472H78.5583L75.6826 53.7783C75.5256 54.2653 75.6199 54.658 75.9184 54.878C76.0755 55.0039 76.2955 55.0667 76.5627 55.0822H76.594H80.2713L83.5244 45.2472H90.2347L89.826 46.2214H88.6633L83.1473 62.8436C82.5186 64.713 81.1827 66.1428 79.5485 66.9442C78.4013 67.5097 77.1126 67.7767 75.8083 67.6667H70.638L72.351 62.4978H76.4528ZM98.6577 55.0822H98.6894C98.9563 55.0822 99.2235 55.0039 99.4751 54.878C99.9151 54.658 100.276 54.2811 100.449 53.7783L100.512 53.6055H100.496L101.141 51.7203C101.298 51.233 101.204 50.8403 100.905 50.6205C100.748 50.4947 100.528 50.4319 100.261 50.4161H100.229H95.782L94.8076 53.3542L94.2419 55.0822H98.6736H98.6577ZM83.493 66.4883H84.986C85.2845 65.593 85.583 64.6817 85.8974 63.7861H85.803L85.8502 63.6447C86.7458 60.9739 87.6259 58.3344 88.5059 55.6794H88.4746L88.5218 55.538C89.6845 52.0972 90.816 48.6722 91.9477 45.2472H103.026C104.41 45.1372 105.525 45.4044 106.295 45.97C107.38 46.7869 107.757 48.2167 107.144 50.0705L106.531 51.893H106.547L105.352 55.428C104.708 57.2975 103.372 58.7272 101.754 59.5286C100.607 60.0942 99.3178 60.3611 98.0135 60.2511H92.5289L90.1559 67.4625H83.2885L83.5244 66.4883H83.493ZM117.626 60.2511H111.921L109.548 67.4625H103.246L103.482 66.4883H104.41C104.708 65.593 105.007 64.6817 105.321 63.7861H105.227L105.274 63.6447C106.17 60.9739 107.05 58.3344 107.929 55.6794H107.898L107.945 55.538C109.108 52.0972 110.224 48.6722 111.371 45.2472H122.45C123.833 45.1372 124.949 45.4044 125.719 45.97C126.803 46.7869 127.18 48.2167 126.568 50.0705L125.797 52.3644L125.075 54.5325L120.816 67.4311H115.347L115.394 67.2897C115.74 66.2686 116.07 65.263 116.416 64.2417H116.4L116.447 64.1003L116.573 63.7392H116.494L116.541 63.5978C116.887 62.5764 117.217 61.5708 117.563 60.5497H117.547L117.594 60.4083L117.657 60.2197L117.626 60.2511ZM113.634 55.0822H119.354L120.612 51.2803C120.612 50.9975 120.501 50.7775 120.297 50.6205C120.14 50.4947 119.92 50.4319 119.653 50.4161H119.621H115.174L114.2 53.3542L113.634 55.0822ZM134.331 62.4978H134.362C134.629 62.4978 134.896 62.4194 135.148 62.2936C135.588 62.0736 135.949 61.6967 136.107 61.1939L136.421 60.2511H131.643C130.26 60.3611 129.145 60.0942 128.375 59.5286C127.416 58.8058 127.008 57.6117 127.353 56.0564L130.182 47.5253L130.622 46.2214L130.952 45.2472H136.436L133.561 53.7783C133.403 54.2653 133.498 54.658 133.796 54.878C133.953 55.0039 134.174 55.0667 134.441 55.0822H134.472H138.149L141.402 45.2472H148.112L147.704 46.2214H146.541L141.025 62.8436C140.381 64.713 139.061 66.1428 137.427 66.9442C136.279 67.5097 134.991 67.7767 133.686 67.6667H128.516L130.229 62.4978H134.331ZM65.295 62.4978H65.2636C64.9964 62.4978 64.7764 62.4194 64.6194 62.2936C64.3208 62.0736 64.2265 61.6967 64.3835 61.1939L69.7738 45.2472H63.0635L62.8279 46.2214H63.9907L58.3962 62.8436C57.7834 64.713 58.1604 66.1428 59.2449 66.9442C59.999 67.5097 61.1149 67.7767 62.5136 67.6667H67.8408L69.5538 62.4978H65.3421H65.295Z" fill="#96989A"/>
</g>
</g>
<defs>
<linearGradient id="paint0_linear_71_713" x1="48.8419" y1="47.2114" x2="336.355" y2="167.923" gradientUnits="userSpaceOnUse">
<stop stop-color="#17A3DD"/>
<stop offset="1" stop-color="#A4CE39"/>
</linearGradient>
<clipPath id="clip0_71_713">
<rect width="482.759" height="200" fill="white"/>
</clipPath>
</defs>
</svg>
