<svg width="182" height="200" viewBox="0 0 182 200" fill="none" xmlns="http://www.w3.org/2000/svg">
<g clip-path="url(#clip0_71_707)">
<path d="M87.2167 77.4194L160.275 0L174.786 15.3548C181.91 22.9032 181.91 34.7096 174.786 42.258L136.895 82.4516L160.472 107.419C167.596 114.968 167.596 126.774 160.472 134.323L146.543 149.097L87.2167 86.2581C84.885 83.7419 84.885 79.871 87.2167 77.3548V77.4194Z" fill="#165FAB"/>
<path d="M92.9145 118.452L19.8551 195.871L5.34511 180.516C-1.77959 172.968 -1.77959 161.161 5.34511 153.613L43.2362 113.419L19.6591 88.4516C12.5344 80.9032 12.5344 69.0968 19.6591 61.5482L33.584 46.7742L92.9145 109.613C95.2462 112.129 95.2462 116 92.9145 118.516V118.452Z" fill="#39BDEE"/>
<path d="M104.962 179.935C105.998 179.032 106.841 177.806 107.489 176.323V176.194C108.137 174.839 108.656 173.097 109.045 171.097C109.433 169.29 109.626 167.742 109.626 166.452C109.626 163.806 108.848 161.742 107.359 160.323C105.869 158.968 103.603 158.258 100.559 158.258H85.7269C83.8486 158.258 82.3595 158.645 81.2584 159.484C80.0926 160.323 79.314 161.742 78.8606 163.742L71.8655 196.71H77.9532L81.0622 182.323H96.1542C98.0973 182.323 99.7813 182.129 101.142 181.806C102.631 181.419 103.927 180.774 105.028 179.806L104.962 179.935ZM103.602 166.645C103.602 167.097 103.601 167.548 103.472 168.064C103.342 168.645 103.278 169.226 103.083 169.935C102.759 171.226 102.502 172.323 102.178 173.29C101.919 174.129 101.528 174.774 101.075 175.355C100.686 175.806 100.168 176.194 99.5851 176.387C98.8726 176.645 97.9684 176.774 96.8026 176.774H82.2922L84.8195 164.968C84.8195 164.968 84.949 164.387 85.0786 164.129C85.2081 164.129 85.4011 164.129 85.6602 164.129H100.171C102.178 164.129 102.824 164.581 102.954 164.71C103.342 165.097 103.539 165.742 103.539 166.71L103.602 166.645Z" fill="#1A60AB"/>
<path d="M133.074 161.419C132.88 160.839 132.62 160.323 132.296 159.871C131.907 159.29 131.453 158.839 130.87 158.516C130.222 158.129 129.509 158 128.732 158C127.177 158 125.884 158.516 124.848 159.613C124.071 160.452 123.292 161.419 122.644 162.452L100.819 196.774H107.748L114.225 186.516H132.426L134.563 196.774H140.652L133.527 162.968C133.397 162.452 133.269 161.935 133.074 161.419ZM127.957 164.903L131.259 180.839H117.853L127.827 165.032C127.827 165.032 127.892 164.968 127.957 164.903Z" fill="#1A60AB"/>
<path d="M172.582 158.387L156.389 178.001L148.681 158.71L148.552 158.387H142.204L152.505 183.742L149.719 196.775H155.744L158.397 184.323L179.318 159.226L180.033 158.387H172.582Z" fill="#1A60AB"/>
</g>
<defs>
<clipPath id="clip0_71_707">
<rect width="181.356" height="200" fill="white"/>
</clipPath>
</defs>
</svg>
