<svg width="364" height="200" viewBox="0 0 364 200" fill="none" xmlns="http://www.w3.org/2000/svg">
<path d="M360.831 133.241C360.831 129.517 359.666 126 357.474 123.379C355.281 120.69 352.404 119.241 349.32 119.241H312.386C311.907 119.241 310.469 118.896 309.235 117.586C308.139 116.413 307.933 115.034 307.865 114.206C307.865 113.999 307.865 113.793 307.865 113.586C307.865 113.241 307.865 112.827 307.865 112.413C307.865 111.861 307.728 109.931 309.167 108.414C310.126 107.379 311.291 107.033 311.977 106.964C323.557 106.964 335.204 106.964 346.784 106.964V98.4814H345.757C335.41 98.4814 325.063 98.4814 314.717 98.4814C313.483 98.4125 309.715 98.3442 306.152 100.896C304.096 102.344 302.931 104.07 302.315 105.173C299.094 113.311 301.013 121.586 306.22 125.379C307.111 126 308.001 126.482 308.892 126.758C310.057 127.241 311.222 127.518 312.318 127.518C313.483 127.656 314.512 127.518 315.197 127.518H349.32C350.485 127.518 351.649 128.069 352.472 129.172C353.362 130.207 353.842 131.724 353.842 133.241V134.138C353.842 135.379 353.636 137.724 351.992 138.966C351.101 139.655 350.005 139.792 349.32 139.792C345.826 139.93 320.061 139.93 286.691 139.792H286.213C282.307 139.792 278.196 139.792 274.016 139.792C272.989 139.585 272.028 139.034 271.206 138.275C270.109 137.241 269.493 135.793 269.493 134.276V100.344H260.859V134.276C260.859 138 262.367 141.517 265.177 144.207C267.917 146.828 271.618 148.343 275.455 148.343H285.116H287.309H326.639H349.389C352.472 148.343 355.349 146.828 357.542 144.138C359.666 141.517 360.9 138 360.9 134.276V133.379L360.831 133.241Z" fill="#3F4350"/>
<path d="M225.572 107.585C225.572 108.275 225.847 108.965 226.326 109.448C226.806 109.93 227.491 110.207 228.176 110.207H232.698C233.383 110.207 234.069 109.93 234.549 109.448C235.028 108.965 235.301 108.344 235.301 107.585V103.034C235.301 102.344 235.028 101.654 234.549 101.172C234.069 100.689 233.383 100.412 232.698 100.412H228.176C227.491 100.412 226.806 100.689 226.326 101.172C225.847 101.654 225.572 102.344 225.572 103.034V107.585Z" fill="#3F4350"/>
<path d="M241.469 110.207H245.991C246.676 110.207 247.361 109.93 247.841 109.448C248.321 108.965 248.595 108.275 248.595 107.585V103.034C248.595 102.344 248.321 101.654 247.841 101.172C247.361 100.689 246.676 100.412 245.991 100.412H241.469C240.784 100.412 240.099 100.689 239.619 101.172C239.14 101.654 238.865 102.344 238.865 103.034V107.585C238.865 108.275 239.14 108.965 239.619 109.448C240.099 109.93 240.784 110.207 241.469 110.207Z" fill="#3F4350"/>
<path d="M214.813 110.207H219.337C220.022 110.207 220.707 109.93 221.187 109.448C221.667 108.965 221.94 108.275 221.94 107.585V103.034C221.94 102.344 221.667 101.654 221.187 101.172C220.707 100.689 220.022 100.412 219.337 100.412H214.813C214.128 100.412 213.443 100.689 212.963 101.172C212.484 101.654 212.211 102.275 212.211 103.034V107.585C212.211 108.275 212.484 108.965 212.963 109.448C213.443 109.93 214.128 110.207 214.813 110.207Z" fill="#3F4350"/>
<path d="M250.581 135.448C250.581 134.137 250.581 131.033 250.581 122.895C250.581 122.274 250.581 121.654 250.581 121.033H242.153V134.207V134.826V136.757C242.153 137.24 242.086 137.654 241.88 138.137C241.743 138.619 241.468 138.966 241.126 139.31C240.989 139.448 240.852 139.586 240.715 139.655C240.509 139.793 240.304 139.93 240.099 139.999C239.756 140.137 239.276 140.274 238.865 140.274H233.794V137.999C233.794 137.585 233.794 137.171 233.794 136.757C233.794 132.205 233.794 127.585 233.794 122.964C233.794 122.343 233.794 121.723 233.794 121.033H225.435V136.688C225.435 137.171 225.366 137.585 225.161 138.068C224.955 138.55 224.75 138.896 224.408 139.241C224.133 139.585 223.79 139.792 223.31 139.999C223.036 140.137 222.694 140.205 222.42 140.205H216.87V131.792V131.171V120.895H208.373V137.379C208.373 137.379 208.305 137.724 208.236 137.862C208.099 138.345 207.826 138.689 207.483 139.034C207.209 139.379 206.866 139.585 206.386 139.792C206.043 139.93 205.564 140.068 205.153 140.068C185.761 140.068 166.302 140.137 146.91 140.205C146.157 140.068 144.718 139.792 143.621 138.758C143.621 138.758 143.484 138.619 143.484 138.55C142.799 137.792 142.32 136.827 142.115 135.723C142.115 135.241 142.115 134.895 142.115 134.688V127.999C142.115 126.481 142.663 124.965 143.691 123.862C144.033 123.448 144.512 123.171 144.923 122.895C145.677 122.55 146.362 122.345 146.842 122.276C153.831 122.276 160.821 122.276 167.81 122.276C167.81 119.379 167.878 116.483 167.947 113.655H167.535H159.245H151.432H145.815H145.746C145.541 113.655 145.334 113.724 145.129 113.793C143.758 113.862 142.457 114.137 141.223 114.689C139.784 115.31 138.415 116.206 137.318 117.378C136.222 118.481 135.33 119.861 134.714 121.379C134.44 121.999 134.302 122.619 134.302 122.688C134.165 123.24 134.029 123.792 133.961 124.205C133.961 124.688 133.961 125.172 133.961 125.655C133.824 126.414 133.755 127.171 133.755 127.93V130.62C133.755 132.206 133.755 133.861 133.755 135.586C133.755 136.551 133.755 137.447 133.892 138.412C133.892 138.826 134.028 139.378 134.233 139.93C134.233 139.93 134.44 140.621 134.645 141.241C135.262 142.759 136.153 144.137 137.25 145.171C138.415 146.343 139.715 147.241 141.154 147.861C142.524 148.413 143.896 148.688 145.404 148.757C145.541 148.757 145.746 148.826 145.883 148.826H145.952H147.665H159.176H167.466H205.221C206.797 148.826 208.304 148.482 209.674 147.861C211.045 147.241 212.347 146.343 213.512 145.171C213.855 144.757 214.267 144.344 214.541 143.861V148.688H216.938C223.311 148.688 228.655 148.688 232.698 148.688C236.466 148.688 239.002 148.688 240.03 148.688C240.441 148.688 241.812 148.69 243.388 148.207C244.347 147.862 245.237 147.447 246.059 146.826C247.019 146.137 247.704 145.378 247.978 145.033C249.006 143.792 249.485 142.55 249.759 141.861C249.759 141.861 250.718 139.723 250.649 136.619C250.649 136.619 250.649 136.55 250.649 136.481C250.649 136.343 250.649 136.137 250.649 135.448H250.581Z" fill="#3F4350"/>
<path d="M170.687 79.9296H175.209C175.894 79.9296 176.579 79.6551 177.059 79.1724C177.538 78.6896 177.813 78 177.813 77.3103V72.7572C177.813 72.0676 177.538 71.3779 177.059 70.8951C176.579 70.4124 175.894 70.1372 175.209 70.1372H170.687C170.002 70.1372 169.317 70.4124 168.837 70.8951C168.357 71.3779 168.084 72.0676 168.084 72.7572V77.3103C168.084 78 168.357 78.6896 168.837 79.1724C169.317 79.6551 170.002 79.9296 170.687 79.9296Z" fill="#3F4350"/>
<path d="M155.956 79.3779C156.435 79.7917 156.984 79.9993 157.532 79.9993H162.053C162.739 79.9993 163.424 79.7241 163.904 79.2413C164.383 78.7586 164.658 78.0689 164.658 77.3793V72.8262C164.658 72.1365 164.383 71.4469 163.904 70.9641C163.424 70.4813 162.739 70.2062 162.053 70.2062H157.532C156.984 70.2062 156.367 70.4124 155.887 70.8262L155.75 70.9641C155.271 71.4469 154.996 72.0676 154.996 72.8262V77.3793C154.996 78.0689 155.271 78.7586 155.75 79.2413L155.887 79.3779H155.956Z" fill="#3F4350"/>
<path d="M225.298 79.3779C225.777 79.7917 226.326 79.9993 226.874 79.9993H231.397C232.082 79.9993 232.767 79.7241 233.247 79.2413C233.726 78.7586 234 78.0689 234 77.3793V72.8262C234 72.1365 233.726 71.4469 233.247 70.9641C232.767 70.4813 232.082 70.2062 231.397 70.2062H226.874C226.326 70.2062 225.709 70.4124 225.229 70.8262L225.091 70.9641C224.612 71.4469 224.339 72.0676 224.339 72.8262V77.3793C224.339 78.0689 224.612 78.7586 225.091 79.2413L225.229 79.3779H225.298Z" fill="#3F4350"/>
<path d="M270.659 79.9297H288.473C290.049 79.9297 291.626 79.5862 293.065 79.0345C294.504 78.4828 295.804 77.5848 296.969 76.4124C298.066 75.309 298.958 73.9986 299.574 72.4814C300.191 71.1021 300.464 69.5855 300.464 67.9991V67.861V60.2068H346.784C348.429 60.2068 349.937 59.8611 351.376 59.3093C352.815 58.6886 354.115 57.8619 355.28 56.6895C356.445 55.5171 357.337 54.2062 357.885 52.758C358.502 51.3097 358.844 49.724 358.844 48.1378V34.8262C358.844 33.24 358.502 31.7233 357.885 30.2061C357.337 28.7578 356.445 27.447 355.28 26.2746C354.184 25.1711 352.815 24.2753 351.376 23.5857C349.937 22.965 348.36 22.6882 346.784 22.6882H328.97C327.394 22.6882 325.748 23.034 324.377 23.5857C322.939 24.2064 321.569 25.1022 320.473 26.2746C319.308 27.447 318.417 28.7578 317.869 30.2061C317.252 31.7233 316.91 33.24 316.91 34.8262V48.1378C316.91 49.1723 317.047 50.0682 317.253 50.8957C317.253 51.1716 317.388 51.4467 317.525 51.7915H300.464V50.4125C300.464 50.0677 300.602 49.7235 300.602 49.3097C300.602 48.8959 300.602 48.4826 300.602 48.0688V34.7572C300.602 33.171 300.26 31.5853 299.712 30.1371C299.095 28.6198 298.203 27.309 297.107 26.2055C295.942 25.0331 294.641 24.1373 293.202 23.5166C291.832 22.896 290.255 22.6193 288.611 22.6193H270.796C269.22 22.6193 267.643 22.9649 266.204 23.5166C264.765 24.1373 263.464 25.0331 262.299 26.2055C261.135 27.378 260.312 28.6888 259.695 30.1371C259.078 31.6543 258.736 33.171 258.736 34.7572V48.0688C258.736 49.655 259.078 51.2406 259.695 52.6889C260.243 54.1372 261.135 55.517 262.299 56.6204C263.464 57.7929 264.765 58.6886 266.204 59.2403C267.643 59.861 269.22 60.1377 270.796 60.1377H291.968V66.8962V67.792C291.968 68.2747 291.899 68.7572 291.693 69.1711C291.556 69.5849 291.283 70 290.94 70.3448C290.666 70.6897 290.256 70.8952 289.845 71.1021C289.365 71.309 288.953 71.3786 288.542 71.3786H258.942V79.8607H269.357C269.837 79.8607 270.248 79.9297 270.659 79.9297ZM326.571 32.2754C326.571 32.2754 327.255 31.7229 327.735 31.516C328.146 31.3781 328.559 31.24 329.038 31.24H346.853C347.332 31.24 347.813 31.3091 348.155 31.447C348.635 31.6539 349.046 31.9305 349.32 32.2064C349.663 32.5512 349.936 32.9644 350.073 33.3092C350.278 33.792 350.347 34.2744 350.347 34.6882V47.9997C350.347 48.4135 350.278 48.896 350.073 49.3787C349.867 49.7925 349.663 50.2057 349.32 50.5506C349.046 50.8954 348.634 51.1031 348.223 51.31C347.811 51.4479 347.401 51.5861 346.921 51.5861H329.107C328.147 51.5861 327.256 51.2402 326.639 50.5506C326.297 50.2747 326.092 49.8615 325.886 49.4477C325.681 49.034 325.612 48.5516 325.612 48.1378V34.8262C325.612 33.9297 325.954 33.0341 326.639 32.3444L326.571 32.2754ZM291.693 49.862C291.693 49.862 291.421 50.2747 291.146 50.5506C290.872 50.8954 290.46 51.1031 290.049 51.31C289.638 51.4479 289.227 51.5861 288.748 51.5861H270.933C270.453 51.5861 270.041 51.5168 269.63 51.31C269.219 51.1031 268.808 50.8954 268.466 50.5506C268.123 50.2747 267.917 49.8615 267.711 49.4477C267.506 49.034 267.438 48.5516 267.438 48.1378V34.8262C267.438 34.4124 267.506 33.93 267.711 33.4473C267.848 33.0335 268.123 32.6893 268.466 32.3444C269.082 31.7237 269.974 31.3089 270.864 31.3089H288.679C289.159 31.3089 289.638 31.3782 289.98 31.5851C290.46 31.792 290.872 32.0686 291.146 32.3444C291.832 33.0341 292.174 33.8607 292.174 34.8262C292.174 37.4469 292.174 39.7921 292.174 42.068C292.174 44.3438 292.105 46.8269 292.105 49.3097C292.037 49.5166 291.899 49.7241 291.762 49.931L291.693 49.862Z" fill="#3F4350"/>
<path d="M250.581 23.2405V22.6882H242.084V48.0688C242.084 48.4826 242.017 48.965 241.812 49.4478C241.606 49.8615 241.4 50.2748 241.057 50.6196C240.783 50.9644 240.373 51.1721 239.962 51.379C239.551 51.5169 239.138 51.6551 238.658 51.6551H217.212V34.4828C217.144 33.0345 216.869 31.6545 216.321 30.3442C215.773 28.8959 214.883 27.516 213.718 26.3436C212.553 25.1712 211.251 24.2754 209.812 23.6547C208.373 23.034 206.866 22.7573 205.221 22.7573H203.029H198.575C198.164 22.7573 197.753 22.7573 197.274 22.8263H196.314V22.9644C195.491 23.1023 194.67 23.3789 193.916 23.7238C192.477 24.3444 191.107 25.2402 190.01 26.4126C188.846 27.5851 188.022 28.9649 187.405 30.4132C186.789 31.9304 186.447 33.5162 186.447 35.1024V39.5862V47.8617C186.447 48.3444 186.378 48.8269 186.173 49.2407C186.036 49.6544 185.762 50.0677 185.351 50.4125C185.077 50.6884 184.665 50.9651 184.185 51.2409C183.774 51.4478 183.295 51.5171 182.815 51.5171H182.678C178.909 51.5171 168.22 51.5171 158.147 51.5171H157.669C152.667 51.5171 148.417 51.5171 146.156 51.5171C145.402 51.3102 144.444 50.9641 143.621 50.2055C143.621 50.2055 143.484 50.069 143.484 50C142.936 49.3793 142.457 48.5512 142.252 47.7236V38.1365C142.457 37.102 142.937 36.1371 143.691 35.3785C144.033 34.9647 144.512 34.6896 144.923 34.4138C145.677 34.0689 146.362 33.8614 146.842 33.7924C153.831 33.7924 160.821 33.7924 167.81 33.7924C167.81 30.8959 167.878 27.9993 167.947 25.1718H167.535H159.245H151.432H145.815H145.746C145.541 25.1718 145.334 25.2409 145.129 25.3098C143.758 25.3788 142.457 25.6538 141.223 26.2055C139.784 26.8262 138.415 27.7238 137.318 28.8962C136.222 29.9996 135.33 31.3778 134.714 32.8951C134.44 33.5158 134.302 34.1377 134.302 34.2066C134.165 34.7584 134.029 35.3099 133.961 35.7237C133.961 36.2064 133.961 36.6889 133.961 37.1717C133.824 37.9303 133.755 38.6895 133.755 39.4481V42.137C133.755 43.7232 133.755 45.3782 133.755 47.1023C133.755 47.4471 133.755 47.793 133.755 48.1378C133.755 48.1378 133.755 48.2069 133.687 48.2759C133.687 49.8621 134.029 51.4478 134.645 52.896C135.193 54.3443 136.085 55.7241 137.25 56.8275C138.415 58 139.715 58.8957 141.154 59.4474C142.593 60.0681 144.17 60.3449 145.746 60.3449C145.746 60.3449 145.815 60.3449 145.883 60.3449C146.98 60.3449 147.939 60.3449 148.83 60.3449H159.176H167.466C169.796 60.3449 172.057 60.3449 174.387 60.3449C176.032 60.3449 178.087 60.3449 180.896 60.3449H181.377C181.994 60.3449 182.541 60.3449 182.952 60.3449C184.528 60.3449 186.104 59.9991 187.68 59.3784C189.187 58.7577 190.559 57.8619 191.723 56.6895C192.888 55.5171 193.847 54.1372 194.395 52.6889C195.012 51.2407 195.286 49.655 195.286 48.0688V34.9643C195.286 34.9643 195.286 34.5516 195.286 34.3447C195.423 33.6551 195.765 33.1033 196.245 32.6206C196.519 32.3447 196.931 32.0681 197.411 31.8612C197.822 31.7233 198.233 31.5851 198.712 31.5851H205.29C205.769 31.5851 206.249 31.6543 206.592 31.8612C207.071 32.0681 207.482 32.3448 207.756 32.6896C208.441 33.3793 208.785 34.2749 208.785 35.2404C208.785 36.7577 208.785 38.0686 208.785 39.31C208.785 40.4135 208.785 41.5168 208.785 42.6202C208.785 44.8271 208.785 46.9649 208.785 49.3097C208.785 49.4476 208.785 49.586 208.785 49.7239V60.4813H238.796C240.371 60.4813 241.949 60.2062 243.388 59.5855C244.827 59.0337 246.127 58.1364 247.292 56.964C248.457 55.7915 249.349 54.4824 249.897 53.0341C250.514 51.5858 250.856 49.9985 250.856 48.4123C250.856 43.8606 250.856 39.378 250.856 34.8262C250.856 31.4469 250.856 27.034 250.856 23.5857L250.581 23.2405Z" fill="#3F4350"/>
<path d="M146.636 186.965L140.744 173.172H135.605V193.585H140.402V182.759L144.855 193.585H148.418L152.872 182.759V193.585H157.669V173.172H152.53L146.636 186.965Z" fill="#217FBE"/>
<path d="M185.898 174.205C184.323 173.309 182.541 172.826 180.691 172.826C178.841 172.826 177.059 173.309 175.483 174.205C173.907 175.102 172.606 176.343 171.715 177.93C170.756 179.516 170.344 181.309 170.344 183.309C170.344 185.309 170.825 187.103 171.715 188.689C172.675 190.275 173.907 191.517 175.483 192.413C177.059 193.31 178.841 193.792 180.691 193.792C182.541 193.792 184.323 193.31 185.898 192.413C187.474 191.517 188.776 190.275 189.667 188.689C190.558 187.103 191.038 185.309 191.038 183.309C191.038 181.309 190.558 179.516 189.667 177.93C188.776 176.343 187.474 175.102 185.898 174.205ZM186.104 183.309C186.104 184.55 185.899 185.654 185.42 186.55C184.94 187.447 184.323 188.137 183.501 188.62C182.679 189.103 181.719 189.379 180.622 189.379C179.526 189.379 178.567 189.103 177.745 188.62C176.922 188.137 176.306 187.447 175.826 186.55C175.346 185.654 175.141 184.55 175.141 183.309C175.141 182.068 175.346 181.034 175.826 180.068C176.306 179.172 176.922 178.481 177.745 177.999C178.567 177.516 179.526 177.31 180.622 177.31C181.719 177.31 182.679 177.585 183.501 177.999C184.323 178.481 184.94 179.172 185.42 180.068C185.899 180.965 186.104 182.068 186.104 183.309Z" fill="#217FBE"/>
<path d="M216.389 183.033C216.938 182.688 217.487 182.275 217.898 181.792C218.583 180.965 218.925 179.861 218.925 178.689C218.925 177.655 218.651 176.69 218.102 175.862C217.554 175.035 216.802 174.345 215.706 173.931C214.678 173.448 213.512 173.241 212.142 173.241H203.714V193.654H212.554C213.924 193.654 215.157 193.448 216.185 192.966C217.213 192.483 218.035 191.792 218.583 190.965C219.131 190.068 219.406 189.103 219.406 187.931C219.406 186.69 218.993 185.516 218.239 184.55C217.76 183.93 217.143 183.447 216.458 183.102L216.389 183.033ZM213.375 180.69C212.964 181.035 212.347 181.24 211.525 181.24H208.442V177.241H211.525C212.347 177.241 212.964 177.447 213.375 177.792C213.786 178.137 213.993 178.621 213.993 179.241C213.993 179.862 213.786 180.345 213.375 180.69ZM208.442 185.172H211.799C212.621 185.172 213.307 185.379 213.786 185.792C214.266 186.206 214.472 186.689 214.472 187.448C214.472 188.206 214.266 188.62 213.855 188.965C213.444 189.31 212.758 189.517 211.936 189.517H208.442V185.172Z" fill="#217FBE"/>
<path d="M236.877 173.172H232.081V193.585H236.877V173.172Z" fill="#217FBE"/>
<path d="M257.023 178.068C257.846 177.585 258.736 177.31 259.832 177.31C260.791 177.31 261.683 177.516 262.368 177.93C263.122 178.343 263.67 178.964 264.081 179.861L264.218 180.137H269.63L269.424 179.516C268.739 177.447 267.507 175.792 265.862 174.619C264.149 173.447 262.162 172.895 259.9 172.895C257.982 172.895 256.2 173.309 254.624 174.205C253.048 175.102 251.815 176.343 250.924 177.93C250.033 179.516 249.554 181.309 249.554 183.309C249.554 185.309 250.033 187.103 250.924 188.689C251.815 190.275 253.048 191.517 254.624 192.413C256.2 193.31 257.913 193.723 259.9 193.723C262.162 193.723 264.149 193.171 265.862 191.999C267.575 190.826 268.739 189.172 269.424 187.103L269.63 186.481H264.218L264.081 186.757C263.67 187.585 263.122 188.275 262.368 188.689C261.614 189.103 260.791 189.31 259.832 189.31C258.804 189.31 257.846 189.033 257.023 188.55C256.201 188.068 255.584 187.378 255.173 186.481C254.694 185.585 254.487 184.481 254.487 183.309C254.487 182.137 254.694 181.034 255.173 180.137C255.653 179.241 256.27 178.55 257.092 178.068H257.023Z" fill="#217FBE"/>
<path d="M288.336 173.103L281.005 193.585H286.076L287.377 189.861H294.435L295.737 193.585H300.807L293.475 173.103H288.267H288.336ZM293.065 185.792H288.747L290.94 179.516L293.133 185.792H293.065Z" fill="#217FBE"/>
<path d="M324.24 182.483C323.418 182.069 322.391 181.723 321.089 181.309C320.198 181.033 319.514 180.827 318.966 180.551C318.486 180.344 318.143 180.137 317.869 179.792C317.595 179.516 317.457 179.241 317.457 178.827C317.457 178.206 317.595 177.793 318.006 177.448C318.348 177.103 318.896 176.965 319.513 176.965C320.267 176.965 320.884 177.172 321.295 177.517C321.706 177.862 321.912 178.275 321.981 178.827V179.241H327.188V178.758C326.983 176.896 326.228 175.378 324.926 174.343C323.624 173.309 321.843 172.757 319.787 172.757C318.417 172.757 317.115 173.034 316.019 173.517C314.922 173.999 314.032 174.759 313.416 175.655C312.799 176.552 312.455 177.655 312.455 178.965C312.455 180.276 312.799 181.379 313.416 182.206C314.032 182.965 314.786 183.585 315.608 183.999C316.43 184.344 317.458 184.757 318.76 185.102C319.651 185.378 320.403 185.585 320.883 185.792C321.362 185.999 321.775 186.274 322.049 186.55C322.323 186.826 322.46 187.172 322.46 187.655C322.46 188.207 322.255 188.689 321.844 189.034C321.432 189.379 320.815 189.586 319.993 189.586C319.171 189.586 318.622 189.379 318.211 189.034C317.8 188.62 317.525 188.137 317.525 187.448V187.034H312.455V187.517C312.455 188.827 312.867 189.93 313.553 190.896C314.238 191.861 315.128 192.552 316.293 193.034C317.458 193.517 318.692 193.792 320.13 193.792C321.638 193.792 322.94 193.517 324.036 192.965C325.132 192.414 326.023 191.654 326.571 190.62C327.119 189.654 327.462 188.62 327.462 187.448C327.462 186.137 327.119 185.034 326.502 184.207C325.885 183.379 325.131 182.828 324.309 182.414L324.24 182.483Z" fill="#217FBE"/>
<path d="M352.678 173.172V181.171H345.277V173.172H340.48V193.585H345.277V185.31H352.678V193.585H357.474V173.172H352.678Z" fill="#217FBE"/>
<path fill-rule="evenodd" clip-rule="evenodd" d="M36.5922 103.448L58.5886 90.758L36.5922 78.0676V103.448Z" fill="#4EAF5D"/>
<path fill-rule="evenodd" clip-rule="evenodd" d="M48.8575 78.8958L55.641 82.8262L62.4244 86.6883V78.8958V71.0331L55.641 75.0338L48.8575 78.8958Z" fill="#219387"/>
<path d="M41.047 111.793V147.171L56.2583 138.343L71.538 129.447L56.3269 120.621L41.047 111.793Z" fill="#4EAF5D"/>
<path d="M30.9059 70.7572V67.93L43.7183 75.3786L51.9404 70.6897L62.287 64.6198V25.793H62.4242V25.5859L70.7834 30.4132L102.303 12.1363V9.10221C102.303 4.06775 98.2607 0 93.2587 0H9.04658C4.04461 0 0.00311279 4.06775 0.00311279 9.10221V184.483C0.00311279 189.517 4.04461 193.585 9.04658 193.585H93.2587C98.2607 193.585 102.303 189.517 102.303 184.483V182.275L72.0866 164.758L45.5685 149.31C42.211 150.896 38.8536 152.481 35.4276 153.999C35.3591 148.757 35.2903 143.516 35.1532 138.274L21.1748 130.137L6.30645 121.586L30.8373 107.309V70.7572H30.9059ZM34.6748 9.65448H67.769C69.071 9.65448 70.168 10.7586 70.168 12.069C70.168 13.3793 69.071 14.4817 67.769 14.4817H34.6748C33.373 14.4817 32.2759 13.3793 32.2759 12.069C32.2759 10.7586 33.373 9.65448 34.6748 9.65448Z" fill="#2551A1"/>
<path fill-rule="evenodd" clip-rule="evenodd" d="M77.5 86.2745L42.9658 106.344L77.5 126.412V86.2745Z" fill="#E86724"/>
<path fill-rule="evenodd" clip-rule="evenodd" d="M68.1122 35.3094V78.551L105.319 56.8966L68.1122 35.3094Z" fill="#009448"/>
<path d="M17.8862 121.655L35.2907 131.723V111.517L17.8862 121.655Z" fill="#6DAC44"/>
<path d="M52.5579 146.826L100.591 174.688V118.897L52.5579 146.826Z" fill="#219387"/>
<path d="M118.544 101.999L83.1179 122.55V81.4469L118.544 101.999Z" fill="#217FBE"/>
<path d="M76.6085 33.7924L100.934 47.9307V19.7231L76.6085 33.7924Z" fill="#219387"/>
<path fill-rule="evenodd" clip-rule="evenodd" d="M101.824 86.9648L83.8038 76.5511L101.824 66.1368V86.9648Z" fill="#53AB47"/>
</svg>
