<svg width="206" height="200" viewBox="0 0 206 200" fill="none" xmlns="http://www.w3.org/2000/svg">
<g clip-path="url(#clip0_71_692)">
<path d="M166.014 199.273H36.7804C16.4834 199.273 0.00292969 182.727 0.00292969 162.424V36.7876C0.00292969 16.4845 16.4834 0 36.7804 0H166.014C186.311 0 202.792 16.4845 202.792 36.7876V162.424C202.792 182.727 186.311 199.273 166.014 199.273ZM36.7198 3.57555C18.4221 3.57555 3.51752 18.4845 3.51752 36.7876V162.424C3.51752 180.727 18.4221 195.636 36.7198 195.636H165.954C184.251 195.636 199.156 180.727 199.156 162.424V36.7876C199.156 18.4845 184.251 3.57555 165.954 3.57555H36.7198Z" fill="#9B9A9F"/>
<path d="M148.564 138.727L146.443 140.06C144.868 145.636 139.658 149.878 133.72 149.878H70.2236C62.8924 149.878 56.9538 143.757 56.9538 136.605L52.4704 112.848L31.3251 125.272L30.3562 136.605C30.3562 158.545 48.2908 176.484 70.2236 176.484H133.72C155.653 176.484 173.586 158.545 173.586 136.605V123.211L148.625 138.727H148.564ZM133.72 20.7268H70.2236C48.2908 20.7268 30.3562 38.666 30.3562 60.6054V75.514L56.8932 90.1206V60.6054C56.8932 53.4538 62.8924 47.333 70.163 47.333H133.659C140.021 47.333 145.595 52.2417 146.685 58.3629L148.018 59.0295L173.525 72.8479V60.6054C173.525 38.666 155.592 20.7268 133.659 20.7268H133.72Z" fill="#3582A0"/>
<path d="M199.215 100.423L172.678 117.09L145.171 131.878L141.717 133.636L142.99 67.5752L199.215 100.423Z" fill="#3E4E86"/>
<path d="M138.143 100.606L79.3118 134.909V65.9388L138.143 100.606Z" fill="#3E4E86"/>
<path d="M14.4222 66.1812L30.3577 75.4533L31.3266 125.272L14.4222 134.908V66.1812Z" fill="#3E4E86"/>
<path d="M72.7683 100.06L57.4996 109.575V91.5752L72.7683 100.06Z" fill="#3E4E86"/>
</g>
<defs>
<clipPath id="clip0_71_692">
<rect width="206" height="200" fill="white"/>
</clipPath>
</defs>
</svg>
