<svg width="608" height="200" viewBox="0 0 608 200" fill="none" xmlns="http://www.w3.org/2000/svg">
<g clip-path="url(#clip0_71_738)">
<path fill-rule="evenodd" clip-rule="evenodd" d="M601.199 36.7207L594.32 82.4808C594.32 82.4808 590.799 95.0392 581.279 95.0392H545.439C539.839 95.0392 534.88 90.9592 534.08 85.4392C533.84 83.6792 533.68 81.5992 533.68 79.1992C533.68 63.5992 542.799 14.1602 542.799 14.1602H536.08L536.24 9.1992H478.24L478.721 0.800781H564.08L554.16 68.3203L553.84 71.7598C553.44 76.2398 556.959 80.08 561.439 80.08H570.641C574.561 79.9201 577.76 76.9591 578.08 73.1191L581.359 36.8008H601.039L601.199 36.7207Z" fill="#F59F1C"/>
<path fill-rule="evenodd" clip-rule="evenodd" d="M585.68 6.56055L583.84 23.039H603.76L605.84 6.56055H585.68Z" fill="#F59F1C"/>
<path fill-rule="evenodd" clip-rule="evenodd" d="M496.24 50.0801L498.4 36.6406H524.24L517.199 82.8008C516.159 89.9208 509.999 95.1192 502.799 95.1192H420.481C416.241 95.1192 412.959 91.5192 413.359 87.2792L416.799 49.8398L410.959 49.3593L413.519 36.6406H438.879L433.6 70.1601C432.96 74.4801 436.161 78.3204 440.481 78.4004L493.279 79.5195C497.039 79.5195 500.241 76.7189 500.561 72.8789L502.32 50.0801H496.08H496.24Z" fill="#F59F1C"/>
<path d="M470.16 107.279L468.641 124.16H448.32L448.959 122.879L397.6 122.959V119.279L449.199 119.039L450.24 107.279H470.16Z" fill="#F59F1C"/>
<path d="M302.24 3.03906C305.92 6.47906 307.599 11.5206 306.879 16.5606C305.359 28.0006 301.681 54.72 298.721 76C297.041 88.08 295.599 98.3192 294.879 103.199C294.719 104.079 294.56 104.88 294.4 105.68C291.44 119.52 283.039 121.76 283.039 121.76H272.481L273.76 107.76H254.32L253.439 121.76H152.641L154.24 107.76H121.279L118.08 121.76H90.16C84.08 121.76 79.3599 116.481 79.9199 110.481L80.4 105.68L83.1192 77.6797H18.4004C17.0404 77.6797 15.8389 77.1202 14.8789 76.2402C13.9989 75.3602 13.4395 74.0807 13.4395 72.7207C13.4395 70.0007 15.6804 67.7598 18.4004 67.7598H62.7207L62.959 61.1191H90.9592L88.7992 77.4394L88.4 80.4C87.36 94.88 96.7992 95.3592 96.7992 95.3592H181.279C195.919 91.1192 201.199 83.3608 202.879 76.6406C204.479 70.0806 202.641 64.5602 202.641 64.1602C201.361 55.7602 174.96 49.4398 185.6 37.7598C196.24 26.0798 209.199 39.2793 209.199 39.2793L222.641 26.8789C207.681 14.0789 193.841 16.2407 184.481 20.7207C175.921 24.8007 169.441 32.3995 166.641 41.5195C162.321 55.3595 171.68 58.8 180 68C183.84 72.24 184.001 75.0408 182.561 76.8008C180.241 79.8408 173.6 80.16 173.6 80.16C173.6 80.16 114 80.64 109.68 80.16C107.92 79.9202 107.199 78.7194 106.799 77.3594C106.319 75.2794 106.799 72.8008 106.799 72.8008L111.119 47.4394H73.8399C71.7599 47.4394 70.1602 45.7598 70.1602 43.7598V42.2402C70.1602 39.8402 72.0805 37.9199 74.4805 37.9199H89.0392L92.24 16.2402H43.7598C39.4398 16.2402 35.6794 12.9606 35.3594 8.64064C35.0394 3.92062 38.7995 0 43.4395 0C71.4395 0 165.999 0.16039 231.519 0.40039L221.119 76.5606L220.24 82.9592C219.36 89.5192 224.479 95.3592 231.119 95.3592H269.279C274.799 95.3592 279.44 91.28 280.16 85.76L281.359 76.0801L286.32 36.7207H259.119L257.039 48.8789L265.76 49.4394L262.959 75.1992C262.959 75.1992 262.881 75.8402 262.721 76.1602C262.081 78.0802 260.24 79.5194 258.08 79.4394H245.84C243.84 79.2794 242.079 78.0002 241.439 76.2402C241.119 75.5202 241.039 74.7198 241.119 73.8398L251.119 0.320313C277.599 0.400313 296.079 0.560625 297.519 0.640625C299.119 0.720625 300.64 1.6789 302 2.8789L302.24 3.03906Z" fill="#2D84C6"/>
<path d="M58.2402 21.5996H4.16016C1.86265 21.5996 0 23.4453 0 25.7207C0 27.9961 1.86265 29.8398 4.16016 29.8398H58.2402C60.5378 29.8398 62.4004 27.9961 62.4004 25.7207C62.4004 23.4453 60.5378 21.5996 58.2402 21.5996Z" fill="#2D84C6"/>
<path fill-rule="evenodd" clip-rule="evenodd" d="M106.879 77.3593L182.641 76.8008C180.321 79.8408 173.68 80.16 173.68 80.16C173.68 80.16 114.08 80.64 109.76 80.16C108 79.9201 107.279 78.7193 106.879 77.3593Z" fill="#6FBAE8"/>
<path fill-rule="evenodd" clip-rule="evenodd" d="M262.879 76.3203C262.239 78.2403 260.4 79.6796 258.24 79.5996H246C244 79.4396 242.24 78.1604 241.6 76.4004L262.879 76.2402V76.3203Z" fill="#6FBAE8"/>
<path fill-rule="evenodd" clip-rule="evenodd" d="M298.721 76.0801C297.041 88.16 295.599 98.3992 294.879 103.279C294.719 104.159 294.56 104.96 294.4 105.76H80.3999L83.1191 77.7598H63.8397L88.8791 77.5996L88.4807 80.5608C87.4407 95.0408 96.8791 95.5192 96.8791 95.5192H181.359C195.999 91.2792 201.279 83.5208 202.959 76.8008L221.359 76.6406L220.481 83.0392C219.601 89.5992 224.719 95.4392 231.359 95.4392H269.519C275.039 95.4392 279.68 91.36 280.4 85.84L281.6 76.1602H298.799L298.721 76.0801Z" fill="#6FBAE8"/>
<path d="M305.359 0.800781H393.199C399.359 0.800781 404.079 6.24031 403.359 12.3203L391.119 107.279C390.079 115.119 383.439 121.039 375.439 121.039H288.561C288.561 121.039 300.721 116.48 300.721 104.32L311.92 12.3203C311.92 12.3203 313.919 5.12078 305.359 0.800781Z" fill="#767777"/>
<path d="M378.879 47.9199H357.439L355.68 73.039H335.439L373.039 12.3203H350.561L313.68 71.8398L310.4 89.76H351.119L349.84 105.76H371.519L372.24 90.32H380.641L384.24 72.4004L376.08 71.8398L378.879 47.9199Z" fill="white"/>
<path d="M118.481 147.039H121.279L138.959 175.359L141.279 179.199C142.399 174.639 143.039 171.999 143.199 171.279L149.92 146.959H153.199L143.039 182.801H140.32L124.4 157.439C122.24 153.999 120.88 151.761 120.24 150.561L119.519 153.6L118.4 158.4L111.68 182.721H108.4L118.32 146.879L118.481 147.039Z" fill="#5E5E5D"/>
<path d="M167.84 182.801L194.561 146.959H196.481L205.76 182.801H202.641L199.199 170.08H180.799L171.279 182.801H167.84ZM198.561 168L194.4 151.279C193.44 152.959 191.44 155.84 188.4 159.92L182.24 168H198.641H198.561Z" fill="#5E5E5D"/>
<path d="M239.68 147.039H249.119C254.079 147.039 257.999 147.759 260.959 149.119C263.919 150.479 265.439 152.639 265.439 155.519C265.439 157.839 264.4 159.839 262.4 161.519C260.4 163.119 257.68 164.161 254.32 164.561C257.2 164.881 259.439 165.599 261.119 166.879C262.799 168.239 263.68 169.84 263.68 171.92C263.68 173.28 263.281 174.56 262.561 175.84C261.841 177.12 260.719 178.239 259.199 179.279C257.679 180.319 256 181.04 253.92 181.6C251.92 182.16 250.08 182.481 248.4 182.641C246.72 182.801 244.399 182.879 241.359 182.879H229.6L239.68 147.039ZM241.92 180.721C246.08 180.721 249.52 180.32 252.24 179.6C254.88 178.88 256.88 177.84 258.24 176.4C259.52 175.04 260.24 173.44 260.24 171.76C260.24 170.08 259.36 168.559 257.6 167.359C255.84 166.159 253.28 165.6 249.84 165.6H237.6L233.6 180.641H242L241.92 180.721ZM249.359 163.519C251.039 163.519 252.959 163.201 255.119 162.481C257.279 161.761 258.96 160.8 260.16 159.68C261.36 158.56 262 157.119 262 155.519C262 153.599 260.801 152.079 258.481 150.879C256.161 149.679 253.119 149.119 249.359 149.119H242.24L238.4 163.439H249.359V163.519Z" fill="#5E5E5D"/>
<path d="M437.519 147.039H449.199C453.679 147.039 457.2 147.759 459.92 149.279C462.56 150.799 463.92 152.799 463.92 155.279C463.92 158.959 462 161.92 458.08 164C454.16 166.16 448.8 167.279 441.92 167.279C439.76 167.279 437.519 167.199 435.119 167.039L430.799 182.801H427.519L437.519 146.959V147.039ZM460.481 155.6C460.481 153.6 459.439 152.079 457.359 150.959C455.279 149.839 452.479 149.199 449.039 149.199H440.08L435.84 164.879C437.44 165.119 439.279 165.279 441.519 165.279C447.359 165.279 451.999 164.401 455.359 162.721C458.799 160.961 460.481 158.64 460.481 155.68V155.6Z" fill="#5E5E5D"/>
<path d="M475.199 182.801L501.92 146.959H503.84L513.119 182.801H510L506.561 170.08H488.16L478.641 182.801H475.199ZM505.92 168L501.76 151.279C500.8 152.959 498.8 155.84 495.76 159.92L489.6 168H506H505.92Z" fill="#5E5E5D"/>
<path d="M543.68 182.801L547.84 168.24L536.879 147.039H540.16L549.68 165.92L566.799 147.039H570.561L551.039 168.24L546.879 182.801H543.68Z" fill="#5E5E5D"/>
<path d="M349.199 171.92H330.959L331.439 170.16L352.16 146.879H355.359L334.799 169.84V170H340.721H349.76L352.4 160.561H355.359L352.641 170H359.68L359.279 171.92H352.24L349.199 182.32H346.4L349.279 171.92H349.199Z" fill="#5E5E5D"/>
<path d="M347.199 139.519C360.959 139.519 372.16 150.721 372.16 164.481C372.16 178.241 360.959 189.439 347.199 189.439C333.439 189.439 322.24 178.241 322.24 164.481C322.24 150.721 333.439 139.519 347.199 139.519ZM347.199 136.561C331.759 136.561 319.279 149.041 319.279 164.481C319.279 179.921 331.759 192.4 347.199 192.4C362.639 192.4 375.119 179.921 375.119 164.481C375.119 149.041 362.639 136.561 347.199 136.561Z" fill="#5E5E5D"/>
</g>
<defs>
<clipPath id="clip0_71_738">
<rect width="608" height="200" fill="white"/>
</clipPath>
</defs>
</svg>
