<svg width="228" height="200" viewBox="0 0 228 200" fill="none" xmlns="http://www.w3.org/2000/svg">
<g clip-path="url(#clip0_71_863)">
<path d="M135.971 53.3333L130.524 117.931L161.564 100.92L164.091 70.8374C165.108 58.8834 172.458 47.8161 183.384 41.8391L196.771 34.5156L199.691 0L155.264 24.335C144.338 30.312 136.988 41.3793 135.971 53.3333Z" fill="url(#paint0_linear_71_863)"/>
<path d="M164.091 70.8703L161.564 100.952L192.604 83.9409L196.771 34.5485L183.384 41.8719C172.458 47.849 165.108 58.9163 164.091 70.8703Z" fill="url(#paint1_linear_71_863)"/>
<path d="M227.778 17.5369L215.244 165.977C214.948 169.458 212.947 172.578 209.863 174.253L164.517 199.08C159.464 201.839 153.361 197.865 153.853 192.118L161.564 100.92L182.957 89.2282C188.995 85.9113 192.965 79.8029 193.555 72.9392L196.804 34.5156L227.811 17.5041L227.778 17.5369Z" fill="url(#paint2_linear_71_863)"/>
<path d="M56.3703 85.6486C56.1078 88.7685 53.2204 91.5599 50.1361 91.757C47.0519 91.954 44.6566 89.4581 44.9191 86.4039C45.1816 83.3497 47.9706 80.4926 51.0877 80.2956C54.2048 80.0985 56.6328 82.5287 56.3703 85.6486Z" fill="url(#paint3_linear_71_863)"/>
<path d="M64.0483 92.4794L62.5717 110.443C61.6202 121.839 52.4658 130.936 41.1458 131.691H40.6208C29.3008 132.479 21.5901 124.499 22.5417 113.103H22.476C22.9026 107.915 25.0681 103.218 28.3165 99.5402L35.4694 105.254C33.6976 107.126 32.582 109.589 32.3523 112.414C31.8601 118.424 35.535 122.167 41.4083 121.773H41.9333C47.8065 121.346 52.1377 117.044 52.6627 111.067L53.6798 98.8505L64.0483 92.4466V92.4794Z" fill="url(#paint4_linear_71_863)"/>
<path d="M73.5636 71.1001C70.7746 72.578 68.9372 75.4023 68.6747 78.5221L67.8544 88.4072L72.3167 86.0427L69.3965 121.609C69.2653 123.054 70.7746 123.809 72.0542 122.956L78.6166 118.588C79.1744 118.227 79.5025 117.635 79.5681 116.979L83.8008 65.5829L73.5636 71.0344V71.1001Z" fill="url(#paint5_linear_71_863)"/>
<path d="M104.767 76.1576C113.43 75.5665 119.336 81.7734 118.647 90.509L116.908 111.79C116.153 121.051 105.85 127.521 88.6241 128.67L89.5756 118.686C100.994 117.931 106.933 114.121 107.294 109.951V109.425L100.863 109.852C92.7256 110.312 86.7539 103.875 87.4429 95.468L87.6726 92.5451C88.3944 83.8095 95.4161 76.7488 104.144 76.1576H104.8V76.1248L104.767 76.1576ZM108.803 91.1658C109.066 87.8489 107.13 85.8456 103.947 86.0427H103.291C100.043 86.3054 97.7457 88.6043 97.4832 91.9212L97.2535 94.844C96.9911 97.8325 99.1238 100.164 101.782 100L108.114 99.5731L108.803 91.1658Z" fill="url(#paint6_linear_71_863)"/>
<path d="M47.3471 136.026C38.7833 139.409 32.0242 144.138 31.3023 152.611L30.2851 164.959C29.8258 170.509 25.0025 175.271 19.4901 175.632H19.0308C13.0919 176.059 9.417 172.282 9.90917 166.305C10.1388 163.415 11.2544 160.952 13.0263 159.113L5.87335 153.399C2.59219 157.077 0.459442 161.741 0.0328921 166.962H0.0985152C-0.820208 178.358 6.92332 186.305 18.2433 185.55H18.7027C29.6617 184.795 39.3083 175.238 40.1942 164.204L41.0145 154.384C41.2442 151.461 43.4098 148.637 46.3956 147.488L50.333 145.944L49.4471 156.617C49.2502 159.146 51.5798 160.755 54.0407 159.704L56.6984 158.588C58.175 157.964 59.2249 156.552 59.3562 155.008L61.3905 130.476L47.38 135.993L47.3471 136.026Z" fill="url(#paint7_linear_71_863)"/>
<path d="M58.7656 168.046C58.5031 171.166 55.5829 173.957 52.5314 174.154C49.4799 174.351 47.0519 171.855 47.3144 168.801C47.5769 165.747 50.4315 162.89 53.4829 162.693C56.5344 162.496 59.0281 164.926 58.7656 168.046Z" fill="url(#paint8_linear_71_863)"/>
<path d="M57.65 181.314C57.3875 184.433 54.5329 187.225 51.4158 187.422C48.2987 187.619 45.9363 185.123 46.1988 182.069C46.4613 179.015 49.2502 176.158 52.3673 175.961C55.4844 175.764 57.9125 178.194 57.65 181.314Z" fill="url(#paint9_linear_71_863)"/>
<path d="M99.1894 142.759L109.427 138.128L107.753 158.522C107.327 163.612 103.127 167.685 98.1723 168.046L74.2855 169.655C69.2981 169.984 65.6889 166.404 66.0826 161.346L68.7403 129.228C68.806 128.604 69.1669 127.98 69.7247 127.619L76.3198 123.251C77.5994 122.43 79.076 123.186 78.9775 124.598L76.3198 157.011C76.1557 159.048 77.5338 159.573 78.4854 159.507L95.6458 158.358C96.5645 158.292 98.041 157.537 98.2051 155.534L99.2551 142.759H99.1894Z" fill="url(#paint10_linear_71_863)"/>
<path d="M91.0193 172.184C94.1364 171.987 96.4988 174.351 96.2363 177.537C95.9738 180.722 93.1848 183.448 90.0677 183.645C86.9506 183.842 84.5226 181.346 84.7851 178.292C85.0476 175.238 87.9022 172.381 91.0193 172.184Z" fill="url(#paint11_linear_71_863)"/>
</g>
<defs>
<linearGradient id="paint0_linear_71_863" x1="353.741" y1="-151.002" x2="82.2933" y2="143.306" gradientUnits="userSpaceOnUse">
<stop stop-color="#026795"/>
<stop offset="1" stop-color="#49C4EA"/>
</linearGradient>
<linearGradient id="paint1_linear_71_863" x1="198.313" y1="94.1872" x2="171.836" y2="57.6907" gradientUnits="userSpaceOnUse">
<stop stop-color="#026795"/>
<stop offset="1" stop-color="#184A8C"/>
</linearGradient>
<linearGradient id="paint2_linear_71_863" x1="290.973" y1="214.253" x2="69.1526" y2="-23.8099" gradientUnits="userSpaceOnUse">
<stop stop-color="#1B87B2"/>
<stop offset="1" stop-color="#026795"/>
</linearGradient>
<linearGradient id="paint3_linear_71_863" x1="364.996" y1="-115.567" x2="-33.7722" y2="139.711" gradientUnits="userSpaceOnUse">
<stop stop-color="#026795"/>
<stop offset="1" stop-color="#49C4EA"/>
</linearGradient>
<linearGradient id="paint4_linear_71_863" x1="374.544" y1="-100.657" x2="-24.224" y2="154.621" gradientUnits="userSpaceOnUse">
<stop stop-color="#026795"/>
<stop offset="1" stop-color="#49C4EA"/>
</linearGradient>
<linearGradient id="paint5_linear_71_863" x1="376.447" y1="-97.7012" x2="-22.321" y2="157.576" gradientUnits="userSpaceOnUse">
<stop stop-color="#026795"/>
<stop offset="1" stop-color="#49C4EA"/>
</linearGradient>
<linearGradient id="paint6_linear_71_863" x1="386.914" y1="-81.3465" x2="-11.8541" y2="173.931" gradientUnits="userSpaceOnUse">
<stop stop-color="#026795"/>
<stop offset="1" stop-color="#49C4EA"/>
</linearGradient>
<linearGradient id="paint7_linear_71_863" x1="58.7328" y1="141.576" x2="249.498" y2="20.9413" gradientUnits="userSpaceOnUse">
<stop stop-color="#026795"/>
<stop offset="1" stop-color="#184A8C"/>
</linearGradient>
<linearGradient id="paint8_linear_71_863" x1="69.2325" y1="158.161" x2="259.997" y2="37.4931" gradientUnits="userSpaceOnUse">
<stop stop-color="#026795"/>
<stop offset="1" stop-color="#184A8C"/>
</linearGradient>
<linearGradient id="paint9_linear_71_863" x1="74.9089" y1="167.126" x2="265.674" y2="46.4914" gradientUnits="userSpaceOnUse">
<stop stop-color="#026795"/>
<stop offset="1" stop-color="#184A8C"/>
</linearGradient>
<linearGradient id="paint10_linear_71_863" x1="69.0356" y1="157.865" x2="259.8" y2="37.2304" gradientUnits="userSpaceOnUse">
<stop stop-color="#026795"/>
<stop offset="1" stop-color="#184A8C"/>
</linearGradient>
<linearGradient id="paint11_linear_71_863" x1="84.2601" y1="181.905" x2="275.025" y2="61.2698" gradientUnits="userSpaceOnUse">
<stop stop-color="#026795"/>
<stop offset="1" stop-color="#184A8C"/>
</linearGradient>
<clipPath id="clip0_71_863">
<rect width="227.778" height="200" fill="white"/>
</clipPath>
</defs>
</svg>
