<svg width="495" height="200" viewBox="0 0 495 200" fill="none" xmlns="http://www.w3.org/2000/svg">
<g clip-path="url(#clip0_71_785)">
<path d="M492.332 116.787C487.269 143.345 471.332 166.096 448.828 180.728C439.107 187.047 430.228 192.737 418.952 196.213C408.492 199.433 397.761 200.63 386.694 199.685C383.189 199.384 379.697 198.893 376.198 198.098C357.252 193.787 339.586 183.27 327.002 168.326C321.389 161.655 315.674 154.955 311.247 147.328C295.416 120.034 293.707 86.3051 306.778 57.5367C321.946 24.1559 355.029 1.60046 391.863 0.086159C455.18 -2.5183 504.23 54.4054 492.332 116.787Z" fill="url(#paint0_radial_71_785)"/>
<path d="M437.904 120.355V122.92C437.904 124.686 435.522 127.857 434.084 128.868C429.33 132.195 425.393 130.051 420.692 128.218C410.427 124.212 400.335 119.716 390.064 115.72L394.861 144.942C395.541 149.985 390.849 153.531 386.144 151.675L360.344 138.57L360.095 138.818C361.202 145.098 361.285 151.927 362.457 158.146C364.482 168.876 378.212 173.236 386.257 165.97L422.183 130.031C423.74 130.336 425.181 131.22 426.778 131.403C432.653 132.072 438.057 128.155 438.408 122.101C438.438 121.578 438.613 120.322 437.904 120.355Z" fill="white"/>
<path d="M458.099 78.0576L435.754 55.7872L437.908 114.228L457.93 94.2742C461.879 89.5524 461.889 82.8689 458.099 78.0576Z" fill="white"/>
<path d="M361.758 127.887C367.706 130.419 373.686 132.884 379.634 135.422C377.387 124.633 374.256 114.036 372.185 103.218C372.01 98.0152 377.112 94.2411 382.059 95.6626L415.57 106.839L403.97 47.5927C403.456 34.1231 419.476 26.4489 429.797 35.1735C430.049 35.3856 431.732 37.2975 431.944 37.0788C432.229 36.7872 430.165 34.8521 429.873 34.6003C417.809 24.1493 399.848 34.809 402.525 50.8599C402.962 53.4909 403.463 56.145 404.009 58.8158L341.305 121.508C339.805 122.691 337.595 124.361 335.683 123.006C333.324 121.333 335.086 118.447 336.432 116.8C339.712 112.787 343.661 108.887 347.107 104.96C347.488 104.526 347.892 104.076 348.267 103.635C348.376 103.506 348.697 103.304 348.429 103.138C346.965 104.43 345.739 105.978 344.377 107.363C341.067 110.729 336.849 114.318 333.86 117.87C330.282 122.118 330.478 128.473 333.86 132.774L351.235 150.164C352.047 150.661 352.991 150.065 352.803 149.104C351.944 144.77 350.868 140.462 350.049 136.118C349.565 133.54 348.35 129.66 349.642 127.363C352.471 122.34 358.061 126.313 361.758 127.887Z" fill="white"/>
<path opacity="0.16" d="M404.009 58.8157L415.57 106.839L398.35 64.4753L404.009 58.8157Z" fill="url(#paint1_linear_71_785)" style="mix-blend-mode:multiply"/>
<path opacity="0.64" d="M415.569 106.839L416.709 112.346C418.064 118.904 411.554 124.318 405.355 121.79L389.553 115.345L398.867 101.355L415.569 106.836V106.839Z" fill="url(#paint2_radial_71_785)" style="mix-blend-mode:multiply"/>
<path opacity="0.48" d="M390.064 115.72L381.84 112.224C378.298 110.716 374.544 113.881 375.429 117.628L379.63 135.422L393.132 134.421L390.06 115.72H390.064Z" fill="url(#paint3_radial_71_785)" style="mix-blend-mode:multiply"/>
<path opacity="0.48" d="M381.045 141.376L379.634 135.422L360.923 127.509V138.825L375.101 146.052C378.265 147.666 381.867 144.833 381.048 141.376H381.045Z" fill="url(#paint4_radial_71_785)" style="mix-blend-mode:multiply"/>
<path opacity="0.48" d="M360.095 138.404L354.993 135.803C352.743 134.657 350.168 136.628 350.692 139.1L352.806 149.107L361.626 152.278L360.098 138.408L360.095 138.404Z" fill="url(#paint5_radial_71_785)" style="mix-blend-mode:multiply"/>
<path d="M20.2343 94.5558H52.0551V80.6057C52.0849 78.992 51.8894 77.3783 51.4753 75.8176C51.1042 74.5021 50.468 73.2761 49.6066 72.2125C48.7451 71.1256 47.6352 70.2674 46.3662 69.7074C44.9514 69.058 43.4107 68.7299 41.8568 68.7498H36.3832V55.9826H40.5779C44.2589 55.9131 47.9234 56.4532 51.4256 57.5798C54.5169 58.6368 57.3 60.4328 59.5398 62.8119C61.5709 65.0386 62.9823 67.7557 63.645 70.6982C64.4634 74.1178 64.861 77.6235 64.8345 81.1425V107.3H20.2343V94.5591V94.5558Z" fill="#67696B"/>
<path d="M94.0875 33.3709H81.3247V107.32H94.0875V33.3709Z" fill="#67696B"/>
<path d="M104.117 94.5558H135.941V80.6057C135.971 78.992 135.775 77.3783 135.361 75.8176C134.99 74.5021 134.354 73.2728 133.492 72.2125C132.631 71.1256 131.521 70.2674 130.255 69.7074C128.841 69.058 127.3 68.7299 125.746 68.7498H120.276V55.9826H124.467C128.148 55.9131 131.813 56.4532 135.318 57.5798C138.409 58.6368 141.196 60.4328 143.432 62.8119C145.463 65.0386 146.875 67.7557 147.538 70.6982C148.356 74.1178 148.757 77.6235 148.727 81.1425V94.5459H158.574V107.31H104.14L104.123 94.5658L104.117 94.5558Z" fill="#67696B"/>
<path d="M174.783 94.5558H156.818V107.32H174.783V94.5558Z" fill="#67696B"/>
<path d="M172.957 94.5525H192.837V60.5454H205.6V94.5525H214.9C216.298 94.5459 217.69 94.3769 219.052 94.0488C220.47 93.7175 221.805 93.0945 222.971 92.2231C224.194 91.2986 225.178 90.0925 225.844 88.7107C226.632 86.9645 227.007 85.0625 226.937 83.1472V60.5355H239.7V83.1472C239.531 86.5503 240.694 89.8837 242.937 92.4484C245.167 94.526 248.146 95.6129 251.187 95.4538C254.249 95.6857 257.254 94.5525 259.397 92.3556C261.319 89.9964 262.297 87.0042 262.131 83.9657V49.5875H274.804V82.3222C274.804 91.1395 272.859 97.6606 268.97 101.885C265.08 106.11 259.152 108.221 251.187 108.221C249.448 108.221 247.708 108.085 245.992 107.81C244.302 107.542 242.649 107.068 241.072 106.398C239.475 105.719 237.984 104.815 236.648 103.708C235.217 102.512 233.998 101.077 233.047 99.4698C230.721 101.915 227.931 103.867 224.84 105.216C221.712 106.607 218.326 107.32 214.903 107.31H172.957V94.5459V94.5525Z" fill="#67696B"/>
<path d="M28.0702 163.988C27.3214 163.988 26.5726 163.952 25.8304 163.866C25.2009 163.789 24.578 163.657 23.9717 163.465C23.4283 163.292 22.9081 163.057 22.4178 162.766C21.9373 162.471 21.49 162.126 21.0825 161.735C20.3801 161.056 19.8831 160.191 19.6512 159.24C19.3728 158.196 19.2337 157.123 19.237 156.042V147.033H23.087V155.562C23.0738 156.274 23.1599 156.983 23.3488 157.669C23.5045 158.219 23.816 158.713 24.2434 159.091C24.7603 159.512 25.3765 159.797 26.0326 159.916C26.7946 160.065 27.5666 160.138 28.3419 160.135H30.5453V138.229H36.2077V142.079H34.3887V163.988H28.0702Z" fill="#67696B"/>
<path d="M39.7926 138.229H43.646V156.695H47.168V160.549H39.7926V138.229Z" fill="#67696B"/>
<path d="M46.6181 156.698H50.3058C49.9015 156.162 49.5735 155.572 49.3416 154.939C49.0964 154.25 48.9738 153.524 48.9837 152.792C48.9639 151.672 49.1925 150.558 49.6563 149.538C50.097 148.597 50.7398 147.765 51.5416 147.102C52.3997 146.406 53.3871 145.886 54.4474 145.575C55.6733 145.217 56.9489 145.041 58.2245 145.055H62.767V156.698H65.3017V160.549H46.6147V156.698H46.6181ZM55.6435 142.208C54.7522 142.891 53.5097 142.891 52.6184 142.208C52.1844 141.847 51.9491 141.3 51.9856 140.737C51.9657 140.194 52.191 139.673 52.6019 139.319C53.4964 138.606 54.7654 138.606 55.66 139.319C56.4519 140.068 56.4917 141.317 55.7429 142.109C55.7097 142.142 55.6766 142.175 55.6435 142.208ZM52.8338 152.792C52.8205 153.58 53.016 154.356 53.4004 155.045C53.7748 155.708 54.2983 156.271 54.9278 156.698H58.9137V148.902H57.2935C56.7402 148.902 56.1868 148.988 55.6567 149.15C55.1365 149.306 54.6528 149.558 54.2254 149.892C53.8079 150.23 53.4666 150.648 53.2181 151.122C52.9531 151.635 52.8239 152.209 52.8338 152.788M61.6173 142.198C60.7227 142.881 59.4836 142.881 58.5923 142.198C58.1582 141.837 57.923 141.29 57.9594 140.727C57.9396 140.184 58.1682 139.663 58.579 139.309C59.0065 138.948 59.5498 138.759 60.1065 138.775C60.6697 138.752 61.2197 138.944 61.6471 139.309C62.0514 139.667 62.2734 140.187 62.2535 140.727C62.2866 141.29 62.0547 141.837 61.6206 142.198" fill="#67696B"/>
<path d="M64.755 156.698H68.1677V145.055H72.0177V156.702H74.9633V160.552H64.755V156.698ZM71.5638 142.192C70.6262 142.891 69.3406 142.891 68.4029 142.192C67.9391 141.817 67.6873 141.241 67.727 140.647C67.7105 140.084 67.949 139.544 68.3764 139.176C69.3174 138.421 70.656 138.421 71.5969 139.176C72.0244 139.544 72.2596 140.084 72.243 140.647C72.2828 141.241 72.0277 141.817 71.5671 142.192" fill="#67696B"/>
<path d="M74.453 156.698H77.1533V138.232H82.7926V142.079H81.0067V160.549H74.4563V156.695L74.453 156.698Z" fill="#67696B"/>
<path d="M90.2176 138.229H86.3643V160.552H90.2176V138.229Z" fill="#67696B"/>
<path d="M98.0833 166.606C97.7222 166.606 97.3643 166.583 97.0065 166.536C96.7116 166.5 96.42 166.44 96.1351 166.357L95.8634 162.507C96.1815 162.59 96.5029 162.653 96.8243 162.699C97.1059 162.736 97.3941 162.752 97.6791 162.752C98.2854 162.819 98.8884 162.583 99.2894 162.123C99.6406 161.496 99.7996 160.777 99.7433 160.062V145.058H103.597V156.702H106.569V160.555H103.57C103.62 162.215 103.11 163.842 102.116 165.178C101.045 166.215 99.5809 166.739 98.0966 166.613" fill="#67696B"/>
<path d="M106.009 156.708H109.435V145.064H113.285V156.708H116.23V160.562H106.022L106.009 156.708ZM112.934 165.9C111.993 166.599 110.707 166.599 109.769 165.9C109.306 165.526 109.054 164.949 109.093 164.356C109.08 163.799 109.319 163.266 109.743 162.901C110.684 162.146 112.022 162.146 112.963 162.901C113.384 163.266 113.623 163.799 113.609 164.356C113.649 164.949 113.401 165.526 112.937 165.9" fill="#67696B"/>
<path d="M115.697 156.698H118.699C118.367 156.016 118.099 155.307 117.887 154.581C117.652 153.776 117.536 152.944 117.542 152.106C117.513 150.903 117.778 149.713 118.311 148.64C118.795 147.685 119.467 146.841 120.292 146.158C120.955 145.614 121.717 145.204 122.535 144.948C123.43 144.667 124.361 144.531 125.299 144.538C126.289 144.531 127.277 144.667 128.231 144.935C129.195 145.214 130.133 145.588 131.024 146.049L129.732 149.538C129.116 149.196 128.466 148.915 127.794 148.699C127.138 148.481 126.452 148.365 125.759 148.355C124.679 148.295 123.609 148.627 122.754 149.289C122.294 149.667 121.936 150.154 121.71 150.704C121.512 151.248 121.412 151.821 121.419 152.397C121.409 153.206 121.538 154.014 121.803 154.776C122.055 155.469 122.416 156.115 122.877 156.688H131.594V160.542H115.684L115.694 156.695L115.697 156.698Z" fill="#67696B"/>
<path d="M138.704 166.606C138.022 165.625 137.482 164.555 137.094 163.425C136.683 162.149 136.488 160.817 136.514 159.478C136.504 158.544 136.587 157.613 136.763 156.695H140.831L137.422 147.941C138.078 147.374 138.747 146.85 139.417 146.37C140.063 145.906 140.742 145.495 141.451 145.131C142.13 144.786 142.846 144.514 143.581 144.319C144.327 144.123 145.096 144.027 145.864 144.027C147.428 144.021 148.972 144.398 150.354 145.127C151.798 145.899 153.137 146.85 154.34 147.961L151.036 156.678H156.073V160.532H140.414V160.946C140.414 161.636 140.51 162.321 140.706 162.981C140.951 163.75 141.285 164.489 141.7 165.181L138.704 166.596V166.606ZM145.861 148.106C145.139 148.1 144.423 148.219 143.744 148.464C143.025 148.746 142.349 149.124 141.733 149.591L144.237 156.695H147.541L150.042 149.564C149.4 149.104 148.7 148.726 147.965 148.438C147.286 148.206 146.573 148.093 145.858 148.106" fill="#67696B"/>
<path d="M155.519 156.698H159.207C158.803 156.162 158.475 155.568 158.243 154.936C157.998 154.246 157.875 153.517 157.882 152.785C157.862 151.665 158.094 150.555 158.557 149.534C158.998 148.593 159.641 147.762 160.443 147.099C161.301 146.403 162.288 145.886 163.349 145.571C164.574 145.21 165.847 145.035 167.126 145.048H171.668V160.545H155.513V156.698H155.519ZM161.738 152.788C161.725 153.577 161.917 154.356 162.302 155.045C162.676 155.708 163.199 156.271 163.829 156.698H167.818V148.905H166.198C165.645 148.905 165.091 148.988 164.561 149.153C164.041 149.309 163.557 149.561 163.13 149.896C162.712 150.23 162.371 150.651 162.123 151.125C161.858 151.639 161.725 152.208 161.735 152.788M167.556 142.192C166.619 142.891 165.333 142.891 164.396 142.192C163.932 141.817 163.68 141.241 163.72 140.647C163.703 140.084 163.942 139.544 164.369 139.176C165.31 138.421 166.645 138.421 167.586 139.176C168.014 139.544 168.252 140.084 168.236 140.647C168.272 141.241 168.02 141.817 167.56 142.192" fill="#67696B"/>
<path d="M172.781 156.708H182.373V152.497C182.383 152.006 182.324 151.516 182.198 151.042C182.085 150.645 181.89 150.273 181.631 149.952C181.373 149.624 181.038 149.365 180.654 149.196C180.226 148.998 179.763 148.898 179.292 148.905H177.642V145.055H178.908C180.018 145.035 181.124 145.197 182.181 145.535C183.116 145.856 183.954 146.4 184.63 147.119C185.243 147.792 185.67 148.61 185.869 149.498C186.114 150.529 186.237 151.589 186.23 152.649V156.695H189.199V160.549H172.768L172.785 156.705L172.781 156.708Z" fill="#67696B"/>
<path d="M188.685 156.698H191.382V138.232H197.022V142.079H195.236V160.549H188.689V156.695L188.685 156.698Z" fill="#67696B"/>
<path d="M204.46 138.229H200.606V160.552H204.46V138.229Z" fill="#67696B"/>
<path d="M227.139 156.695V160.549H220.201C218.926 160.559 217.657 160.403 216.424 160.085C215.351 159.807 214.343 159.319 213.455 158.653C212.62 158.011 211.948 157.179 211.497 156.228C211.01 155.158 210.772 153.995 210.798 152.818C210.788 151.751 211.004 150.694 211.431 149.72C211.852 148.776 212.481 147.941 213.273 147.275C214.148 146.549 215.152 145.996 216.232 145.644C217.517 145.237 218.859 145.041 220.208 145.064H220.758V143.693H224.611V156.708L227.139 156.695ZM217.839 141.131C216.944 141.807 215.705 141.807 214.811 141.131C214.012 140.382 213.972 139.127 214.724 138.328C214.751 138.298 214.781 138.268 214.811 138.242C215.702 137.523 216.974 137.523 217.865 138.242C218.664 138.987 218.707 140.237 217.961 141.035C217.932 141.068 217.899 141.101 217.865 141.131M220.771 156.695V148.898H219.287C218.717 148.898 218.154 148.988 217.61 149.16C217.074 149.326 216.57 149.581 216.123 149.919C215.685 150.247 215.324 150.661 215.062 151.138C214.791 151.652 214.655 152.225 214.665 152.805C214.652 153.385 214.781 153.961 215.036 154.482C215.278 154.952 215.616 155.366 216.03 155.694C216.447 156.032 216.931 156.284 217.445 156.437C217.981 156.602 218.538 156.688 219.098 156.685L220.771 156.692V156.695ZM223.829 141.131C222.931 141.811 221.696 141.811 220.798 141.131C219.999 140.386 219.956 139.137 220.702 138.338C220.731 138.305 220.765 138.272 220.798 138.242C221.696 137.523 222.971 137.523 223.866 138.242C224.658 139.007 224.678 140.27 223.912 141.062C223.889 141.085 223.866 141.108 223.843 141.131" fill="#67696B"/>
<path d="M226.609 156.698H229.28C229.207 156.42 229.157 156.135 229.127 155.847C229.101 155.555 229.084 155.244 229.084 154.939C229.074 153.809 229.296 152.689 229.734 151.649C230.148 150.658 230.747 149.75 231.496 148.978C232.245 148.216 233.133 147.603 234.11 147.175C235.118 146.731 236.208 146.509 237.308 146.516C238.428 146.506 239.538 146.728 240.571 147.162C241.569 147.576 242.473 148.179 243.242 148.938C244.007 149.7 244.617 150.608 245.028 151.609C245.462 152.666 245.684 153.799 245.674 154.942C245.684 156.066 245.455 157.176 245.001 158.199C244.567 159.184 243.948 160.072 243.172 160.814C242.397 161.556 241.492 162.146 240.502 162.557C239.491 162.981 238.401 163.196 237.304 163.19C236.165 163.196 235.038 162.958 234.001 162.487C232.991 162.03 232.076 161.38 231.307 160.579H226.599L226.613 156.695L226.609 156.698ZM235.582 158.968C236.132 159.203 236.725 159.323 237.324 159.313C237.927 159.313 238.524 159.203 239.087 158.981C239.627 158.769 240.121 158.458 240.542 158.057C240.956 157.659 241.28 157.182 241.499 156.652C241.738 156.092 241.854 155.486 241.847 154.876C241.854 154.263 241.741 153.657 241.516 153.087C241.307 152.553 240.989 152.066 240.581 151.658C240.17 151.251 239.687 150.926 239.15 150.704C238.573 150.472 237.954 150.356 237.331 150.363C236.148 150.346 235.012 150.823 234.197 151.682C233.806 152.096 233.498 152.58 233.285 153.113C233.063 153.673 232.954 154.273 232.957 154.876C232.951 155.472 233.063 156.066 233.285 156.619C233.498 157.146 233.809 157.623 234.21 158.024C234.607 158.421 235.078 158.74 235.595 158.958" fill="#67696B"/>
<path d="M246.565 156.708H256.157V152.497C256.167 152.006 256.107 151.519 255.982 151.042C255.869 150.645 255.673 150.273 255.415 149.952C255.156 149.624 254.819 149.365 254.438 149.196C254.01 148.998 253.546 148.898 253.076 148.905H251.426V145.055H252.691C253.801 145.035 254.908 145.197 255.965 145.535C256.899 145.856 257.738 146.4 258.413 147.119C259.026 147.792 259.454 148.61 259.653 149.498C259.898 150.529 260.02 151.589 260.014 152.649V156.695H262.982V160.549H246.552L246.568 156.705L246.565 156.708Z" fill="#67696B"/>
<path d="M262.476 156.695H273.897C274.052 156.042 274.168 155.38 274.241 154.714C274.321 154.064 274.36 153.411 274.367 152.759C274.36 152.152 274.251 151.552 274.049 150.979C273.847 150.379 273.489 149.846 273.019 149.428C272.101 148.686 270.944 148.315 269.765 148.381C269.089 148.378 268.413 148.464 267.76 148.643C267.058 148.865 266.392 149.183 265.779 149.594L264.182 146.237C265.08 145.724 266.031 145.31 267.015 144.998C268.059 144.68 269.145 144.521 270.239 144.534C271.296 144.518 272.346 144.703 273.333 145.081C274.228 145.429 275.04 145.962 275.712 146.652C276.478 147.43 277.087 148.352 277.501 149.362C277.982 150.535 278.214 151.794 278.191 153.063C278.191 153.789 278.147 154.518 278.055 155.237C277.965 155.956 277.856 156.642 277.727 157.305C277.597 157.967 277.455 158.571 277.299 159.121C277.144 159.671 277.008 160.148 276.869 160.549H262.472V156.702L262.476 156.695ZM271.322 141.691C270.384 142.394 269.096 142.394 268.158 141.691C267.697 141.317 267.446 140.744 267.485 140.15C267.469 139.587 267.707 139.047 268.135 138.679C269.076 137.924 270.418 137.924 271.359 138.679C271.786 139.047 272.021 139.587 272.005 140.15C272.044 140.744 271.793 141.317 271.332 141.691" fill="#67696B"/>
<path d="M17.0668 44.7862C17.0734 49.498 13.2565 53.3252 8.54167 53.3285C3.83017 53.3351 0.00662874 49.5179 2.15733e-06 44.806C-0.00331113 40.0941 3.81029 36.267 8.5251 36.2637C11.5766 36.2637 14.3963 37.8873 15.9237 40.5282C16.6791 41.8205 17.0734 43.2917 17.0701 44.7895M15.4134 44.7862C15.4134 40.9855 12.3321 37.9039 8.53173 37.9039C4.73138 37.9039 1.65002 40.9855 1.65002 44.7862C1.65002 48.5868 4.73138 51.6684 8.53173 51.6684C10.3573 51.6684 12.1101 50.9428 13.3989 49.6505C14.711 48.3747 15.4399 46.6152 15.4134 44.7862ZM4.65849 40.2267H8.72721C9.61849 40.1472 10.5098 40.3957 11.2321 40.9259C11.7556 41.403 12.0405 42.0856 12.0107 42.7947C12.0239 43.3779 11.8152 43.9478 11.4309 44.3852C10.9206 44.8922 10.2712 45.2302 9.56216 45.3561C9.84379 45.4522 10.1055 45.5947 10.3342 45.7835C10.6158 46.0552 10.861 46.3667 11.0565 46.7047C11.0697 46.7378 11.5634 47.6159 12.5342 49.3423H9.8471C9.35674 48.2555 8.7736 47.215 8.10431 46.2309C7.89557 45.9393 7.56756 45.7537 7.21304 45.7206C7.11695 45.7206 7.01755 45.7305 6.92147 45.7537V49.339H4.65186L4.65849 40.2234V40.2267ZM6.92809 44.0936H7.90883C8.39257 44.1367 8.87962 44.024 9.2971 43.7755C9.55222 43.58 9.70132 43.2752 9.698 42.9538C9.70463 42.6323 9.56216 42.3275 9.31035 42.1287C8.91938 41.8835 8.45552 41.7708 7.99829 41.8139H6.94466L6.93141 44.0936H6.92809Z" fill="#67696B"/>
</g>
<defs>
<radialGradient id="paint0_radial_71_785" cx="0" cy="0" r="1" gradientUnits="userSpaceOnUse" gradientTransform="translate(327.115 166.241) scale(180.114 180.129)">
<stop offset="0.37" stop-color="#F08352"/>
<stop offset="0.79" stop-color="#F6BE25"/>
<stop offset="1" stop-color="#F9D714"/>
</radialGradient>
<linearGradient id="paint1_linear_71_785" x1="412.432" y1="82.0372" x2="407.939" y2="83.3823" gradientUnits="userSpaceOnUse">
<stop offset="0.2"/>
<stop offset="0.38" stop-color="#363636"/>
<stop offset="0.8" stop-color="#BDBDBD"/>
<stop offset="1" stop-color="white"/>
</linearGradient>
<radialGradient id="paint2_radial_71_785" cx="0" cy="0" r="1" gradientUnits="userSpaceOnUse" gradientTransform="translate(415.205 106.786) scale(16.5764 16.5777)">
<stop offset="0.15" stop-color="#F08352"/>
<stop offset="0.69" stop-color="#F08352" stop-opacity="0.35"/>
<stop offset="1" stop-color="#F08352" stop-opacity="0"/>
</radialGradient>
<radialGradient id="paint3_radial_71_785" cx="0" cy="0" r="1" gradientUnits="userSpaceOnUse" gradientTransform="translate(378.378 114.987) scale(18.4683 18.4698)">
<stop offset="0.15" stop-color="#F08352"/>
<stop offset="0.69" stop-color="#F08352" stop-opacity="0.35"/>
<stop offset="1" stop-color="#F08352" stop-opacity="0"/>
</radialGradient>
<radialGradient id="paint4_radial_71_785" cx="0" cy="0" r="1" gradientUnits="userSpaceOnUse" gradientTransform="translate(381.31 146.675) scale(14.9297 14.9309)">
<stop offset="0.21" stop-color="#F08352"/>
<stop offset="0.72" stop-color="#F08352" stop-opacity="0.35"/>
<stop offset="1" stop-color="#F08352" stop-opacity="0"/>
</radialGradient>
<radialGradient id="paint5_radial_71_785" cx="0" cy="0" r="1" gradientUnits="userSpaceOnUse" gradientTransform="translate(350.864 136.158) scale(10.2977 10.2986)">
<stop offset="0.15" stop-color="#F08352"/>
<stop offset="0.69" stop-color="#F08352" stop-opacity="0.35"/>
<stop offset="1" stop-color="#F08352" stop-opacity="0"/>
</radialGradient>
<clipPath id="clip0_71_785">
<rect width="494.118" height="200" fill="white"/>
</clipPath>
</defs>
</svg>
