<svg width="608" height="200" viewBox="0 0 608 200" fill="none" xmlns="http://www.w3.org/2000/svg">
<path d="M604.115 150.222V186.89C604.115 192.372 599.668 196.89 594.111 196.89H589.367V176.074L578.994 182.149L574.548 184.742V196.89H524.681L549.801 182.149L589.295 158.964L604.038 150.296L604.115 150.222Z" fill="#AA7E1A"/>
<path d="M481.113 170.816L466.365 179.483V162.372L481.113 153.704L507.788 138.075L520.679 130.519L527.792 126.296V118.372C527.792 117.038 528.832 116.001 530.166 116.001H574.548L520.679 147.631L481.113 170.89V170.816Z" fill="#AA7E1A"/>
<path d="M604.115 9.92659V133.113L589.367 141.779L520.679 182.075L516.233 184.668V196.816H466.365L491.486 182.075L589.367 124.667V14.7407H481.113V136.594L466.365 145.26V10.0007C466.365 4.51925 470.812 0 476.369 0H594.183C599.666 0 604.186 4.44517 604.186 10.0007L604.115 9.92659Z" fill="#162C49"/>
<path d="M535.202 50.2225C540.359 50.2225 544.54 46.0437 544.54 40.8891C544.54 35.7344 540.359 31.5557 535.202 31.5557C530.046 31.5557 525.867 35.7344 525.867 40.8891C525.867 46.0437 530.046 50.2225 535.202 50.2225Z" fill="#A47C2C"/>
<path d="M5.92888 157.039C6.89214 157.039 7.63338 157.556 8.07796 157.927C8.59664 160.149 11.4119 161.853 15.0426 161.853C18.6734 161.853 22.4523 160.002 22.4523 157.039C22.4523 148.964 0.295628 154.593 0.295628 141.186C0.295628 135.038 7.04018 130.593 15.0426 130.593C22.4523 130.593 28.6021 134.593 29.5653 140.001C29.7135 140.89 29.0471 141.63 28.1579 141.63H23.6354C22.6722 141.63 22.005 141.111 21.4863 140.667C20.9676 138.667 18.1547 137.259 15.0426 137.259C11.486 137.259 8.07796 138.89 8.07796 141.63C8.07796 149.408 30.307 143.926 30.307 157.556C30.307 164.519 22.3024 168.667 15.115 168.667C7.48304 168.667 1.03819 164.446 0.07493 158.816C-0.0732642 157.853 0.591438 157.187 1.5547 157.187H6.00123L5.92888 157.039Z" fill="#AA7E1A"/>
<path d="M41.1265 166.298L54.4624 131.63C54.6106 131.037 55.279 130.593 55.9459 130.593H62.3172C62.984 130.593 63.5765 131.037 63.8729 131.63L77.209 166.298C77.7277 167.631 77.2112 168.519 75.7293 168.519H70.9136C70.2467 168.519 69.6542 168.075 69.3578 167.408L67.4294 162.001H51.0543L49.0535 167.408C48.9053 168.075 48.2387 168.519 47.4978 168.519H42.6822C41.2744 168.519 40.6819 167.631 41.1265 166.298ZM65.2803 155.778L59.1297 139.111L53.055 155.778H65.2803Z" fill="#AA7E1A"/>
<path d="M90.917 166.963V132.223C90.917 131.26 91.5112 130.593 92.5486 130.593H97.0678C98.031 130.593 98.6994 131.26 98.6994 132.223V146.444H117.593V132.223C117.593 131.26 118.187 130.593 119.224 130.593H123.743C124.633 130.593 125.371 131.26 125.371 132.223V166.963C125.371 167.852 124.707 168.593 123.743 168.593H119.224C118.261 168.593 117.593 167.926 117.593 166.963V152.667H98.6994V166.963C98.6994 167.852 98.1051 168.593 97.0678 168.593H92.5486C91.5853 168.593 90.917 167.926 90.917 166.963Z" fill="#AA7E1A"/>
<path d="M138.932 166.298L152.272 131.63C152.42 131.037 153.085 130.593 153.752 130.593H160.126C160.793 130.593 161.386 131.037 161.682 131.63L175.018 166.298C175.537 167.631 175.017 168.519 173.535 168.519H168.719C168.053 168.519 167.46 168.075 167.163 167.408L165.239 162.001H148.864L146.863 167.408C146.715 168.075 146.048 168.519 145.307 168.519H140.488C139.08 168.519 138.488 167.631 138.932 166.298ZM163.09 155.778L156.939 139.111L150.864 155.778H163.09Z" fill="#AA7E1A"/>
<path d="M190.282 130.593H207.251C214.808 130.593 220.218 134.89 220.218 142.298C220.218 148.446 216.142 152.372 210.807 153.261L218.662 166.076C219.551 167.557 219.031 168.519 217.327 168.519H212.139C211.62 168.519 211.029 168.223 210.807 167.704L202.21 153.63H196.357V166.889C196.357 167.778 195.766 168.519 194.729 168.519H190.206C189.243 168.519 188.578 167.852 188.578 166.889V132.149C188.578 131.186 189.169 130.519 190.206 130.519L190.282 130.593ZM196.433 147.483H207.251C210.14 147.483 212.435 145.187 212.435 142.298C212.435 139.409 210.289 137.111 207.251 137.111H196.433V147.408V147.483Z" fill="#AA7E1A"/>
<path d="M232.371 166.298L245.707 131.63C245.855 131.037 246.524 130.593 247.19 130.593H253.562C254.229 130.593 254.821 131.037 255.117 131.63L268.453 166.298C268.972 167.631 268.455 168.519 266.974 168.519H262.154C261.487 168.519 260.895 168.075 260.599 167.408L258.674 162.001H242.299L240.298 167.408C240.15 168.075 239.484 168.519 238.743 168.519H233.927C232.519 168.519 231.926 167.631 232.371 166.298ZM256.525 155.778L250.374 139.111L244.3 155.778H256.525Z" fill="#AA7E1A"/>
<path d="M299.058 130.593H316.023C322.988 130.593 328.99 135.705 328.99 142.298C328.99 148.89 322.988 154.074 316.023 154.074H305.204V166.963C305.204 167.852 304.614 168.593 303.577 168.593H299.058C298.095 168.593 297.426 167.926 297.426 166.963V132.223C297.426 131.26 298.021 130.593 299.058 130.593ZM305.204 137.185V147.408H316.023C318.838 147.408 321.211 145.113 321.211 142.224C321.211 139.557 319.135 137.111 316.023 137.111H305.204V137.185Z" fill="#AA7E1A"/>
<path d="M334.844 166.298L348.184 131.63C348.332 131.037 348.997 130.593 349.663 130.593H356.039C356.706 130.593 357.298 131.037 357.594 131.63L370.93 166.298C371.449 167.631 370.932 168.519 369.45 168.519H364.631C363.964 168.519 363.372 168.075 363.076 167.408L361.151 162.001H344.775L342.775 167.408C342.626 168.075 341.96 168.519 341.219 168.519H336.4C334.992 168.519 334.399 167.631 334.844 166.298ZM359.002 155.778L352.851 139.111L346.777 155.778H359.002Z" fill="#AA7E1A"/>
<path d="M383.009 130.593C383.601 130.593 384.196 130.963 384.492 131.482L392.792 147.112L401.087 131.482C401.31 130.963 401.98 130.593 402.498 130.593H407.238C408.868 130.593 409.46 131.557 408.645 132.964L396.717 154.445V166.889C396.717 167.778 396.052 168.519 395.089 168.519H390.643C389.679 168.519 389.01 167.852 389.01 166.889V154.445L377.082 132.964C376.267 131.557 376.859 130.593 378.489 130.593H383.157H383.009Z" fill="#AA7E1A"/>
<path d="M15.4128 101.261C11.7079 101.261 8.67023 100.964 6.4473 100.445C4.1503 99.8526 2.51901 98.6675 1.55575 96.8156C0.518389 94.8156 0 91.7786 0 87.7045V65.9271H11.4872V83.1126C11.4872 88.1497 14.2265 89.8534 16.5235 90.446H16.6718H60.761L61.13 88.5201C56.0914 86.3719 51.87 84.446 48.5356 82.7423C45.2013 81.0386 42.3829 79.5556 40.16 78.1482C38.0111 76.8149 36.3075 75.6304 35.196 74.5934C34.0846 73.5561 33.1947 72.594 32.6019 71.7051C32.0091 70.8162 31.6411 69.9266 31.4188 69.1118C31.1965 68.2229 30.8975 67.2608 30.6011 66.2978C30.6752 62.3719 31.3421 59.3333 32.4536 57.3333C33.4909 55.4074 35.2726 54.2224 37.7178 53.7779C38.681 53.5557 39.8646 53.4089 41.1983 53.2607C42.6062 53.1866 44.2374 53.1124 46.0899 53.1124H72.5412V63.7787H46.904C46.2371 64.0009 44.2354 64.5199 44.0131 66.1495C43.939 67.1125 44.4594 68.1489 45.6449 69.1859C46.6082 70.0748 47.9404 71.0387 49.7188 72.0758C51.423 73.1128 53.3497 74.1497 55.4244 75.2608C57.5732 76.3719 59.7953 77.5564 62.0923 78.7415C64.3894 79.9267 66.6894 81.1119 68.9123 82.2971C71.0611 83.4823 73.1346 84.5934 74.9868 85.7045C76.6911 86.7415 78.0974 87.7052 79.2089 88.5941C79.2089 90.7423 79.2089 92.9638 79.2089 95.2601C79.2089 97.3341 79.2111 99.2608 79.137 101.187H15.637L15.4128 101.261Z" fill="#162C49"/>
<path d="M38.6802 108.519H29.3421V117.26H38.6802V108.519Z" fill="#162C49"/>
<path d="M52.0162 108.519H42.7541V117.26H52.0162V108.519Z" fill="#162C49"/>
<path d="M104.846 101.261C101.068 101.261 98.0296 100.964 95.8807 100.445C93.5096 99.8526 91.8803 98.6674 90.917 96.7414C89.8796 94.7414 89.3617 91.7044 89.3617 87.7044V39.3337H100.849V83.1126C100.849 88.1496 103.588 89.8533 105.885 90.4459H106.034H116.927H117.075C119.372 89.8533 122.187 88.1496 122.187 83.1126V65.927H133.671V87.7044C133.671 91.7785 133.154 94.8155 132.043 96.8155C131.006 98.6674 129.449 99.8526 127.152 100.445C124.855 100.964 121.817 101.187 118.038 101.187H104.995L104.846 101.261Z" fill="#162C49"/>
<path d="M115.223 108.519H105.961V117.26H115.223V108.519Z" fill="#162C49"/>
<path d="M164.717 101.261C161.013 101.261 157.975 100.964 155.752 100.445C153.455 99.8526 151.828 98.6675 150.864 96.8156C149.827 94.8156 149.305 91.7786 149.305 87.7045V65.9271H160.792V83.1126C160.792 88.1497 163.531 89.8534 165.828 90.446H165.976H207.323L207.696 88.5201C202.731 86.3719 198.432 84.446 195.098 82.7423C191.689 81.0386 188.949 79.5556 186.726 78.1482C184.577 76.8149 182.873 75.6304 181.762 74.5934C180.651 73.5561 179.761 72.594 179.168 71.7051C178.575 70.8162 178.203 69.9266 177.981 69.1118C177.759 68.2229 177.464 67.2608 177.167 66.2978C177.241 62.3719 177.908 59.3333 179.02 57.3333C180.057 55.4074 181.835 54.2224 184.28 53.7779C185.243 53.5557 186.43 53.4089 187.764 53.2607C189.172 53.1866 190.8 53.1124 192.652 53.1124H219.107V63.7787H193.47C192.803 64.0009 190.801 64.5199 190.579 66.1495C190.505 67.1125 191.021 68.1489 192.207 69.1859C193.17 70.0748 194.506 71.0387 196.284 72.0758C197.988 73.1128 199.916 74.1497 201.99 75.2608C204.139 76.3719 206.361 77.5564 208.658 78.7415C210.955 79.9267 213.253 81.1119 215.402 82.2971C217.551 83.4082 219.624 84.5934 221.476 85.7045C223.107 86.6675 224.588 87.7052 225.699 88.5941C225.699 90.7423 225.699 92.9638 225.699 95.2601C225.699 97.3341 225.701 99.2608 225.627 101.187H164.793L164.717 101.261Z" fill="#162C49"/>
<path d="M227.776 118.667V108.075H228.959C230.367 108.075 231.478 108.075 232.515 108.001C233.553 108.001 234.22 107.852 234.664 107.704C236.072 107.407 237.187 106.594 237.779 105.335C238.298 104.224 238.594 102.667 238.594 100.593V58.3713H250.154V105.409C250.154 107.557 250.005 109.335 249.708 110.89C249.412 112.372 249.042 113.631 248.449 114.594C247.931 115.557 247.264 116.296 246.449 116.889C245.56 117.481 244.522 117.927 243.337 118.224C242.299 118.372 241.112 118.519 239.853 118.667C238.445 118.741 236.739 118.815 234.812 118.815H227.848L227.776 118.667Z" fill="#162C49"/>
<path d="M381.824 53.0382C372.487 53.0382 378.339 53.0382 368.929 53.0382C367.891 53.0382 366.929 53.0384 365.965 53.2606C365.076 53.4088 364.263 53.6299 363.448 54.0744C362.633 54.5188 361.891 55.1857 361.15 56.1487C360.409 57.1116 359.668 58.371 359.001 60.0007L357.963 62.4457L357.072 59.9265C356.554 58.5191 356.037 57.3342 355.444 56.5194C354.852 55.7046 354.333 55.1121 353.74 54.7417C353.147 54.3713 352.553 54.0742 351.96 53.9261C351.294 53.7779 350.554 53.6311 349.739 53.4089C349.368 53.2608 348.403 53.1122 345.81 53.0382V90.3718H330.918L326.916 74.2222C325.953 69.7779 324.545 66.4458 322.767 64.3717C321.063 62.2976 318.768 61.1124 315.73 60.5939C314.767 60.3716 313.577 60.223 312.17 60.0748C310.762 60.0008 309.134 59.9265 307.281 59.9265H285.349V70.8152H305.946C307.132 70.8152 308.245 70.8895 309.282 71.0376C310.319 71.1858 311.208 71.483 311.949 71.9274C313.134 72.5941 314.097 73.5561 314.912 74.6673C315.727 75.7785 316.246 77.1118 316.616 78.6673C316.913 79.8525 317.212 81.1866 317.582 82.6681C317.953 84.1496 316.616 78.7414 317.061 80.371C317.431 82.0007 317.877 83.557 318.248 85.0385C318.618 86.594 318.989 87.9259 319.286 89.037L319.579 90.2977H276.829C274.532 89.7051 271.789 88.0014 271.789 82.9644V39.1854H260.302V87.5562C260.302 91.5562 260.823 94.6666 261.861 96.5925C262.824 98.4444 264.454 99.7036 266.825 100.296C269.048 100.815 272.011 101.112 275.79 101.112H336.993C348.997 101.112 364.188 101.112 375.969 101.112C387.751 101.112 381.231 101.112 393.235 101.112C395.087 101.112 396.715 101.112 398.123 100.964C399.457 100.89 400.644 100.667 401.607 100.445C404.2 100.001 405.976 98.8896 407.088 97.0377C408.273 95.1118 408.868 92.0007 408.868 87.7785V76.9636C408.868 63.6306 398.124 52.8898 384.787 52.8157H381.747L381.824 53.0382ZM397.308 81.5555C397.308 85.037 396.121 87.6296 393.824 89.1851C393.083 89.6296 392.195 90.0014 391.158 90.1496C390.194 90.2977 389.084 90.3718 387.75 90.3718H357.594V71.3342C357.594 69.4083 357.962 67.7776 358.777 66.5925C359.592 65.4073 360.854 64.4453 362.558 63.9268H362.706H381.154C390.12 63.9268 397.381 71.1856 397.381 80.1488V81.6296L397.308 81.5555Z" fill="#162C49"/>
</svg>
