<svg width="503" height="200" viewBox="0 0 503 200" fill="none" xmlns="http://www.w3.org/2000/svg">
<path d="M319.606 85.5C324.063 80.1857 331.777 79.1577 337.434 83.1006C352.977 93.7863 370.863 96.072 385.321 87.5006C392.578 83.2149 433.434 34.5294 459.263 4.64365C464.12 -1.0135 472.635 -1.58475 478.235 3.38667L480.749 5.61463C486.291 10.5289 486.863 18.9864 481.949 24.5293L419.948 94.8726C406.519 110.13 389.491 118.644 368.806 120.473C352.92 121.844 336.349 114.871 322.235 105.5C315.606 101.1 314.292 91.8434 319.435 85.7291L319.606 85.5577V85.5Z" fill="#013E50"/>
<path d="M3.31996 85.5C7.77709 80.1857 15.4921 79.1577 21.1492 83.1006C36.6921 93.7863 54.5771 96.072 69.0343 87.5006C76.2914 83.2149 117.148 34.5294 142.977 4.64365C147.834 -1.0135 156.349 -1.58475 161.949 3.38667L164.462 5.61463C170.005 10.5289 170.577 18.9864 165.662 24.5293L103.663 94.8726C90.2349 110.13 73.2063 118.644 52.5206 120.473C36.6349 121.844 20.0626 114.871 5.94829 105.5C-0.680261 101.1 -1.99449 91.8434 3.14837 85.7291L3.31996 85.5577V85.5Z" fill="#013E50"/>
<path d="M454.062 107.272L451.318 104.873C445.718 100.015 445.147 91.5583 450.004 85.9583L451.375 84.3577C456.232 78.7577 464.69 78.1863 470.29 83.0434L473.033 85.4434C478.633 90.3006 479.204 98.7577 474.347 104.358L472.975 105.958C468.118 111.558 459.662 112.129 454.062 107.272Z" fill="#013E50"/>
<path d="M477.49 80.3583L474.747 77.9583C469.147 73.1011 468.576 64.644 473.433 59.044L474.804 57.444C479.661 51.8438 488.119 51.2724 493.719 56.1296L496.462 58.5291C502.062 63.3863 502.633 71.844 497.776 77.444L496.404 79.044C491.547 84.644 483.09 85.2154 477.49 80.3583Z" fill="#013E50"/>
<path d="M332.747 23.7303L335.434 26.187C340.92 31.1584 341.377 39.6731 336.348 45.1588L280.862 105.901C275.891 111.33 267.491 111.729 262.005 106.815L259.319 104.358C253.834 99.3868 253.376 90.872 258.405 85.3863L313.891 24.644C318.863 19.2155 327.262 18.816 332.747 23.7303Z" fill="#013E50"/>
<path d="M269.263 23.7303L271.949 26.187C277.434 31.1584 277.891 39.6731 272.862 45.1588L217.377 105.901C212.406 111.33 204.005 111.729 198.519 106.815L195.834 104.358C190.348 99.3868 189.891 90.872 194.92 85.3863L250.406 24.644C255.377 19.2155 263.777 18.816 269.263 23.7303Z" fill="#013E50"/>
<path d="M207.835 23.33L210.578 25.6724C216.292 30.5295 216.92 39.1586 211.949 44.7586L158.006 105.615C153.149 111.044 144.863 111.672 139.321 106.929L136.578 104.587C130.863 99.7297 130.235 91.1005 135.206 85.5005L189.206 24.7014C194.063 19.2728 202.349 18.6444 207.892 23.3872L207.835 23.33Z" fill="#013E50"/>
<path d="M319.606 85.5C324.063 80.1857 331.777 79.1577 337.434 83.1006C352.977 93.7863 370.863 96.072 385.321 87.5006C392.578 83.2149 433.434 34.5294 459.263 4.64365C464.12 -1.0135 472.635 -1.58475 478.235 3.38667L480.749 5.61463C486.291 10.5289 486.863 18.9864 481.949 24.5293L419.948 94.8726C406.519 110.13 389.491 118.644 368.806 120.473C352.92 121.844 336.349 114.871 322.235 105.5C315.606 101.1 314.292 91.8434 319.435 85.7291L319.606 85.5577V85.5Z" fill="#013E50"/>
<path d="M72.6343 196.416V179.615C72.6343 179.158 72.52 178.701 72.2914 178.358L60.0046 157.044C58.2903 154.015 60.4629 150.301 63.8914 150.301C67.9486 157.673 74.2909 169.102 76.4052 173.33C78.1766 169.616 83.7194 159.786 87.8337 152.529C88.6337 151.101 90.1194 150.244 91.7194 150.244H96.4052L79.7772 178.358C79.6057 178.643 79.4914 178.872 79.4914 179.615V196.416H72.5772H72.6343Z" fill="#057A40"/>
<path d="M106.921 150.244V177.959C106.921 188.473 112.635 191.387 118.35 191.387C125.035 191.387 129.664 188.245 129.664 177.959V154.759C129.664 152.245 131.663 150.244 134.177 150.244H136.578V177.616C136.578 192.759 128.121 196.987 118.235 196.987C108.35 196.987 100.006 192.416 100.006 178.016V154.759C100.006 152.245 102.006 150.244 104.52 150.244H106.921Z" fill="#057A40"/>
<path d="M149.605 183.445C150.805 188.816 154.519 191.615 160.977 191.615C167.834 191.615 170.576 188.473 170.576 184.301C170.576 179.844 168.291 177.443 159.319 175.272C148.119 172.586 144.462 168.702 144.462 162.245C144.462 155.159 149.719 149.615 160.119 149.615C171.376 149.615 175.948 156.016 176.577 162.187H169.605C168.862 158.302 166.461 154.987 159.89 154.987C154.575 154.987 151.547 157.33 151.547 161.558C151.547 165.787 154.005 167.33 162.005 169.216C175.205 172.416 177.662 177.502 177.662 183.559C177.662 191.216 172.005 197.044 160.519 197.044C149.033 197.044 143.661 190.816 142.69 183.445H149.662H149.605Z" fill="#057A40"/>
<path d="M188.92 183.445C190.12 188.816 193.834 191.615 200.291 191.615C207.149 191.615 209.891 188.473 209.891 184.301C209.891 179.844 207.606 177.443 198.634 175.272C187.434 172.586 183.778 168.702 183.778 162.245C183.778 155.159 189.035 149.615 199.435 149.615C210.692 149.615 215.263 156.016 215.891 162.187H208.92C208.177 158.302 205.778 154.987 199.206 154.987C193.892 154.987 190.863 157.33 190.863 161.558C190.863 165.787 193.377 167.33 201.32 169.216C214.52 172.416 216.977 177.502 216.977 183.559C216.977 191.216 211.319 197.044 199.834 197.044C188.348 197.044 182.978 190.816 182.006 183.445H188.977H188.92Z" fill="#057A40"/>
<path d="M265.493 173.101C265.493 185.844 258.235 197.101 243.606 197.101C229.835 197.101 222.235 186.587 222.235 173.33C222.235 160.073 230.119 149.558 244.119 149.558C257.205 149.558 265.435 159.273 265.435 173.044L265.493 173.101ZM229.435 173.101C229.435 182.873 234.35 191.273 243.893 191.273C254.293 191.273 258.293 182.701 258.293 173.158C258.293 163.615 253.721 155.329 243.835 155.329C233.949 155.329 229.378 163.444 229.378 173.101H229.435Z" fill="#057A40"/>
<path d="M280.921 176.416V196.416H274.177V154.759C274.177 152.245 276.177 150.244 278.691 150.244H292.635C302.235 150.244 307.377 155.443 307.377 162.643C307.377 168.701 303.95 172.245 299.721 173.502C303.207 174.473 306.521 177.215 306.521 185.272V187.33C306.521 190.473 306.406 194.416 307.149 196.416H300.521C299.663 194.416 299.721 190.873 299.721 186.416V185.501C299.721 179.215 297.948 176.416 289.834 176.416H280.921ZM280.921 170.759H290.635C297.378 170.759 300.291 168.187 300.291 163.273C300.291 158.359 297.264 155.958 291.207 155.958H280.863V170.759H280.921Z" fill="#057A40"/>
<path d="M332.634 155.102C332.634 152.587 334.633 150.587 337.147 150.587H351.605C361.319 150.587 367.948 156.073 367.948 164.759C367.948 174.702 360.404 179.273 351.376 179.273H342.577V196.416H332.634V155.102ZM342.577 171.387H350.119C354.69 171.387 357.948 169.616 357.948 164.93C357.948 160.245 354.519 158.415 350.347 158.415H342.577V171.33V171.387Z" fill="#013E50"/>
<path d="M376.919 185.844L373.319 196.416H363.605L378.119 153.673C378.748 151.845 380.462 150.587 382.405 150.587H391.605L407.833 196.416H397.433L393.662 185.844H376.919ZM391.547 177.673C388.29 168.016 386.234 161.845 385.091 157.673H385.034C383.891 162.187 381.605 169.387 379.033 177.673H391.547Z" fill="#013E50"/>
<path d="M415.377 196.416V180.244C415.377 179.73 415.319 179.273 414.976 178.758L402.975 157.33C401.261 154.301 403.434 150.587 406.919 150.587H410.405C413.947 157.502 418.519 166.701 420.805 171.673C422.576 167.444 426.69 159.387 430.004 152.987C430.804 151.501 432.348 150.587 434.005 150.587H441.604L425.604 178.587C425.433 178.93 425.205 179.101 425.205 180.073V196.416H415.262H415.377Z" fill="#013E50"/>
</svg>
