<svg width="200" height="200" viewBox="0 0 200 200" fill="none" xmlns="http://www.w3.org/2000/svg">
<path d="M39.7438 75.05L71.1625 75C75.7313 75.6375 79.2938 78.95 80.325 83.45C80.2438 93.3813 81.3188 104.431 80.5938 114.3C80.1688 120.05 76.2625 124.144 70.5375 124.756C60.9188 124.194 50.4375 125.513 40.925 124.769C35.7313 124.363 31.7188 120.669 30.8938 115.531L30.9188 84.0438C31.5938 79.425 35.1875 75.8875 39.75 75.0562L39.7438 75.05ZM65.0563 100.294C64.75 92.3 62.375 83.0625 55.6625 78.125L47.8688 85.9875C54.0375 86.3625 58.9375 90.8688 62.325 95.6688L65.0563 100.294ZM56.15 90.3438C49.0813 90.7625 40.5625 92.675 35.4438 97.9125C35.125 98.2375 33.9313 99.6188 34.0125 99.9438L41.8563 107.55C42.2188 101.931 46.0625 97.2563 50.3625 93.9875L56.1438 90.3438H56.15ZM55.325 109.206C61.0813 109 67.3813 107.669 72.2875 104.525C73.15 103.975 77.4188 100.7 77.2438 99.8063C77.1125 99.125 70.5375 93.3812 69.7188 92.2125C69.425 92.2125 69.1875 94.3875 69.05 94.8563C67.7688 99.2813 64.5938 102.719 61.1063 105.562L55.325 109.206ZM63.4 113.769C57.8875 113.25 53.3813 109.663 50.0688 105.45L46.2188 99.4563C46.5813 105.775 48.0375 112.6 51.8438 117.769C52.3813 118.494 54.75 121.3 55.4813 121.406C55.7188 121.444 55.8875 121.419 56.0625 121.237L63.4062 113.763L63.4 113.769Z" fill="#E30E2D"/>
<path d="M161.031 85.7812C167.537 86.5125 170.506 93.6375 165.375 98.2125C165.113 98.45 163.938 98.9188 164.244 99.25C170.85 101.381 170.475 110.15 164.662 113.044C164.312 113.219 163.188 113.769 162.9 113.769H147.269V85.7812H161.038H161.031ZM155.337 101.538C155.337 100.844 156.581 97.5375 156.994 97.2875C157.463 97 159.506 97.3125 160.656 96.8125C162.969 95.8125 163.356 92.4187 161.162 91.0437C160.95 90.9125 159.694 90.35 159.581 90.35H152.437V109.425H159.994C160.075 109.425 161.356 108.994 161.55 108.906C164.425 107.612 164.619 103.713 161.869 102.163C161.681 102.056 160.494 101.55 160.413 101.55H155.337V101.538Z" fill="#030303"/>
<path d="M86.8 113.769L98.2063 86.1062C98.3125 85.875 98.475 85.8187 98.7062 85.775C100.175 85.5062 102.337 85.9875 103.894 85.7625L115.581 113.762H109.987L107.113 106.631C103.306 106.412 99.3437 106.456 95.4875 106.606C94.3 108.931 93.6 111.525 92.2812 113.762H86.7937L86.8 113.769ZM105.019 102.156L101.088 92.825L97.3563 102.156H105.019Z" fill="#030303"/>
<path d="M134.219 85.7812V90.55H125.312V113.769H120.137V90.55H111.231V85.7812H134.219Z" fill="#030303"/>
<path d="M143.737 85.7812H138.562V113.769H143.737V85.7812Z" fill="#030303"/>
</svg>
