<svg width="992" height="200" viewBox="0 0 992 200" fill="none" xmlns="http://www.w3.org/2000/svg">
<g clip-path="url(#clip0_2_168)">
<mask id="mask0_2_168" style="mask-type:luminance" maskUnits="userSpaceOnUse" x="0" y="0" width="992" height="200">
<path d="M991.667 0H0V200H991.667V0Z" fill="white"/>
</mask>
<g mask="url(#mask0_2_168)">
<path d="M901.071 105.933H885.629V109.176H901.071V105.933Z" fill="#231F20"/>
<path d="M901.071 105.933H885.629V109.176H901.071V105.933Z" fill="#231F20"/>
<path d="M893.367 1.27023C903.783 1.27023 913.829 2.9082 923.275 5.95017L923.746 5.88329H946.05C946.217 28.7147 964.704 47.3008 987.413 47.3675V69.9316L987.346 70.1987C990.425 79.7929 992.1 90.0216 992.1 100.652C992.1 111.282 990.425 121.645 987.313 131.205L987.413 131.506V153.936C964.638 154.003 946.117 172.656 946.05 195.554H923.746L923.208 195.353C913.763 198.362 903.75 200 893.367 200C882.983 200 873.038 198.362 863.625 195.387L863.192 195.554H841.754C841.688 172.622 823.1 153.936 800.292 153.936C800.025 153.936 799.792 153.936 799.521 153.936V131.573C796.308 121.845 794.6 111.416 794.6 100.618C794.6 89.8212 796.342 79.425 799.521 69.6641V47.3008C799.754 47.3008 800.025 47.3008 800.292 47.3008C823.067 47.3008 841.621 28.6812 841.754 5.81646H863.625C873.004 2.84134 883.017 1.20337 893.367 1.20337" fill="#007F3E"/>
<path d="M893.367 26.3413C934.025 26.3413 967.183 59.7025 967.183 100.618C967.183 141.534 934.025 174.895 893.367 174.895C852.704 174.895 819.583 141.534 819.583 100.618C819.583 59.7025 852.738 26.3413 893.367 26.3413Z" fill="white"/>
<path d="M893.767 32.4921C931.046 32.4921 961.454 63.0787 961.454 100.618C961.454 138.158 931.046 168.745 893.767 168.745C856.492 168.745 826.079 138.158 826.079 100.618C826.079 63.0787 856.492 32.4921 893.767 32.4921Z" fill="#FFC80F" stroke="#231F20" stroke-width="0.24" stroke-miterlimit="2.61"/>
<path d="M868.146 151.329C875.479 148.42 884.154 146.816 893.329 146.749V137.356H862.683C862.921 142.537 864.896 147.318 868.146 151.329Z" fill="white"/>
<path d="M861.85 136.353C861.85 130.637 864.092 125.322 867.846 121.01C865.967 120.274 864.192 119.472 862.521 118.569H862.45C855.117 123.216 850.562 129.5 850.462 136.453H861.817C861.817 136.453 861.817 136.42 861.817 136.386L861.85 136.353Z" fill="white"/>
<path d="M863.088 154.738C869.621 158.516 877.725 161.056 886.129 162.026C878.929 160.555 872.7 157.045 868.346 152.265C866.504 153 864.729 153.802 863.088 154.705V154.738Z" fill="white"/>
<path d="M868.817 152.097C873.138 157.012 879.367 160.622 886.6 162.092C888.875 162.327 891.154 162.494 893.433 162.527L893.367 147.718C884.421 147.752 875.983 149.323 868.817 152.097Z" fill="white"/>
<path d="M861.917 137.356H850.529C850.829 143.874 855.083 149.825 861.883 154.337H861.917C863.725 153.268 865.667 152.365 867.675 151.529C864.229 147.485 862.15 142.604 861.883 137.356H861.917Z" fill="white"/>
<path d="M862.617 136.353C862.617 136.353 862.617 136.386 862.617 136.42H893.262V125.589C884.187 125.556 875.579 123.985 868.313 121.177C864.729 125.489 862.617 130.704 862.617 136.353Z" fill="white"/>
<path d="M925.683 136.353C925.683 136.353 925.683 136.386 925.683 136.42H937.038C936.938 129.433 932.35 123.082 924.913 118.402L924.679 118.536C923.071 119.405 921.363 120.174 919.588 120.909C923.408 125.255 925.683 130.603 925.683 136.353Z" fill="white"/>
<path d="M893.229 124.653L893.163 110.48C889.95 110.48 886.933 110.78 884.121 111.215C878.058 112.92 872.767 116.129 868.983 120.375C876.083 123.082 884.421 124.586 893.229 124.653Z" fill="white"/>
<path d="M883.654 111.282C874.642 112.72 867.746 115.862 863.725 118.101C865.233 118.87 866.875 119.539 868.546 120.174C872.367 116.095 877.625 112.953 883.654 111.248V111.282Z" fill="white"/>
<path d="M900.967 162.092C909.508 161.19 917.646 158.65 924.446 154.705C922.804 153.802 921.029 153 919.187 152.265C914.733 157.112 908.337 160.655 900.967 162.092Z" fill="white"/>
<path d="M894.271 147.685L894.338 162.494C896.413 162.494 898.488 162.327 900.533 162.126C907.933 160.722 914.329 157.078 918.717 152.064C911.583 149.256 903.179 147.719 894.271 147.685Z" fill="white"/>
<path d="M919.821 151.529C921.867 152.365 923.808 153.268 925.617 154.304H925.683C932.483 149.825 936.738 143.874 937.038 137.356H925.617C925.383 142.604 923.271 147.485 919.821 151.529Z" fill="white"/>
<path d="M924.846 137.356H894.233V146.749C903.413 146.816 912.05 148.42 919.354 151.329C922.6 147.318 924.579 142.537 924.813 137.356H924.846Z" fill="white"/>
<path d="M903.679 111.282C900.733 110.814 897.517 110.513 894.133 110.48L894.2 124.653C903.042 124.586 911.383 123.049 918.483 120.308C914.767 116.163 909.608 113.02 903.713 111.315L903.679 111.282Z" fill="white"/>
<path d="M923.475 118.101C919.588 115.928 913.058 112.953 904.55 111.449C910.246 113.154 915.2 116.196 918.888 120.074C920.458 119.438 922.033 118.837 923.475 118.101Z" fill="white"/>
<path d="M924.879 136.353C924.879 130.67 922.738 125.422 919.117 121.11C911.85 123.951 903.242 125.556 894.167 125.622V136.453H924.879C924.879 136.453 924.879 136.42 924.879 136.386V136.353Z" fill="white"/>
<path d="M902.242 110.279H885.258V104.73H902.242V110.279Z" fill="#231F20"/>
<path d="M888.846 54.8887H873.071V59.3012H888.846V54.8887Z" fill="white"/>
<path d="M888.846 54.8887H873.071V59.3345H888.846V54.8887Z" stroke="#231F20" stroke-width="0.28" stroke-miterlimit="2.61"/>
<path d="M888.846 54.8887H873.071V59.3012H888.846V54.8887Z" stroke="#231F20" stroke-width="0.04" stroke-miterlimit="2.61"/>
<path d="M888.846 59.4016H877.158V63.8141H888.846V59.4016Z" fill="white"/>
<path d="M888.846 59.4016H877.158V63.8474H888.846V59.4016Z" stroke="#231F20" stroke-width="0.28" stroke-miterlimit="2.61"/>
<path d="M888.846 59.4016H877.158V63.8141H888.846V59.4016Z" stroke="#231F20" stroke-width="0.04" stroke-miterlimit="2.61"/>
<path d="M888.846 63.9479H881.442V68.3604H888.846V63.9479Z" fill="white"/>
<path d="M888.846 63.9479H881.442V68.3937H888.846V63.9479Z" stroke="#231F20" stroke-width="0.28" stroke-miterlimit="2.61"/>
<path d="M888.846 63.9479H881.442V68.3604H888.846V63.9479Z" stroke="#231F20" stroke-width="0.06" stroke-miterlimit="2.61"/>
<path d="M900.367 89.6542H887.137V54.2204C888.175 31.2887 900.367 32.3584 900.367 54.3204V89.6542Z" fill="white"/>
<path d="M900.367 89.6542H887.137V54.2204C888.175 31.2887 900.367 32.3584 900.367 54.3204V89.6542Z" stroke="#231F20" stroke-width="0.28" stroke-miterlimit="2.61"/>
<path d="M884.592 91.1583H902.942C903.579 91.1583 904.117 91.7933 904.117 92.5621C904.117 93.3312 903.579 93.9662 902.942 93.9662H884.592C883.921 93.9662 883.383 93.3312 883.383 92.5621C883.383 91.7933 883.921 91.1583 884.592 91.1583Z" fill="#231F20"/>
<path d="M884.592 100.719H902.942C903.579 100.719 904.117 101.354 904.117 102.122C904.117 102.892 903.579 103.527 902.942 103.527H884.592C883.921 103.527 883.383 102.892 883.383 102.122C883.383 101.354 883.921 100.719 884.592 100.719Z" fill="#231F20"/>
<path d="M883.383 95.1029H904.117C904.854 95.1029 905.492 96.1058 905.492 97.3758C905.492 98.6462 904.888 99.6492 904.117 99.6492H883.383C882.65 99.6492 882.046 98.6129 882.046 97.3758C882.046 96.1392 882.65 95.1029 883.383 95.1029Z" fill="#231F20"/>
<path d="M893.767 109.443C869.387 109.443 849.558 121.645 849.558 136.62C849.558 151.596 869.387 163.798 893.767 163.798C918.15 163.798 937.979 151.596 937.979 136.62C937.979 121.645 918.15 109.443 893.767 109.443ZM919.592 120.909C921.367 120.207 923.075 119.405 924.679 118.536L924.917 118.402C932.35 123.082 936.971 129.433 937.042 136.42H925.687C925.687 136.42 925.687 136.386 925.687 136.353C925.687 130.603 923.408 125.255 919.592 120.909ZM919.187 152.298C921.029 153.034 922.804 153.836 924.446 154.738C917.65 158.683 909.508 161.223 900.971 162.126C908.338 160.689 914.733 157.145 919.187 152.298ZM900.567 162.16C898.525 162.36 896.446 162.494 894.371 162.527L894.304 147.718C903.179 147.785 911.621 149.323 918.754 152.098C914.367 157.112 907.967 160.755 900.567 162.16ZM894.304 146.783V137.389H924.85C924.613 142.57 922.637 147.351 919.387 151.362C912.087 148.454 903.412 146.85 894.304 146.783ZM894.271 136.453V125.623C903.279 125.556 911.887 123.985 919.154 121.11C922.771 125.422 924.917 130.67 924.917 136.353C924.917 136.353 924.917 136.386 924.917 136.42H894.271V136.453ZM918.954 120.14C915.271 116.263 910.312 113.221 904.621 111.516C913.125 113.02 919.658 115.995 923.542 118.168C922.104 118.904 920.529 119.539 918.954 120.14ZM903.717 111.349C909.642 113.054 914.767 116.229 918.483 120.341C911.383 123.082 903.046 124.653 894.204 124.687L894.138 110.513C897.554 110.513 900.733 110.848 903.683 111.315L903.717 111.349ZM925.654 154.371C923.846 153.335 921.9 152.432 919.858 151.596C923.308 147.551 925.417 142.671 925.654 137.423H937.075C936.771 143.975 932.517 149.891 925.721 154.404H925.654V154.371ZM868.213 151.362C864.967 147.351 862.988 142.57 862.754 137.389H893.367V146.783C884.258 146.816 875.55 148.42 868.246 151.362H868.213ZM868.379 152.332C872.733 157.078 878.962 160.622 886.167 162.093C877.758 161.123 869.654 158.583 863.121 154.805C864.763 153.903 866.537 153.1 868.379 152.365V152.332ZM862.687 136.453C862.687 136.453 862.687 136.42 862.687 136.386C862.687 130.737 864.796 125.523 868.379 121.21C875.65 124.018 884.258 125.589 893.3 125.623V136.453H862.687ZM869.05 120.408C872.838 116.163 878.092 112.92 884.188 111.248C887.004 110.814 890.017 110.547 893.233 110.513L893.3 124.687C884.492 124.653 876.15 123.115 869.05 120.408ZM868.583 120.207C866.942 119.572 865.267 118.904 863.758 118.135C867.813 115.862 874.679 112.753 883.688 111.315C877.658 112.987 872.4 116.129 868.583 120.241V120.207ZM867.879 121.01C864.129 125.355 861.883 130.637 861.883 136.353C861.883 136.353 861.883 136.386 861.883 136.42H850.529C850.629 129.5 855.15 123.183 862.521 118.503H862.587C864.262 119.438 866.037 120.241 867.912 120.976L867.879 121.01ZM850.529 137.389H861.917C862.15 142.638 864.263 147.518 867.713 151.563C865.667 152.398 863.725 153.301 861.95 154.337H861.917C855.117 149.858 850.867 143.908 850.562 137.389H850.529ZM886.6 162.093C879.367 160.622 873.138 157.012 868.817 152.098C875.983 149.29 884.425 147.752 893.367 147.718L893.433 162.527C891.154 162.527 888.879 162.36 886.6 162.093Z" fill="#231F20"/>
<path d="M901.304 105.666H886.2V108.842H901.304V105.666Z" fill="white"/>
<path d="M755.55 70.3996C755.112 69.0287 754.342 67.8587 753.204 66.8225C752.1 65.7862 750.992 65.285 749.887 65.285C748.212 65.285 746.908 65.6191 746.004 66.2879C745.333 66.7891 745 67.3242 745 67.8587C747.475 69.6975 750.458 71.1683 753.975 72.2046C754.408 72.3383 754.779 72.405 755.079 72.405C755.517 72.405 755.75 72.1379 755.75 71.6696C755.75 71.3354 755.683 70.9342 755.55 70.3658M655.575 80.1271C659.662 78.5891 663.746 78.5225 668.904 81.8987C671.417 83.5367 673.829 85.3083 676.271 87.0466C681.529 77.3191 685.483 70.7337 688.062 67.2237C693.654 59.7691 699.146 56.0254 704.508 56.0254C709.362 56.0254 713.583 57.7971 717.133 61.3071C720.146 64.2487 721.654 66.9229 721.654 69.3633C721.654 72.3383 721.117 74.9121 720.112 77.1183C718.942 79.6925 716.767 82.4671 713.683 85.4087C720.079 83.57 728.587 82.0658 733.846 78.0212C735.217 76.9512 736.258 75.7146 737.029 74.3442C737.396 73.6754 738.4 71.5696 739.975 68.0596C740.712 66.4216 741.417 65.5191 742.017 65.3516C743.021 63.4462 744.396 61.6412 746.137 59.9029C748.617 57.4296 750.992 56.2258 753.271 56.2258C756.117 56.2258 758.296 57.9641 759.767 61.5075C760.908 64.115 761.442 67.0566 761.442 70.2991C761.442 73.3746 760.975 76.0821 760.004 78.3221C759.067 80.6283 757.992 81.765 756.887 81.765C751.196 81.765 745.5 79.5587 739.842 75.2129C738.033 79.7591 735.554 83.5367 732.404 86.5117C727.179 91.4258 715.725 93.3979 708.525 95.2029C701.058 97.075 693.487 98.0108 685.817 98.0108C682.3 98.0108 678.817 97.3758 675.4 96.1058C674.129 99.7492 673.158 101.555 672.554 101.555C672.354 101.555 672.254 101.287 672.254 100.719C672.254 99.5487 672.654 97.7437 673.492 95.27C669.508 92.395 667.229 90.8242 666.662 90.4896C662.875 88.3504 660.096 88.1162 657.283 88.885C643.583 92.4287 634.575 101.487 625.667 111.75C622.05 115.895 618.4 117.967 614.746 117.967C611.7 117.967 609.021 116.597 606.742 113.856C604.333 110.981 603.125 107.471 603.125 103.326C603.125 97.6433 605.471 90.1887 610.158 81.0296C610.663 80.0937 611.062 79.6254 611.333 79.6254C611.433 79.6254 611.5 79.7592 611.5 79.9933C611.5 80.9292 610.496 84.105 608.45 89.5871C606.408 95.0692 605.404 99.3817 605.404 102.557C605.404 104.997 605.971 106.936 607.113 108.374C608.317 109.945 609.992 110.747 612.171 110.747C615.988 110.747 619.837 108.808 623.725 104.964C632.8 94.1667 642.008 85.2417 655.642 80.1604M635.346 51.8471C647.233 51.8471 660.8 49.34 676.004 44.3925C686.621 40.9159 694.558 37.7068 699.783 34.7317C699.783 32.8598 698.679 31.2552 696.433 29.9849C694.458 28.8818 692.317 28.347 690.004 28.347H683.875C681.6 28.347 679.788 27.6116 678.45 26.1407C677.108 24.6699 676.475 22.7645 676.475 20.4245C676.475 17.2489 677.613 14.0732 679.754 10.8641C681.967 7.65502 684.208 6.05044 686.521 6.05044C690.337 6.05044 693.925 8.18985 697.238 12.4686C700.754 17.1486 702.563 22.6976 702.563 29.1158C702.563 32.4586 702.129 35.1329 701.258 37.172C700.521 38.9102 699.146 40.7488 697.238 42.7212C694.358 45.5625 686.587 49.1058 673.962 53.3179C658.587 58.4658 644.454 61.0396 631.496 61.0396C621.85 61.0396 614.883 58.4991 610.596 53.4179C607.612 49.8412 606.108 45.3283 606.108 39.9131C606.108 34.13 607.479 28.7815 610.225 23.8007C611.096 22.1962 611.7 21.3939 612.033 21.3939C612.171 21.3939 612.237 21.5611 612.237 21.7616C612.237 22.2965 612 23.1991 611.533 24.5027C610.863 26.2744 610.158 28.0795 609.487 29.8178C608.754 32.0909 608.417 34.5311 608.417 37.1385C608.417 40.4145 610.025 43.3562 613.242 45.9971C617.962 49.8746 625.333 51.8133 635.346 51.8133M692.783 19.9231C690.542 16.5803 688.063 14.9089 685.25 14.9089C683.238 14.9089 682.233 15.544 682.233 16.8477C682.233 18.2851 683.508 19.1543 686.021 19.4885C687.458 19.4885 689.704 19.6891 692.783 19.9231ZM583.9 21.7951C583.9 18.82 583.433 16.4131 582.496 14.5078C582.496 13.4046 583.367 10.8641 585.108 6.81931C585.342 6.3179 585.508 6.0839 585.642 6.0839C585.846 6.0839 586.046 6.35131 586.312 6.85273C586.817 7.92244 587.954 10.7972 589.762 15.544C591.637 20.4914 592.742 23.4999 593.079 24.6699C593.313 25.539 593.446 26.1741 593.446 26.6087C593.446 27.9458 592.142 27.1436 589.496 24.135C589.192 23.7005 589.058 23.8676 589.058 24.7033C589.058 24.9707 589.729 34.4643 591.104 53.1504C592.442 71.8366 593.146 82.3666 593.146 84.7066C593.146 91.8937 592.042 98.2117 589.829 103.66C589.363 104.797 588.992 105.566 588.725 106.067C588.288 106.802 588.021 106.903 587.921 106.402C587.821 105.867 587.854 104.697 588.087 102.892C588.354 100.418 588.492 97.5767 588.492 94.3004C588.492 91.3254 587.754 79.1575 586.212 57.7304C584.704 36.3363 583.933 24.3356 583.933 21.7951M301.061 15.7446C301.061 12.7695 300.592 10.3627 299.688 8.42385C299.688 7.32073 300.559 4.78019 302.267 0.7354C302.501 0.233977 302.669 -1.92076e-05 302.836 -1.92076e-05C303.004 -1.92076e-05 303.238 0.267405 303.472 0.768825C303.975 1.83852 305.114 4.71335 306.922 9.4601C308.798 14.4075 309.903 17.4494 310.205 18.586C310.439 19.4551 310.573 20.1236 310.573 20.5248C310.573 21.8954 309.267 21.0596 306.654 18.0846C306.353 17.65 306.185 17.8171 306.185 18.6194C306.185 18.9203 306.855 28.3804 308.228 47.1C309.602 65.7862 310.271 76.3162 310.271 78.6562C310.271 85.8433 309.2 92.1612 306.989 97.61C306.52 98.7462 306.152 99.5154 305.884 100.017C305.415 100.752 305.18 100.852 305.08 100.317C304.946 99.7829 305.013 98.6129 305.214 96.8075C305.482 94.3337 305.65 91.4925 305.65 88.2167C305.65 85.2417 304.879 73.0737 303.372 51.6462C301.865 30.2524 301.095 18.2517 301.095 15.7111M365.801 109.377C372.064 109.377 379.935 106.335 389.413 100.251C395.341 96.44 399.896 92.9633 403.111 89.8546C403.815 89.1525 404.183 88.5175 404.183 87.9492C404.183 87.2808 403.781 86.1775 402.944 84.7733C401.068 81.765 398.523 77.2858 395.308 71.3687C394.538 70.1654 393.667 68.5608 392.729 66.5887C392.628 66.2879 392.729 65.1179 392.997 63.0787C393.298 61.14 393.499 59.7691 393.7 59.0004C393.901 58.2317 394.102 57.8637 394.336 57.8637C394.504 57.8637 394.738 58.0646 395.04 58.4321C397.016 60.8054 399.327 63.2458 401.906 65.7862C402.944 66.8562 403.48 67.5246 403.48 67.8254C403.48 67.9925 403.312 68.0929 402.977 68.0929C402.542 68.0929 401.403 67.8587 399.561 67.3575C400.968 69.7642 403.045 73.575 405.757 78.8233C406.527 80.5283 406.896 82.4337 406.896 84.5729C406.896 87.3475 406.293 90.2558 405.054 93.2642C404.049 95.7712 402.977 97.5767 401.906 98.7129C398.623 102.089 393.968 105.733 387.906 109.711C379.165 115.494 371.897 118.369 366.103 118.369C360.777 118.369 356.859 116.029 354.347 111.349C352.605 108.106 351.701 104.396 351.701 100.251C351.701 93.7658 353.074 87.1804 355.787 80.4946C356.357 79.0575 356.792 78.3221 357.093 78.3221C357.227 78.3554 357.294 78.5225 357.294 78.79C357.294 79.2579 357.127 79.9933 356.859 80.9292C354.983 87.5479 354.045 92.5958 354.045 96.0721C354.045 99.0475 355.017 101.922 356.959 104.63C359.27 107.839 362.184 109.443 365.835 109.443M305.984 108.741C310.205 108.741 315.295 106.97 321.29 103.36C326.18 100.451 330.97 96.9079 335.658 92.6958C339.878 88.885 342.256 86.2108 342.792 84.64C342.357 82.1662 339.175 80.9629 333.247 80.9629C325.946 80.9629 322.295 78.4892 322.295 73.5416C322.295 69.7308 323.534 66.3546 326.012 63.4462C328.29 60.7387 330.668 59.3683 333.146 59.3683C335.993 59.3683 338.639 61.1733 341.117 64.8504C343.295 67.9925 344.735 71.4691 345.505 75.2129C345.806 76.8846 345.974 78.5891 345.974 80.2942C345.974 86.2779 344.433 91.0246 341.318 94.5679C337.199 99.2146 332.544 103.56 327.419 107.638C318.711 114.525 311.343 118.001 305.382 118.001C300.291 118.001 296.372 116.129 293.592 112.352C291.114 109.009 289.875 104.897 289.875 99.95C289.875 93.465 291.248 86.8796 293.961 80.1604C294.564 78.7229 294.999 78.0212 295.233 78.0212C295.368 78.0879 295.434 78.255 295.434 78.4892C295.434 78.9237 295.3 79.6254 295.033 80.6283C293.123 87.2808 292.152 92.3283 292.152 95.7379C292.152 98.9471 292.956 101.655 294.564 103.894C296.908 107.17 300.726 108.808 305.951 108.808M337.601 72.8062C336.998 71.6362 336.094 70.5333 334.922 69.4633C333.515 68.2933 332.242 67.7254 331.103 67.7254C328.39 67.7254 327.017 68.4608 327.017 69.9316C327.017 71.6362 328.793 72.5054 332.376 72.5054C335.089 72.5054 336.83 72.6058 337.567 72.7729M383.585 67.9925C381.777 64.5496 378.93 61.14 375.045 57.7304C373.705 59.1675 371.93 61.7083 369.753 65.3854C367.375 69.3967 366.203 72.0375 366.203 73.3412C366.203 75.1462 367.576 76.0154 370.289 76.0154C371.461 76.0154 373.002 75.6142 374.945 74.8121C377.724 73.6421 380.236 71.9704 382.447 69.7979C383.318 68.9621 383.686 68.3271 383.552 67.9592M389.38 30.5866C389.38 33.0603 388.174 36.3697 385.762 40.4814C384.222 43.0887 381.911 46.5987 378.897 51.0446C381.978 54.5546 384.054 57.6966 385.126 60.4712C385.796 62.4437 386.131 64.9508 386.131 67.9592C386.131 69.1292 385.863 70.6671 385.36 72.5387C384.825 74.4442 384.255 75.7812 383.652 76.6504C382.48 78.4892 380.404 80.3275 377.423 82.1996C374.241 84.2387 371.461 85.2417 369.184 85.2417C365.533 85.2417 363.691 82.5671 363.691 77.1854C363.691 73.4412 364.327 69.8646 365.634 66.5554C366.739 63.6471 368.849 59.7691 371.964 54.8887C369.217 52.1812 366.337 48.5708 363.256 44.0583C362.887 43.6237 362.117 42.8212 360.945 41.6513C360.275 40.9828 359.907 40.2139 359.907 39.3448C359.907 37.9742 360.107 36.4366 360.476 34.6649C360.844 32.8932 361.146 32.0241 361.414 32.0241C361.782 32.0241 363.223 32.8263 365.734 34.4643C368.212 36.1023 370.155 37.406 371.461 38.4088C372.165 38.9436 372.466 39.3114 372.466 39.4117V39.5119C372.466 39.6791 371.93 39.7794 370.858 39.7794C368.882 39.7794 367.911 39.8797 367.911 40.0468C367.911 40.1471 368.213 40.5816 368.849 41.3505C371.26 44.2921 373.705 46.6654 376.15 48.3704C376.887 47.5679 378.93 44.5596 382.279 39.3114C385.126 34.9323 386.901 31.8569 387.605 30.0852C388.308 28.347 388.777 27.4444 389.045 27.4444C389.279 27.4444 389.413 28.4807 389.413 30.4864M542.942 86.8462C542.808 86.4117 542.471 86.3446 542.171 86.8462C540.529 89.4533 539.292 92.2612 537.683 94.3004C533.596 99.5154 528.775 102.657 520 103.059C511.625 103.46 504.592 99.9162 504.929 90.6904L505.429 85.91C505.596 85.91 506.033 87.8154 507.071 89.2529C509.517 92.5958 515.913 94.1333 519.663 94.2337C526.229 94.4342 531.083 92.6292 535.137 89.0858C536.979 87.4812 538.654 85.5087 540.262 83.2025C541.5 81.3975 542.708 79.6254 543.879 77.8204C544.313 77.1521 544.883 76.9512 545.25 76.9512C545.788 76.9512 546.054 77.5196 546.054 78.6229C546.054 81.4975 546.792 83.8042 548.3 85.5087C553.292 91.6596 559.654 93.465 565.95 88.3171C566.754 87.6483 567.154 85.1746 567.154 80.9292C567.154 78.3221 566.487 67.8925 565.146 49.6741C563.842 31.4558 563.171 20.6919 563.171 17.416C563.171 14.4743 562.7 12.0006 561.762 10.0953C561.762 9.05898 562.633 6.48502 564.375 2.4068C564.575 1.90538 564.746 1.67138 564.946 1.67138C565.146 1.67138 565.346 1.97224 565.583 2.50708C566.083 3.57678 567.221 6.4516 569.029 11.1984C570.875 16.1457 572.012 19.1543 572.379 20.2574C572.546 21.1599 572.683 21.8285 572.683 22.1962C572.683 23.5668 571.375 22.7645 568.763 19.7894C568.462 19.3548 568.296 19.5554 568.296 20.3242C568.296 20.5248 568.863 28.6144 570.071 44.66C571.242 60.7054 571.846 70.2991 571.846 73.3412C571.846 82.3 570.204 89.3196 567.021 94.4342C563.908 99.4817 560.525 100.752 557.208 100.317C550.242 99.415 545.117 92.9967 543.008 86.7458M415.57 29.8512C414.967 24.0682 414.197 19.4885 413.293 16.1123C412.522 13.2375 411.886 11.8335 411.317 11.8335C410.48 11.8335 409.14 14.3072 407.298 19.2545C406.996 20.0902 406.695 20.4914 406.427 20.4914C406.159 20.4914 406.059 19.9899 406.159 18.9537C406.527 15.1429 407.398 11.5995 408.772 8.39044C410.178 5.01419 411.585 3.34279 412.992 3.34279C415.872 3.34279 418.083 10.3627 419.658 24.4693C420.292 30.2189 420.796 40.5148 421.129 55.4571C421.467 69.4971 421.767 77.2858 422 78.6896C422.233 80.1604 422.604 81.4308 423.004 82.5671C430.071 101.755 482.554 84.5062 494.946 80.1271L474.683 74.5779C472.808 74.11 471.538 73.8758 470.933 73.9096C470.429 73.9096 469.996 74.2104 469.592 74.7116C469.192 75.2467 468.487 75.4137 467.417 75.3133C463.833 75.1796 459.912 74.9458 455.625 74.6112C454.654 74.3775 454.121 74.0096 454.121 73.575C454.121 73.3075 454.287 72.9067 454.587 72.3383L457.571 66.3546C458.004 65.4854 458.608 65.0175 459.312 64.9171C464.637 64.1483 468.858 63.8475 472.004 64.0483C483.996 67.2908 492.837 69.5304 498.562 70.8675C511.092 73.6754 521.775 75.4137 530.617 76.0487C532.325 76.1491 533.163 76.4166 533.163 76.8175C533.163 76.9512 533.129 77.1521 532.992 77.3858L529.712 83.7708C529.375 84.4391 528.975 84.7733 528.471 84.7733C528.471 84.7733 527.367 84.74 525.158 84.6062C522.946 84.5062 520.837 84.4725 518.858 84.4725C510.421 84.5062 503.354 85.4087 497.625 87.1804C490.862 89.4533 484.096 91.7267 477.329 93.9996C464.671 97.8104 428.296 107.404 420.292 91.3254C419.388 89.5204 418.717 87.3142 418.25 84.6733C417.646 81.4308 417.146 72.8396 416.742 58.8C416.341 43.49 415.905 33.8626 415.503 29.8846M224.699 103.727C226.072 103.727 226.742 103.326 226.742 102.557C226.742 101.555 225.972 100.719 224.431 100.05C222.622 99.3483 220.245 99.2812 217.197 99.7829C219.441 102.423 221.919 103.761 224.699 103.761M190.604 85.7429C191.81 85.1746 192.547 84.8404 192.982 84.8404C193.552 84.8404 193.719 85.4754 193.485 86.7458C193.284 87.9492 193.183 89.0187 193.183 90.0217C193.183 93.0637 194.154 95.2029 196.097 96.4067C199.58 98.5792 201.958 97.3758 205.274 95.6375C206.178 95.1696 207.083 94.6683 208.02 94.1333C206.982 88.0162 207.618 81.4308 209.695 75.5808C210.532 73.1742 211.704 70.9342 213.144 68.8616C215.79 65.0846 218.369 63.2125 220.78 63.2125C221.718 63.2125 222.924 64.5162 224.398 67.09C226.675 71.1012 228.45 73.9096 229.723 75.5142C230.359 76.3162 230.995 77.085 231.699 77.7871C236.388 82.6675 240.943 85.4754 247.072 80.8958C247.206 80.7621 247.373 80.6621 247.507 80.5283C248.277 79.8929 249.048 79.1908 249.684 78.3221C252.096 74.9792 254.407 71.6029 256.785 68.2266C257.32 67.625 257.789 67.3575 258.191 67.3575C258.727 67.3575 258.995 67.9258 258.995 69.0287C258.995 71.9037 259.732 74.2104 261.239 75.915C266.229 82.0658 272.626 83.8708 278.889 78.7229C279.693 78.0546 280.095 75.5808 280.095 71.3354C280.095 68.7279 279.827 66.4883 278.521 48.27C277.215 30.0184 276.545 19.288 276.545 16.012C276.545 13.0704 276.076 10.5967 275.138 8.69127C275.138 7.65502 276.009 5.08106 277.75 1.00282C277.952 0.534829 278.119 0.267405 278.32 0.267405C278.487 0.267405 278.722 0.534829 278.99 1.10311C279.459 2.13937 280.597 5.0476 282.406 9.7944C284.248 14.7417 285.42 17.7503 285.755 18.8868C285.99 19.7894 286.023 20.4579 286.023 20.8256C286.023 22.1628 284.683 21.3939 282.105 18.4189C281.77 18.0177 281.636 18.1849 281.636 18.9871C281.636 19.1877 282.238 27.3107 283.411 43.3229C284.583 59.3683 284.75 60.7721 284.75 63.8475C284.75 72.8062 283.109 79.7929 279.928 84.9408C276.813 89.9883 273.464 91.2587 270.114 90.8242C263.148 89.9212 258.024 83.5033 255.914 77.2521C255.78 76.7842 255.478 76.7842 255.11 77.2521C253.301 80.3275 251.459 83.3696 249.584 86.4117C242.283 96.8075 234.68 92.5958 227.345 84.4392C225.57 82.4 223.761 79.6592 222.02 76.1492C220.747 73.6754 219.742 72.4387 218.972 72.4387C217.833 72.4387 216.259 73.6421 214.216 76.0487C210.532 80.3275 209.661 87.3475 212.14 92.5287C216.326 91.0912 219.742 90.3896 222.321 90.3896C224.9 90.3896 226.977 91.4925 228.517 93.7321C230.058 95.9721 230.828 98.8467 230.828 102.423C230.828 105.432 230.158 107.906 228.885 109.878C227.58 111.817 225.871 112.786 223.694 112.786C218.872 112.786 214.518 109.076 210.599 101.688C210.264 101.889 209.494 102.29 208.188 102.858C205.307 104.062 202.26 106 199.312 106.468C194.221 107.27 190.671 102.39 189.934 97.9108C189.733 96.7075 189.666 95.3704 189.666 93.9662C189.666 93.6987 189.566 93.5983 189.332 93.7321C187.423 94.9358 185.145 96.0721 182.499 97.1754C167.394 103.493 139.361 110.112 121.242 103.794C113.74 101.187 108.649 96.1725 104.597 89.5204C103.525 87.7821 102.386 86.9462 101.248 86.9462C97.7975 86.9462 94.1471 89.8879 90.3288 95.7379C89.6592 96.7742 88.42 99.5154 86.645 103.894C84.8696 108.34 83.3625 111.516 82.0563 113.488C80.0133 116.497 77.87 118.035 75.5588 118.035C72.1429 118.035 69.2958 115.394 66.9179 110.079C64.8079 105.399 63.7696 100.518 63.7696 95.4704C63.7696 89.3533 64.4396 84.5062 65.6117 80.8292C66.0471 79.5587 66.315 78.89 66.65 78.89C67.0183 78.89 67.1188 79.6925 66.9179 81.2971C66.4492 85.2079 66.1813 88.4842 66.1813 91.1917C66.1813 104.095 69.1621 110.547 75.1904 110.547C77.6021 110.547 79.98 108.741 81.8554 104.897C84.0325 100.451 85.9079 95.8383 88.085 91.3587C89.86 87.6483 92.2046 84.5062 94.8838 81.8317C97.5967 79.1908 100.042 77.8537 102.252 77.8537C103.927 77.8537 105.501 78.8567 106.874 80.9962C108.113 82.9016 109.118 84.9071 110.391 86.7458C111.63 88.5842 113.238 90.0887 115.046 91.2587C117.793 93.0637 120.84 94.4342 124.123 95.4371C141.773 100.719 165.653 94.9358 181.394 89.3867C184.609 88.25 187.724 87.0133 190.571 85.7762M59.6838 70.9679C59.6838 68.6612 60.2529 66.3546 61.9946 63.2458C63.2004 60.9392 64.8417 58.6662 66.1142 56.8946C66.5829 56.2258 66.9517 55.7912 67.4875 55.1896C67.8221 54.8221 68.5254 54.12 68.9275 54.0196C68.9275 54.0196 69.1283 53.9529 68.9946 54.3204C68.5925 55.3566 67.7217 56.3929 67.1188 57.2621C64.0713 62.0758 62.5304 64.9171 62.5304 67.09C62.5304 68.6279 63.1 69.3966 64.2721 69.3966C64.7746 69.3966 65.6454 69.1625 66.2146 68.5942C66.4492 68.3604 67.0521 66.8225 66.985 68.2933C66.985 68.7617 66.9179 69.2296 66.8508 69.6975C66.65 70.9679 66.2817 72.2379 65.7458 73.2742C65.0425 74.645 63.9708 75.5808 62.5304 75.5808C60.7888 75.5808 59.65 74.0429 59.65 70.9679M248.412 114.257C248.412 112.352 248.88 110.48 250.32 107.972C251.325 106.034 252.665 104.195 253.703 102.758C254.072 102.223 254.407 101.822 254.842 101.354C255.11 101.053 255.679 100.485 256.014 100.385C256.014 100.385 256.182 100.317 256.048 100.652C255.746 101.521 255.01 102.357 254.54 103.059C252.029 107.003 250.79 109.343 250.79 111.115C250.79 112.385 251.258 112.987 252.23 112.987C252.632 112.987 253.368 112.82 253.837 112.352C254.038 112.151 254.507 110.881 254.44 112.084C254.44 112.452 254.373 112.82 254.34 113.221C254.172 114.29 253.904 115.293 253.435 116.129C252.866 117.265 251.995 118.035 250.823 118.035C249.383 118.035 248.445 116.764 248.445 114.257M414.097 113.956C414.097 112.452 414.398 110.914 415.235 108.875C415.838 107.337 416.642 105.833 417.279 104.697C417.513 104.262 417.679 103.961 417.95 103.56C418.117 103.326 418.45 102.858 418.65 102.791C418.65 102.791 418.754 102.758 418.65 102.992C418.483 103.694 418.017 104.329 417.746 104.931C416.24 108.106 415.47 109.978 415.47 111.382C415.47 112.418 415.771 112.92 416.341 112.92C416.575 112.92 417.012 112.786 417.312 112.385C417.446 112.218 417.712 111.215 417.679 112.185C417.679 112.485 417.679 112.786 417.612 113.087C417.512 113.956 417.346 114.792 417.079 115.46C416.708 116.363 416.207 116.965 415.503 116.965C414.633 116.965 414.097 115.962 414.097 113.923M715.358 16.8477C715.358 14.9423 715.825 13.0704 717.267 10.5298C718.271 8.59098 719.612 6.75244 720.65 5.31502C721.05 4.78019 721.354 4.37906 721.788 3.91106C722.058 3.61021 722.625 3.0085 722.962 2.97508C722.962 2.97508 723.129 2.90822 723.029 3.2425C722.725 4.0782 721.987 4.9139 721.521 5.64931C719.008 9.59381 717.771 11.9338 717.771 13.7055C717.771 14.9757 718.237 15.6109 719.208 15.6109C719.612 15.6109 720.35 15.4437 720.817 14.9757C721.017 14.7752 721.488 13.5049 721.454 14.7083C721.454 15.076 721.387 15.4771 721.321 15.8449C721.188 16.8811 720.883 17.9174 720.45 18.7531C719.846 19.8897 718.975 20.6251 717.804 20.6251C716.362 20.6251 715.425 19.3548 715.425 16.8477M515.275 42.5537L523.312 47.8354L526.729 42.3867L534.333 47.3341L538.454 40.1471L530.683 35.1329L527 40.8157L519.867 35.8014L515.275 42.5537ZM362.385 10.7304L370.356 15.9786L373.772 10.5632L381.342 15.4772L385.427 8.32356L377.658 3.34279L374.007 8.99215L366.906 3.97792L362.318 10.7304H362.385ZM151.72 117.566L158.921 122.28L162.002 117.433L168.801 121.845L172.485 115.427L165.519 110.947L162.236 116.029L155.873 111.55L151.753 117.6L151.72 117.566ZM61.9613 38.7097L69.7983 43.8575L73.1475 38.5425L80.5829 43.3562L84.6017 36.3363L76.9992 31.4558L73.3821 37.0048L66.4492 32.0909L61.9613 38.7097ZM234.278 35.2332L242.148 40.4145L245.531 35.0994L253.033 39.9465L257.052 32.8932L249.383 27.9458L245.765 33.5283L238.766 28.6144L234.244 35.2666L234.278 35.2332ZM181.628 29.4501C183.002 29.4501 184.174 30.2524 185.279 31.8569C186.351 33.4614 187.088 35.534 187.556 38.1079C187.59 38.3754 187.623 38.5425 187.623 38.5759C187.69 38.6428 187.724 38.6428 187.757 38.5759C187.757 38.5425 187.824 38.3754 187.925 38.1079C188.159 36.5703 188.695 34.2637 189.533 31.2218C190.47 29.0155 191.475 27.9124 192.513 27.9124C193.083 27.9124 193.652 28.2801 194.188 29.0489C194.69 29.6841 194.925 30.2189 194.925 30.6535C194.925 30.9544 194.857 31.3555 194.69 31.8569C194.489 32.5255 194.221 32.8597 193.953 32.8597C193.82 32.8597 193.552 32.5923 193.15 32.0909C192.747 31.5895 192.312 31.3221 191.877 31.3221C190.906 31.3221 190.001 33.5952 189.197 38.1414C188.829 40.1137 188.427 41.5176 187.992 42.3533C187.69 42.9216 187.389 43.1892 187.222 43.1892C187.054 43.1892 186.92 42.9216 186.92 42.42C186.92 41.6179 186.451 40.0802 185.547 37.7737C184.643 35.4671 183.973 34.3306 183.604 34.3306C183.336 34.3306 183.169 34.3974 183.102 34.598C183.035 34.7651 182.8 34.832 182.432 34.832C181.997 34.832 181.494 34.5646 180.825 33.9294C180.155 33.3277 179.82 32.8598 179.82 32.4921C179.82 32.3249 180.088 31.7566 180.657 30.8541C181.226 29.9181 181.561 29.4501 181.695 29.4501M332.677 1.50424C334.051 1.50424 335.223 2.30652 336.328 3.91106C337.4 5.5156 338.137 7.58815 338.572 10.1621C338.639 10.4295 338.639 10.5967 338.639 10.6301C338.672 10.6969 338.74 10.6969 338.74 10.6301C338.74 10.5967 338.807 10.4295 338.907 10.1621C339.142 8.6244 339.678 6.3179 340.515 3.27593C341.419 1.06968 342.424 -0.0334473 343.529 -0.0334473C344.065 -0.0334473 344.634 0.334261 345.204 1.10311C345.672 1.73824 345.907 2.27309 345.907 2.67423C345.907 2.97508 345.806 3.37621 345.673 3.91106C345.438 4.5796 345.204 4.9139 344.902 4.9139C344.802 4.9139 344.534 4.64648 344.132 4.14506C343.73 3.64364 343.295 3.37621 342.859 3.37621C341.888 3.37621 340.984 5.64931 340.18 10.1955C339.811 12.2012 339.41 13.5718 338.974 14.4075C338.672 14.9423 338.405 15.2097 338.204 15.2097C337.969 15.2097 337.902 14.9423 337.902 14.4409C337.902 13.6721 337.433 12.1009 336.529 9.7944C335.591 7.48785 334.955 6.35131 334.587 6.35131C334.319 6.35131 334.151 6.41815 334.084 6.58531C334.017 6.75244 333.783 6.85273 333.448 6.85273C333.012 6.85273 332.477 6.5519 331.84 5.95019C331.17 5.34848 330.835 4.88048 330.835 4.47935C330.835 4.31219 331.137 3.74392 331.673 2.84137C332.242 1.93881 332.61 1.47082 332.745 1.47082M157.246 62.2096C157.246 62.5775 156.509 64.0483 155.069 65.8533C153.595 68.0596 151.787 69.8979 150.682 70.9679C149.576 71.7033 146.663 72.4387 141.538 73.8758C140.433 74.2437 140.065 74.2437 140.065 74.2437C140.065 74.2437 140.433 73.8758 140.802 73.5083C141.538 72.7729 143.347 71.7033 146.629 70.2325C149.208 68.7617 151.017 67.6917 151.385 67.3242C151.753 67.3242 151.753 66.9562 151.753 66.9562C151.753 66.2208 149.208 65.8533 144.084 65.8533C144.084 65.8533 142.978 65.8533 141.17 66.2208C140.065 66.2208 139.696 66.2208 139.696 65.8533C139.696 65.8533 139.696 65.5191 140.065 65.1512L141.907 61.8754C142.275 61.14 143.347 60.4046 144.82 60.4046C145.189 60.0367 146.294 60.0367 148.103 60.0367C154.332 60.0367 157.246 60.7721 157.246 62.2096ZM82.425 6.71902C82.425 7.08673 81.6879 8.52415 80.2479 10.3627C78.7742 12.5689 76.9654 14.374 75.8604 15.4772C74.755 16.2126 71.8413 16.948 66.7171 18.3854C65.6117 18.7531 65.2433 18.7531 65.2433 18.7531C65.2433 18.7531 65.6117 18.3854 65.98 18.0511C66.7171 17.3157 68.5254 16.2126 71.8413 14.7752C74.3867 13.3044 76.2288 12.2012 76.5971 11.8335C76.9321 11.8335 76.9321 11.4658 76.9321 11.4658C76.9321 10.7304 74.3867 10.3627 69.2625 10.3627C69.2625 10.3627 68.1571 10.3627 66.3488 10.7304C65.2433 10.7304 64.875 10.7304 64.875 10.3627C64.875 10.3627 64.875 9.99498 65.2433 9.62727L67.0854 6.35131C67.4538 5.6159 68.5254 4.88048 69.9992 4.88048C70.3675 4.51277 71.4729 4.51277 73.2817 4.51277C79.5108 4.51277 82.425 5.24819 82.425 6.6856M754.946 103.995C754.812 103.593 754.579 103.259 754.275 102.992C753.975 102.691 753.671 102.557 753.337 102.557C752.871 102.557 752.5 102.624 752.233 102.825C752.033 102.958 751.967 103.092 751.967 103.259C752.633 103.761 753.504 104.195 754.508 104.496C754.646 104.496 754.746 104.563 754.812 104.563C754.946 104.563 755.012 104.496 755.012 104.362C755.012 104.262 755.012 104.128 754.979 103.995M756.621 103.995C756.621 104.864 756.488 105.632 756.217 106.268C755.95 106.903 755.65 107.237 755.346 107.237C753.742 107.237 752.133 106.602 750.525 105.365C750.325 105.867 749.788 107.705 748.917 109.042C745.433 114.224 735.821 116.229 730.129 117.332C729.021 117.566 727.917 117.7 726.879 117.8C727.95 117.433 728.554 117.032 729.625 116.63C735.821 114.19 741.85 111.382 747.475 107.906C748.583 107.204 749.454 105.7 749.754 105.131C749.854 104.931 750.121 104.362 750.558 103.36C750.792 102.892 750.958 102.624 751.129 102.624C751.429 102.089 751.796 101.555 752.267 101.053C752.971 100.351 753.637 100.017 754.275 100.017C755.079 100.017 755.683 100.518 756.117 101.487C756.421 102.223 756.587 103.059 756.587 103.961M181.394 9.72756C181.394 12.6358 180.657 14.8086 179.183 17.7169C177.006 20.6251 174.796 22.8314 171.882 25.0041C170.408 25.7396 169.705 26.475 169.705 26.475C169.705 25.7396 170.442 25.7396 171.145 24.2687C176.236 19.1877 178.447 15.544 178.447 14.1066C178.447 11.9338 177.743 11.1984 176.27 11.1984C175.566 11.1984 174.83 11.9338 174.092 11.9338C173.356 12.6692 172.619 12.6692 172.619 12.6692V11.2318C173.356 7.58815 175.566 5.41531 178.447 5.41531C180.657 5.41531 181.394 6.85273 181.394 10.4964V9.76098V9.72756ZM516.317 117.533C520.133 116.196 539.658 108.675 543.946 107.103H544.146V107.337C543.946 107.772 542.742 109.477 542.742 109.477C539.154 110.814 519.629 118.335 514.908 120.14C514.908 119.706 516.113 118.001 516.317 117.533ZM719.446 26.6756C724.904 24.7367 752.837 13.9729 758.967 11.7332H759.3V12.0675C758.967 12.7026 757.258 15.1429 757.258 15.1429C752.133 17.0817 724.167 27.8456 717.4 30.3861C717.4 29.7509 719.108 27.3107 719.446 26.6756ZM227.613 17.9843C233.105 16.0789 261.038 5.31502 267.167 3.04193H267.502V3.37621C267.167 4.01135 265.459 6.4516 265.459 6.4516C260.301 8.39044 232.369 19.1543 225.603 21.7282C225.603 21.0931 227.312 18.6528 227.613 17.9843ZM111.06 59.0004C119.467 56.0254 162.504 39.4451 171.916 36.002H172.418V36.5034C171.916 37.5062 169.303 41.2502 169.303 41.2502C161.399 44.2254 118.328 60.8054 107.946 64.75C107.946 63.7471 110.558 60.0033 111.094 59.0004M317.104 37.8405C318.678 37.2722 322.161 35.9686 326.448 34.364V33.2609C326.883 32.3583 326.883 31.4558 326.883 30.5532C326.883 26.9096 324.606 23.2659 320.486 19.1543C320.051 19.1543 320.051 18.6863 320.051 18.6863L321.424 16.4131C321.424 15.9451 321.893 15.9451 321.893 16.4131C326.448 19.5888 328.257 23.7005 328.257 28.7147C328.257 30.5198 327.821 31.8904 327.352 33.7289C327.218 33.8626 327.118 34.0297 327.017 34.1634C337.467 30.1855 352.337 24.5027 356.591 22.9316H356.926V23.2659C356.591 23.901 354.883 26.3413 354.883 26.3413C349.725 28.2801 321.792 39.0439 315.027 41.5845C315.027 40.9494 316.735 38.5091 317.07 37.874M496.787 6.98644C495.75 9.5604 494.979 11.0312 494.512 11.3989C481.112 16.0789 463.529 22.5639 442.062 31.7566C438.179 33.428 436.404 35.066 436.404 35.768C436.404 36.236 437.037 36.7708 438.279 37.406C439.517 38.0411 441.492 38.7765 444.242 39.7125C444.708 39.8797 444.942 40.8825 444.942 42.7546C444.942 44.3254 444.875 45.295 444.708 45.5625C444.575 45.83 444.004 45.8633 443.033 45.6629C436.771 44.4591 433.621 42.2866 433.621 39.0774C433.621 37.3057 434.458 34.9657 436.2 32.0909C437.542 29.8846 438.946 28.1798 440.421 26.9764V26.5419C440.825 25.7061 440.825 24.9039 440.825 24.0682C440.825 20.7254 438.746 17.416 434.996 13.7055C434.596 13.7055 434.596 13.2709 434.596 13.2709L435.833 11.1984C435.833 10.7972 436.233 10.7972 436.233 11.1984C440.387 14.1066 442.062 17.8506 442.062 22.3968C442.062 23.8007 441.763 24.9039 441.425 26.241C441.492 26.1741 441.596 26.1073 441.663 26.0739C443.333 25.0041 452.579 21.3939 469.358 15.31C478.033 12.1678 486.742 9.0924 495.417 5.95019C496.354 5.6159 496.921 5.44877 497.058 5.54902C497.158 5.71619 497.058 6.18419 496.754 6.95302M659.425 1.63795L667.262 6.61873L663.108 13.5384L655.038 8.55756L659.425 1.63795ZM484.867 105.8L492.904 110.881L488.65 117.967L480.379 112.887L484.9 105.8H484.867ZM208.858 33.194L216.962 38.3419L212.642 45.4954L204.303 40.3476L208.858 33.194ZM713.179 108.541C712.946 107.939 712.308 107.638 711.271 107.638C710.233 107.638 708.658 108.675 706.617 110.68C706.85 110.714 707.087 110.747 707.354 110.747C708.458 110.747 709.629 110.48 710.937 109.945C712.142 109.443 712.913 108.975 713.212 108.541M714.354 107.605C714.354 109.276 713.55 110.747 711.875 112.017C710.2 113.287 708.292 113.923 706.179 113.923C705.779 113.923 705.275 113.856 704.675 113.689C704.071 113.522 703.637 113.455 703.333 113.455C701.058 113.455 698.779 114.525 696.467 116.731C694.758 118.435 693.087 120.14 691.379 121.812C690.337 122.581 689.3 123.115 688.296 123.416C687.058 123.784 686.321 123.985 686.154 123.985C686.121 123.985 686.087 123.985 686.087 123.951C686.087 123.884 686.554 123.55 687.492 122.982C688.396 122.514 689.738 121.578 691.579 120.14C692.483 119.238 693.788 117.834 695.496 115.828C696.671 114.457 697.942 113.254 699.25 112.285C700.788 111.148 702.163 110.513 703.433 110.346C703.3 110.346 704.071 110.38 705.813 110.38C706.85 109.343 707.887 108.34 708.929 107.337C710.3 106.134 711.437 105.532 712.308 105.532C713.683 105.532 714.354 106.234 714.354 107.605ZM132.06 23.1322C131.759 21.8954 131.29 20.4245 130.553 18.7197C129.783 16.8477 129.247 15.9117 128.912 15.9117C128.678 15.9117 128.543 15.9786 128.476 16.1457C128.41 16.2794 128.208 16.3797 127.907 16.3797C127.539 16.3797 127.07 16.1123 126.5 15.5774C125.898 15.0426 125.63 14.6415 125.63 14.3072C125.63 14.1735 125.864 13.6721 126.366 12.8698C126.869 12.0675 127.17 11.6329 127.304 11.6329C128.51 11.6329 129.548 12.3349 130.52 13.7389C131.457 15.1429 132.127 16.9814 132.495 19.2545C132.529 19.4885 132.562 19.6222 132.562 19.6557C132.562 19.7225 132.63 19.7225 132.63 19.6557C132.63 19.6222 132.696 19.4551 132.797 19.2545C132.998 17.884 133.467 15.8783 134.204 13.1706C135.008 11.2652 135.912 10.2624 136.85 10.2624C137.352 10.2624 137.821 10.5967 138.323 11.2652C138.758 11.8335 138.993 12.3015 138.993 12.6692C138.993 12.9366 138.926 13.3044 138.758 13.7389C138.591 14.3406 138.323 14.6415 138.122 14.6415C137.988 14.6415 137.754 14.4075 137.419 13.9395C137.05 13.5049 136.682 13.2709 136.314 13.2709C135.443 13.2709 134.673 15.2766 133.935 19.288C133.634 20.8256 133.299 22.0625 132.864 22.9985C133.534 23.0654 134.438 23.5333 135.51 24.4359C136.615 25.305 137.218 26.0739 137.285 26.709C137.285 26.8761 137.151 27.3441 136.85 28.0461C136.515 28.7481 136.314 29.1492 136.18 29.1826C135.141 29.4835 134.103 29.7509 133.065 30.0518C131.759 30.4864 130.854 30.9878 130.352 31.5561C131.792 35.9352 132.529 40.2139 132.529 44.4929C132.529 45.7296 132.395 47.0333 132.127 48.3371C131.993 48.7716 131.926 49.0054 131.893 49.0387C131.759 49.0387 131.692 48.3033 131.692 46.7991C131.692 44.3254 131.357 41.3505 130.62 37.9074C129.917 34.4309 129.548 32.4586 129.548 31.9572C129.548 30.2189 130.017 28.9821 131.022 28.1464C131.491 27.7787 132.362 27.3776 133.668 27.0099C133.132 26.475 132.63 26.2076 132.127 26.2076C131.893 26.2076 131.558 26.475 131.156 27.0433C130.72 27.6116 130.486 27.879 130.419 27.879C130.318 27.879 130.285 27.645 130.318 27.177C130.553 24.9373 131.156 23.6336 132.16 23.1991M519.663 17.7837C517.587 22.9651 510.321 25.4053 505.629 27.2439C503.287 28.2467 502.817 27.9458 505.296 26.5753C506.871 25.8399 508.375 24.9707 509.85 24.0682C513.2 22.0625 515.946 20.1905 518.692 17.4494C518.692 16.012 515.979 10.2958 515.812 10.2958C516.079 10.9644 514.642 12.0675 513.433 10.7304C512.396 9.59381 511.962 8.75815 512.396 7.22044C512.562 6.61873 513.971 4.84706 514.708 5.24819C515.579 5.71619 516.783 7.22044 517.254 8.12298C518.192 9.66069 518.892 12.9366 519.396 14.1735C519.696 12.2681 520.433 9.5604 520.837 7.75527C521.504 5.81648 522.479 4.41248 523.417 4.41248C526.462 4.41248 525.425 10.7304 525.021 10.7304C524.554 10.7304 524.354 7.75527 522.979 7.75527C522.308 7.88898 521.708 9.96152 521.104 12.2346C520.533 14.5078 520.267 16.948 519.629 17.7503M487.512 32.2581C487.512 32.6258 486.775 34.13 485.3 35.9686C483.829 38.1748 481.95 40.0468 480.846 41.1499C479.742 41.8854 476.763 42.6208 471.571 44.125C470.462 44.4929 470.096 44.4929 470.096 44.4929C470.096 44.4929 470.462 44.125 470.833 43.7575C471.571 43.0221 473.446 41.9187 476.762 40.4145C479.371 38.9436 481.217 37.8071 481.583 37.4394C481.95 37.4394 481.95 37.0717 481.95 37.0717C481.95 36.3363 479.371 35.9686 474.15 35.9686C474.15 35.9686 473.042 35.9686 471.167 36.3363C470.062 36.3363 469.658 36.3363 469.658 35.9686C469.658 35.9686 469.658 35.6009 470.029 35.2332L471.871 31.8904C472.237 31.1549 473.346 30.4195 474.85 30.4195C475.221 30.0518 476.325 30.0518 478.167 30.0518C484.496 30.0518 487.446 30.7872 487.446 32.2581M636.617 9.25956C636.617 9.5604 636.017 10.7972 634.775 12.3349C633.537 14.1735 632.029 15.7111 631.092 16.6471C630.188 17.2489 627.708 17.884 623.421 19.0874C622.483 19.3882 622.217 19.3882 622.217 19.3882C622.217 19.3882 622.517 19.0874 622.821 18.7866C623.421 18.1849 624.962 17.2489 627.708 16.012C629.854 14.8086 631.392 13.8726 631.696 13.5718C632.029 13.5718 632.029 13.2709 632.029 13.2709C632.029 12.6692 629.887 12.3349 625.567 12.3349C625.567 12.3349 624.629 12.3349 623.121 12.6358C622.217 12.6358 621.917 12.6358 621.917 12.3349C621.917 12.3349 621.917 12.0341 622.217 11.7332L623.758 8.95869C624.058 8.35698 624.996 7.72185 626.2 7.72185C626.504 7.42102 627.442 7.42102 628.983 7.42102C634.208 7.42102 636.65 8.05615 636.65 9.25956M538.487 21.4274C538.487 19.2545 538.987 17.5831 539.958 15.4103C541.4 13.2041 542.908 11.5661 544.85 9.92811C545.821 9.39327 546.325 8.82498 546.325 8.82498C546.325 9.39327 545.821 9.39327 545.317 10.463C541.904 14.2738 540.429 17.0149 540.429 18.118C540.429 19.7559 540.896 20.2908 541.904 20.2908C542.404 20.2908 542.875 19.7559 543.375 19.7559C543.846 19.1877 544.346 19.1877 544.346 19.1877V20.2908C543.846 23.0319 542.371 24.6699 540.429 24.6699C538.954 24.6699 538.487 23.5668 538.487 20.8256V21.3605V21.4274ZM46.0525 61.4075L47.4925 58.7667L50.775 59.8362L49.2342 63.0787L46.1529 61.9754L44.6458 64.4825L41.2295 63.2125L42.9042 60.1037L46.0858 61.3737L46.0525 61.4075ZM47.3588 55.6575L44.6458 54.3875L42.6363 57.3625L45.215 58.7667L47.3588 55.6912V55.6575ZM22.8424 62.8446C21.9716 61.0396 21.3688 59.97 21.0673 59.435C20.3305 58.0646 19.6607 56.9612 18.9573 56.0921L18.8569 56.3262C18.7899 57.0283 18.9573 58.3987 19.2253 60.4712C19.4262 61.9087 19.6272 63.1454 19.8281 64.6162L22.8424 62.8446ZM20.7994 73.3746C22.2061 71.9704 23.6797 70.6671 25.1869 69.43C24.6845 67.7254 24.0481 65.8867 23.2443 63.9479L19.9286 65.9533C19.9286 66.8896 20.1296 68.26 20.297 69.4971C20.4645 70.8342 20.565 72.0375 20.7659 73.4079M10.5173 99.1808C10.5843 98.4792 10.7183 97.71 10.8858 96.9746C11.3546 95.0358 12.1585 93.1642 13.3307 91.2921C13.2302 89.7879 13.3307 88.2167 13.4981 86.6454C14.101 81.9321 16.5794 77.9542 19.7946 74.4442L18.7229 66.7892C14.8713 69.2962 10.8188 72.0375 7.60351 75.4471C2.6467 80.6954 -1.10441 89.7879 4.3213 96.2058C5.86193 98.0446 8.03893 99.1808 10.4838 99.2146M15.2732 98.0108C15.1727 97.8437 15.0388 97.6433 14.9718 97.4429C14.5364 96.6404 14.2015 95.8383 13.9336 94.9692C13.2302 96.2058 12.6608 97.5429 12.2254 98.9471C12.2254 98.9804 12.2254 99.0137 12.1919 99.0475C13.2302 98.8467 14.2685 98.4792 15.2732 97.9775M26.7945 80.9629C26.7945 80.9629 26.5266 81.1966 26.3591 81.2971C24.2156 83.1354 22.2731 84.9408 20.565 86.7125C19.0913 88.25 17.6177 89.8212 16.278 91.5258C16.8473 92.8629 17.6511 94.2337 18.7229 95.4037C18.7899 95.4704 18.8569 95.5375 18.9238 95.6041C23.0769 92.1612 26.4261 86.8462 26.761 82.3667C26.7945 81.8987 26.828 81.4642 26.828 80.9629M28.5026 75.6475C29.3734 74.9458 30.2777 74.2104 31.2489 73.4412C31.1485 73.3075 31.0815 72.9733 31.0815 72.5054C31.0815 72.2379 31.3829 71.0679 32.0193 68.9954C33.6938 68.9954 35.1005 68.4941 36.2728 67.5579C36.9761 66.99 37.6794 66.0871 38.4162 64.8837C39.0191 63.9146 39.4545 63.4462 39.7224 63.4462C39.2535 67.09 37.6124 70.4996 34.8661 73.6421C33.8948 74.745 31.7848 76.6837 28.5695 79.4921C28.3686 85.1412 26.895 91.225 24.2491 95.27C23.6797 96.2058 23.0099 97.075 22.2731 97.9442C25.3878 99.2812 29.0385 99.0808 31.9858 97.5767C35.2345 95.9383 37.6794 92.7296 37.6794 88.3837C37.6794 86.2441 37.1436 84.5729 36.0718 83.4029C35.5694 82.8346 34.9665 82.3333 34.2967 81.8987C34.1962 81.8317 34.1628 81.7317 34.1962 81.6312C34.5311 80.595 35.1005 79.1575 35.9378 77.3525C37.043 77.8537 38.1148 78.89 39.0861 80.4612C39.488 80.6283 39.8899 80.6954 40.2918 80.6954C41.3635 80.6954 42.5021 80.2942 43.7079 79.5254C44.9138 78.7567 45.7175 77.8537 46.0858 76.8512C46.4542 75.8483 46.6554 74.5779 46.7558 73.1404C46.9567 72.7396 47.1575 72.5054 47.3921 72.4387L47.4925 72.5387C47.7942 71.4025 47.8946 74.6112 47.7604 76.2829L47.5263 76.45C48.1288 76.45 48.7654 75.8483 49.435 74.6783C50.0046 73.7421 50.3396 72.8396 50.5404 72.0375C50.5404 71.0679 50.7413 69.4971 51.0763 67.3908C51.1767 66.99 51.3442 66.7892 51.545 66.7892C51.6454 66.7892 51.7125 66.8225 51.7463 66.8562C51.8467 67.0566 51.9133 68.0262 51.9133 69.7642C51.9133 75.4471 50.44 79.2912 47.4925 81.3304C46.8229 81.7983 46.22 82.0325 45.6171 82.0325C45.215 82.9016 44.4783 83.6371 43.44 84.3054C42.4017 84.9408 41.4305 85.275 40.5262 85.275C40.1578 85.275 39.8564 85.2079 39.7224 85.1079C39.488 91.3921 38.8516 97.9775 33.6603 101.855C29.2059 105.198 23.0099 105.265 18.5554 101.621C16.7803 102.892 14.9048 103.761 12.9958 104.062C12.6943 104.095 12.4264 104.128 12.1585 104.162C13.8331 110.881 23.9811 112.987 30.2442 112.853C35.2345 112.753 35.201 113.12 30.1437 113.689C22.1056 114.591 13.1297 111.55 11.0532 104.195C6.86672 104.095 3.78544 101.521 1.94337 98.1112C-0.401075 93.7658 -0.300599 87.9825 1.30702 83.0687C2.47924 79.4583 4.4218 76.4833 6.79972 74.0096C10.1489 70.5667 14.4694 67.9592 18.5554 65.3516C18.0196 60.3712 16.5459 52.6492 16.8808 47.3675C17.2827 47.8692 18.5554 49.5404 18.9573 50.0754C21.3688 53.4179 23.5123 57.2958 25.3543 61.775C28.938 59.7691 33.1915 57.1283 38.1483 53.8191C40.5597 52.2146 41.4305 52.2479 38.6507 54.2204C34.3302 57.3292 30.0097 60.1704 25.6893 62.7779C26.2921 64.4158 26.761 66.1875 27.2299 67.9925C29.3399 66.3546 31.4499 64.8171 33.3254 63.3462C43.2725 55.6241 45.8517 54.2204 32.1197 66.0871C30.7801 67.2571 29.2059 68.4608 27.6318 69.7642C27.8328 70.6671 28.0002 71.6029 28.2346 72.5721C28.4356 73.575 28.5695 74.645 28.67 75.7479M15.5411 87.6483C15.5411 87.8825 15.5411 88.1162 15.6081 88.4171C16.6799 87.0467 17.9526 85.6092 19.3927 84.105C21.1678 82.2329 23.6462 79.9933 26.7945 77.3192C26.694 76.3162 26.5601 75.2467 26.3591 74.11C26.1916 73.2075 26.0242 72.2712 25.7562 71.3021C24.1821 72.6391 22.608 74.0429 21.2013 75.5475C21.3353 76.6837 21.4693 78.1212 21.4693 79.1242C21.5362 80.9629 20.9334 81.7317 20.5315 78.9237L20.2301 76.6171C17.4837 79.8262 15.4742 83.4362 15.5077 87.6483M718.204 75.0796C718.204 75.0796 718.237 74.8787 718.237 74.8121C718.237 73.4412 716.663 71.5358 713.517 69.0287C709.9 66.1875 706.283 64.75 702.7 64.75C695.129 64.75 687.292 72.5721 679.154 88.2167C681.329 89.0525 683.942 89.5204 687.025 89.5204C692.883 89.5204 699.317 87.715 706.217 84.1717C712.379 80.9962 716.362 77.9541 718.171 75.1129" fill="black"/>
<path d="M12.5603 181.514V188.935H17.7516C19.7611 188.935 21.0673 188.868 21.6031 188.768C22.4404 188.601 23.1103 188.233 23.6461 187.665C24.182 187.063 24.45 186.295 24.45 185.292C24.45 184.456 24.249 183.754 23.8471 183.186C23.4452 182.584 22.8423 182.15 22.1055 181.915C21.3352 181.648 19.6941 181.514 17.1152 181.514H12.5603ZM12.5603 170.483V176.901H16.2444C18.4549 176.901 19.7946 176.901 20.3304 176.801C21.3017 176.701 22.0385 176.366 22.6079 175.798C23.1773 175.23 23.4452 174.528 23.4452 173.625C23.4452 172.723 23.2108 172.054 22.7418 171.519C22.273 170.985 21.5696 170.65 20.6318 170.55C20.0625 170.483 18.4884 170.45 15.809 170.45H12.5938L12.5603 170.483ZM6.93359 165.87H18.053C20.2634 165.87 21.9046 165.97 22.9763 166.138C24.0481 166.338 25.0528 166.706 25.8901 167.274C26.7609 167.876 27.4643 168.645 28.0336 169.614C28.603 170.583 28.8709 171.653 28.8709 172.856C28.8709 174.16 28.536 175.363 27.7992 176.433C27.0958 177.503 26.1581 178.339 24.9523 178.873C26.6604 179.375 27.9666 180.21 28.8709 181.38C29.7752 182.55 30.2441 183.955 30.2441 185.559C30.2441 186.829 29.9426 188.066 29.3398 189.236C28.7704 190.44 27.9666 191.375 26.9284 192.111C25.9236 192.813 24.6509 193.281 23.1438 193.415C22.206 193.515 19.962 193.582 16.3784 193.615H6.96709V165.837L6.93359 165.87Z" fill="black"/>
<path d="M49.77 182.618L45.9521 172.322L42.2008 182.618H49.8038H49.77ZM60.1192 193.615H53.99L51.5454 187.298H40.4259L38.1149 193.615H32.1534L42.9713 165.837H48.8992L60.0521 193.615H60.1192Z" fill="black"/>
<path d="M63.1329 193.615V165.837H68.5921L80.0129 184.389V165.837H85.2042V193.615H79.5775L68.3575 175.497V193.615H63.1329Z" fill="black"/>
<path d="M91.2333 193.615V165.837H96.86V178.172L108.214 165.837H115.75L105.267 176.667L116.319 193.615H109.051L101.415 180.578L96.86 185.225V193.615H91.2333Z" fill="black"/>
<path d="M134.673 179.709C134.673 182.851 135.41 185.225 136.85 186.863C138.29 188.501 140.166 189.303 142.41 189.303C144.654 189.303 146.496 188.501 147.936 186.896C149.376 185.292 150.079 182.885 150.079 179.642C150.079 176.4 149.376 174.093 148.003 172.522C146.596 170.951 144.754 170.182 142.443 170.182C140.132 170.182 138.257 170.985 136.85 172.555C135.443 174.16 134.74 176.533 134.74 179.709M128.946 179.91C128.946 177.102 129.381 174.695 130.219 172.79C130.855 171.352 131.726 170.115 132.798 168.979C133.903 167.842 135.075 167.007 136.381 166.472C138.089 165.736 140.099 165.368 142.376 165.368C146.462 165.368 149.745 166.639 152.223 169.179C154.668 171.72 155.907 175.263 155.907 179.776C155.907 184.289 154.668 187.765 152.256 190.306C149.811 192.846 146.529 194.117 142.477 194.117C138.424 194.117 135.041 192.846 132.597 190.339C130.152 187.832 128.913 184.356 128.913 179.943" fill="black"/>
<path d="M160.295 193.615V165.837H179.385V170.55H165.921V177.102H177.543V181.815H165.921V193.615H160.295Z" fill="black"/>
<path d="M212.608 183.42L218.068 185.125C217.23 188.167 215.857 190.406 213.915 191.877C211.972 193.348 209.527 194.083 206.513 194.083C202.829 194.083 199.781 192.813 197.403 190.306C195.025 187.799 193.819 184.356 193.819 179.977C193.819 175.33 194.991 171.753 197.403 169.179C199.814 166.639 202.929 165.368 206.848 165.368C210.264 165.368 213.01 166.371 215.154 168.377C216.426 169.58 217.364 171.285 218 173.492L212.441 174.829C212.106 173.391 211.436 172.255 210.364 171.419C209.326 170.583 208.053 170.182 206.58 170.182C204.503 170.182 202.829 170.917 201.556 172.388C200.283 173.859 199.613 176.266 199.613 179.575C199.613 183.085 200.25 185.592 201.523 187.063C202.795 188.567 204.436 189.303 206.446 189.303C207.919 189.303 209.225 188.835 210.297 187.899C211.369 186.93 212.139 185.459 212.608 183.42Z" fill="black"/>
<path d="M227.545 179.709C227.545 182.851 228.282 185.225 229.722 186.863C231.163 188.501 233.038 189.303 235.282 189.303C237.526 189.303 239.368 188.501 240.808 186.896C242.248 185.292 242.952 182.885 242.952 179.642C242.952 176.4 242.248 174.093 240.875 172.522C239.502 170.951 237.626 170.182 235.315 170.182C233.005 170.182 231.129 170.985 229.722 172.555C228.315 174.16 227.612 176.533 227.612 179.709M221.818 179.91C221.818 177.102 222.253 174.695 223.091 172.79C223.727 171.352 224.598 170.115 225.67 168.979C226.775 167.842 227.947 167.007 229.253 166.472C230.995 165.736 233.004 165.368 235.248 165.368C239.334 165.368 242.617 166.639 245.095 169.179C247.573 171.72 248.779 175.263 248.779 179.776C248.779 184.289 247.573 187.765 245.128 190.306C242.684 192.846 239.401 194.117 235.349 194.117C231.296 194.117 227.914 192.846 225.469 190.339C223.024 187.832 221.818 184.356 221.818 179.943" fill="black"/>
<path d="M253.033 193.615V165.837H261.44L266.497 184.79L271.488 165.837H279.928V193.615H274.703V171.753L269.177 193.615H263.751L258.258 171.753V193.615H253.033Z" fill="black"/>
<path d="M285.421 193.615V165.837H293.827L298.885 184.79L303.875 165.837H312.315V193.615H307.09V171.753L301.564 193.615H296.138L290.645 171.753V193.615H285.421Z" fill="black"/>
<path d="M317.873 193.615V165.837H338.504V170.55H323.5V176.701H337.466V181.38H323.5V188.935H339.04V193.615H317.873Z" fill="black"/>
<path d="M349.456 177.603H353.575C356.288 177.603 357.963 177.503 358.633 177.269C359.303 177.035 359.839 176.634 360.207 176.099C360.575 175.531 360.776 174.829 360.776 173.993C360.776 173.057 360.542 172.322 360.04 171.72C359.537 171.152 358.834 170.784 357.93 170.617C357.46 170.55 356.088 170.516 353.843 170.516H349.456V177.57V177.603ZM343.829 193.615V165.837H355.652C358.633 165.837 360.776 166.07 362.15 166.572C363.489 167.073 364.561 167.942 365.398 169.246C366.202 170.55 366.604 171.987 366.604 173.625C366.604 175.698 366.001 177.436 364.762 178.773C363.523 180.144 361.68 180.98 359.269 181.347C360.475 182.049 361.48 182.818 362.283 183.687C363.054 184.523 364.125 186.027 365.465 188.2L368.848 193.615H362.15L358.097 187.565C356.657 185.392 355.685 184.055 355.116 183.487C354.58 182.918 354.011 182.55 353.442 182.317C352.839 182.116 351.901 182.016 350.628 182.016H349.49V193.615H343.863H343.829Z" fill="black"/>
<path d="M389.679 183.42L395.105 185.125C394.268 188.167 392.895 190.406 390.918 191.877C388.976 193.348 386.531 194.083 383.517 194.083C379.833 194.083 376.785 192.813 374.407 190.306C372.029 187.799 370.823 184.356 370.823 179.977C370.823 175.33 372.029 171.753 374.407 169.179C376.818 166.639 379.933 165.368 383.852 165.368C387.268 165.368 390.014 166.371 392.158 168.377C393.43 169.58 394.368 171.285 395.005 173.492L389.445 174.829C389.11 173.391 388.44 172.255 387.402 171.419C386.363 170.583 385.091 170.182 383.584 170.182C381.507 170.182 379.833 170.917 378.56 172.388C377.287 173.859 376.617 176.266 376.617 179.575C376.617 183.085 377.254 185.592 378.526 187.063C379.799 188.567 381.44 189.303 383.45 189.303C384.957 189.303 386.23 188.835 387.301 187.899C388.373 186.93 389.143 185.459 389.612 183.42" fill="black"/>
<path d="M399.963 193.615V165.837H420.596V170.55H405.557V176.701H419.554V181.38H405.557V188.935H421.096V193.615H399.963Z" fill="black"/>
<path d="M446.783 175.13L448.225 174.026C449.296 173.191 449.833 172.388 449.833 171.586C449.833 170.918 449.596 170.316 449.063 169.848C448.558 169.38 447.854 169.113 446.983 169.113C446.113 169.113 445.479 169.347 444.975 169.748C444.508 170.149 444.238 170.65 444.238 171.218C444.238 171.887 444.642 172.689 445.446 173.625L446.75 175.163L446.783 175.13ZM444.708 180.913C443.5 181.548 442.563 182.283 441.963 183.152C441.358 184.021 441.058 184.89 441.058 185.827C441.058 186.997 441.425 187.899 442.196 188.635C442.967 189.37 443.971 189.738 445.242 189.738C446.079 189.738 446.883 189.57 447.654 189.236C448.425 188.902 449.263 188.367 450.2 187.598L444.775 180.913H444.708ZM461.321 190.239L458.104 194.351C456.529 193.582 454.992 192.512 453.55 191.175C452.413 192.178 451.238 192.947 449.967 193.415C448.692 193.916 447.188 194.15 445.446 194.15C441.963 194.15 439.383 193.181 437.642 191.242C436.3 189.738 435.596 187.999 435.596 186.06C435.596 184.289 436.133 182.684 437.204 181.247C438.279 179.843 439.85 178.606 441.963 177.536C441.025 176.4 440.321 175.33 439.817 174.327C439.317 173.325 439.079 172.355 439.079 171.453C439.079 169.781 439.75 168.344 441.092 167.174C442.429 166.004 444.338 165.435 446.85 165.435C449.363 165.435 451.138 166.037 452.513 167.274C453.85 168.511 454.554 169.982 454.554 171.753C454.554 172.89 454.221 173.926 453.55 174.963C452.879 175.965 451.508 177.102 449.496 178.405L453.383 183.487C453.817 182.684 454.221 181.615 454.554 180.311L459.379 181.414C458.908 183.119 458.471 184.356 458.104 185.158C457.771 185.96 457.367 186.595 456.967 187.13C457.567 187.698 458.338 188.3 459.275 188.969C460.213 189.637 460.917 190.072 461.354 190.306" fill="black"/>
<path d="M481.146 170.55V188.935H485.333C486.908 188.935 488.046 188.835 488.717 188.668C489.621 188.434 490.392 188.066 490.996 187.498C491.596 186.963 492.067 186.06 492.467 184.824C492.838 183.587 493.038 181.882 493.038 179.742C493.038 177.603 492.838 175.965 492.467 174.795C492.067 173.659 491.563 172.756 490.858 172.121C490.158 171.452 489.321 171.051 488.246 170.817C487.479 170.65 485.938 170.55 483.625 170.55H481.113H481.146ZM475.521 165.837H485.804C488.113 165.837 489.888 166.004 491.096 166.371C492.738 166.839 494.142 167.708 495.279 168.912C496.454 170.149 497.358 171.62 497.963 173.425C498.563 175.196 498.867 177.402 498.867 179.977C498.867 182.25 498.596 184.222 498.029 185.893C497.325 187.899 496.354 189.537 495.046 190.774C494.075 191.743 492.771 192.479 491.096 192.98C489.854 193.381 488.179 193.582 486.104 193.582H475.521V165.803V165.837Z" fill="black"/>
<path d="M503.621 193.615V165.837H524.254V170.55H509.25V176.701H523.213V181.38H509.25V188.935H524.788V193.615H503.621Z" fill="black"/>
<path d="M536.646 193.615L526.696 165.837H532.792L539.858 186.395L546.658 165.837H552.621L542.638 193.615H536.646Z" fill="black"/>
<path d="M555.467 193.615V165.837H576.096V170.55H561.092V176.701H575.058V181.38H561.092V188.935H576.633V193.615H555.467Z" fill="black"/>
<path d="M581.558 193.615V166.07H587.183V188.935H601.15V193.615H581.558Z" fill="black"/>
<path d="M609.792 179.709C609.792 182.851 610.492 185.225 611.967 186.863C613.442 188.501 615.283 189.303 617.492 189.303C619.704 189.303 621.579 188.501 623.021 186.896C624.458 185.292 625.163 182.885 625.163 179.642C625.163 176.4 624.458 174.093 623.054 172.522C621.646 170.951 619.804 170.182 617.492 170.182C615.183 170.182 613.308 170.985 611.9 172.555C610.492 174.16 609.792 176.533 609.792 179.709ZM603.996 179.91C603.996 177.102 604.429 174.695 605.267 172.79C605.904 171.352 606.775 170.115 607.846 168.979C608.954 167.842 610.125 167.007 611.429 166.472C613.171 165.736 615.15 165.368 617.425 165.368C621.546 165.368 624.796 166.639 627.271 169.179C629.717 171.72 630.958 175.263 630.958 179.776C630.958 184.289 629.75 187.765 627.308 190.306C624.863 192.846 621.579 194.117 617.525 194.117C613.475 194.117 610.092 192.846 607.646 190.339C605.2 187.832 603.996 184.356 603.996 179.943" fill="black"/>
<path d="M641.004 170.55V178.439H644.087C646.296 178.439 647.771 178.272 648.508 178.004C649.242 177.737 649.846 177.269 650.25 176.634C650.683 176.032 650.883 175.297 650.883 174.495C650.883 173.492 650.617 172.656 650.013 171.988C649.413 171.319 648.675 170.917 647.738 170.75C647.067 170.617 645.725 170.55 643.683 170.55H640.971H641.004ZM635.379 193.615V165.837H644.388C647.804 165.837 650.046 165.97 651.088 166.237C652.692 166.639 654.033 167.575 655.104 168.945C656.175 170.349 656.712 172.155 656.712 174.361C656.712 176.065 656.413 177.503 655.775 178.673C655.138 179.843 654.367 180.745 653.429 181.414C652.458 182.082 651.487 182.517 650.517 182.751C649.175 183.018 647.233 183.152 644.688 183.152H641.038V193.615H635.412H635.379Z" fill="black"/>
<path d="M661.233 193.615V165.837H669.642L674.7 184.79L679.688 165.837H688.129V193.615H682.904V171.753L677.379 193.615H671.95L666.458 171.753V193.615H661.233Z" fill="black"/>
<path d="M693.688 193.615V165.837H714.354V170.55H699.317V176.701H713.283V181.38H699.317V188.935H714.854V193.615H693.688Z" fill="black"/>
<path d="M719.679 193.615V165.837H725.138L736.525 184.389V165.837H741.75V193.615H736.121L724.904 175.497V193.615H719.679Z" fill="black"/>
<path d="M753.975 193.615V170.55H745.7V165.837H767.804V170.55H759.6V193.615H753.975Z" fill="black"/>
</g>
</g>
<defs>
<clipPath id="clip0_2_168">
<rect width="991.667" height="200" fill="white"/>
</clipPath>
</defs>
</svg>
