<svg width="200" height="200" viewBox="0 0 200 200" fill="none" xmlns="http://www.w3.org/2000/svg">
<path d="M169.32 155.89C156.75 170.79 141.135 180.985 122.195 185.7C104.725 190.05 87.3501 189.095 70.4351 182.985C57.3201 178.245 45.9401 170.675 36.3501 160.445C23.4551 146.695 15.6151 130.445 13.2251 111.845C10.1101 87.5599 16.2101 65.5399 31.2851 46.1749C43.3401 30.6899 59.0851 20.5599 77.9101 15.3699C88.6501 12.4099 99.6501 11.7049 110.79 12.9849C124.98 14.6149 138.02 19.3399 149.855 27.2549C165.875 37.9749 177.45 52.3849 183.825 70.5949C193.145 97.2299 190.27 122.735 175.68 146.9C175.085 147.885 174.5 148.875 173.91 149.865C172.38 151.87 170.85 153.875 169.315 155.88L169.32 155.89ZM182.145 100.515C182.61 56.2599 145.63 17.6799 97.6901 19.3399C55.4501 20.7999 19.6701 54.9449 19.3351 99.9249C18.9901 146 57.4001 181.82 101.655 181.365C145.35 180.915 182.49 144.855 182.145 100.515Z" fill="#0CA9E8"/>
<path d="M182.145 100.515C182.495 144.855 145.355 180.92 101.655 181.365C57.4001 181.82 18.9901 146.005 19.3351 99.925C19.6701 54.945 55.4501 20.8 97.6901 19.34C145.63 17.68 182.61 56.255 182.145 100.515ZM88.0801 84.53C88.2201 84.405 88.3551 84.285 88.4951 84.16C88.7701 84.08 89.0451 84 89.3151 83.92C90.8451 83.88 92.3851 83.92 93.9001 83.765C94.6851 83.685 95.0251 83.76 94.8501 84.6C94.7601 85.035 93.6201 85.44 94.7151 85.88C95.5051 86.195 95.9201 85.65 96.0251 84.86C96.1051 84.265 96.5101 84.055 97.0801 84.055C97.8501 84.055 97.7501 84.7 97.8001 85.12C97.9551 86.46 98.4601 87.31 99.9951 87.005C99.6451 89.33 101.525 91.295 101.055 93.64C100.96 100.3 101.075 106.97 100.72 113.615C100.22 122.93 100.225 132.245 100.05 141.565C100.015 143.435 100.5 145.105 102.6 145.135C104.765 145.165 105.435 143.49 105.425 141.54C105.42 139.875 105.425 138.21 105.37 136.545C104.9 122.24 104.415 107.935 103.935 93.63C103.955 92.805 103.98 91.98 103.995 91.155C104.035 89.09 103.135 86.495 107.035 86.525C104.9 85.98 104.315 84.595 103.98 83.01L103.99 82.995C105.27 83.77 106.04 85.55 107.985 85C108.15 86.33 109.195 85.9 109.98 86C110.685 87.725 111.68 86.86 113.325 86.67C111.8 85.78 110.87 86.095 109.985 86C109.985 85.67 109.985 85.335 109.985 85.005C111.245 84.8 110.97 83.925 110.82 83.1C111.195 83.09 111.57 83.085 111.95 83.075C112.5 84.61 113.345 83.365 114.065 83.3L114.16 83.24C114.365 84.445 115.315 83.865 115.97 84L115.99 84.015C116.275 86.61 116.935 87.15 118.99 86.48C120.135 87.285 120.975 88.29 121.055 89.765C121.24 91.755 120.005 93.715 120.26 95.46C120.64 98.085 120.06 99.82 117.99 101.235C117.41 101.63 116.6 101.715 116.85 102.84C117.305 104.865 119.37 103.49 120.335 104.61C120.7 105.035 121.635 104.095 121.715 103.565C122.04 101.455 123.955 100.56 124.97 99C125.095 99.58 124.68 100.315 125.47 100.735C126.265 100.32 125.845 99.58 125.97 99C127.305 98.835 126.875 97.785 126.97 97C128.865 95.93 127.78 94.625 127.475 93.38C126.73 94.54 127.08 95.79 126.97 97C125.64 97.165 126.065 98.215 125.97 99C125.635 99 125.305 99 124.97 99C124.625 97.985 125.82 96.385 123.825 96C123.42 95.375 123.445 94.7 123.575 94.005C124.65 93.9 125.825 93.88 125.915 92.415C126.005 90.975 124.08 88.15 123 88.005C122.825 87.68 122.65 87.355 122.47 87.025C122.325 86.855 122.18 86.685 122.035 86.515C121.965 86.36 121.9 86.205 121.83 86.05C123.34 85.445 124.74 84.82 121.565 83.195C124.005 83.465 123.65 81.23 125.07 80.885L125.03 81.01L125.08 80.885C124.805 84.165 125.065 84.46 128.7 84.925C128.845 85.265 128.985 85.61 129.13 85.95C128.405 86.3 127.685 86.65 126.96 87.005C126.895 86.645 126.91 86.22 126.36 86.25C126.305 86.25 126.21 86.35 126.205 86.405C126.17 86.955 126.6 86.94 126.96 87.005C127.42 87.79 127.88 88.575 128.345 89.365C129.115 88.985 129.035 87.875 129.99 87.98C129.675 89.64 130.545 91.28 130.03 92.965C129.83 93.625 130.385 93.96 131.04 94C131.01 94.5 130.985 95.005 130.955 95.505C129.36 96.23 129.61 98.35 128.515 99.14C126.38 100.685 127.29 101.97 128.285 103.455C128.345 103.63 128.405 103.805 128.465 103.98C127.625 105.675 126.73 104 126.38 103.745C125.32 102.97 124.405 102.82 123.195 103.29C123.37 104.175 125.32 103.77 124.255 105.45C123.52 106.61 123.31 106.755 122.2 106.125C121.69 105.835 120.745 105.675 120.17 106.69C120.94 107.41 121.71 108.145 122.495 108.86C122.85 109.18 123.955 108.85 123.515 109.795C123.265 110.325 122.765 111.24 121.8 110.36C121.255 109.86 120.69 109.985 120.54 110.79C120.415 111.475 120.745 112.005 121.46 111.955C122.99 111.855 124.62 112.505 126.03 111.415C126.545 111.02 127.11 110.88 127.64 111.255C130.035 112.935 131.8 111.785 133.455 110.03C134.575 108.62 137.375 108.625 136.93 105.9C138.43 106.085 139.22 105.14 140.025 104.08C141.775 101.77 142.915 99.155 144.01 96.51C145.595 96.11 146.73 95.55 145.24 93.74C144.965 93.41 145 92.825 144.89 92.36C144.92 92.075 144.95 91.795 144.98 91.51C146.015 91.38 146.01 90.59 145.93 89.865C145.76 88.29 146.555 87.85 147.945 88.01V95.68L148.76 95.665C149.135 93.36 148.935 91.02 148.86 88.695C148.845 88.24 148.37 88.085 147.94 88.01C148.2 86.17 147.455 84.685 146.42 83.19C145.265 84.55 146.73 86.565 144.925 87.51C144.825 87.38 144.815 87.25 144.9 87.11C144.615 85.745 145.835 84.065 144.05 83.01C143.99 82.73 143.935 82.445 143.875 82.165C143.725 81.23 144.66 79.87 142.87 79.565L142.89 79.575C142.465 77.76 144.915 76.275 143.115 73.63C143.14 75.62 142.35 76.395 140.985 76.515C140.87 76.44 140.83 76.335 140.87 76.2C140.96 75.505 140.715 75.07 139.965 75.02L139.945 74.995C140.18 73.205 142.175 73.365 143.215 72.275C142.13 71.9 141.065 71.72 140.395 72.24C139.09 73.25 138.425 72.29 138.105 71.5C137.34 69.61 135.96 69.76 134.44 70.025C134.24 69.935 134.035 69.84 133.835 69.75C133.875 69.505 133.915 69.265 133.955 69.02C134.605 69 134.935 68.665 134.955 68.02C136.185 67.785 136.005 67.105 135.615 66.215C134.65 66.68 135.085 67.44 134.955 68.02C133.96 68.02 132.96 68.015 131.965 68.01C131.34 66.63 130.375 65.595 128.94 65.035C128.615 65.035 128.29 65.035 127.965 65.035C127.66 63.53 126.44 63.905 125.63 64.145C124.505 64.48 125.64 65.38 125.455 66.01C123.63 65.995 121.8 65.985 119.975 65.97C119.975 65.655 119.965 65.335 119.965 65.02C120.545 64.89 121.305 65.325 121.795 64.3C120.895 64.025 120.19 63.755 119.965 65.02C119.24 65.015 118.515 65.01 118.465 66.02C117.805 66.195 117.14 66.37 116.48 66.545C116.045 65.645 115.605 64.585 114.34 65.235C112.965 65.945 111.25 66.56 112.045 68.745C112.035 68.845 112.005 68.945 111.965 69.035C111.68 69.05 111.4 69.065 111.115 69.08C109.21 68.35 107.77 70.17 105.97 70.015C105.8 70.015 105.635 70.015 105.465 70.015C106.095 68.5 105.67 67.78 103.965 68.02C102.99 68.2 101.985 68.4 101.985 69.68C101.985 71.2 100.925 71 99.9701 71.015C100.49 67.62 97.4701 68.21 95.7901 67.495C94.7801 67.065 94.1351 68.13 93.9202 69.17L93.4651 68.975C93.2551 68.855 93.0501 68.74 92.8401 68.62L92.8301 68.67C93.0951 67.415 92.3851 67.88 91.8151 68.095L90.9701 67.91C90.7001 66.645 89.7151 67.095 88.9351 67.065L88.9151 67.075C88.8951 66.255 89.3351 65.225 87.9751 65.015C87.2701 63.29 86.2801 64.16 85.3751 64.265C85.3551 64.515 85.3351 64.765 85.3151 65.015H87.9751C87.9051 65.44 87.7451 65.925 87.3001 65.93C84.7551 65.97 82.2051 65.97 79.6601 65.93C79.2151 65.92 79.0502 65.44 78.9802 65.015C79.3402 64.95 79.7652 64.965 79.7302 64.415C79.7302 64.36 79.6302 64.265 79.5752 64.26C79.0302 64.225 79.0401 64.655 78.9751 65.01C78.3301 65.02 77.5151 64.78 77.0701 65.08C76.0051 65.805 73.4901 65.36 74.4751 67.95C74.3551 68.055 74.2201 68.085 74.0651 68.05C72.5001 67.505 71.4602 69.195 69.9802 69.005C69.7452 67.775 69.0651 67.955 68.1751 68.345C68.6401 69.31 69.3952 68.875 69.9802 69.005C70.0202 69.38 70.0601 69.75 70.0951 70.125L70.0801 70.115C68.7801 69.885 67.9601 70.25 68.0601 71.75C67.0301 72.835 66.0051 73.92 64.9751 75.005C64.6451 75.005 64.3102 75.005 63.2002 74.675C63.3802 74.775 63.5601 74.94 63.7551 74.96C64.2751 75.02 63.7952 74.68 63.8902 74.555C63.7202 74.45 63.5501 74.345 63.3801 74.24C63.3251 74.365 63.2752 74.495 63.9802 75L64.0501 76.07H64.0651C62.9151 76.615 61.8852 77.065 61.6651 75.095C61.6002 74.52 60.9651 74.01 60.9751 73.29C60.9901 72.36 60.5351 71.78 59.5951 72.14C58.6501 72.505 59.4001 73.165 59.4351 73.755C59.5901 76.14 61.9451 77.58 61.9751 79.975L61.9601 79.995C61.3001 79.995 60.6401 79.995 59.9751 79.995C59.9101 79.55 60.1251 78.99 59.5401 78.765C59.4451 78.73 59.1151 78.99 59.0901 79.14C58.9851 79.8 59.4751 79.92 59.9751 79.99C59.9951 82.04 60.0201 84.095 60.0401 86.145C59.2602 94.525 61.9151 101.625 67.9751 107.455C68.0551 107.85 68.0352 108.53 68.2302 108.6C70.9002 109.545 70.1152 110.53 68.2302 111.475C68.7202 112.17 69.4801 112.135 69.8451 111.91C71.4501 110.93 72.9051 110.895 74.5601 111.87C74.8901 112.065 77.0851 113.085 76.4851 110.475C76.3701 109.97 76.7701 107.65 78.1951 106.825C78.5551 106.895 78.8752 107.015 78.9802 107.42C78.8602 108.705 79.6002 109.44 80.6702 109.845C81.1152 110.015 81.3051 109.5 81.4901 109.11C82.0101 108.01 82.0901 107.01 80.9301 106.285C80.2201 105.84 79.9002 105.265 79.9451 104.43C80.0051 103.285 79.3352 102.65 78.3252 102.19C77.9502 102.845 78.7701 104.1 77.3151 104.035C77.1551 103.75 76.9951 103.46 76.8301 103.175C77.0951 101.385 77.4851 99.44 76.8201 97.83C75.4851 94.605 76.1601 91.07 74.9101 87.885C75.0451 86.695 75.7551 85.78 76.3651 84.815C76.6501 85.535 77.1401 85.985 77.9551 85.99C77.6701 88.23 78.7801 87.67 79.9551 86.985C80.2901 86.985 80.6251 86.985 80.9601 86.985C80.9801 88.035 81.0001 89.08 81.0201 90.13C80.9751 90.585 80.9352 91.045 80.8902 91.5C80.2352 92.305 80.2651 93.12 80.8301 93.955C80.9251 94.89 81.0151 95.825 81.1101 96.755C81.2101 97.86 80.1301 99.465 81.9351 99.87C83.1601 100.145 83.0201 100.645 82.9901 101.525C82.9301 103.02 82.6702 104.99 85.2001 103.225C85.4801 103.03 85.9401 102.915 86.0701 103.225C86.3001 103.765 86.5651 104.19 87.1001 103.76C87.6101 103.35 87.1501 102.815 86.9051 102.435C86.5501 101.885 86.0801 101.405 85.6451 100.91C85.2551 100.465 84.7751 99.98 85.1651 99.39C85.5501 98.81 86.1801 98.935 86.7151 99.26C87.0401 99.46 87.3401 99.955 87.7251 99.47C87.8901 99.265 87.9302 98.66 87.7952 98.565C86.4552 97.625 87.6951 95.23 85.3951 94.635C84.6801 94.45 84.3101 92.345 86.0051 92.07C88.1351 91.72 87.0351 90.65 86.7101 89.815C86.4751 89.205 85.3451 88.52 86.6051 88.115C89.2201 87.28 87.4351 86.28 86.8651 85.285C87.0401 85.175 87.2101 85.065 87.3851 84.955C87.5801 84.825 87.7801 84.7 87.9751 84.57L88.0251 84.51L88.0801 84.53ZM151.865 88.975C151.915 88.505 151.8 88.21 151.44 88.125C151.325 88.095 150.97 87.705 150.985 88.245C150.995 88.625 150.915 89.095 151.41 89.235C151.545 89.275 151.755 89.045 151.08 88.335C150.825 87.11 151.27 86.095 150.405 84.99C149.875 86.28 149.635 87.195 151.865 88.975ZM94.0401 37.98C93.8901 37.545 93.5601 37.34 93.1501 37.205C89.6001 36.04 86.9951 38.515 87.0351 43.03C84.8351 41.235 84.8502 44.705 83.2952 44.56C84.9602 44.84 86.4801 46.185 88.1951 44.94C88.3251 44.925 88.4251 44.97 88.4951 45.08C88.3251 46.005 88.1151 46.965 86.9351 46.99C84.7351 47.04 82.5351 47.005 79.5701 47.005C80.9201 45.875 81.0451 44.885 81.5051 44.035C81.6801 43.865 81.8601 43.695 82.0351 43.53C83.2201 42.79 83.2551 42.135 81.9001 41.57C80.0951 40.615 78.1451 41.135 76.2701 41.1C71.6201 41.01 69.8401 43.415 71.0251 47.98C70.9801 48.49 71.2901 48.78 71.6751 49.02C72.8501 50.775 74.7001 50.905 76.5201 50.925C81.0851 50.975 85.6501 50.95 90.2201 50.925C95.0001 50.9 96.0551 49.805 95.9951 45.035C95.9701 43.875 95.9452 42.715 95.9202 41.55C96.1351 39.915 95.6101 38.675 94.0401 37.985V37.98ZM126.08 45.035C126.025 44.745 125.965 44.45 125.91 44.16C125.415 42.64 125.33 40.72 122.905 41.08C119.93 41.065 116.96 41.035 113.985 41.045C112.735 41.045 111.58 41.165 110.935 39.63C110.57 38.765 109.67 38.625 109.005 39.6C107.24 41.35 108.34 43.54 108.195 45.505C108.08 47.075 107.895 47.965 106.03 47.955C104.2 47.945 104.01 46.975 104.095 45.565C104.145 44.74 104.095 43.905 104.08 43.075C104.06 42.03 103.94 40.925 102.635 40.86C101.215 40.795 100.905 41.825 100.92 43.05C100.95 45.54 100.92 48.035 100.93 50.525C100.93 51.525 101.05 52.51 99.8051 52.99C98.9801 53.305 98.8251 54.08 99.0601 54.87C99.3151 55.745 100.065 55.875 100.845 55.925C102.845 56.05 104.15 55.29 104.02 53.125C103.915 51.35 104.61 50.935 106.305 50.95C115.195 51.03 124.08 50.98 132.97 50.995C134.49 50.995 136 50.915 137.26 50C138.95 48.77 140.16 47.205 139.555 44.95C138.785 42.095 137.27 40.975 134.615 41.015C132.175 41.05 130.92 42.585 129.945 44.53C129.38 45 129.35 45.495 129.875 46.015C129.86 46.51 129.84 47 129.825 47.495C127.76 47.915 126.48 47.145 126.085 45.035H126.08ZM110.995 140.965L111.005 140.99C111.115 142.475 111.845 143.62 112.97 144.545C113.145 144.695 113.315 144.84 113.49 144.99C113.915 145.44 114.19 146.105 114.985 146C116.842 147.08 117.238 148.602 116.175 150.565C116.095 150.71 116.05 150.875 115.96 151.015C115.02 152.505 114.585 153.99 116.475 155.035C118.335 156.065 119.7 155.045 120.675 153.555C121.67 152.03 122.585 150.43 123.33 148.775C124.025 147.23 125.07 146.935 126.655 146.955C132.815 147.04 138.975 147.025 145.13 146.935C149.075 146.88 150.9 144.96 150.915 141.02C150.945 133.195 150.93 125.37 150.915 117.545C150.91 114.785 149.74 113.25 147.785 113.335C145.795 113.425 144.855 114.705 144.85 117.465C144.84 124.455 144.815 131.45 144.885 138.44C144.905 140.46 144.195 141.275 142.1 141.18C138.945 141.04 135.775 141.135 132.615 141.14C129.752 141.143 128.197 139.758 127.95 136.985C127.925 136.81 127.895 136.63 127.87 136.455C127.91 135.975 127.85 135.525 127.45 135.185C126.95 133.2 125.375 132.09 123.9 130.935C121.21 128.825 116.7 129.195 113.55 131.715C110.64 134.045 109.6 137.8 110.995 140.965ZM73.9751 146.975C79.5501 146.975 85.1201 146.95 90.6951 146.99C92.3101 147 93.2151 146.325 93.4202 144.74C93.6351 143.065 93.0551 141.47 91.4001 141.255C89.5701 141.015 89.5751 140.365 89.7501 138.86C90.3851 133.445 86.4401 129.1 80.9901 129.065C76.4151 129.035 71.8402 129.035 67.2652 129.075C64.7002 129.1 63.0701 130.335 63.2451 132.135C63.4751 134.495 65.1701 134.985 67.1851 134.98C71.4251 134.965 75.6701 134.94 79.9101 134.975C82.4451 134.995 83.9101 136.21 83.9101 138.13C83.9101 140.03 82.4901 141.11 79.8701 141.12C73.5501 141.14 67.2251 141.065 60.9051 141.17C58.9401 141.205 58.2251 140.55 58.2801 138.6C58.3751 135.19 58.3251 131.78 58.2701 128.37C58.2451 126.9 57.5651 125.785 56.0051 125.515C54.4751 125.25 52.8801 125.565 52.6101 127.215C52.2101 129.64 50.7701 129.535 48.9351 129.545C44.3951 129.565 40.5501 133.46 40.6351 137.75C40.7201 141.955 44.5301 145.925 48.8651 145.805C51.5301 145.73 54.1152 145.025 56.5401 146.845C57.0851 147.255 58.1601 146.975 58.9901 146.975C63.9801 146.98 68.9701 146.975 73.9651 146.975H73.9751ZM163.38 129.725H163.4C163.4 125.645 163.45 121.565 163.385 117.485C163.335 114.52 162.125 113.395 159.64 113.925C157.505 114.38 157.42 116.11 157.425 117.84C157.435 125.75 157.44 133.66 157.45 141.57C157.45 144.445 158.235 145.445 160.45 145.445C163.01 145.445 163.36 143.69 163.37 141.715C163.39 137.72 163.375 133.725 163.375 129.725H163.38ZM48.2801 117.195C48.1801 115.15 47.2201 113.95 45.2302 113.9C43.4151 113.86 42.2301 114.84 42.0951 116.685C41.9501 118.645 42.9701 119.81 44.9551 119.96C46.9801 120.115 47.9601 118.98 48.2801 117.19V117.195ZM52.8401 119.96C55.5751 120.095 56.5452 118.86 56.7901 117.05C57.0151 115.405 55.4351 113.865 53.7051 113.905C51.8851 113.95 50.6851 114.875 50.6001 116.735C50.5101 118.655 51.5351 119.805 52.8401 119.96ZM91.6601 35.75C92.6151 35.58 93.2851 35.1 93.3351 34.15C93.3901 33.155 92.9851 32.25 91.8651 32.23C90.9751 32.21 90.3251 32.915 90.1651 33.77C89.9601 34.89 90.9351 35.27 91.6601 35.755V35.75ZM56.5201 77.65C57.1801 75.86 57.0851 74.105 56.5551 72.37C55.9601 74.145 55.8851 75.905 56.5201 77.65ZM110.94 35.95C110.91 35.34 110.56 35.08 109.985 35.09C109.405 35.1 109.08 35.4 109.065 35.985C109.045 36.725 109.46 37.02 110.15 36.965C110.755 36.915 110.975 36.515 110.945 35.95H110.94ZM132.875 65.92C134.545 65.925 134.945 64.905 136.205 64.52C134.27 63.655 133.815 64.75 132.875 65.92ZM71.0701 64.295C72.0868 65.4383 72.9751 65.4383 73.7351 64.295H71.0701ZM79.7801 100.59C79.7651 100.185 79.4801 100.055 79.1501 100.04C78.7551 100.02 78.3201 100.03 78.1601 100.5C78.0551 100.81 78.0551 101.195 78.5251 101.135C78.9751 101.08 79.4901 101.07 79.7751 100.59H79.7801ZM96.0001 64.98C96.3201 64.955 96.7051 64.965 96.7101 64.53C96.7101 64.095 96.3301 64.07 96.0101 64.07C95.6901 64.07 95.3051 64.085 95.3001 64.52C95.3001 64.955 95.6801 64.955 96.0001 64.98ZM93.7351 65.425C93.5701 65.08 93.2601 65.015 92.9351 65.06C92.6301 65.105 92.1801 65.14 92.3351 65.585C92.4001 65.78 92.8301 65.925 93.1051 65.95C93.4001 65.975 93.7751 65.9 93.7351 65.43V65.425ZM58.7501 86.295C58.1251 86.24 58.0601 86.62 58.0851 86.915C58.1101 87.19 58.2551 87.615 58.4451 87.685C58.8901 87.84 58.9601 87.39 58.9601 87.09C58.9601 86.81 58.8151 86.53 58.7501 86.3V86.295ZM64.5201 71.295C64.0801 71.35 64.0651 71.685 64.0651 72.01C64.0651 72.33 64.0751 72.72 64.5102 72.72C64.9452 72.72 64.9701 72.34 64.9701 72.02C64.9701 71.7 64.9551 71.36 64.5201 71.295ZM78.7401 97.29C78.1151 97.235 78.0951 97.605 78.0601 97.915C78.0201 98.24 78.0651 98.615 78.4301 98.7C78.8951 98.81 78.9551 98.385 78.9551 98.085C78.9551 97.805 78.8101 97.525 78.7451 97.295L78.7401 97.29ZM66.5201 70.755C66.9601 70.7 66.9751 70.355 66.9751 70.035C66.9751 69.715 66.9601 69.33 66.5251 69.325C66.0851 69.325 66.0751 69.715 66.0701 70.03C66.0701 70.35 66.0901 70.69 66.5201 70.75V70.755ZM108.395 64.555C108.15 64.36 108 64.145 107.835 64.135C107.64 64.12 107.3 64.235 107.26 64.37C107.14 64.74 107.42 64.94 107.76 64.92C107.94 64.91 108.115 64.725 108.395 64.555ZM56.5851 84.91C56.7501 84.62 56.9351 84.445 56.9401 84.26C56.9501 83.92 56.7401 83.65 56.3751 83.79C56.2401 83.84 56.1301 84.18 56.1551 84.37C56.1751 84.535 56.3901 84.68 56.5901 84.91H56.5851ZM127.795 43.39C127.655 43.33 127.49 43.195 127.39 43.23C127.29 43.27 127.26 43.485 127.2 43.62C127.34 43.68 127.505 43.82 127.605 43.78C127.705 43.74 127.735 43.525 127.795 43.385V43.39ZM81.2051 101.635C81.3451 101.695 81.5151 101.835 81.6101 101.795C81.7101 101.755 81.7401 101.54 81.8001 101.4C81.6601 101.34 81.4951 101.2 81.3951 101.24C81.2951 101.28 81.2651 101.495 81.2051 101.635ZM64.3852 67.225C64.3251 67.365 64.2651 67.5 64.2051 67.64C64.3451 67.7 64.5101 67.835 64.6101 67.795C64.7101 67.755 64.7401 67.54 64.8001 67.405C64.6601 67.345 64.5252 67.285 64.3852 67.225ZM104.365 65.23C104.305 65.365 104.245 65.505 104.185 65.64C104.325 65.7 104.49 65.835 104.59 65.795C104.69 65.755 104.715 65.54 104.775 65.405C104.64 65.345 104.5 65.285 104.36 65.23H104.365ZM79.2051 111.63C79.3451 111.69 79.5151 111.83 79.6101 111.79C79.7101 111.75 79.7401 111.535 79.8001 111.395C79.6601 111.335 79.4901 111.195 79.3951 111.235C79.2951 111.275 79.2651 111.49 79.2051 111.63ZM128.77 45.39C128.635 45.33 128.5 45.275 128.365 45.215C128.305 45.35 128.175 45.515 128.21 45.615C128.25 45.71 128.46 45.74 128.595 45.8C128.655 45.665 128.71 45.53 128.77 45.39ZM96.7952 87.37C96.6552 87.31 96.5201 87.25 96.3801 87.19C96.3201 87.33 96.1851 87.495 96.2251 87.6C96.2651 87.7 96.4801 87.73 96.6201 87.79C96.6801 87.65 96.7401 87.515 96.8001 87.375L96.7952 87.37Z" fill="#FBFDFD"/>
<path d="M73.9751 146.98C68.9851 146.98 63.9951 146.985 59.0001 146.98C58.1701 146.98 57.0951 147.255 56.5501 146.85C54.1251 145.03 51.5401 145.735 48.8751 145.81C44.5451 145.93 40.7301 141.96 40.6451 137.755C40.5601 133.47 44.4001 129.57 48.9451 129.55C50.7801 129.54 52.2201 129.645 52.6201 127.22C52.8901 125.565 54.4901 125.25 56.0151 125.52C57.5751 125.79 58.2551 126.91 58.2801 128.375C58.3351 131.785 58.3851 135.2 58.2901 138.605C58.2351 140.555 58.9451 141.205 60.9151 141.175C67.2351 141.07 73.5601 141.145 79.8801 141.125C82.5051 141.115 83.9201 140.035 83.9201 138.135C83.9201 136.215 82.4501 135.005 79.9201 134.98C75.6801 134.945 71.4351 134.97 67.1951 134.985C65.1751 134.995 63.4801 134.505 63.2551 132.14C63.0801 130.34 64.7101 129.105 67.2751 129.08C71.8501 129.04 76.4251 129.04 81.0001 129.07C86.4501 129.105 90.3951 133.45 89.7601 138.865C89.5851 140.37 89.5751 141.02 91.4101 141.26C93.0601 141.475 93.6401 143.07 93.4301 144.745C93.2251 146.33 92.3201 147.005 90.7051 146.995C85.1301 146.955 79.5601 146.98 73.9851 146.98H73.9751ZM49.7201 134.88C47.5551 134.835 46.3951 135.85 46.3151 137.48C46.2301 139.225 47.3651 140.515 49.2101 140.5C50.7701 140.49 52.0951 139.855 52.1451 137.88C52.1951 135.9 51.1801 135.035 49.7201 134.885V134.88Z" fill="#0EA9E8"/>
<path d="M127.95 136.98C128.197 139.757 129.752 141.142 132.615 141.135C135.78 141.135 138.945 141.035 142.1 141.175C144.195 141.27 144.905 140.455 144.885 138.435C144.815 131.445 144.84 124.455 144.85 117.46C144.85 114.705 145.795 113.42 147.785 113.33C149.74 113.245 150.91 114.775 150.915 117.54C150.93 125.365 150.945 133.19 150.915 141.015C150.9 144.955 149.075 146.875 145.13 146.93C138.97 147.02 132.81 147.035 126.655 146.95C125.07 146.93 124.025 147.225 123.33 148.77C122.585 150.43 121.67 152.03 120.675 153.55C119.7 155.045 118.335 156.06 116.475 155.03C114.58 153.985 115.015 152.495 115.96 151.01C116.05 150.87 116.095 150.705 116.175 150.56C117.242 148.597 116.845 147.075 114.985 145.995C115.105 144.64 114.74 143.24 115.28 141.925C115.555 141.25 114.525 140.01 116.14 139.915C118.395 141.735 120.485 141.8 121.7 140.09C122.8 138.545 122.08 136.515 120 135.29C119.78 134.915 118.56 134.635 119.575 134.145C120.875 133.52 122.23 132.27 123.83 134.16C124.87 135.385 126.56 136.06 127.96 136.98H127.95ZM124.9 145.505C126.12 146.085 126.91 146.17 128.07 145.385C126.895 144.925 126.115 144.805 124.9 145.505Z" fill="#0CA9E9"/>
<path d="M133.485 110.025C131.83 111.78 130.06 112.93 127.67 111.25C127.14 110.88 126.575 111.015 126.06 111.41C124.65 112.5 123.02 111.85 121.49 111.95C120.775 111.995 120.44 111.465 120.57 110.785C120.72 109.975 121.28 109.855 121.83 110.355C122.795 111.24 123.295 110.32 123.545 109.79C123.99 108.845 122.88 109.175 122.525 108.855C121.74 108.14 120.97 107.41 120.2 106.685C120.775 105.67 121.72 105.83 122.23 106.12C123.34 106.75 123.55 106.605 124.285 105.445C125.35 103.76 123.405 104.17 123.225 103.285C124.43 102.815 125.35 102.965 126.41 103.74C126.76 103.995 127.655 105.675 128.495 103.975C129.065 104.04 129.605 104.145 130.05 103.555C133.55 98.9499 135.025 93.7999 133.525 88.1699C131.36 80.0399 125.765 75.8099 117.49 74.9749C116.185 73.9299 110.885 74.5448 110.065 75.8598C109.955 76.0398 110.035 76.3398 110.03 76.5798C109.655 76.8448 109.285 77.1099 108.915 77.3749C107.97 77.9299 107.025 78.4899 106.08 79.0449C103.945 79.1949 103.4 80.2249 104.005 82.9949L103.995 83.0099C103.115 83.0799 102.79 83.7249 103.09 84.3699C103.715 85.7049 102.965 86.3049 102.03 86.8999C101.905 87.0099 101.76 87.0549 101.59 87.0349C101.06 87.0249 100.535 87.0149 100.005 86.9999C102.09 86.1099 101.01 84.4199 101.005 83.0049C102.245 82.9599 101.98 81.6499 102.605 81.0699C103.04 80.6649 103.19 79.9899 102.8 79.5049C102.315 78.8999 102.01 79.6899 101.615 79.8249C100.8 80.0999 100.155 80.0399 100.01 79.0049C100.245 78.9299 100.535 78.9249 100.705 78.7749C102.38 77.3199 103.8 75.3899 106.575 76.6149C107.03 76.8149 108.19 75.9149 108.745 75.2749C109.465 74.4449 108.31 74.0599 107.985 73.4699C109.08 72.2149 110.875 72.1299 112.06 71.0299C112.215 71.0299 112.36 70.9999 112.495 70.9299C115.94 70.1099 119.365 69.1599 122.97 69.5599C139.4 71.9149 146.01 92.1849 137.05 104.645C135.62 106.12 134.145 107.55 132.77 109.075C131.56 110.42 133.09 109.82 133.495 110.015L133.485 110.025ZM126.295 106.295C125.95 107.075 125.605 107.86 125.245 108.67C126.085 109.03 126.87 109.37 127.72 109.735C128.42 108.13 126.6 107.51 126.3 106.295H126.295ZM110.805 73.6499C110.75 73.5099 110.73 73.2949 110.63 73.2549C110.535 73.2099 110.36 73.3399 110.22 73.3949C110.275 73.5349 110.295 73.7449 110.395 73.7899C110.49 73.8349 110.665 73.7049 110.805 73.6499Z" fill="#F3FAFA"/>
<path d="M78.2499 106.845C76.8199 107.67 76.42 109.99 76.54 110.495C77.14 113.105 74.9449 112.085 74.6149 111.89C72.9649 110.915 71.5049 110.95 69.8999 111.93C69.5349 112.155 68.7699 112.19 68.2849 111.495C70.1649 110.55 70.9499 109.565 68.2849 108.62C68.0899 108.55 68.1099 107.87 68.0299 107.475C68.7549 107.595 68.955 108.72 69.89 108.445C70.5 107.36 69.6649 106.705 69.13 106.035C63.22 98.6251 62.5349 90.5751 66.0899 81.9701C69.6699 73.3051 78.625 68.3601 87.76 69.8201C90.425 70.2451 92.8099 71.3701 95.3349 72.1151C95.8999 72.5501 96.4699 72.9901 97.0349 73.4251C97.1249 74.9001 97.5549 75.9251 99.3949 75.7001C99.9749 75.6251 101.12 76.3401 100.29 76.8951C99.075 77.7051 100.22 78.3551 100.005 79.0151C99.4649 79.0151 98.93 79.0151 98.39 79.0201C97.81 78.1301 96.9249 77.6451 95.9949 77.2201C87.9799 72.8251 80.0249 75.4701 75.3999 80.7301C69.8899 86.9901 69.475 95.7751 74.015 102.01C74.085 102.315 74.155 102.62 74.225 102.925C73.365 103.055 72.7449 103.54 73.1799 104.39C73.6949 105.39 74.4649 105.1 75.0949 104.355C76.2699 105.035 77.4499 105.7 78.2549 106.85L78.2499 106.845Z" fill="#F3FAFA"/>
<path d="M101.59 87.04C101.755 87.06 101.9 87.015 102.03 86.905C103.27 86.89 103.36 87.67 103.405 88.67C103.48 90.33 102.96 92.07 103.945 93.635C104.425 107.94 104.91 122.245 105.38 136.55C105.435 138.215 105.425 139.88 105.435 141.545C105.445 143.495 104.775 145.17 102.61 145.14C100.51 145.11 100.025 143.44 100.06 141.57C100.23 132.255 100.23 122.935 100.73 113.62C101.085 106.975 100.97 100.305 101.065 93.645C102.135 91.515 101.265 89.23 101.59 87.045V87.04Z" fill="#15A9E7"/>
<path d="M129.82 47.4949C129.835 46.9999 129.855 46.5099 129.87 46.0149C129.895 45.5199 129.915 45.0249 129.94 44.5299C130.915 42.5849 132.17 41.0499 134.61 41.0149C137.265 40.9799 138.78 42.0949 139.55 44.9499C140.16 47.2049 138.95 48.7749 137.255 49.9999C135.995 50.9149 134.485 50.9949 132.965 50.9949C124.075 50.9799 115.185 51.0299 106.3 50.9499C104.605 50.9349 103.905 51.3499 104.015 53.1249C104.145 55.2899 102.84 56.0499 100.84 55.9249C100.06 55.8749 99.3101 55.7449 99.0551 54.8699C98.8201 54.0799 98.9801 53.3049 99.8001 52.9899C101.045 52.5099 100.93 51.5299 100.925 50.5249C100.915 48.0349 100.94 45.5399 100.915 43.0499C100.9 41.8249 101.21 40.7899 102.63 40.8599C103.94 40.9199 104.06 42.0299 104.075 43.0749C104.09 43.9049 104.14 44.7399 104.09 45.5649C104.005 46.9749 104.19 47.9449 106.025 47.9549C107.895 47.9649 108.075 47.0799 108.19 45.5049C108.335 43.5349 107.235 41.3449 109 39.5999C109.005 39.7499 109.02 39.8999 109.035 40.0499C109.005 40.7149 109.355 41.0049 109.985 41.0199L109.995 41.0299C110.22 42.1299 109.05 44.6249 111.985 43.0199H111.995C111.995 43.3599 111.995 43.6899 111.995 44.0249C110.57 46.7399 111.195 47.8949 114.105 47.9099C115.93 47.9199 117.76 47.9499 119.585 47.8949C122.41 47.8149 123.055 46.7249 121.895 44.0999C123.46 44.3199 124.125 45.4049 124.455 46.9949C124.885 46.4099 125.205 45.9699 125.525 45.5349C126.52 48.3049 126.915 48.4799 129.815 47.4899L129.82 47.4949ZM136.41 45.6199C136.23 44.6699 135.805 43.9999 134.64 44.0399C133.345 44.0799 132.925 44.8099 132.96 45.9649C133 47.1549 133.79 47.4799 134.795 47.4549C135.93 47.4249 136.325 46.6699 136.41 45.6199Z" fill="#13AAE8"/>
<path d="M95.3299 72.1151C92.7999 71.3651 90.4199 70.2451 87.7549 69.8201C78.6199 68.3601 69.6599 73.3051 66.0849 81.9701C62.5299 90.5751 63.2149 98.6251 69.1249 106.035C69.6599 106.71 70.4949 107.365 69.8849 108.445C68.9549 108.72 68.7499 107.59 68.0249 107.475C61.9649 101.645 59.3099 94.5451 60.0899 86.1651C60.7299 84.1151 61.3699 82.0601 62.0099 80.0101L62.0249 79.9901C62.8849 78.7751 63.6849 77.5301 64.1099 76.0851H64.0949C64.6299 75.9301 64.9399 75.5751 65.0199 75.0201C66.0499 73.9351 67.0749 72.8501 68.1049 71.7651C68.8399 71.2951 69.7649 71.0601 70.1249 70.1301L70.1399 70.1401C71.5899 69.6951 72.8549 68.8901 74.1099 68.0601C74.2649 68.0951 74.3999 68.0601 74.5199 67.9601C79.2499 66.2901 84.0649 66.0501 88.9599 67.0751L88.9799 67.0651C89.5599 67.5851 90.2749 67.7801 91.0149 67.9151C91.2949 67.9751 91.5749 68.0401 91.8599 68.1001C92.0899 68.4801 92.4449 68.6451 92.8749 68.6751L92.8849 68.6251C93.0949 68.7451 93.2999 68.8601 93.5099 68.9801C93.6599 69.0451 93.8099 69.1101 93.9649 69.1751C94.3599 70.1251 95.6899 69.9451 96.0599 70.9201C96.0099 71.4351 95.8499 71.8801 95.3399 72.1201L95.3299 72.1151Z" fill="#16A9E5"/>
<path d="M137.04 104.655C146 92.1949 139.39 71.9249 122.96 69.5699C120.88 68.3149 118.6 69.0449 116.455 69.1349C115.09 69.1949 113.45 69.5549 112.485 70.9399C112.35 71.0099 112.205 71.0449 112.05 71.0399C109.83 70.4399 112.61 69.6849 111.99 69.0349C112.035 68.9449 112.06 68.8449 112.07 68.7449C112.64 68.6849 113.185 68.5848 113.505 68.0248C113.665 67.9798 113.825 67.9398 113.985 67.8948C114.82 67.5998 115.655 67.3099 116.49 67.0149C119.815 66.6049 123.135 66.0699 126.475 66.8899C126.96 66.9449 127.44 66.9998 127.925 67.0548L129.995 67.8749C130.505 68.0349 131.01 68.1998 131.52 68.3598C131.64 68.4848 131.785 68.5599 131.955 68.5749C132.12 69.0149 132.51 69.0299 132.89 69.0649C133.215 69.2949 133.535 69.5199 133.86 69.7499C134.06 69.8399 134.265 69.9348 134.465 70.0248C136.3 71.6798 138.14 73.3349 139.975 74.9949L139.995 75.0198C140.055 75.5998 140.385 75.9699 140.9 76.1999C140.86 76.3349 140.9 76.4399 141.015 76.5149C141.57 77.5849 141.97 78.7499 142.92 79.5749L142.9 79.5649C142.925 80.5499 143.255 81.4199 143.905 82.1649C143.965 82.4449 144.02 82.7299 144.08 83.0099C144.365 84.3749 144.645 85.7448 144.93 87.1098C144.845 87.2498 144.855 87.3849 144.955 87.5099C144.97 88.8399 144.99 90.1749 145.005 91.5049C144.975 91.7899 144.945 92.0699 144.915 92.3549C144.625 93.7399 144.33 95.1249 144.04 96.5049C142.945 99.1499 141.805 101.765 140.055 104.075C139.25 105.135 138.46 106.085 136.96 105.895C136.985 105.485 137.015 105.07 137.04 104.655Z" fill="#13A8E6"/>
<path d="M163.38 129.725C163.38 133.72 163.395 137.72 163.375 141.715C163.365 143.685 163.01 145.445 160.455 145.445C158.24 145.445 157.46 144.445 157.455 141.57C157.445 133.66 157.435 125.75 157.43 117.84C157.43 116.115 157.515 114.385 159.645 113.925C162.13 113.395 163.34 114.52 163.39 117.485C163.455 121.565 163.405 125.645 163.405 129.725H163.385H163.38Z" fill="#13A8E6"/>
<path d="M117.485 74.9799C125.765 75.8149 131.355 80.0449 133.52 88.1749C135.02 93.8049 133.545 98.9549 130.045 103.56C129.595 104.15 129.06 104.045 128.49 103.98C128.43 103.805 128.37 103.63 128.31 103.455C129.625 100.95 131.305 98.5649 130.975 95.5049C131.005 95.0049 131.03 94.4999 131.06 93.9999C131.05 91.9349 131.29 89.8249 130.01 87.9799C130.01 87.1799 129.845 86.4549 129.15 85.9549C129.005 85.6149 128.865 85.2699 128.72 84.9299C127.915 83.2199 126.865 81.7349 125.1 80.8899L125.05 81.0149L125.09 80.8899C124.995 80.3299 124.525 80.1349 124.115 79.8549C120.01 77.0349 115.545 76.7999 110.875 77.9799C110.17 77.9499 109.37 78.2149 108.91 77.3849C109.285 77.1199 109.655 76.8549 110.03 76.5899C112.435 75.6749 114.9 75.0449 117.49 74.9849L117.485 74.9799Z" fill="#1CABE3"/>
<path d="M74.0151 102.005C69.4751 95.7651 69.8901 86.9851 75.4001 80.7251C80.0251 75.4651 87.9801 72.8251 95.9951 77.2151C95.7351 78.3601 94.8101 77.8851 94.1201 77.9851C93.7451 77.9851 93.3751 77.9851 93.0001 77.9851C90.6051 77.1101 88.2101 76.7951 85.8051 77.9451C85.3751 77.9951 84.9451 78.0401 84.5101 78.0901C80.9901 79.3451 78.0351 81.2851 76.4201 84.8301C75.8151 85.7951 75.1051 86.7101 74.9651 87.9001C73.0951 92.2401 73.6051 96.5651 75.0651 100.88C75.0051 101.53 74.7351 101.98 74.0101 102L74.0151 102.005Z" fill="#1CABE3"/>
<path d="M116.135 139.915C114.52 140.01 115.55 141.25 115.275 141.925C114.735 143.245 115.105 144.64 114.98 145.995C114.185 146.095 113.905 145.43 113.485 144.985C113.77 144.795 114.015 144.53 113.695 144.245C113.38 143.97 113.135 144.25 112.965 144.54C111.84 143.615 111.11 142.475 111 140.985C111.665 140.985 112.325 140.985 112.99 140.985C113.06 141.34 113.05 141.77 113.595 141.735C113.65 141.735 113.745 141.635 113.75 141.58C113.785 141.035 113.36 141.045 113 140.975C112.94 140.29 112.57 139.975 111.88 140.015C111.275 140.05 111.065 140.44 110.995 140.965C109.605 137.8 110.64 134.05 113.55 131.715C116.695 129.195 121.21 128.825 123.9 130.935C125.375 132.09 126.95 133.195 127.45 135.185C127.515 135.635 127.435 136.13 127.87 136.455C127.895 136.63 127.925 136.81 127.95 136.985C126.55 136.065 124.86 135.39 123.82 134.165C122.22 132.275 120.865 133.525 119.565 134.15C118.55 134.64 119.77 134.92 119.99 135.295C118.34 135.1 117.095 135.835 116.05 137.02C115.375 136.99 115.02 137.31 114.985 137.98C114.625 138.05 114.2 138.04 114.235 138.585C114.235 138.64 114.335 138.735 114.39 138.74C114.935 138.775 114.925 138.35 114.995 137.99C115.3 137.99 115.6 137.99 115.905 137.985C115.98 138.63 116.055 139.275 116.13 139.92L116.135 139.915ZM112.955 137.965C112.93 137.64 112.925 137.26 112.495 137.255C112.055 137.255 112.04 137.64 112.04 137.965C112.04 138.285 112.06 138.67 112.495 138.675C112.935 138.675 112.925 138.285 112.955 137.97V137.965Z" fill="#0EA9E8"/>
<path d="M84.5151 78.0901C84.9451 78.0401 85.3751 77.9951 85.8101 77.9451C87.8351 78.2051 89.9851 77.5401 91.8851 78.9201C92.3001 79.2201 93.5201 79.3701 93.0051 77.9851C93.3801 77.9851 93.7501 77.9851 94.1251 77.9851L94.0751 78.2051C95.1751 79.9501 95.2801 79.9901 96.0151 78.9951C96.1851 79.0351 96.3601 79.0751 96.5301 79.1151C96.7001 79.2401 96.8651 79.3701 97.0351 79.4951V79.4801C96.8701 80.8751 97.6951 81.2151 98.8001 80.9501C99.8501 80.7001 100.095 81.1001 100.015 82.0101C98.9351 82.8801 97.6351 81.5901 96.5451 82.3701C96.0651 82.5201 96.0051 82.1751 95.9401 81.8501C93.5701 78.9051 91.3601 79.8401 89.0251 81.9001C88.7001 81.9601 88.3801 82.0201 88.0551 82.0801C87.9501 81.7401 87.9801 81.1551 87.4701 81.3101C86.7651 81.5201 87.1351 82.2051 87.0951 82.6951C86.8051 82.8251 86.5101 82.9551 86.2201 83.0851C83.9401 82.8301 82.8951 83.8451 83.0901 86.1301C83.0301 86.4951 82.9651 86.8601 82.5551 87.0151C82.0501 87.0151 81.5451 87.0101 81.0401 87.0051C80.7051 87.0051 80.3701 87.0051 80.0351 87.0051C79.8701 85.6701 78.8201 86.1051 78.0351 86.0101C77.8801 84.9201 78.2501 84.0601 79.1601 83.4451C79.5101 83.2101 79.7551 83.3251 79.9401 83.6851C80.1551 84.1051 80.0051 85.1051 80.9501 84.5051C81.5951 84.0951 81.9451 83.6251 81.3351 82.6901C80.6701 81.6651 81.3601 80.5901 82.4651 81.2151C84.5101 82.3701 85.0251 80.5201 85.7301 79.6901C86.8051 78.4301 84.0901 79.3051 84.5351 78.0901H84.5151Z" fill="#F3FAFA"/>
<path d="M110.88 77.9751C115.55 76.7951 120.015 77.0351 124.12 79.8501C124.53 80.1301 125 80.3251 125.095 80.8851C123.675 81.2301 124.035 83.4651 121.595 83.1951C124.77 84.8201 123.37 85.4451 121.86 86.0501C121.06 85.5501 120.455 84.8651 119.965 84.0701C119.825 80.9451 117.67 79.7051 114.57 80.7801C113.37 81.1951 112.06 81.3351 110.83 80.3551C109.765 79.5051 110.8 78.9351 110.855 78.2451C110.88 78.1551 110.89 78.0651 110.885 77.9701L110.88 77.9751Z" fill="#F3FAFA"/>
<path d="M86.9199 85.3051C87.4849 86.2951 89.2699 87.3001 86.6599 88.1351C85.3999 88.5351 86.5299 89.2201 86.7649 89.8351C87.0899 90.6701 88.1899 91.7451 86.0599 92.0901C84.3649 92.3651 84.7349 94.4701 85.4499 94.6551C87.7499 95.2501 86.5149 97.6451 87.8499 98.5851C87.9849 98.6801 87.9449 99.2851 87.7799 99.4901C87.3949 99.9751 87.0999 99.4801 86.7699 99.2801C86.2299 98.9551 85.6049 98.8301 85.2199 99.4101C84.8249 100 85.3049 100.485 85.6999 100.93C86.1349 101.425 86.6049 101.905 86.9599 102.455C87.2049 102.835 87.6649 103.37 87.1549 103.78C86.6149 104.21 86.3549 103.785 86.1249 103.245C85.9899 102.935 85.5349 103.045 85.2549 103.245C82.7249 105.01 82.9899 103.035 83.0449 101.545C83.0799 100.665 83.2149 100.165 81.9899 99.8901C80.1849 99.4851 81.2649 97.8801 81.1649 96.7751C82.1849 97.2951 82.6499 98.4151 83.7549 99.4401C83.3899 98.0201 82.8599 97.0751 83.0049 96.0051C83.5449 95.9401 83.9399 95.7251 83.9749 95.1051C84.0149 94.3851 83.6499 94.0451 82.9649 93.9951C82.8699 92.5201 82.8799 91.0701 83.8799 89.8351C84.1249 90.1201 84.4249 90.5851 84.7699 90.1051C85.2149 89.4901 84.7199 89.1251 84.1949 88.8601C84.1899 88.2401 84.6699 87.9151 85.0099 87.5051C85.1649 87.2901 85.3149 87.0701 85.4699 86.8551C85.7449 86.1401 86.3249 85.7151 86.9199 85.3001V85.3051ZM85.9749 97.0901C85.9849 96.7601 85.9649 96.3901 85.5999 96.3051C85.1349 96.1951 85.0599 96.6251 85.0799 96.9201C85.0999 97.1951 85.2499 97.6201 85.4449 97.6901C85.8949 97.8451 85.8949 97.3901 85.9749 97.0901Z" fill="#F3FAFA"/>
<path d="M83.0101 96.0049C82.8601 97.0799 83.3951 98.0199 83.7601 99.4399C82.6551 98.4199 82.1951 97.2949 81.1701 96.7749C81.0751 95.8399 80.9851 94.9049 80.8901 93.9749C80.9101 93.1549 80.9301 92.3399 80.9501 91.5199C80.9951 91.0649 81.0351 90.6049 81.0801 90.1499C81.9401 89.2799 81.9851 88.0299 82.5351 87.0149C82.9451 86.8599 83.0101 86.4949 83.0701 86.1299C84.1151 85.1149 85.1601 84.0999 86.2001 83.0849C86.4901 82.9549 86.7851 82.8249 87.0751 82.6949C87.3951 82.4899 87.7151 82.2849 88.0351 82.0799C88.3601 82.0199 88.6801 81.9599 89.0051 81.8999C91.3051 81.3699 93.6101 81.3899 95.9201 81.8499C95.9901 82.1799 96.0451 82.5199 96.5251 82.3699C96.7401 83.4049 96.7401 83.3999 95.9451 83.2699C93.6751 82.8949 91.3951 82.4749 89.3051 83.9299C89.0301 84.0099 88.7551 84.0899 88.4851 84.1699C88.2051 84.1299 88.0801 84.2699 88.0701 84.5399L88.0201 84.5999C87.8251 84.7299 87.6251 84.8549 87.4301 84.9849C87.2551 85.0949 87.0851 85.2049 86.9101 85.3149C86.3151 85.7299 85.7351 86.1549 85.4601 86.8649C85.3051 87.0799 85.1551 87.2999 85.0001 87.5149C84.6601 87.9249 84.1801 88.2499 84.1851 88.8699C84.0801 89.1949 83.9751 89.5199 83.8701 89.8449C82.8651 91.0749 82.8551 92.5299 82.9551 94.0049C82.9701 94.6749 82.9851 95.3449 83.0001 96.0099L83.0101 96.0049Z" fill="#30ADDF"/>
<path d="M82.0452 43.5249C81.8702 43.6949 81.6902 43.8649 81.5152 44.0299C79.5202 44.0549 77.5152 44.0199 75.5252 44.1349C74.5602 44.1899 73.7202 44.7349 73.6552 45.8099C73.5802 46.9699 74.4352 47.4749 75.4302 47.4599C81.2452 47.3999 87.0702 47.9399 92.8752 47.2099C92.6602 48.3999 91.6652 47.8799 90.9952 48.0649C86.6752 48.0649 82.3552 48.0649 78.0352 48.0649C75.3902 48.2099 72.7452 48.3549 71.6352 44.9049C70.7802 46.1849 71.1452 47.1049 71.0352 47.9699C69.8502 43.4049 71.6302 40.9999 76.2802 41.0899C78.1552 41.1249 80.1052 40.6049 81.9102 41.5599C81.9552 42.2149 82.0002 42.8649 82.0452 43.5199V43.5249Z" fill="#1CABE3"/>
<path d="M119.96 84.0699C120.45 84.8649 121.055 85.5499 121.855 86.0499C121.925 86.2049 121.99 86.3599 122.06 86.5149C122.205 86.6849 122.35 86.8549 122.495 87.0249C122.67 87.3499 122.845 87.6749 123.025 88.0049C123.12 90.0149 124.195 91.9299 123.595 94.0049C123.465 94.6949 123.445 95.3749 123.845 95.9999C123.365 96.3599 123.23 96.8799 123.005 97.4099C122.77 97.9549 122.765 99.1899 121.81 98.8599C121.07 98.5999 121.665 97.7899 121.845 97.1749C122.585 94.6199 122.41 92.1249 121.07 89.7699C120.985 88.2949 120.15 87.2949 119.005 86.4849C118.365 85.2249 117.37 84.3999 116.005 84.0199L115.985 84.0049C115.52 83.4199 114.88 83.2599 114.175 83.2449L114.08 83.3049C113.42 82.8299 112.685 82.9899 111.965 83.0799C111.59 83.0899 111.215 83.0949 110.84 83.1049C110.27 83.0899 109.695 83.0899 109.125 83.0549C108.645 83.0249 108.17 82.9449 107.69 82.8899C112.09 80.8149 116.15 81.3749 119.965 84.0749L119.96 84.0699Z" fill="#1CABE3"/>
<path d="M121.07 89.7651C122.41 92.1201 122.58 94.6151 121.845 97.1701C121.665 97.7851 121.07 98.5951 121.81 98.8551C122.765 99.1901 122.77 97.9551 123.005 97.4051C123.23 96.8751 123.365 96.3551 123.845 95.9951C125.845 96.3751 124.645 97.9801 124.99 98.9951C123.975 100.555 122.06 101.45 121.735 103.56C121.655 104.09 120.72 105.03 120.355 104.605C119.39 103.485 117.325 104.86 116.87 102.835C116.62 101.715 117.43 101.625 118.01 101.23C120.075 99.8151 120.66 98.0801 120.28 95.4551C120.025 93.7101 121.265 91.7501 121.075 89.7601L121.07 89.7651Z" fill="#F3FAFA"/>
<path d="M119.96 84.0699C116.145 81.3699 112.085 80.8149 107.685 82.8849C108.16 82.9399 108.64 83.0199 109.12 83.0499C109.69 83.0899 110.265 83.0849 110.835 83.0999C110.985 83.9199 111.26 84.7999 110 85.0049C109.945 84.3149 109.575 83.9999 108.88 84.0449C108.27 84.0849 108.06 84.4749 108 85.0099C106.055 85.5599 105.285 83.7799 104.005 83.0049C103.405 80.2349 103.945 79.2049 106.08 79.0549C105.145 80.4049 106.26 80.1849 106.835 79.8899C108.135 79.2349 109.42 78.5749 110.85 78.2499C110.795 78.9449 109.76 79.5099 110.825 80.3599C112.055 81.3399 113.365 81.1999 114.565 80.7849C117.665 79.7099 119.82 80.9449 119.96 84.0749V84.0699Z" fill="#E9F9F7"/>
<path d="M92.8751 47.2149C87.0701 47.9449 81.2451 47.4049 75.4301 47.4649C74.4301 47.4749 73.5801 46.9749 73.6551 45.8149C73.7201 44.7349 74.5651 44.1949 75.5251 44.1399C77.5151 44.0249 79.5201 44.0599 81.5151 44.0349C81.0551 44.8799 80.9301 45.8749 79.5801 47.0049C82.5451 47.0049 84.7451 47.0399 86.9451 46.9899C88.1301 46.9649 88.3351 46.0049 88.5051 45.0799L88.7501 45.0549L89.0001 45.0699C89.7751 46.1049 90.8501 46.1849 92.0051 46.0149C92.6301 46.0649 93.06 46.2949 92.9851 47.0249L92.8751 47.2199V47.2149Z" fill="#E5F9F9"/>
<path d="M92.8749 47.215L92.9849 47.02C93.3249 47.02 93.6599 47.0151 93.9999 47.0101L94.0199 47.0401C94.4349 50.2751 91.9299 50.01 90.1299 49.965C83.9799 49.815 77.7549 50.8301 71.6899 49.0101C71.3049 48.7701 70.9949 48.48 71.0399 47.97C71.1499 47.105 70.7849 46.18 71.6399 44.905C72.7499 48.355 75.3949 48.21 78.0349 48.065C78.1149 48.775 78.5599 49.02 79.2199 49.02C82.7499 49.02 86.2799 49.02 89.8049 49.02C90.4699 49.02 90.9099 48.775 90.9899 48.065C91.6649 47.88 92.6549 48.405 92.8699 47.21L92.8749 47.215Z" fill="#13AAE8"/>
<path d="M48.2801 117.195C47.9651 118.985 46.9801 120.115 44.9551 119.965C42.9651 119.815 41.9501 118.65 42.0951 116.69C42.2301 114.845 43.4151 113.865 45.2301 113.905C47.2201 113.95 48.1801 115.15 48.2801 117.2V117.195Z" fill="#15A9E7"/>
<path d="M96.05 70.9149C95.68 69.9399 94.35 70.1149 93.955 69.1699C94.17 68.1299 94.815 67.0649 95.825 67.4949C97.505 68.2099 100.525 67.6199 100.005 71.0149C100.955 72.4449 102.395 72.8999 104.005 73.0149C105.47 73.9999 104.11 74.9549 103.705 75.5249C103.22 76.2149 102.12 76.3749 101.43 75.3149C100.535 73.9499 99.55 72.6599 97.945 72.0449C97.315 71.6699 96.685 71.2899 96.055 70.9149H96.05Z" fill="#F3FAFA"/>
<path d="M71.6849 49.0151C77.7499 50.8351 83.9749 49.82 90.1249 49.97C91.9299 50.015 94.435 50.2751 94.015 47.0451C94.365 46.9601 94.6449 48.2001 94.9549 47.1951C95.2049 46.4001 95.3249 45.6 95.9949 45.03C96.0599 49.8 94.9999 50.8901 90.2199 50.9201C85.6549 50.9451 81.0849 50.9701 76.5199 50.9201C74.6999 50.9001 72.8499 50.7701 71.6749 49.0151H71.6849Z" fill="#1CABE3"/>
<path d="M52.84 119.96C51.54 119.805 50.515 118.655 50.6 116.735C50.685 114.88 51.89 113.95 53.705 113.905C55.43 113.865 57.015 115.405 56.79 117.05C56.545 118.86 55.57 120.095 52.84 119.96ZM54.985 116.96C54.965 116.225 54.52 115.985 53.87 116.04C53.43 116.075 53.1 116.325 53.12 116.8C53.15 117.445 53.52 117.85 54.17 117.895C54.8 117.935 54.98 117.505 54.985 116.96Z" fill="#1CABE3"/>
<path d="M88.995 45.0699L88.745 45.0549L88.5 45.0799C88.43 44.9699 88.325 44.9249 88.2 44.9399C87.815 44.3049 87.43 43.6699 87.045 43.0299C87.005 38.5149 89.61 36.0399 93.16 37.2049C93.57 37.3399 93.9 37.5449 94.05 37.9749C93.35 38.5249 93.1 39.3149 92.885 40.1249C89.91 39.7499 89.675 39.9899 90.135 42.9099L89.985 43.0649C88.61 43.2249 89.14 44.3149 89 45.0799L88.995 45.0699Z" fill="#1CABE3"/>
<path d="M75.07 100.88C73.615 96.565 73.1 92.2399 74.97 87.8999C76.225 91.0849 75.55 94.62 76.88 97.845C77.545 99.45 77.155 101.4 76.89 103.19C76.28 102.42 75.675 101.655 75.065 100.885L75.07 100.88Z" fill="#F3FAFA"/>
<path d="M109.04 40.0501C109.02 39.9001 109.01 39.7501 109.005 39.6001C109.67 38.6251 110.57 38.7651 110.935 39.6301C111.58 41.1651 112.735 41.0502 113.985 41.0452C116.96 41.0352 119.93 41.0651 122.905 41.0801C123.115 41.3901 123.33 41.7001 123.54 42.0101C121.55 43.1701 119.36 43.0651 117.175 43.0301C115.45 43.0001 113.725 43.0301 112 43.0301L111.99 43.0251C111.72 41.9701 111.055 41.3051 110 41.0351L109.99 41.0251C109.975 40.4051 109.69 40.0501 109.04 40.0551V40.0501Z" fill="#13A8E6"/>
<path d="M84.515 78.09C84.07 79.305 86.785 78.425 85.71 79.69C85.005 80.52 84.49 82.37 82.445 81.215C81.335 80.585 80.65 81.665 81.315 82.69C81.925 83.63 81.575 84.1 80.93 84.505C79.985 85.105 80.14 84.105 79.92 83.685C79.735 83.325 79.49 83.21 79.14 83.445C78.23 84.065 77.855 84.925 78.015 86.01C77.2 86.005 76.71 85.5549 76.425 84.8349C78.04 81.2899 80.99 79.35 84.515 78.095V78.09Z" fill="#F0FAF8"/>
<path d="M89.3149 83.9251C91.4049 82.4701 93.6849 82.8901 95.9549 83.2651C96.7499 83.3951 96.7449 83.4051 96.5349 82.3651C97.6249 81.5851 98.9249 82.8751 100.005 82.0051C100.02 82.6551 100.35 82.9901 101 83.0001C101 84.4201 102.085 86.1051 99.9999 87.0001C98.4649 87.3051 97.9599 86.4551 97.8049 85.1151C97.7549 84.6951 97.8499 84.0501 97.0849 84.0501C96.5199 84.0501 96.1149 84.2601 96.0299 84.8551C95.9249 85.6451 95.5049 86.1901 94.7199 85.8751C93.6249 85.4351 94.7649 85.0301 94.8549 84.5951C95.0299 83.7551 94.6949 83.6801 93.9049 83.7601C92.3849 83.9151 90.8499 83.8751 89.3199 83.9151L89.3149 83.9251Z" fill="#E9F9F7"/>
<path d="M112 43.03C113.725 43.03 115.45 43 117.175 43.03C119.36 43.065 121.55 43.17 123.54 42.01C124.33 42.725 125.12 43.44 125.91 44.155C125.965 44.445 126.025 44.74 126.08 45.03C125.895 45.2 125.715 45.365 125.53 45.535C125.21 45.975 124.885 46.41 124.46 46.995C124.13 45.405 123.465 44.32 121.9 44.1C118.6 44.075 115.3 44.045 112.005 44.02C112.005 43.69 112.005 43.355 112.005 43.025L112 43.03Z" fill="#0CA9E9"/>
<path d="M88.9501 67.075C84.0551 66.045 79.2401 66.29 74.5101 67.96C73.5201 65.37 76.0351 65.815 77.1051 65.09C77.5501 64.785 78.3651 65.025 79.0101 65.02C79.0801 65.445 79.24 65.93 79.69 65.935C82.235 65.98 84.785 65.98 87.33 65.935C87.775 65.93 87.935 65.445 88.005 65.02C89.37 65.225 88.925 66.255 88.945 67.075H88.9501Z" fill="#F3FAFA"/>
<path d="M92.8849 40.1199C93.0999 39.3099 93.3499 38.5199 94.0499 37.9699C94.0499 37.9699 94.0499 37.9749 94.0449 37.9749C94.6849 39.1549 93.9749 41.0499 95.9249 41.5399C95.9499 42.6999 95.9749 43.8599 95.9999 45.0249C95.3299 45.5949 95.2049 46.3949 94.9599 47.1899C94.6449 48.1949 94.3699 46.9499 94.0199 47.0399C94.0199 47.0399 93.9999 47.0099 93.9999 47.0149C93.3649 45.5849 92.7199 44.1549 92.9849 42.5199L92.9949 42.5049C93.9099 42.4649 94.0199 41.8549 93.9949 41.1199C93.9699 40.3949 93.6299 40.0549 92.9049 40.1049L92.8849 40.1199Z" fill="#13AAE8"/>
<path d="M77.3749 104.05C78.8249 104.115 78.0099 102.86 78.3849 102.205C79.3949 102.665 80.0649 103.3 80.0049 104.445C79.9599 105.28 80.2799 105.855 80.9899 106.3C82.1499 107.025 82.0699 108.025 81.5499 109.125C81.3649 109.52 81.1749 110.03 80.7299 109.86C79.6599 109.46 78.9199 108.72 79.0399 107.435C80.0399 105.54 77.6099 105.335 77.3799 104.045L77.3749 104.05Z" fill="#F3FAFA"/>
<path d="M64.1051 76.085C63.6801 77.53 62.8801 78.775 62.0201 79.99C61.9901 77.595 59.6351 76.155 59.4801 73.77C59.4401 73.175 58.6901 72.52 59.6401 72.155C60.5801 71.795 61.0351 72.375 61.0201 73.305C61.0101 74.025 61.6451 74.535 61.7101 75.11C61.9301 77.085 62.9651 76.63 64.1101 76.09L64.1051 76.085Z" fill="#F3FAFA"/>
<path d="M131.52 68.3601C131.01 68.2001 130.505 68.0352 129.995 67.8752C129.685 66.6402 128.705 67.1002 127.925 67.0552C127.44 67.0002 126.96 66.9452 126.475 66.8902C126.145 66.5952 125.815 66.3052 125.485 66.0102C125.67 65.3802 124.535 64.4801 125.66 64.1451C126.465 63.9051 127.69 63.5302 127.995 65.0352C128.065 65.3952 128.065 65.8752 128.59 65.7652C128.76 65.7302 128.845 65.2902 128.97 65.0402C130.405 65.6002 131.37 66.6352 131.995 68.0152L131.975 68.0352L131.525 68.3651L131.52 68.3601Z" fill="#F3FAFA"/>
<path d="M139.98 74.9899C138.145 73.3349 136.305 71.6799 134.47 70.0199C135.99 69.7549 137.37 69.6049 138.135 71.4949C138.455 72.2849 139.12 73.2499 140.425 72.2349C141.1 71.7149 142.165 71.8899 143.245 72.2699C142.205 73.3599 140.21 73.1949 139.975 74.9899H139.98Z" fill="#F3FAFA"/>
<path d="M130.98 95.5049C131.31 98.5649 129.63 100.95 128.315 103.455C127.32 101.97 126.41 100.68 128.545 99.14C129.64 98.35 129.385 96.2299 130.985 95.5049H130.98Z" fill="#F3FAFA"/>
<path d="M104 73.0099C102.39 72.8949 100.95 72.4399 99.9999 71.0099C100.955 70.9949 102.01 71.1899 102.015 69.6749C102.015 68.3949 103.02 68.1949 103.995 68.0149C103.96 69.0799 103.905 70.1649 105.495 70.0099C105.665 70.0099 105.83 70.0099 106 70.0099C106 70.3449 106 70.6749 106 71.0099C105.665 71.0099 105.335 71.0099 105 71.0149C104.42 71.1049 103.655 70.7149 103.315 71.3899C103.05 71.9099 103.665 71.9099 104.005 72.0099C104.005 72.3399 104.005 72.6749 104 73.0049V73.0099Z" fill="#FDFEFD"/>
<path d="M145.01 91.505C144.995 90.175 144.975 88.84 144.96 87.51C146.765 86.565 145.3 84.55 146.455 83.19C147.49 84.68 148.235 86.165 147.975 88.01C146.585 87.85 145.79 88.29 145.96 89.865C146.04 90.59 146.045 91.38 145.01 91.51V91.505Z" fill="#F3FAFA"/>
<path d="M103.945 93.635C102.96 92.07 103.48 90.33 103.405 88.67C103.36 87.67 103.265 86.89 102.03 86.905C102.97 86.31 103.715 85.71 103.09 84.375C102.79 83.73 103.115 83.085 103.995 83.015C104.33 84.6 104.915 85.985 107.05 86.53C103.15 86.505 104.045 89.095 104.01 91.16C103.995 91.985 103.97 92.81 103.95 93.635H103.945Z" fill="#E9F9F7"/>
<path d="M77.3751 104.05C77.6051 105.34 80.0401 105.545 79.0351 107.44C78.9301 107.035 78.6101 106.915 78.2501 106.845C77.4501 105.695 76.2651 105.03 75.0901 104.35C75.1201 103.68 74.9351 103.14 74.2201 102.92C74.1501 102.615 74.0801 102.31 74.0101 102.005C74.7351 101.985 75.0051 101.535 75.0651 100.885C75.6751 101.655 76.2801 102.42 76.8901 103.19C77.0501 103.475 77.2101 103.765 77.3701 104.05H77.3751Z" fill="#30ADDF"/>
<path d="M111.995 69.0349C112.62 69.6849 109.835 70.4349 112.055 71.0399C110.87 72.1449 109.075 72.2299 107.98 73.4799C107.515 73.7049 107.03 73.8599 106.675 73.3499C106.385 72.9349 106.675 72.5949 106.96 72.2899C107.35 71.8849 107.735 71.4799 108.12 71.0699C109.13 70.4049 110.135 69.7399 111.145 69.0749C111.43 69.0599 111.71 69.0449 111.995 69.0299V69.0349Z" fill="#30ADDF"/>
<path d="M91.6601 35.7499C90.9351 35.2699 89.9601 34.8899 90.1651 33.7649C90.3201 32.9099 90.97 32.2099 91.865 32.2249C92.985 32.2499 93.39 33.1549 93.335 34.1449C93.285 35.0949 92.6151 35.5749 91.6601 35.7449V35.7499Z" fill="#30ADDF"/>
<path d="M137.04 104.655C137.015 105.07 136.985 105.48 136.96 105.895C137.405 108.62 134.605 108.615 133.48 110.025C133.075 109.83 131.545 110.43 132.755 109.085C134.13 107.56 135.605 106.125 137.035 104.655H137.04Z" fill="#30ADDF"/>
<path d="M123.59 94.0099C124.185 91.9349 123.11 90.0199 123.02 88.0099C124.095 88.1599 126.02 90.9849 125.935 92.4199C125.845 93.8849 124.665 93.9049 123.595 94.0099H123.59Z" fill="#F3FAFA"/>
<path d="M116.495 67.015C115.66 67.31 114.825 67.6 113.99 67.895C113.905 67.525 113.835 67 113.305 67.31C112.95 67.515 113.23 67.84 113.51 68.025C113.195 68.585 112.645 68.685 112.075 68.745C111.28 66.565 112.99 65.945 114.37 65.235C115.635 64.585 116.075 65.64 116.51 66.54C116.51 66.695 116.5 66.855 116.5 67.015H116.495Z" fill="#F3FAFA"/>
<path d="M87.0401 43.0299C87.4251 43.6649 87.8101 44.2999 88.1951 44.9399C86.4801 46.1899 84.9601 44.8399 83.2951 44.5599C84.8551 44.7049 84.8401 41.2349 87.0351 43.0299H87.0401Z" fill="#E5F9F9"/>
<path d="M125.105 80.885C126.87 81.73 127.92 83.215 128.725 84.925C125.09 84.46 124.83 84.165 125.105 80.885Z" fill="#F3FAFA"/>
<path d="M147.975 88.0051C148.4 88.0751 148.88 88.2351 148.895 88.6901C148.965 91.0151 149.165 93.3551 148.795 95.6601L147.98 95.675V88.0051H147.975Z" fill="#F3FAFA"/>
<path d="M142.925 79.5702C141.975 78.7452 141.575 77.5802 141.02 76.5102C142.38 76.3902 143.175 75.6152 143.15 73.6252C144.95 76.2702 142.5 77.7502 142.925 79.5702Z" fill="#F3FAFA"/>
<path d="M129.155 85.95C129.85 86.455 130.02 87.1799 130.015 87.9749C129.06 87.8699 129.135 88.9849 128.37 89.3599C127.905 88.5699 127.445 87.7849 126.985 86.9999C127.71 86.6499 128.43 86.2949 129.155 85.9449V85.95Z" fill="#F3FAFA"/>
<path d="M62.01 80.01C61.37 82.06 60.73 84.115 60.09 86.165C60.07 84.115 60.045 82.06 60.025 80.01C60.685 80.01 61.345 80.01 62.01 80.01Z" fill="#F3FAFA"/>
<path d="M101.59 87.0401C101.26 89.2301 102.135 91.5101 101.065 93.6401C101.535 91.2951 99.6552 89.3301 100.005 87.0051C100.535 87.0151 101.06 87.0251 101.59 87.0401Z" fill="#E9F9F7"/>
<path d="M116.495 67.0152C116.495 66.8552 116.505 66.7002 116.505 66.5402C117.165 66.3652 117.83 66.1902 118.49 66.0152C118.995 66.0002 119.495 65.9852 120 65.9702C121.825 65.9852 123.655 65.9952 125.48 66.0102C125.81 66.3052 126.14 66.5952 126.47 66.8902C123.13 66.0702 119.81 66.6052 116.485 67.0152H116.495Z" fill="#DFF2F5"/>
<path d="M56.5199 77.6501C55.8849 75.9051 55.9599 74.1451 56.5549 72.3701C57.0899 74.1051 57.1799 75.8601 56.5199 77.6501Z" fill="#F3FAFA"/>
<path d="M116 84.0149C117.365 84.3949 118.36 85.2199 119 86.4799C116.945 87.1499 116.285 86.6099 116 84.0149Z" fill="#E9F9F7"/>
<path d="M111.145 69.08C110.135 69.745 109.13 70.41 108.12 71.075C107.415 71.055 106.71 71.035 106.005 71.015C106.005 70.68 106.005 70.35 106.005 70.015C107.805 70.17 109.245 68.35 111.15 69.08H111.145Z" fill="#F3FAFA"/>
<path d="M144.04 96.5051C144.33 95.1201 144.625 93.7401 144.915 92.3551C145.025 92.8201 144.995 93.4051 145.265 93.7351C146.755 95.5451 145.62 96.1051 144.035 96.5051H144.04Z" fill="#F3FAFA"/>
<path d="M130.01 87.9801C131.29 89.8251 131.05 91.9351 131.06 94.0001C130.405 93.9601 129.845 93.6251 130.05 92.9651C130.565 91.2801 129.695 89.6401 130.01 87.9801Z" fill="#F3FAFA"/>
<path d="M95.9251 41.5451C93.9751 41.0551 94.6851 39.1601 94.0451 37.9801C95.6151 38.6701 96.1451 39.9151 95.9251 41.5451Z" fill="#1CABE3"/>
<path d="M110.945 35.9499C110.97 36.5149 110.75 36.9149 110.15 36.9649C109.465 37.0249 109.045 36.7249 109.065 35.9849C109.08 35.3949 109.405 35.0949 109.985 35.0899C110.56 35.0799 110.915 35.3399 110.945 35.9499Z" fill="#F0FAF8"/>
<path d="M126.985 97.0001C127.095 95.7901 126.745 94.5401 127.49 93.3801C127.795 94.6251 128.88 95.9351 126.985 97.0001Z" fill="#F3FAFA"/>
<path d="M125.53 45.5402C125.715 45.3702 125.895 45.2052 126.08 45.0352C126.48 47.1452 127.755 47.9152 129.82 47.4952C126.915 48.4852 126.525 48.3052 125.53 45.5402Z" fill="#DFF2F5"/>
<path d="M125.91 44.16C125.12 43.445 124.33 42.73 123.54 42.015C123.33 41.705 123.115 41.395 122.905 41.085C125.33 40.72 125.415 42.645 125.91 44.165V44.16Z" fill="#DFF2F5"/>
<path d="M132.875 65.9199C133.815 64.7499 134.27 63.6599 136.205 64.5199C134.945 64.9049 134.545 65.9249 132.875 65.9199Z" fill="#F3FAFA"/>
<path d="M105.495 70.01C103.905 70.165 103.96 69.08 103.995 68.015C105.7 67.775 106.125 68.495 105.495 70.01Z" fill="#F3FAFA"/>
<path d="M71.0702 64.2949H73.7352C72.9752 65.4383 72.0869 65.4383 71.0702 64.2949Z" fill="#F3FAFA"/>
<path d="M74.1049 68.0551C72.8549 68.8851 71.5899 69.6851 70.1349 70.1351C70.0949 69.7601 70.0599 69.3901 70.0199 69.0151C71.4999 69.2001 72.5399 67.5101 74.1049 68.0551Z" fill="#F3FAFA"/>
<path d="M151.075 88.3349C149.63 87.1949 149.87 86.2849 150.4 84.9899C151.265 86.0949 150.82 87.1099 151.075 88.3349Z" fill="#F3FAFA"/>
<path d="M78.0151 86.0049C78.8001 86.0999 79.8451 85.6649 80.0151 86.9999C78.8451 87.6799 77.7351 88.2399 78.0151 86.0049Z" fill="#F0FAF8"/>
<path d="M132.895 69.0651C132.515 69.0301 132.125 69.0151 131.96 68.5751C131.965 68.3951 131.97 68.2101 131.975 68.0301L131.995 68.0101C132.99 68.0101 133.99 68.0151 134.985 68.0201C134.97 68.6651 134.635 69.0001 133.985 69.0201C133.62 69.0351 133.26 69.0551 132.895 69.0701V69.0651Z" fill="#F3FAFA"/>
<path d="M109.995 86.0001C110.88 86.1001 111.81 85.7851 113.335 86.6701C111.69 86.8601 110.695 87.7251 109.99 86.0001H109.995Z" fill="#F3FAFA"/>
<path d="M88.0101 65.0149H85.3501C85.3701 64.7649 85.3901 64.5149 85.4101 64.2649C86.3151 64.1599 87.3051 63.2899 88.0101 65.0149Z" fill="#F3FAFA"/>
<path d="M82.5349 87.0151C81.9799 88.0301 81.9399 89.2801 81.0799 90.1501C81.0599 89.1051 81.0399 88.0551 81.0199 87.0051C81.5249 87.0051 82.0299 87.0101 82.5349 87.0151Z" fill="#F0FAF8"/>
<path d="M144.93 87.1098C144.645 85.7448 144.365 84.3749 144.08 83.0099C145.865 84.0649 144.645 85.7448 144.93 87.1098Z" fill="#F3FAFA"/>
<path d="M79.7801 100.59C79.4951 101.065 78.9801 101.075 78.5301 101.135C78.0601 101.195 78.0601 100.81 78.1651 100.5C78.3251 100.03 78.7601 100.02 79.1551 100.04C79.4851 100.055 79.7701 100.185 79.7851 100.59H79.7801Z" fill="#F3FAFA"/>
<path d="M70.0199 69.015C69.4399 68.885 68.6799 69.32 68.2149 68.355C69.1049 67.965 69.7849 67.785 70.0199 69.015Z" fill="#F3FAFA"/>
<path d="M95.9999 64.9799C95.6799 64.9549 95.2949 64.9549 95.2999 64.5199C95.2999 64.0849 95.6899 64.0699 96.0099 64.0699C96.3299 64.0699 96.7149 64.0949 96.7099 64.5299C96.7099 64.9649 96.3199 64.9549 95.9999 64.9799Z" fill="#F3FAFA"/>
<path d="M119.99 65.015C120.215 63.75 120.925 64.02 121.82 64.295C121.33 65.315 120.57 64.885 119.99 65.015Z" fill="#F3FAFA"/>
<path d="M93.7401 65.4301C93.7801 65.9001 93.4051 65.9751 93.1051 65.9501C92.8301 65.9301 92.4051 65.7801 92.3351 65.5851C92.1801 65.1401 92.6301 65.1051 92.9351 65.0601C93.2601 65.0151 93.5701 65.0801 93.7351 65.4251L93.7401 65.4301Z" fill="#F3FAFA"/>
<path d="M134.98 68.0149C135.11 67.4349 134.675 66.6749 135.64 66.2099C136.025 67.0999 136.21 67.7799 134.98 68.0149Z" fill="#F3FAFA"/>
<path d="M143.91 82.1601C143.265 81.4151 142.93 80.5451 142.905 79.5601C144.69 79.8701 143.755 81.2251 143.91 82.1601Z" fill="#F3FAFA"/>
<path d="M109.995 85.0051C109.995 85.3351 109.995 85.6701 109.995 86.0001C109.21 85.9051 108.17 86.3301 108 85.0001C108.665 85.0001 109.335 85.0001 110 85.0001L109.995 85.0051Z" fill="#E9F9F7"/>
<path d="M58.7499 86.295C58.8149 86.525 58.9599 86.805 58.9599 87.085C58.9599 87.385 58.8899 87.835 58.4449 87.68C58.2499 87.615 58.1049 87.185 58.0849 86.91C58.0599 86.615 58.1249 86.235 58.7499 86.29V86.295Z" fill="#F3FAFA"/>
<path d="M64.5201 71.2952C64.9551 71.3552 64.9701 71.7001 64.9701 72.0201C64.9701 72.3401 64.9451 72.7252 64.5101 72.7202C64.0701 72.7202 64.0651 72.3302 64.0651 72.0102C64.0651 71.6902 64.0851 71.3502 64.5201 71.2952Z" fill="#F3FAFA"/>
<path d="M70.1251 70.1251C69.7651 71.0601 68.8401 71.2901 68.1051 71.7601C68.0051 70.2601 68.8251 69.8951 70.1251 70.1251Z" fill="#F3FAFA"/>
<path d="M78.7401 97.2901C78.8051 97.5201 78.9502 97.8001 78.9502 98.0801C78.9502 98.3801 78.8901 98.8051 78.4251 98.6951C78.0601 98.6101 78.0151 98.2351 78.0551 97.9101C78.0951 97.6001 78.1101 97.2351 78.7351 97.2851L78.7401 97.2901Z" fill="#F3FAFA"/>
<path d="M125.985 99.0001C126.08 98.2151 125.65 97.1701 126.985 97.0001C126.89 97.7851 127.32 98.8351 125.985 99.0001Z" fill="#F3FAFA"/>
<path d="M66.5251 70.755C66.0951 70.69 66.0701 70.355 66.0701 70.035C66.0701 69.715 66.0851 69.3249 66.5251 69.3299C66.9601 69.3299 66.9751 69.72 66.9751 70.04C66.9751 70.36 66.9601 70.705 66.5201 70.76L66.5251 70.755Z" fill="#F3FAFA"/>
<path d="M124.99 98.9999C125.325 98.9999 125.655 98.9999 125.99 98.9999C125.865 99.5799 126.28 100.315 125.49 100.735C124.695 100.32 125.115 99.5799 124.99 98.9999Z" fill="#F3FAFA"/>
<path d="M82.0449 43.5249C81.9999 42.8699 81.9549 42.2199 81.9099 41.5649C83.2649 42.1249 83.2299 42.7849 82.0449 43.5249Z" fill="#E5F9F9"/>
<path d="M108.395 64.555C108.11 64.725 107.94 64.9101 107.76 64.9201C107.42 64.9401 107.14 64.74 107.26 64.37C107.305 64.235 107.645 64.12 107.835 64.135C108 64.15 108.15 64.36 108.395 64.555Z" fill="#F3FAFA"/>
<path d="M60.025 80.0101C59.525 79.9351 59.035 79.8201 59.14 79.1601C59.165 79.0051 59.495 78.7451 59.59 78.7851C60.175 79.0101 59.96 79.5701 60.025 80.0151V80.0101Z" fill="#F3FAFA"/>
<path d="M120.005 65.9701C119.5 65.9851 119 66.0001 118.495 66.0151C118.54 65.0051 119.27 65.0101 119.995 65.0151C119.995 65.3301 120.005 65.6501 120.005 65.9651V65.9701Z" fill="#F3FAFA"/>
<path d="M151.865 88.9749C151.75 89.0449 151.54 89.2698 151.41 89.2348C150.915 89.0948 151 88.6248 150.985 88.2448C150.97 87.7048 151.32 88.0999 151.44 88.1249C151.8 88.2099 151.915 88.5049 151.865 88.9749Z" fill="#F3FAFA"/>
<path d="M56.5851 84.9099C56.3851 84.6749 56.1701 84.5349 56.1501 84.3699C56.1301 84.1799 56.2351 83.8399 56.3701 83.7899C56.7351 83.6499 56.9451 83.9199 56.9351 84.2599C56.9301 84.4449 56.7451 84.6249 56.5801 84.9099H56.5851Z" fill="#F3FAFA"/>
<path d="M111.96 83.075C112.685 82.985 113.415 82.825 114.075 83.3C113.355 83.365 112.51 84.605 111.96 83.075Z" fill="#E9F9F7"/>
<path d="M91.0099 67.91C90.2699 67.775 89.5549 67.58 88.9749 67.06C89.7599 67.095 90.7399 66.64 91.0099 67.91Z" fill="#F3FAFA"/>
<path d="M80.9502 91.5199C80.9302 92.3399 80.9102 93.1549 80.8902 93.9749C80.3252 93.1449 80.2952 92.3249 80.9502 91.5199Z" fill="#F0FAF8"/>
<path d="M127.795 43.3902C127.735 43.5302 127.705 43.7402 127.605 43.7802C127.505 43.8202 127.34 43.6802 127.2 43.6202C127.26 43.4802 127.29 43.2652 127.39 43.2302C127.49 43.1902 127.66 43.3302 127.795 43.3902Z" fill="#DFF2F5"/>
<path d="M63.245 74.6849C63.32 74.5049 63.37 74.3799 63.425 74.2549C63.595 74.3599 63.765 74.4649 63.935 74.5699C63.835 74.6899 64.32 75.0299 63.8 74.9749C63.605 74.9549 63.43 74.7849 63.245 74.6899V74.6849Z" fill="#F3FAFA"/>
<path d="M114.17 83.24C114.875 83.255 115.515 83.415 115.98 84C115.325 83.865 114.375 84.445 114.17 83.24Z" fill="#E9F9F7"/>
<path d="M126.985 87.0051C126.625 86.9401 126.2 86.9551 126.23 86.4051C126.23 86.3501 126.33 86.2551 126.385 86.2501C126.935 86.2151 126.92 86.6451 126.985 87.0051Z" fill="#F3FAFA"/>
<path d="M128.97 65.03C128.845 65.285 128.76 65.72 128.59 65.755C128.06 65.87 128.065 65.385 127.995 65.025C128.32 65.025 128.645 65.025 128.97 65.025V65.03Z" fill="#DFF2F5"/>
<path d="M81.2048 101.635C81.2648 101.495 81.2948 101.28 81.3948 101.24C81.4948 101.2 81.6598 101.34 81.7998 101.4C81.7398 101.54 81.7098 101.755 81.6098 101.795C81.5098 101.835 81.3398 101.695 81.2048 101.635Z" fill="#F3FAFA"/>
<path d="M64.3849 67.2249C64.5249 67.2849 64.6599 67.3449 64.7999 67.4049C64.7399 67.5449 64.7099 67.7599 64.6099 67.7949C64.5099 67.8349 64.3399 67.6999 64.2049 67.6399C64.2649 67.4999 64.3249 67.3649 64.3849 67.2249Z" fill="#F3FAFA"/>
<path d="M104.365 65.2301C104.505 65.2901 104.64 65.3501 104.78 65.4051C104.72 65.5401 104.69 65.7551 104.595 65.7951C104.495 65.8351 104.33 65.7001 104.19 65.6401C104.25 65.5051 104.31 65.3651 104.37 65.2301H104.365Z" fill="#F3FAFA"/>
<path d="M79.205 111.63C79.265 111.49 79.295 111.275 79.395 111.235C79.495 111.195 79.66 111.335 79.8 111.395C79.74 111.535 79.71 111.75 79.61 111.79C79.51 111.83 79.34 111.69 79.205 111.63Z" fill="#F3FAFA"/>
<path d="M79.0149 65.0149C79.0799 64.6549 79.0699 64.2299 79.6149 64.2649C79.6699 64.2649 79.7649 64.3649 79.7699 64.4199C79.8049 64.9649 79.3749 64.9549 79.0199 65.0199L79.0149 65.0149Z" fill="#F3FAFA"/>
<path d="M128.77 45.3899C128.71 45.5249 128.655 45.6599 128.595 45.7949C128.46 45.7349 128.25 45.7048 128.21 45.6098C128.17 45.5098 128.305 45.3448 128.365 45.2098C128.5 45.2698 128.635 45.3249 128.77 45.3849V45.3899Z" fill="#DFF2F5"/>
<path d="M96.7949 87.3699C96.7349 87.5099 96.6749 87.6449 96.6149 87.7849C96.4749 87.7249 96.2599 87.6949 96.2199 87.5949C96.1799 87.4949 96.3149 87.3249 96.3749 87.1849C96.5149 87.2449 96.6499 87.3049 96.7899 87.3649L96.7949 87.3699Z" fill="#E9F9F7"/>
<path d="M112.965 144.54C113.135 144.25 113.38 143.97 113.695 144.245C114.015 144.525 113.77 144.795 113.485 144.985C113.31 144.835 113.14 144.69 112.965 144.54Z" fill="#0CA9E9"/>
<path d="M65.0201 75.015C64.9401 75.57 64.6301 75.925 64.0951 76.08C64.0701 75.725 64.0501 75.37 64.0251 75.01C64.3551 75.01 64.6901 75.01 65.0201 75.01V75.015Z" fill="#F3FAFA"/>
<path d="M127.87 136.45C127.435 136.125 127.51 135.63 127.45 135.18C127.85 135.515 127.91 135.965 127.87 136.45Z" fill="#0CA9E9"/>
<path d="M140.905 76.1951C140.39 75.9651 140.06 75.5951 140 75.0151C140.75 75.0651 140.995 75.5001 140.905 76.1951Z" fill="#F3FAFA"/>
<path d="M129.94 44.5301C129.915 45.0251 129.895 45.5201 129.87 46.0151C129.35 45.4951 129.375 45.0001 129.94 44.5301Z" fill="#DFF2F5"/>
<path d="M92.865 68.6749C92.435 68.6399 92.085 68.4799 91.85 68.0999C92.42 67.8899 93.13 67.4199 92.865 68.6749Z" fill="#F3FAFA"/>
<path d="M132.895 69.0652C133.26 69.0502 133.62 69.0302 133.985 69.0152C133.945 69.2602 133.905 69.5001 133.865 69.7451C133.54 69.5201 133.22 69.2902 132.895 69.0652Z" fill="#DFF2F5"/>
<path d="M88.0801 84.5299C88.0901 84.2649 88.2101 84.12 88.4951 84.16C88.3551 84.285 88.2201 84.4049 88.0801 84.5299Z" fill="#E9F9F7"/>
<path d="M49.7199 134.88C51.1749 135.035 52.1949 135.895 52.1449 137.875C52.0949 139.855 50.7699 140.485 49.2099 140.495C47.3649 140.51 46.2299 139.22 46.3149 137.475C46.3949 135.845 47.5599 134.83 49.7199 134.875V134.88Z" fill="#E5F9F9"/>
<path d="M116.055 137.015C117.1 135.83 118.345 135.095 119.995 135.29C122.075 136.51 122.795 138.54 121.695 140.09C120.48 141.805 118.39 141.735 116.135 139.915C116.06 139.27 115.985 138.625 115.91 137.98C115.96 137.66 116.005 137.335 116.055 137.015Z" fill="#E5F9F9"/>
<path d="M124.9 145.505C126.12 144.805 126.9 144.925 128.07 145.385C126.91 146.17 126.115 146.085 124.9 145.505Z" fill="#15A9E7"/>
<path d="M106.005 71.015C106.71 71.035 107.415 71.055 108.12 71.075C107.735 71.48 107.345 71.89 106.96 72.295C106.67 72.6 106.385 72.94 106.675 73.355C107.03 73.865 107.52 73.71 107.98 73.485C108.305 74.07 109.46 74.455 108.74 75.29C108.19 75.93 107.025 76.83 106.57 76.63C103.795 75.4 102.375 77.33 100.7 78.79C100.53 78.935 100.24 78.945 100.005 79.015C100.225 78.36 99.08 77.705 100.29 76.895C101.12 76.345 99.975 75.63 99.395 75.7C97.555 75.93 97.125 74.905 97.035 73.43C97.485 73.61 98.005 73.85 98.33 73.35C98.65 72.86 98.015 72.51 97.945 72.05C99.55 72.665 100.535 73.95 101.43 75.32C102.125 76.375 103.22 76.22 103.705 75.53C104.105 74.96 105.47 74.005 104.005 73.02C104.005 72.69 104.005 72.355 104.01 72.025C104.655 72.005 104.98 71.67 105.005 71.03C105.34 71.03 105.67 71.03 106.005 71.025V71.015Z" fill="#E9F9F7"/>
<path d="M100 82.0101C100.08 81.1001 99.8351 80.7001 98.7851 80.9501C97.6851 81.2151 96.8551 80.8751 97.0251 79.4801C97.6551 79.8401 98.0901 79.6301 98.3851 79.0151C98.9251 79.0151 99.4601 79.0151 100 79.0101C100.145 80.0451 100.79 80.1051 101.605 79.8301C102.005 79.6951 102.305 78.9051 102.79 79.5101C103.18 79.9951 103.035 80.6701 102.595 81.0751C101.97 81.6551 102.24 82.9651 100.995 83.0101C100.98 82.3601 100.645 82.0301 100 82.0151V82.0101Z" fill="#E9F9F7"/>
<path d="M112.49 70.94C113.45 69.555 115.09 69.195 116.46 69.135C118.605 69.045 120.885 68.315 122.965 69.57C119.36 69.17 115.935 70.12 112.49 70.94Z" fill="#30ADDF"/>
<path d="M117.485 74.9801C114.895 75.0401 112.43 75.6701 110.025 76.5851C110.03 76.3401 109.95 76.0451 110.06 75.8651C110.875 74.5501 116.175 73.9351 117.485 74.9801Z" fill="#E9F9F7"/>
<path d="M126.295 106.295C126.6 107.51 128.415 108.135 127.715 109.735C126.865 109.37 126.08 109.03 125.24 108.67C125.6 107.855 125.945 107.075 126.29 106.295H126.295Z" fill="#FBFDFD"/>
<path d="M110.85 78.2451C109.42 78.5701 108.135 79.2251 106.835 79.8851C106.255 80.1751 105.14 80.4 106.08 79.05C107.025 78.495 107.97 77.9351 108.915 77.3801C109.38 78.2101 110.175 77.9451 110.88 77.9751C110.89 78.0701 110.88 78.1601 110.85 78.2501V78.2451Z" fill="#30ADDF"/>
<path d="M110.805 73.65C110.665 73.705 110.49 73.835 110.395 73.79C110.3 73.745 110.275 73.535 110.22 73.395C110.36 73.34 110.53 73.21 110.63 73.255C110.725 73.3 110.75 73.51 110.805 73.65Z" fill="#E9F9F7"/>
<path d="M98.3849 79.015C98.0899 79.63 97.6549 79.84 97.0249 79.48V79.495C96.9849 79.2 96.7999 79.09 96.5199 79.115C96.3499 79.075 96.1749 79.035 96.0049 78.995C95.3599 78.73 94.7149 78.47 94.0649 78.205C94.0649 78.205 94.1149 77.98 94.1149 77.985C94.8049 77.88 95.7299 78.355 95.9899 77.215C96.9199 77.64 97.8049 78.125 98.3849 79.015Z" fill="#30ADDF"/>
<path d="M97.94 72.0451C98.01 72.5051 98.645 72.855 98.325 73.345C98 73.84 97.48 73.605 97.03 73.425C96.465 72.99 95.895 72.55 95.33 72.115C95.84 71.875 96 71.4301 96.045 70.9151C96.675 71.2901 97.305 71.6701 97.935 72.0451H97.94Z" fill="#30ADDF"/>
<path d="M74.2252 102.92C74.9402 103.14 75.1252 103.68 75.0952 104.35C74.4652 105.095 73.6952 105.385 73.1802 104.385C72.7402 103.535 73.3652 103.05 74.2252 102.92Z" fill="#DFF2F5"/>
<path d="M111.995 44.025C115.295 44.05 118.595 44.08 121.89 44.105C123.05 46.73 122.41 47.82 119.585 47.9C117.76 47.95 115.935 47.92 114.105 47.915C111.19 47.9 110.565 46.74 111.995 44.03V44.025Z" fill="#DFF2F5"/>
<path d="M136.41 45.6201C136.325 46.6701 135.93 47.4251 134.795 47.4551C133.79 47.4801 133 47.1551 132.96 45.9651C132.925 44.8101 133.345 44.0851 134.64 44.0401C135.805 44.0001 136.23 44.6701 136.41 45.6201Z" fill="#DFF2F5"/>
<path d="M110 41.03C111.055 41.3 111.72 41.9649 111.99 43.0199C109.055 44.6249 110.225 42.13 110 41.03Z" fill="#0CA9E9"/>
<path d="M109.04 40.0499C109.69 40.0499 109.98 40.3999 109.99 41.0199C109.36 41.0049 109.005 40.7149 109.04 40.0499Z" fill="#0CA9E9"/>
<path d="M127.925 67.0549C128.705 67.0949 129.685 66.6399 129.995 67.8749C129.305 67.5999 128.615 67.3299 127.925 67.0549Z" fill="#DFF2F5"/>
<path d="M113.51 68.0249C113.23 67.8399 112.955 67.5149 113.305 67.3099C113.835 67.0049 113.9 67.5249 113.99 67.8949C113.83 67.9399 113.67 67.9799 113.51 68.0249Z" fill="#FBFDFD"/>
<path d="M131.975 68.0248C131.97 68.2048 131.965 68.3899 131.96 68.5699C131.785 68.5549 131.64 68.4849 131.525 68.3549C131.675 68.2449 131.825 68.1348 131.975 68.0248Z" fill="#FBFDFD"/>
<path d="M92.9999 77.98C93.5149 79.365 92.2949 79.215 91.8799 78.915C89.9849 77.535 87.8349 78.2 85.8049 77.94C88.2099 76.79 90.6049 77.1 92.9999 77.98Z" fill="#F0FAF8"/>
<path d="M112.955 137.965C112.925 138.285 112.935 138.675 112.495 138.67C112.06 138.67 112.045 138.28 112.04 137.96C112.04 137.635 112.055 137.25 112.495 137.25C112.925 137.25 112.93 137.635 112.955 137.96V137.965Z" fill="#0CA9E9"/>
<path d="M110.995 140.965C111.065 140.44 111.275 140.05 111.88 140.015C112.57 139.975 112.94 140.29 113 140.975L112.99 140.985C112.325 140.985 111.665 140.985 111 140.985L110.99 140.96L110.995 140.965Z" fill="#0CA9E9"/>
<path d="M116.055 137.015C116.005 137.335 115.96 137.66 115.91 137.98C115.605 137.98 115.305 137.98 115 137.985L114.99 137.975C115.025 137.3 115.38 136.98 116.055 137.015Z" fill="#0CA9E9"/>
<path d="M115 137.985C114.93 138.34 114.94 138.77 114.395 138.735C114.34 138.735 114.245 138.635 114.24 138.58C114.205 138.035 114.63 138.045 114.99 137.975L115 137.985Z" fill="#0CA9E9"/>
<path d="M113 140.975C113.36 141.045 113.785 141.035 113.75 141.58C113.75 141.635 113.65 141.73 113.595 141.735C113.05 141.77 113.06 141.345 112.99 140.985L113 140.975Z" fill="#0CA9E9"/>
<path d="M95.9251 81.8448C93.6151 81.3898 91.3101 81.3648 89.0101 81.8948C91.3501 79.8348 93.5551 78.8998 95.9251 81.8448Z" fill="#F0FAF8"/>
<path d="M86.2 83.0851C85.155 84.1001 84.11 85.1151 83.07 86.1301C82.88 83.8451 83.92 82.8301 86.2 83.0851Z" fill="#F0FAF8"/>
<path d="M94.0649 78.2101C94.7099 78.4751 95.3549 78.7352 96.0049 79.0002C95.2749 80.0002 95.1649 79.9551 94.0649 78.2101Z" fill="#F0FAF8"/>
<path d="M88.0402 82.075C87.7202 82.28 87.4001 82.485 87.0801 82.69C87.1201 82.195 86.7501 81.515 87.4551 81.305C87.9651 81.15 87.9402 81.74 88.0402 82.075Z" fill="#F0FAF8"/>
<path d="M96.52 79.1151C96.8 79.0901 96.985 79.2001 97.025 79.4951C96.855 79.3701 96.69 79.2401 96.52 79.1151Z" fill="#F0FAF8"/>
<path d="M83.01 96.0049C82.995 95.3349 82.98 94.6649 82.965 93.9999C83.655 94.0499 84.015 94.3899 83.975 95.1099C83.94 95.7299 83.545 95.9449 83.005 96.0099L83.01 96.0049Z" fill="#FBFDFD"/>
<path d="M85.9748 97.0949C85.8948 97.3899 85.8948 97.8499 85.4448 97.6899C85.2498 97.6199 85.0998 97.1949 85.0798 96.9199C85.0548 96.6249 85.1348 96.1949 85.5998 96.3049C85.9648 96.3899 85.9898 96.7599 85.9798 97.0949H85.9748Z" fill="#FBFDFD"/>
<path d="M83.88 89.84C83.985 89.515 84.09 89.19 84.195 88.865C84.725 89.13 85.22 89.495 84.77 90.11C84.425 90.59 84.125 90.125 83.88 89.84Z" fill="#FBFDFD"/>
<path d="M85.0101 87.5051C85.1651 87.2901 85.3151 87.0751 85.4701 86.8551C85.3151 87.0701 85.1651 87.2901 85.0101 87.5051Z" fill="#FBFDFD"/>
<path d="M90.9901 48.0699C90.9101 48.7799 90.4651 49.0249 89.8051 49.0249C86.2751 49.0199 82.7452 49.0199 79.2202 49.0249C78.5552 49.0249 78.1152 48.7799 78.0352 48.0699C82.3552 48.0699 86.6751 48.0699 90.9951 48.0699H90.9901Z" fill="#0CA9E8"/>
<path d="M110 85.0101C109.335 85.0101 108.665 85.0101 108 85.0101C108.06 84.4751 108.27 84.0851 108.88 84.0451C109.575 84.0001 109.945 84.3151 110 85.0101Z" fill="#FBFDFD"/>
<path d="M88.9951 45.0699C89.1351 44.3049 88.6051 43.2148 89.9801 43.0548C90.6001 44.0748 92.8601 43.9799 92.0001 46.0099C90.8451 46.1799 89.7701 46.1048 88.9951 45.0648V45.0699Z" fill="#0EA9E8"/>
<path d="M92 46.0099C92.855 43.9799 90.6 44.0749 89.98 43.0549C89.98 43.0549 90.13 42.8999 90.13 42.9049C91.135 43.1799 92.115 43.2649 92.98 42.5199C92.71 44.1549 93.355 45.585 93.995 47.015C93.655 47.015 93.32 47.0199 92.98 47.0249C93.055 46.2949 92.625 46.065 92 46.015V46.0099Z" fill="#1CABE3"/>
<path d="M54.9849 116.96C54.9799 117.505 54.7999 117.935 54.1699 117.89C53.5199 117.845 53.1499 117.44 53.1199 116.795C53.0999 116.32 53.4249 116.07 53.8699 116.035C54.5199 115.985 54.9649 116.225 54.9849 116.96Z" fill="#0CA9E8"/>
<path d="M92.98 42.52C92.115 43.265 91.1349 43.18 90.1299 42.905C89.6749 39.985 89.9099 39.75 92.8799 40.12L92.8999 40.105C93.0799 40.9 93.2349 41.695 92.9849 42.5L92.975 42.515L92.98 42.52Z" fill="#DFF2F5"/>
<path d="M100.005 82.0099C100.65 82.0299 100.99 82.3549 101 83.0049C100.35 82.9899 100.015 82.6599 100.005 82.0099Z" fill="#F0FAF8"/>
<path d="M92.9901 42.5048C93.2401 41.6948 93.0851 40.8998 92.9051 40.1098C93.6301 40.0598 93.9701 40.3998 93.9951 41.1248C94.0201 41.8598 93.9101 42.4698 92.9951 42.5098L92.9901 42.5048Z" fill="#1CABE3"/>
<path d="M105.005 71.0201C104.98 71.6601 104.655 71.9952 104.01 72.0152C103.675 71.9102 103.06 71.9151 103.32 71.3951C103.66 70.7251 104.425 71.1151 105.005 71.0201Z" fill="#F3FAFA"/>
</svg>
