<svg width="200" height="200" viewBox="0 0 200 200" fill="none" xmlns="http://www.w3.org/2000/svg">
<path d="M49.8438 141.044H50.4938L52.4063 145.675H51.7688L51.3375 144.594H49.025L48.5875 145.675H47.9375L49.85 141.044H49.8438ZM50.1625 141.65L49.1875 144.138H51.15L50.1625 141.65Z" fill="#DE4148" stroke="#DE4148" stroke-width="0.25" stroke-miterlimit="10"/>
<path d="M55.675 142.638L55.2125 142.913C55.0187 142.769 54.8188 142.694 54.6 142.694C54.2813 142.694 53.9938 142.838 53.75 143.125V145.669H53.1875V142.35H53.6688L53.7187 142.7H53.7375C54.0688 142.406 54.4063 142.263 54.7563 142.263C55.1688 142.263 55.475 142.388 55.6812 142.638H55.675Z" fill="#DE4148" stroke="#DE4148" stroke-width="0.25" stroke-miterlimit="10"/>
<path d="M59.1188 145.669H58.7001L58.6188 145.313C58.2751 145.613 57.8501 145.756 57.3376 145.756C56.9501 145.756 56.6438 145.663 56.4126 145.475C56.1813 145.288 56.0688 145.038 56.0688 144.725C56.0688 143.963 56.7063 143.581 57.9876 143.581H58.5688V143.538C58.5688 142.956 58.2438 142.669 57.5938 142.669C57.2251 142.669 56.8688 142.775 56.5251 142.988L56.3376 142.719C56.7251 142.413 57.1938 142.256 57.7501 142.256C58.1938 142.256 58.5313 142.375 58.7688 142.613C59.0063 142.85 59.1251 143.194 59.1251 143.644V145.663H59.1188V145.669ZM58.5626 143.944H58.0501C57.1313 143.944 56.6688 144.188 56.6688 144.681C56.6688 144.894 56.7376 145.056 56.8813 145.175C57.0251 145.294 57.2251 145.356 57.4813 145.356C57.7063 145.356 57.9188 145.306 58.1313 145.213C58.3376 145.113 58.4813 144.994 58.5626 144.844V143.944Z" fill="#DE4148" stroke="#DE4148" stroke-width="0.25" stroke-miterlimit="10"/>
<path d="M60.8438 145.669H60.4126V141.213L60.9751 140.95V142.688C61.2376 142.4 61.6063 142.256 62.0751 142.256C62.6501 142.256 63.1001 142.438 63.4188 142.8C63.6938 143.1 63.8313 143.481 63.8313 143.944C63.8313 144.55 63.6313 145.019 63.2313 145.35C62.9126 145.625 62.5188 145.763 62.0438 145.763C61.5688 145.763 61.1688 145.619 60.9063 145.325L60.8313 145.675H60.8438V145.669ZM60.9813 143.244V144.831C61.0563 144.988 61.1876 145.113 61.3751 145.213C61.5626 145.313 61.7688 145.356 61.9938 145.356C62.3563 145.356 62.6563 145.231 62.8876 144.988C63.1188 144.744 63.2376 144.419 63.2376 144.019C63.2376 143.569 63.1063 143.225 62.8501 142.981C62.6313 142.769 62.3501 142.669 62.0063 142.669C61.7876 142.669 61.5813 142.725 61.3876 142.831C61.1938 142.944 61.0563 143.081 60.9813 143.244Z" fill="#DE4148" stroke="#DE4148" stroke-width="0.25" stroke-miterlimit="10"/>
<path d="M67.6438 141.044V145.675H67.0188V141.044H67.6438Z" fill="#DE4148" stroke="#DE4148" stroke-width="0.25" stroke-miterlimit="10"/>
<path d="M72.275 145.669H71.7188V143.725C71.7188 143.031 71.3688 142.688 70.675 142.688C70.475 142.688 70.275 142.731 70.075 142.813C69.8813 142.894 69.725 143 69.6188 143.125V145.669H69.0563V142.35H69.525L69.575 142.7H69.6C69.9313 142.406 70.3438 142.263 70.8438 142.263C71.7938 142.263 72.2688 142.738 72.2688 143.688V145.669H72.275Z" fill="#DE4148" stroke="#DE4148" stroke-width="0.25" stroke-miterlimit="10"/>
<path d="M75.0251 145.669H74.4501L73.0126 142.35H73.6188L74.7438 145.094L75.8626 142.35H76.4688L75.0188 145.669H75.0251Z" fill="#DE4148" stroke="#DE4148" stroke-width="0.25" stroke-miterlimit="10"/>
<path d="M80.2813 144.175H77.5563C77.5813 144.531 77.7188 144.819 77.9813 145.031C78.2438 145.244 78.5813 145.35 78.9938 145.35C79.3438 145.35 79.6813 145.263 80.0126 145.081L80.2063 145.375C79.8375 145.631 79.3875 145.756 78.8688 145.756C78.2625 145.756 77.7813 145.581 77.4188 145.238C77.0875 144.925 76.925 144.519 76.925 144.025C76.925 143.531 77.1 143.075 77.4563 142.731C77.775 142.419 78.1688 142.263 78.6438 142.263C79.2125 142.263 79.6438 142.463 79.9375 142.863C80.1688 143.175 80.2813 143.563 80.2813 144.019V144.181V144.175ZM77.5438 143.781H79.7C79.6813 143.425 79.5813 143.15 79.4 142.95C79.2188 142.75 78.9688 142.65 78.6438 142.65C78.3438 142.65 78.0875 142.756 77.8813 142.963C77.675 143.175 77.5625 143.444 77.5375 143.781H77.5438Z" fill="#DE4148" stroke="#DE4148" stroke-width="0.25" stroke-miterlimit="10"/>
<path d="M83.3439 142.85C83.0626 142.725 82.7564 142.663 82.4251 142.663C82.2001 142.663 82.0251 142.706 81.9001 142.788C81.7751 142.875 81.7126 142.988 81.7126 143.138C81.7126 143.288 81.7689 143.413 81.8876 143.5C82.0001 143.588 82.2251 143.669 82.5501 143.75C83.0126 143.875 83.3313 144.006 83.5126 144.163C83.6938 144.313 83.7814 144.525 83.7814 144.8C83.7814 145.075 83.6563 145.319 83.4063 145.5C83.1563 145.675 82.8376 145.769 82.4439 145.769C81.9251 145.769 81.4813 145.644 81.1001 145.4C81.1188 145.375 81.1439 145.331 81.1814 145.275C81.2189 145.213 81.2564 145.163 81.2814 145.131C81.6064 145.288 81.9563 145.363 82.3313 145.363C82.9188 145.363 83.2126 145.169 83.2126 144.788C83.2126 144.631 83.1501 144.513 83.0251 144.419C82.9001 144.331 82.6626 144.25 82.3251 144.169C81.5314 143.975 81.1313 143.638 81.1313 143.15C81.1313 142.894 81.2501 142.681 81.4813 142.513C81.7126 142.344 82.0126 142.263 82.3751 142.263C82.8064 142.263 83.1939 142.369 83.5376 142.575L83.3501 142.844L83.3439 142.85Z" fill="#DE4148" stroke="#DE4148" stroke-width="0.25" stroke-miterlimit="10"/>
<path d="M85.675 142.75V144.825C85.6688 145.181 85.8313 145.356 86.1625 145.356C86.35 145.356 86.5313 145.312 86.7125 145.231L86.9125 145.5C86.6375 145.669 86.35 145.75 86.0437 145.75C85.7375 145.75 85.5188 145.669 85.3563 145.506C85.1938 145.344 85.1125 145.119 85.1125 144.831V142.737H84.5312V142.337H85.1188V141.612L85.675 141.362V142.337H86.8437V142.737H85.675V142.75Z" fill="#DE4148" stroke="#DE4148" stroke-width="0.25" stroke-miterlimit="10"/>
<path d="M93.6376 145.669H93.0751V143.769C93.0751 143.05 92.7251 142.688 92.0313 142.688C91.6563 142.688 91.3063 142.831 90.9876 143.113C91.0438 143.281 91.0688 143.475 91.0688 143.681V145.669H90.5126V143.738C90.5126 143.038 90.1751 142.688 89.4938 142.688C89.3126 142.688 89.1251 142.731 88.9313 142.813C88.7376 142.9 88.5876 143.006 88.4813 143.131V145.669H87.9188V142.35H88.3876L88.4376 142.694H88.4626C88.8188 142.406 89.2251 142.263 89.6813 142.263C90.2313 142.263 90.6126 142.438 90.8313 142.794C91.2001 142.438 91.6626 142.263 92.2188 142.263C92.6813 142.263 93.0313 142.394 93.2813 142.65C93.5126 142.894 93.6251 143.238 93.6251 143.681V145.669H93.6376Z" fill="#DE4148" stroke="#DE4148" stroke-width="0.25" stroke-miterlimit="10"/>
<path d="M98.0125 144.175H95.2875C95.3125 144.531 95.45 144.819 95.7125 145.031C95.975 145.244 96.3125 145.35 96.725 145.35C97.075 145.35 97.4125 145.263 97.7438 145.081L97.9375 145.375C97.5687 145.631 97.1188 145.756 96.6 145.756C95.9938 145.756 95.5125 145.581 95.15 145.238C94.8188 144.925 94.6562 144.519 94.6562 144.025C94.6562 143.531 94.8313 143.075 95.1875 142.731C95.5063 142.419 95.9 142.263 96.375 142.263C96.9437 142.263 97.375 142.463 97.6688 142.863C97.9 143.175 98.0125 143.563 98.0125 144.019V144.181V144.175ZM95.275 143.781H97.4313C97.4125 143.425 97.3125 143.15 97.1313 142.95C96.95 142.75 96.7 142.65 96.375 142.65C96.075 142.65 95.8187 142.756 95.6125 142.963C95.4062 143.175 95.2937 143.444 95.2687 143.781H95.275Z" fill="#DE4148" stroke="#DE4148" stroke-width="0.25" stroke-miterlimit="10"/>
<path d="M102.288 145.669H101.731V143.725C101.731 143.031 101.381 142.688 100.688 142.688C100.488 142.688 100.288 142.731 100.088 142.813C99.8939 142.894 99.7376 143 99.6314 143.125V145.669H99.0688V142.35H99.5376L99.5876 142.7H99.6126C99.9439 142.406 100.356 142.263 100.856 142.263C101.806 142.263 102.281 142.738 102.281 143.688V145.669H102.288Z" fill="#DE4148" stroke="#DE4148" stroke-width="0.25" stroke-miterlimit="10"/>
<path d="M104.319 142.75V144.825C104.313 145.181 104.475 145.356 104.806 145.356C104.994 145.356 105.175 145.312 105.356 145.231L105.556 145.5C105.281 145.669 104.994 145.75 104.688 145.75C104.381 145.75 104.163 145.669 104 145.506C103.838 145.344 103.756 145.119 103.756 144.831V142.737H103.175V142.337H103.763V141.612L104.319 141.362V142.337H105.488V142.737H104.319V142.75Z" fill="#DE4148" stroke="#DE4148" stroke-width="0.25" stroke-miterlimit="10"/>
<path d="M109.306 141.044V145.675H108.681V141.044H109.306Z" fill="#DE4148" stroke="#DE4148" stroke-width="0.25" stroke-miterlimit="10"/>
<path d="M112.725 142.85C112.444 142.725 112.138 142.663 111.806 142.663C111.581 142.663 111.406 142.706 111.281 142.788C111.156 142.875 111.094 142.988 111.094 143.138C111.094 143.288 111.15 143.413 111.269 143.5C111.381 143.588 111.606 143.669 111.931 143.75C112.394 143.875 112.713 144.006 112.894 144.163C113.075 144.313 113.163 144.525 113.163 144.8C113.163 145.075 113.038 145.319 112.788 145.5C112.538 145.675 112.219 145.769 111.825 145.769C111.306 145.769 110.863 145.644 110.481 145.4C110.5 145.375 110.525 145.331 110.563 145.275C110.6 145.213 110.638 145.163 110.663 145.131C110.988 145.288 111.338 145.363 111.713 145.363C112.3 145.363 112.594 145.169 112.594 144.788C112.594 144.631 112.531 144.513 112.406 144.419C112.281 144.331 112.044 144.25 111.706 144.169C110.913 143.975 110.513 143.638 110.513 143.15C110.513 142.894 110.631 142.681 110.863 142.513C111.094 142.344 111.394 142.263 111.756 142.263C112.188 142.263 112.575 142.369 112.919 142.575L112.731 142.844L112.725 142.85Z" fill="#DE4148" stroke="#DE4148" stroke-width="0.25" stroke-miterlimit="10"/>
<path d="M114.775 140.956V145.675H114.213V141.219L114.775 140.956Z" fill="#DE4148" stroke="#DE4148" stroke-width="0.25" stroke-miterlimit="10"/>
<path d="M118.894 145.669H118.475L118.394 145.313C118.05 145.613 117.625 145.756 117.112 145.756C116.725 145.756 116.419 145.663 116.187 145.475C115.956 145.288 115.844 145.038 115.844 144.725C115.844 143.963 116.481 143.581 117.762 143.581H118.344V143.538C118.344 142.956 118.019 142.669 117.369 142.669C117 142.669 116.644 142.775 116.3 142.988L116.112 142.719C116.5 142.413 116.969 142.256 117.525 142.256C117.969 142.256 118.306 142.375 118.544 142.613C118.781 142.85 118.9 143.194 118.9 143.644V145.663L118.894 145.669ZM118.337 143.944H117.825C116.906 143.944 116.444 144.188 116.444 144.681C116.444 144.894 116.512 145.056 116.656 145.175C116.8 145.294 117 145.356 117.256 145.356C117.481 145.356 117.694 145.306 117.906 145.213C118.112 145.113 118.256 144.994 118.337 144.844V143.944Z" fill="#DE4148" stroke="#DE4148" stroke-width="0.25" stroke-miterlimit="10"/>
<path d="M125.906 145.669H125.344V143.769C125.344 143.05 124.994 142.688 124.3 142.688C123.925 142.688 123.575 142.831 123.256 143.113C123.313 143.281 123.337 143.475 123.337 143.681V145.669H122.781V143.738C122.781 143.038 122.444 142.688 121.763 142.688C121.581 142.688 121.394 142.731 121.2 142.813C121.006 142.9 120.856 143.006 120.75 143.131V145.669H120.188V142.35H120.656L120.706 142.694H120.731C121.087 142.406 121.494 142.263 121.95 142.263C122.5 142.263 122.881 142.438 123.1 142.794C123.469 142.438 123.931 142.263 124.487 142.263C124.95 142.263 125.3 142.394 125.55 142.65C125.781 142.894 125.894 143.238 125.894 143.681V145.669H125.906Z" fill="#DE4148" stroke="#DE4148" stroke-width="0.25" stroke-miterlimit="10"/>
<path d="M127.131 141.269C127.131 141.188 127.169 141.113 127.244 141.05C127.319 140.988 127.406 140.956 127.506 140.956C127.606 140.956 127.694 140.988 127.769 141.05C127.844 141.113 127.881 141.188 127.881 141.269C127.881 141.363 127.844 141.438 127.769 141.5C127.694 141.563 127.606 141.594 127.506 141.594C127.4 141.594 127.313 141.563 127.244 141.5C127.175 141.438 127.138 141.363 127.138 141.269H127.131ZM127.775 142.35V145.669H127.219V142.35H127.775Z" fill="#DE4148" stroke="#DE4148" stroke-width="0.25" stroke-miterlimit="10"/>
<path d="M132.013 142.613L131.825 142.888C131.538 142.731 131.225 142.656 130.894 142.656C130.431 142.656 130.075 142.8 129.819 143.094C129.594 143.35 129.481 143.663 129.481 144.044C129.481 144.45 129.625 144.775 129.913 145.019C130.175 145.244 130.519 145.356 130.95 145.356C131.306 145.356 131.625 145.269 131.9 145.088L132.088 145.381C131.775 145.638 131.35 145.763 130.825 145.763C130.206 145.763 129.719 145.581 129.35 145.219C129.038 144.9 128.881 144.506 128.881 144.025C128.881 143.488 129.088 143.05 129.494 142.706C129.85 142.406 130.275 142.263 130.775 142.263C131.275 142.263 131.681 142.381 132.019 142.613H132.013Z" fill="#DE4148" stroke="#DE4148" stroke-width="0.25" stroke-miterlimit="10"/>
<path d="M135.213 145.663V141.044C135.669 140.988 136.125 140.956 136.581 140.956C137.225 140.956 137.706 141.088 138.013 141.356C138.256 141.569 138.375 141.856 138.375 142.206C138.375 142.45 138.288 142.663 138.119 142.844C137.95 143.025 137.719 143.144 137.444 143.2C137.788 143.256 138.056 143.394 138.25 143.613C138.444 143.838 138.544 144.113 138.544 144.45C138.544 144.894 138.344 145.231 137.944 145.456C137.6 145.656 137.15 145.756 136.581 145.756C136.169 145.756 135.706 145.725 135.213 145.663ZM135.838 141.438V142.994H136.713C137.013 142.994 137.263 142.925 137.45 142.794C137.638 142.663 137.731 142.481 137.731 142.256C137.731 141.675 137.344 141.388 136.569 141.388C136.269 141.388 136.025 141.406 135.838 141.438ZM135.838 143.444V145.275C136.075 145.306 136.35 145.319 136.663 145.319C137.475 145.319 137.881 145.025 137.881 144.444C137.881 144.131 137.781 143.888 137.575 143.713C137.369 143.538 137.081 143.45 136.713 143.45H135.838V143.444Z" fill="#DE4148" stroke="#DE4148" stroke-width="0.25" stroke-miterlimit="10"/>
<path d="M142.425 145.669H142.006L141.925 145.313C141.581 145.613 141.156 145.756 140.644 145.756C140.256 145.756 139.95 145.663 139.719 145.475C139.488 145.288 139.375 145.038 139.375 144.725C139.375 143.963 140.013 143.581 141.294 143.581H141.875V143.538C141.875 142.956 141.55 142.669 140.9 142.669C140.531 142.669 140.175 142.775 139.831 142.988L139.644 142.719C140.031 142.413 140.5 142.256 141.056 142.256C141.5 142.256 141.838 142.375 142.075 142.613C142.313 142.85 142.431 143.194 142.431 143.644V145.663L142.425 145.669ZM141.869 143.944H141.356C140.437 143.944 139.975 144.188 139.975 144.681C139.975 144.894 140.044 145.056 140.188 145.175C140.331 145.294 140.531 145.356 140.787 145.356C141.012 145.356 141.225 145.306 141.438 145.213C141.644 145.113 141.788 144.994 141.869 144.844V143.944Z" fill="#DE4148" stroke="#DE4148" stroke-width="0.25" stroke-miterlimit="10"/>
<path d="M146.938 145.669H146.381V143.725C146.381 143.031 146.031 142.688 145.337 142.688C145.137 142.688 144.938 142.731 144.738 142.813C144.544 142.894 144.388 143 144.281 143.125V145.669H143.719V142.35H144.188L144.238 142.7H144.263C144.594 142.406 145.006 142.263 145.506 142.263C146.456 142.263 146.931 142.738 146.931 143.688V145.669H146.938Z" fill="#DE4148" stroke="#DE4148" stroke-width="0.25" stroke-miterlimit="10"/>
<path d="M150.931 142.35L149.238 143.644L151.131 145.669H150.45L148.769 143.825V145.669H148.206V141.213L148.769 140.95V143.456L150.15 142.344H150.931V142.35Z" fill="#DE4148" stroke="#DE4148" stroke-width="0.25" stroke-miterlimit="10"/>
<path d="M50.725 110.369C50.5125 110.169 50.4062 109.906 50.4062 109.588C50.4062 109.294 50.5125 109.038 50.725 108.831C50.9375 108.631 51.2 108.531 51.5063 108.531C51.8125 108.531 52.0688 108.631 52.2812 108.831C52.4938 109.044 52.6 109.294 52.6 109.588C52.6 109.906 52.4938 110.169 52.2812 110.369C52.0688 110.569 51.8125 110.669 51.5063 110.669C51.2 110.669 50.9375 110.569 50.725 110.369ZM52.1875 109.588C52.1875 109.425 52.125 109.269 51.9938 109.131C51.8563 108.994 51.6938 108.925 51.5063 108.925C51.3188 108.925 51.1625 108.994 51.025 109.131C50.8875 109.269 50.8187 109.425 50.8187 109.588C50.8187 109.781 50.8875 109.944 51.025 110.081C51.1562 110.206 51.3125 110.269 51.5063 110.269C51.9625 110.269 52.1875 110.044 52.1875 109.588Z" fill="#DE4148" stroke="#DE4148" stroke-width="0.25" stroke-miterlimit="10"/>
<path d="M52.575 112.963C52.7375 113.169 52.8125 113.444 52.8125 113.794V118.15C52.8125 119.081 52.6938 119.9 52.4563 120.594L52.3813 120.794C52.3625 120.844 52.35 120.875 52.35 120.888C52.0688 121.556 51.6625 122.1 51.125 122.506C50.8563 122.713 50.5563 122.888 50.225 123.025C50.0625 123.094 49.8813 123.156 49.7 123.213C49.375 123.306 49.0563 123.331 48.75 123.3C48.45 123.263 48.2375 123.206 48.1125 123.131C47.9438 123.025 47.8625 122.888 47.8625 122.731C47.8625 122.619 47.9125 122.525 48.0125 122.444C48.0938 122.369 48.1938 122.344 48.3125 122.356C48.4188 122.369 48.5125 122.419 48.5938 122.513C48.6625 122.594 48.6875 122.7 48.6688 122.825C48.6563 122.944 48.5875 123.038 48.475 123.113C48.8313 123.188 49.1875 123.169 49.55 123.056C50.15 122.85 50.6188 122.55 50.95 122.156C51.5875 121.413 51.9 120.075 51.9 118.138V112.669H51.9313C52.1875 112.669 52.4 112.769 52.5688 112.963H52.575Z" fill="#DE4148" stroke="#DE4148" stroke-width="0.25" stroke-miterlimit="10"/>
<path d="M55.2875 109.5V117.306C55.2875 118.325 55.4438 119.081 55.75 119.575C56.0938 120.131 56.6625 120.413 57.4438 120.413H57.6688V120.606H57.4125C56.3438 120.594 55.5688 120.325 55.0813 119.788C54.6063 119.269 54.3688 118.456 54.3688 117.356V110.6C54.3688 110.256 54.4438 109.988 54.6 109.788C54.7625 109.6 54.9688 109.506 55.2375 109.506H55.2875V109.5Z" fill="#DE4148" stroke="#DE4148" stroke-width="0.25" stroke-miterlimit="10"/>
<path d="M60.3812 120.413V120.606H57.5938V120.413H60.3812Z" fill="#DE4148" stroke="#DE4148" stroke-width="0.25" stroke-miterlimit="10"/>
<path d="M67.6251 110.244C67.7001 110.244 67.7313 110.294 67.7313 110.394C67.7313 110.506 67.6626 110.663 67.5313 110.85L64.8813 111.344L64.4813 111.169L67.6251 110.25V110.244Z" fill="#DE4148" stroke="#DE4148" stroke-width="0.25" stroke-miterlimit="10"/>
<path d="M63.175 119.388C63.0938 119.531 63 119.663 62.8875 119.781C62.4 120.319 61.625 120.594 60.5563 120.6H60.3V120.406H60.525C61.3125 120.406 61.875 120.125 62.2188 119.569C62.525 119.081 62.675 118.35 62.6813 117.363C62.6813 117.25 62.6813 117.138 62.6813 117.019C62.6813 115.744 63.0063 114.713 63.6563 113.919C64.35 113.081 65.3125 112.663 66.5438 112.663C67.775 112.663 68.7563 113.081 69.45 113.919C70.0875 114.688 70.4125 115.688 70.425 116.925V117.294C70.425 118.313 70.5813 119.069 70.8875 119.563C71.2313 120.119 71.8 120.4 72.5813 120.4H72.7313V120.594H72.5563C71.4875 120.581 70.7125 120.313 70.225 119.775C70.1188 119.656 70.0188 119.525 69.9375 119.375C69.775 119.7 69.5625 119.988 69.3125 120.244L69.0875 120.444C68.425 120.994 67.5813 121.263 66.55 121.263C65.5188 121.263 64.6875 120.988 64.025 120.444L63.8188 120.256C63.5688 120.006 63.3563 119.713 63.1813 119.381L63.175 119.388ZM63.5875 117.356V117.513C63.675 119.906 64.6563 121.106 66.5375 121.106C68.5125 121.106 69.5 119.763 69.5 117.081C69.5 115.788 69.2438 114.763 68.725 114.013C68.2063 113.25 67.475 112.869 66.5313 112.869C65.5875 112.869 64.875 113.263 64.35 114.044C63.8313 114.8 63.575 115.838 63.575 117.144V117.363H63.5813L63.5875 117.356Z" fill="#DE4148" stroke="#DE4148" stroke-width="0.25" stroke-miterlimit="10"/>
<path d="M74.3563 108.356C74.1438 108.156 74.0376 107.894 74.0376 107.575C74.0376 107.281 74.1438 107.025 74.3563 106.819C74.5688 106.619 74.8313 106.519 75.1376 106.519C75.4438 106.519 75.7001 106.619 75.9126 106.819C76.1251 107.031 76.2313 107.281 76.2313 107.575C76.2313 107.894 76.1251 108.156 75.9126 108.356C75.7001 108.556 75.4438 108.656 75.1376 108.656C74.8313 108.656 74.5688 108.556 74.3563 108.356ZM75.8188 107.575C75.8188 107.413 75.7563 107.256 75.6251 107.119C75.4876 106.981 75.3251 106.913 75.1376 106.913C74.9501 106.913 74.7938 106.981 74.6563 107.119C74.5188 107.256 74.4501 107.413 74.4501 107.575C74.4501 107.769 74.5188 107.931 74.6563 108.069C74.7876 108.194 74.9438 108.256 75.1376 108.256C75.5938 108.256 75.8188 108.031 75.8188 107.575Z" fill="#DE4148" stroke="#DE4148" stroke-width="0.25" stroke-miterlimit="10"/>
<path d="M75.4938 119.438C75.4188 119.569 75.3313 119.681 75.2375 119.788C74.75 120.325 73.975 120.6 72.9063 120.606H72.65V120.413H72.875C73.6625 120.413 74.225 120.131 74.5688 119.575C74.8813 119.081 75.0313 118.325 75.0313 117.306V113.769C75.0313 113.425 75.1063 113.156 75.2625 112.956C75.425 112.769 75.6313 112.675 75.9 112.675H75.9438V117.306C75.9438 118.325 76.1 119.081 76.4063 119.575C76.75 120.131 77.3188 120.413 78.1 120.413H78.25V120.606H78.075C77.0063 120.594 76.2313 120.325 75.7438 119.788C75.65 119.681 75.5688 119.569 75.4875 119.438H75.4938ZM75.0625 111.15C75.1688 111.263 75.2188 111.388 75.2188 111.531C75.2188 111.694 75.1688 111.825 75.0625 111.931C74.9563 112.038 74.8313 112.088 74.6813 112.088C74.5313 112.088 74.3938 112.038 74.2875 111.931C74.1813 111.825 74.1313 111.694 74.1313 111.531C74.1313 111.388 74.1813 111.256 74.2875 111.15C74.3938 111.038 74.525 110.981 74.6813 110.981C74.8375 110.981 74.9563 111.038 75.0625 111.15ZM75.8438 109.713C75.95 109.825 76 109.956 76 110.106C76 110.269 75.95 110.4 75.8438 110.506C75.7375 110.613 75.6063 110.663 75.45 110.663C75.2938 110.663 75.175 110.613 75.0688 110.506C74.9625 110.4 74.9125 110.269 74.9125 110.106C74.9125 109.956 74.9625 109.825 75.0688 109.713C75.175 109.6 75.3 109.544 75.45 109.544C75.6125 109.544 75.7438 109.6 75.8438 109.713ZM76.6188 111.15C76.725 111.263 76.775 111.388 76.775 111.531C76.775 111.694 76.725 111.825 76.6188 111.931C76.5125 112.038 76.3813 112.088 76.2188 112.088C76.0688 112.088 75.9438 112.038 75.8375 111.931C75.7313 111.825 75.6813 111.694 75.6813 111.531C75.6813 111.388 75.7313 111.256 75.8375 111.15C75.9438 111.038 76.0688 110.981 76.2188 110.981C76.3813 110.981 76.5125 111.038 76.6188 111.15Z" fill="#DE4148" stroke="#DE4148" stroke-width="0.25" stroke-miterlimit="10"/>
<path d="M82.3688 121.106C82.4313 121.106 82.4626 121.15 82.4626 121.231C82.4626 121.35 82.3938 121.5 82.2626 121.688L79.6313 122.2L79.2313 122.025L82.3751 121.113H82.3688V121.106Z" fill="#DE4148" stroke="#DE4148" stroke-width="0.25" stroke-miterlimit="10"/>
<path d="M81.0188 119.438C80.9438 119.569 80.8563 119.681 80.7625 119.788C80.275 120.325 79.5 120.6 78.4313 120.606H78.175V120.413H78.4C79.1875 120.413 79.75 120.131 80.0938 119.575C80.4063 119.081 80.5563 118.325 80.5563 117.306V113.769C80.5563 113.425 80.6313 113.156 80.7875 112.956C80.95 112.769 81.1563 112.675 81.425 112.675H81.4688V117.306C81.4688 118.325 81.625 119.081 81.9313 119.575C82.275 120.131 82.8438 120.413 83.625 120.413H83.775V120.606H83.6C82.5313 120.594 81.7563 120.325 81.2688 119.788C81.175 119.681 81.0938 119.569 81.0125 119.438H81.0188ZM80.5938 111.15C80.7 111.263 80.75 111.388 80.75 111.531C80.75 111.694 80.7 111.825 80.5938 111.931C80.4875 112.038 80.3625 112.088 80.2125 112.088C80.0625 112.088 79.925 112.038 79.8188 111.931C79.7125 111.825 79.6625 111.694 79.6625 111.531C79.6625 111.388 79.7125 111.256 79.8188 111.15C79.925 111.038 80.0563 110.981 80.2125 110.981C80.3688 110.981 80.4875 111.038 80.5938 111.15ZM82.15 111.15C82.2563 111.263 82.3063 111.388 82.3063 111.531C82.3063 111.694 82.2563 111.825 82.15 111.931C82.0438 112.038 81.9125 112.088 81.75 112.088C81.6 112.088 81.475 112.038 81.3688 111.931C81.2625 111.825 81.2125 111.694 81.2125 111.531C81.2125 111.388 81.2625 111.256 81.3688 111.15C81.475 111.038 81.6 110.981 81.75 110.981C81.9125 110.981 82.0438 111.038 82.15 111.15Z" fill="#DE4148" stroke="#DE4148" stroke-width="0.25" stroke-miterlimit="10"/>
<path d="M87.3876 111.144C87.1751 110.944 87.0688 110.681 87.0688 110.363C87.0688 110.069 87.1751 109.813 87.3876 109.606C87.6001 109.406 87.8626 109.306 88.1689 109.306C88.4751 109.306 88.7313 109.406 88.9438 109.606C89.1563 109.819 89.2626 110.069 89.2626 110.363C89.2626 110.681 89.1563 110.944 88.9438 111.144C88.7313 111.344 88.4751 111.444 88.1689 111.444C87.8626 111.444 87.6001 111.344 87.3876 111.144ZM88.8501 110.363C88.8501 110.2 88.7876 110.044 88.6564 109.906C88.5189 109.769 88.3564 109.7 88.1689 109.7C87.9814 109.7 87.8251 109.769 87.6876 109.906C87.5501 110.044 87.4813 110.2 87.4813 110.363C87.4813 110.556 87.5501 110.719 87.6876 110.856C87.8189 110.981 87.9751 111.044 88.1689 111.044C88.6251 111.044 88.8501 110.819 88.8501 110.363Z" fill="#DE4148" stroke="#DE4148" stroke-width="0.25" stroke-miterlimit="10"/>
<path d="M92.1813 112.675C92.4438 112.675 92.6563 112.775 92.8188 112.975C92.975 113.175 93.05 113.444 93.05 113.775V118.019C93.05 118.794 92.875 119.406 92.5188 119.863C92.1375 120.356 91.575 120.606 90.8375 120.606C90.2563 120.606 89.8 120.394 89.475 119.969C89.0938 120.394 88.5688 120.606 87.9063 120.606C87.2438 120.606 86.75 120.35 86.425 119.831C85.9375 120.338 85.175 120.594 84.125 120.606H83.7125V120.413H84.0938C84.8813 120.413 85.4438 120.131 85.7875 119.575C86.1 119.081 86.25 118.325 86.25 117.306V113.444H86.2938C86.5563 113.444 86.7688 113.538 86.9313 113.731C87.0938 113.931 87.1688 114.2 87.1688 114.538V117.356C87.1688 118.394 86.9563 119.175 86.5313 119.7C86.7813 120.2 87.1813 120.45 87.7188 120.45C88.7063 120.45 89.2 119.681 89.2 118.15L89.1875 113.088H89.2313C89.4938 113.088 89.7063 113.188 89.8688 113.388C90.025 113.588 90.1 113.863 90.1 114.2V118.019C90.1 118.794 89.925 119.406 89.5813 119.863C89.8438 120.256 90.2063 120.45 90.675 120.45C91.65 120.45 92.1375 119.681 92.1375 118.15V112.675H92.1813Z" fill="#DE4148" stroke="#DE4148" stroke-width="0.25" stroke-miterlimit="10"/>
<path d="M97.8126 123.663C97.8751 123.663 97.9063 123.706 97.9063 123.788C97.9063 123.906 97.8376 124.056 97.7063 124.244L95.075 124.756L94.675 124.581L97.8188 123.669H97.8126V123.663Z" fill="#DE4148" stroke="#DE4148" stroke-width="0.25" stroke-miterlimit="10"/>
<path d="M98.0501 109.5C98.3314 109.5 98.5501 109.6 98.7188 109.8C98.8813 110.006 98.9563 110.281 98.9563 110.619V117.225C98.9563 118.375 98.7126 119.219 98.2313 119.756C97.7126 120.319 96.8938 120.6 95.7688 120.6H94.6001V120.406H95.7688C95.9876 120.406 96.2063 120.381 96.4188 120.331C95.7501 119.994 95.4188 119.275 95.4188 118.163V113.494C95.4188 113.244 95.4751 113.037 95.5938 112.887C95.7063 112.737 95.8626 112.662 96.0689 112.662H96.1001V118.131C96.1001 119.194 96.3626 119.869 96.8813 120.162C97.6313 119.75 98.0063 118.756 98.0063 117.181V109.5H98.0501ZM94.8501 123.244V123.169H95.2313V122.775C95.2438 121.75 95.6626 121.231 96.5001 121.231C96.8376 121.231 97.1001 121.319 97.2876 121.488C97.4501 121.656 97.5251 121.862 97.5251 122.106C97.5251 122.262 97.5001 122.394 97.4501 122.5C97.3813 122.625 97.2939 122.688 97.1814 122.688C97.1314 122.688 97.0751 122.669 97.0188 122.625C96.9751 122.575 96.9564 122.519 96.9564 122.469C96.9564 122.406 96.9751 122.35 97.0188 122.306C97.0751 122.263 97.1314 122.244 97.1814 122.244C97.2751 122.244 97.3438 122.3 97.4001 122.406C97.4251 122.388 97.4376 122.287 97.4376 122.106C97.4376 121.875 97.3689 121.694 97.2314 121.563C97.0626 121.394 96.8188 121.306 96.5063 121.306C96.1938 121.306 95.9626 121.456 95.8126 121.756C95.6813 122.006 95.6189 122.35 95.6189 122.769V123.163H97.5376V123.237H94.8501V123.244Z" fill="#DE4148" stroke="#DE4148" stroke-width="0.25" stroke-miterlimit="10"/>
<path d="M99.4938 108.356C99.2813 108.156 99.175 107.894 99.175 107.575C99.175 107.281 99.2813 107.025 99.4938 106.819C99.7063 106.619 99.9688 106.519 100.275 106.519C100.581 106.519 100.838 106.619 101.05 106.819C101.263 107.031 101.369 107.281 101.369 107.575C101.369 107.894 101.263 108.156 101.05 108.356C100.838 108.556 100.581 108.656 100.275 108.656C99.9688 108.656 99.7063 108.556 99.4938 108.356ZM100.956 107.575C100.956 107.413 100.894 107.256 100.763 107.119C100.625 106.981 100.463 106.913 100.275 106.913C100.088 106.913 99.9313 106.981 99.7938 107.119C99.6563 107.256 99.5876 107.413 99.5876 107.575C99.5876 107.769 99.6563 107.931 99.7938 108.069C99.9251 108.194 100.081 108.256 100.275 108.256C100.731 108.256 100.956 108.031 100.956 107.575Z" fill="#DE4148" stroke="#DE4148" stroke-width="0.25" stroke-miterlimit="10"/>
<path d="M100.044 120.606V109.506H100.088C100.65 109.506 100.931 109.856 100.931 110.55V120.606H100.044Z" fill="#DE4148" stroke="#DE4148" stroke-width="0.25" stroke-miterlimit="10"/>
<path d="M110.263 109.856C109.988 109.725 109.85 109.462 109.85 109.069C109.85 108.756 109.95 108.5 110.15 108.287C110.35 108.075 110.6 107.969 110.894 107.969C111.188 107.969 111.425 108.063 111.631 108.256C111.825 108.456 111.925 108.731 111.925 109.069C111.925 109.675 111.588 110.037 110.913 110.144L109.075 110.413L108.756 110.25L110.256 109.856H110.263ZM110.869 109.65C111.2 109.544 111.363 109.325 111.363 108.981C111.344 108.506 111.15 108.269 110.788 108.269C110.344 108.312 110.119 108.569 110.119 109.05C110.131 109.456 110.338 109.663 110.756 109.663L110.863 109.65H110.869Z" fill="#DE4148" stroke="#DE4148" stroke-width="0.25" stroke-miterlimit="10"/>
<path d="M110.538 113.575H110.55L110.456 113.469C110.394 113.381 110.306 113.3 110.194 113.231C109.888 112.994 109.513 112.875 109.063 112.875C108.544 112.875 108.088 113.013 107.7 113.294C106.638 114.119 106.106 115.169 106.106 116.444C106.106 117.475 106.4 118.369 106.994 119.125C107.688 120 108.663 120.431 109.919 120.419H116.019C116.806 120.419 117.381 120.138 117.738 119.569C118.05 119.069 118.2 118.313 118.2 117.294V113.444C117.781 113.013 117.225 112.8 116.525 112.8C115.788 112.8 115.206 113.125 114.794 113.781C114.444 114.344 114.269 115.038 114.269 115.863C114.269 116.875 114.456 117.669 114.831 118.25C115.194 118.819 115.688 119.1 116.313 119.1C116.894 119.1 117.356 118.838 117.694 118.319C117.856 118.05 117.963 117.788 118.013 117.531H118.106C118.063 117.813 117.956 118.088 117.788 118.369C117.419 118.938 116.894 119.219 116.2 119.219C115.331 119.219 114.669 118.9 114.213 118.269C113.775 117.681 113.556 116.894 113.556 115.913C113.556 114.931 113.838 114.188 114.406 113.581C114.969 112.981 115.675 112.681 116.519 112.681C117.225 112.681 117.788 112.881 118.206 113.275V112.681H118.25C118.519 112.681 118.731 112.781 118.894 112.981C119.056 113.188 119.131 113.463 119.131 113.813V117.288C119.131 118.306 118.975 119.019 118.669 119.431C118.2 120.206 117.325 120.6 116.05 120.606H109.919C108.688 120.606 107.706 120.194 106.963 119.369C106.25 118.6 105.894 117.631 105.894 116.456C105.894 116.1 105.938 115.756 106.025 115.419C106.15 114.9 106.369 114.438 106.681 114.038C106.969 113.644 107.306 113.325 107.681 113.075C108.05 112.806 108.513 112.675 109.056 112.675C109.306 112.675 109.556 112.719 109.794 112.806C110.231 112.956 110.55 113.194 110.738 113.525C110.825 113.688 110.869 113.831 110.869 113.944C110.869 113.988 110.869 114.025 110.844 114.069C110.813 114.169 110.75 114.244 110.656 114.306C110.581 114.35 110.506 114.375 110.431 114.375C110.413 114.375 110.388 114.375 110.356 114.363C110.163 114.294 110.063 114.163 110.063 113.963C110.063 113.856 110.106 113.763 110.188 113.675C110.269 113.6 110.363 113.556 110.469 113.556L110.531 113.569L110.538 113.575ZM116.906 111.069C117.013 111.181 117.063 111.306 117.063 111.45C117.063 111.613 117.013 111.744 116.906 111.85C116.8 111.956 116.669 112.006 116.513 112.006C116.356 112.006 116.238 111.956 116.131 111.85C116.025 111.744 115.975 111.613 115.975 111.45C115.975 111.306 116.025 111.175 116.131 111.069C116.238 110.956 116.363 110.9 116.513 110.9C116.663 110.9 116.8 110.956 116.906 111.069Z" fill="#DE4148" stroke="#DE4148" stroke-width="0.25" stroke-miterlimit="10"/>
<path d="M123.675 122.731C123.738 122.731 123.769 122.775 123.769 122.856C123.769 122.975 123.7 123.125 123.569 123.313L120.938 123.825L120.538 123.65L123.681 122.738L123.675 122.731Z" fill="#DE4148" stroke="#DE4148" stroke-width="0.25" stroke-miterlimit="10"/>
<path d="M121.95 116.094V112.669H121.981C122.238 112.669 122.45 112.769 122.619 112.963C122.781 113.169 122.856 113.444 122.856 113.794V117.306C122.856 118.325 123.013 119.081 123.319 119.575C123.663 120.131 124.231 120.413 125.013 120.413H125.163V120.606H124.988C123.956 120.594 123.194 120.338 122.706 119.838C122.656 120.106 122.588 120.356 122.506 120.594L122.431 120.794C122.413 120.844 122.4 120.875 122.4 120.888C122.119 121.556 121.713 122.1 121.175 122.506C120.906 122.713 120.606 122.888 120.275 123.025C120.113 123.094 119.931 123.156 119.75 123.213C119.425 123.306 119.106 123.331 118.8 123.3C118.5 123.263 118.288 123.206 118.163 123.131C117.994 123.025 117.913 122.888 117.913 122.731C117.913 122.619 117.963 122.525 118.063 122.444C118.144 122.369 118.244 122.344 118.363 122.356C118.469 122.369 118.563 122.419 118.644 122.513C118.713 122.594 118.738 122.7 118.719 122.825C118.706 122.944 118.638 123.038 118.525 123.113C118.881 123.188 119.238 123.169 119.6 123.056C120.2 122.85 120.669 122.55 121 122.156C121.638 121.413 121.95 120.075 121.95 118.138V117.688C121.95 117.581 121.95 117.469 121.95 117.356V116.094Z" fill="#DE4148" stroke="#DE4148" stroke-width="0.25" stroke-miterlimit="10"/>
<path d="M127.931 110.213C127.719 110.013 127.613 109.75 127.613 109.431C127.613 109.138 127.719 108.881 127.931 108.675C128.144 108.475 128.406 108.375 128.713 108.375C129.019 108.375 129.275 108.475 129.488 108.675C129.7 108.888 129.806 109.138 129.806 109.431C129.806 109.75 129.7 110.013 129.488 110.213C129.275 110.413 129.019 110.513 128.713 110.513C128.406 110.513 128.144 110.413 127.931 110.213ZM129.394 109.431C129.394 109.269 129.331 109.113 129.2 108.975C129.063 108.838 128.9 108.769 128.713 108.769C128.525 108.769 128.369 108.838 128.231 108.975C128.094 109.113 128.025 109.269 128.025 109.431C128.025 109.625 128.094 109.788 128.231 109.925C128.363 110.05 128.519 110.112 128.713 110.112C129.169 110.112 129.394 109.888 129.394 109.431Z" fill="#DE4148" stroke="#DE4148" stroke-width="0.25" stroke-miterlimit="10"/>
<path d="M125.069 120.606V120.413H126.487V113.188C126.487 112.844 126.569 112.575 126.725 112.375C126.887 112.181 127.106 112.088 127.369 112.088H127.4V113.556C127.4 113 127.769 112.706 128.512 112.675H133.306C134.775 112.675 135.919 113.031 136.737 113.75C137.537 114.456 137.937 115.463 137.937 116.763C137.937 117.963 137.594 118.869 136.912 119.481C136.425 119.919 135.762 120.231 134.912 120.413H138.906V120.606H125.062H125.069ZM127.4 120.413H132.825C134.562 120.4 135.831 120.088 136.631 119.481C137.4 118.894 137.788 117.988 137.788 116.763C137.788 115.738 137.356 114.95 136.487 114.4C135.625 113.856 134.412 113.588 132.844 113.588H132.331L127.4 113.6V120.406V120.413Z" fill="#DE4148" stroke="#DE4148" stroke-width="0.25" stroke-miterlimit="10"/>
<path d="M146.156 110.244C146.231 110.244 146.263 110.294 146.263 110.394C146.263 110.506 146.194 110.663 146.063 110.85L143.413 111.344L143.013 111.169L146.156 110.25V110.244Z" fill="#DE4148" stroke="#DE4148" stroke-width="0.25" stroke-miterlimit="10"/>
<path d="M141.219 117.369C141.219 117.256 141.219 117.144 141.219 117.025C141.219 115.75 141.544 114.719 142.194 113.925C142.888 113.088 143.85 112.669 145.081 112.669C146.313 112.669 147.294 113.088 147.988 113.925C148.638 114.713 148.963 115.75 148.963 117.025C148.963 118.431 148.594 119.5 147.85 120.244L147.625 120.444C146.963 120.994 146.119 121.263 145.088 121.263C144.056 121.263 143.225 120.988 142.563 120.444L142.356 120.256C142.106 120.006 141.894 119.713 141.719 119.381C141.638 119.525 141.544 119.656 141.431 119.775C140.944 120.313 140.169 120.588 139.1 120.594H138.844V120.4H139.069C139.856 120.4 140.419 120.119 140.763 119.563C141.069 119.075 141.219 118.344 141.225 117.356V117.369H141.219ZM142.119 117.356V117.513C142.206 119.906 143.188 121.106 145.069 121.106C147.044 121.106 148.031 119.763 148.031 117.081C148.031 115.788 147.775 114.763 147.256 114.013C146.738 113.25 146.006 112.869 145.063 112.869C144.119 112.869 143.406 113.263 142.881 114.044C142.363 114.8 142.106 115.838 142.106 117.144V117.363H142.113L142.119 117.356Z" fill="#DE4148" stroke="#DE4148" stroke-width="0.25" stroke-miterlimit="10"/>
<path d="M63.8001 130.888C63.8001 129.75 63.6126 128.944 63.2438 128.463C62.8876 127.988 62.3126 127.75 61.5188 127.75C60.8813 127.75 60.425 128.019 60.15 128.556C59.9188 129.038 59.8001 129.806 59.8001 130.869V135.5H53.1751C51.9438 135.5 50.9563 135.094 50.2125 134.275C49.5 133.494 49.1438 132.525 49.1438 131.356C49.1438 130.044 49.6563 128.975 50.6751 128.15C50.7938 128.056 50.9126 127.975 51.0376 127.894C51.0876 127.85 51.1438 127.813 51.1938 127.794C51.5376 127.644 51.9063 127.569 52.3188 127.569C52.5688 127.569 52.8188 127.606 53.0563 127.688C53.4938 127.838 53.8126 128.075 54.0063 128.406C54.0876 128.556 54.1313 128.688 54.1313 128.806C54.1313 128.881 54.1188 128.95 54.0876 129.025C54.0001 129.169 53.8938 129.244 53.7625 129.244C53.7188 129.244 53.6813 129.244 53.6376 129.231C53.4313 129.181 53.3251 129.05 53.3251 128.844C53.3251 128.744 53.3688 128.65 53.4563 128.575C53.5313 128.494 53.6313 128.45 53.7438 128.45L53.7875 128.463L53.7751 128.431C53.7751 128.431 53.7313 128.375 53.7126 128.344C53.6501 128.256 53.5625 128.175 53.4563 128.106C53.1438 127.869 52.7688 127.75 52.3188 127.75C51.7938 127.75 51.3375 127.894 50.95 128.181C49.8875 129 49.3563 130.044 49.3563 131.319C49.3563 132.369 49.6501 133.263 50.2438 134C50.9376 134.881 51.9188 135.319 53.1751 135.306H58.8688V130.563C58.8688 129.613 59.1001 128.881 59.5626 128.363C60.0251 127.838 60.6813 127.575 61.5188 127.575C62.2938 127.575 62.8813 127.794 63.2938 128.231C63.7625 128.775 64.0001 129.656 64.0001 130.888V135.306H65.2001V135.5H63.8063V130.888H63.8001ZM56.0813 136.156C56.1876 136.263 56.2376 136.394 56.2376 136.556C56.2376 136.7 56.1876 136.825 56.0813 136.931C55.9751 137.038 55.8501 137.088 55.7001 137.088C55.5501 137.088 55.4125 137.038 55.3063 136.931C55.2 136.825 55.15 136.7 55.15 136.556C55.15 136.394 55.2 136.263 55.3063 136.156C55.4125 136.05 55.5438 136 55.7001 136C55.8563 136 55.9751 136.05 56.0813 136.156ZM57.6376 136.15C57.7438 136.263 57.7938 136.394 57.7938 136.544C57.7938 136.694 57.7438 136.831 57.6376 136.938C57.5313 137.044 57.4001 137.094 57.2376 137.094C57.0876 137.094 56.9626 137.044 56.8563 136.938C56.7501 136.831 56.7001 136.7 56.7001 136.544C56.7001 136.388 56.7501 136.263 56.8563 136.15C56.9626 136.038 57.0876 135.981 57.2376 135.981C57.4001 135.981 57.5313 136.038 57.6376 136.15Z" fill="#E6DAC8" stroke="#E6DAC8" stroke-width="0.25" stroke-miterlimit="10"/>
<path d="M67.9 135.306V135.5H65.1125V135.306H67.9Z" fill="#E6DAC8" stroke="#E6DAC8" stroke-width="0.25" stroke-miterlimit="10"/>
<path d="M75.5001 137.281C75.5626 137.281 75.5938 137.325 75.5938 137.406C75.5938 137.525 75.525 137.675 75.3938 137.863L72.7625 138.375L72.3625 138.2L75.5063 137.288H75.5001V137.281Z" fill="#E6DAC8" stroke="#E6DAC8" stroke-width="0.25" stroke-miterlimit="10"/>
<path d="M70.2063 132.262C70.2063 132.15 70.2001 132.038 70.2001 131.919C70.2001 130.644 70.5251 129.612 71.1751 128.819C71.8688 127.981 72.8313 127.562 74.0626 127.562C75.2938 127.562 76.2751 127.981 76.9688 128.819C77.6188 129.606 77.9438 130.644 77.9438 131.919C77.9438 133.325 77.5751 134.394 76.8313 135.137L76.6063 135.337C75.9438 135.887 75.1001 136.156 74.0688 136.156C73.0376 136.156 72.2063 135.881 71.5438 135.337L71.3376 135.15C71.0876 134.9 70.8751 134.606 70.7001 134.275C70.6188 134.419 70.5251 134.55 70.4126 134.669C69.9251 135.206 69.1501 135.481 68.0813 135.487H67.8251V135.294H68.0501C68.8376 135.294 69.4001 135.012 69.7438 134.456C70.0501 133.969 70.2001 133.238 70.2063 132.25V132.262ZM71.1063 132.25H71.1126V132.406C71.2001 134.8 72.1813 136 74.0626 136C76.0376 136 77.0251 134.656 77.0251 131.975C77.0251 130.681 76.7688 129.656 76.2501 128.906C75.7313 128.144 75.0001 127.762 74.0563 127.762C73.1126 127.762 72.4001 128.156 71.8751 128.937C71.3563 129.694 71.1001 130.731 71.1001 132.037V132.256L71.1063 132.25Z" fill="#E6DAC8" stroke="#E6DAC8" stroke-width="0.25" stroke-miterlimit="10"/>
<path d="M81.9001 125.494C81.9751 125.494 82.0064 125.544 82.0064 125.644C82.0064 125.756 81.9376 125.913 81.8063 126.1L79.1563 126.594L78.7563 126.419L81.9001 125.5V125.494Z" fill="#E6DAC8" stroke="#E6DAC8" stroke-width="0.25" stroke-miterlimit="10"/>
<path d="M83.3813 134.312C83.3063 134.444 83.2188 134.556 83.125 134.663C82.6063 135.225 81.7875 135.506 80.6625 135.506H79.4938V135.312H80.6625C80.8813 135.312 81.1 135.288 81.3125 135.238C80.6438 134.9 80.3125 134.181 80.3125 133.069V128.4C80.3125 128.15 80.3688 127.944 80.4875 127.794C80.6 127.644 80.7563 127.569 80.9625 127.569H80.9938V133.037C80.9938 134.1 81.2563 134.775 81.775 135.069C82.525 134.656 82.9 133.662 82.9 132.087V124.406H82.9438C83.225 124.406 83.4438 124.506 83.6125 124.706C83.775 124.912 83.85 125.187 83.85 125.525V132.206C83.85 133.225 84.0063 133.981 84.3125 134.475C84.6563 135.031 85.225 135.312 86.0063 135.312H86.1563V135.506H85.9813C84.9125 135.494 84.1375 135.225 83.65 134.687C83.5438 134.581 83.4563 134.456 83.3813 134.319V134.312Z" fill="#E6DAC8" stroke="#E6DAC8" stroke-width="0.25" stroke-miterlimit="10"/>
<path d="M89.7562 126.044C89.5437 125.844 89.4375 125.581 89.4375 125.263C89.4375 124.969 89.5437 124.713 89.7562 124.506C89.9687 124.306 90.2312 124.206 90.5375 124.206C90.8437 124.206 91.1 124.306 91.3125 124.506C91.525 124.719 91.6312 124.969 91.6312 125.263C91.6312 125.581 91.525 125.844 91.3125 126.044C91.1 126.244 90.8437 126.344 90.5375 126.344C90.2312 126.344 89.9687 126.244 89.7562 126.044ZM91.225 125.256C91.225 125.094 91.1625 124.938 91.0312 124.8C90.8937 124.663 90.7312 124.594 90.5437 124.594C90.3562 124.594 90.2 124.663 90.0625 124.8C89.925 124.938 89.8562 125.094 89.8562 125.256C89.8562 125.45 89.925 125.613 90.0625 125.75C90.1938 125.875 90.35 125.938 90.5437 125.938C91 125.938 91.225 125.713 91.225 125.256Z" fill="#E6DAC8" stroke="#E6DAC8" stroke-width="0.25" stroke-miterlimit="10"/>
<path d="M94.5501 127.575C94.8126 127.575 95.0251 127.675 95.1876 127.875C95.3438 128.075 95.4188 128.344 95.4188 128.675V132.919C95.4188 133.694 95.2438 134.306 94.8876 134.763C94.5063 135.256 93.9438 135.506 93.2063 135.506C92.6251 135.506 92.1688 135.294 91.8438 134.869C91.4625 135.294 90.9376 135.506 90.2751 135.506C89.6126 135.506 89.1188 135.25 88.7938 134.731C88.3063 135.238 87.5438 135.494 86.4938 135.506H86.0813V135.313H86.4625C87.25 135.313 87.8126 135.031 88.1563 134.475C88.4688 133.981 88.6188 133.225 88.6188 132.206V128.344H88.6626C88.9251 128.344 89.1376 128.438 89.3001 128.631C89.4626 128.831 89.5375 129.1 89.5375 129.438V132.256C89.5375 133.294 89.3251 134.075 88.9001 134.6C89.1501 135.1 89.5501 135.35 90.0876 135.35C91.0751 135.35 91.5688 134.581 91.5688 133.05L91.5563 127.988H91.6C91.8625 127.988 92.0751 128.088 92.2376 128.288C92.3938 128.488 92.4688 128.763 92.4688 129.1V132.919C92.4688 133.694 92.2938 134.306 91.95 134.763C92.2125 135.156 92.575 135.35 93.0438 135.35C94.0188 135.35 94.5063 134.581 94.5063 133.05V127.575H94.5501Z" fill="#E6DAC8" stroke="#E6DAC8" stroke-width="0.25" stroke-miterlimit="10"/>
<path d="M100.188 138.562C100.25 138.562 100.281 138.606 100.281 138.687C100.281 138.806 100.213 138.956 100.081 139.144L97.45 139.656L97.05 139.481L100.194 138.569H100.188V138.562Z" fill="#E6DAC8" stroke="#E6DAC8" stroke-width="0.25" stroke-miterlimit="10"/>
<path d="M100.419 124.4C100.7 124.4 100.919 124.5 101.088 124.7C101.25 124.906 101.325 125.181 101.325 125.519V132.125C101.325 133.275 101.081 134.119 100.6 134.656C100.081 135.219 99.2625 135.5 98.1375 135.5H96.9688V135.306H98.1375C98.3563 135.306 98.575 135.281 98.7875 135.231C98.1188 134.894 97.7875 134.175 97.7875 133.063V128.394C97.7875 128.144 97.8438 127.938 97.9625 127.788C98.075 127.638 98.2313 127.563 98.4375 127.563H98.4688V133.031C98.4688 134.094 98.7313 134.769 99.25 135.063C100 134.65 100.375 133.656 100.375 132.081V124.4H100.419ZM97.225 138.144V138.069H97.6063V137.675C97.6188 136.65 98.0375 136.131 98.875 136.131C99.2125 136.131 99.475 136.219 99.6625 136.388C99.825 136.556 99.9 136.763 99.9 137.006C99.9 137.163 99.875 137.294 99.825 137.4C99.7563 137.525 99.6687 137.588 99.5562 137.588C99.5062 137.588 99.45 137.569 99.3938 137.525C99.35 137.475 99.3312 137.419 99.3312 137.369C99.3312 137.306 99.35 137.25 99.3938 137.206C99.45 137.163 99.5062 137.144 99.5562 137.144C99.65 137.144 99.7188 137.2 99.775 137.306C99.8 137.288 99.8125 137.188 99.8125 137.006C99.8125 136.775 99.7438 136.594 99.6063 136.463C99.4375 136.294 99.1938 136.206 98.8813 136.206C98.5688 136.206 98.3375 136.356 98.1875 136.656C98.0563 136.906 97.9937 137.25 97.9937 137.669V138.063H99.9125V138.138H97.225V138.144Z" fill="#E6DAC8" stroke="#E6DAC8" stroke-width="0.25" stroke-miterlimit="10"/>
<path d="M101.869 123.256C101.656 123.056 101.55 122.794 101.55 122.475C101.55 122.181 101.656 121.925 101.869 121.719C102.081 121.519 102.344 121.419 102.65 121.419C102.956 121.419 103.213 121.519 103.425 121.719C103.638 121.931 103.744 122.181 103.744 122.475C103.744 122.794 103.638 123.056 103.425 123.256C103.213 123.456 102.956 123.556 102.65 123.556C102.344 123.556 102.081 123.456 101.869 123.256ZM103.331 122.469C103.331 122.306 103.269 122.15 103.138 122.013C103 121.875 102.838 121.806 102.65 121.806C102.463 121.806 102.306 121.875 102.169 122.013C102.031 122.15 101.963 122.306 101.963 122.469C101.963 122.663 102.031 122.825 102.169 122.963C102.3 123.088 102.456 123.15 102.65 123.15C103.106 123.15 103.331 122.925 103.331 122.469Z" fill="#E6DAC8" stroke="#E6DAC8" stroke-width="0.25" stroke-miterlimit="10"/>
<path d="M102.419 135.5V124.4H102.463C103.025 124.4 103.306 124.75 103.306 125.444V135.5H102.419Z" fill="#E6DAC8" stroke="#E6DAC8" stroke-width="0.25" stroke-miterlimit="10"/>
<path d="M122.937 130.888C122.937 129.75 122.75 128.944 122.381 128.463C122.025 127.988 121.45 127.75 120.656 127.75C120.019 127.75 119.562 128.019 119.288 128.556C119.056 129.038 118.938 129.806 118.938 130.869V135.5H112.312C111.081 135.5 110.094 135.094 109.35 134.275C108.638 133.494 108.281 132.525 108.281 131.356C108.281 130.044 108.794 128.975 109.812 128.15C109.931 128.056 110.05 127.975 110.175 127.894C110.225 127.85 110.281 127.813 110.331 127.794C110.675 127.644 111.044 127.569 111.456 127.569C111.706 127.569 111.956 127.606 112.194 127.688C112.631 127.838 112.95 128.075 113.144 128.406C113.225 128.556 113.269 128.688 113.269 128.806C113.269 128.881 113.256 128.95 113.225 129.025C113.138 129.169 113.031 129.244 112.9 129.244C112.856 129.244 112.819 129.244 112.775 129.231C112.569 129.181 112.463 129.05 112.463 128.844C112.463 128.744 112.506 128.65 112.594 128.575C112.669 128.494 112.769 128.45 112.881 128.45L112.925 128.463L112.913 128.431C112.913 128.431 112.869 128.375 112.85 128.344C112.787 128.256 112.7 128.175 112.594 128.106C112.281 127.869 111.906 127.75 111.456 127.75C110.931 127.75 110.475 127.894 110.087 128.181C109.025 129 108.494 130.044 108.494 131.319C108.494 132.369 108.787 133.263 109.381 134C110.075 134.881 111.056 135.319 112.312 135.306H118.006V130.563C118.006 129.613 118.237 128.881 118.7 128.363C119.162 127.838 119.819 127.575 120.656 127.575C121.431 127.575 122.019 127.794 122.431 128.231C122.9 128.775 123.138 129.656 123.138 130.888V135.306H124.338V135.5H122.944V130.888H122.937ZM115.219 136.156C115.325 136.263 115.375 136.394 115.375 136.556C115.375 136.7 115.325 136.825 115.219 136.931C115.113 137.038 114.988 137.088 114.838 137.088C114.688 137.088 114.55 137.038 114.444 136.931C114.338 136.825 114.288 136.7 114.288 136.556C114.288 136.394 114.338 136.263 114.444 136.156C114.55 136.05 114.681 136 114.838 136C114.994 136 115.113 136.05 115.219 136.156ZM116.775 136.15C116.881 136.263 116.931 136.394 116.931 136.544C116.931 136.694 116.881 136.831 116.775 136.938C116.669 137.044 116.537 137.094 116.375 137.094C116.225 137.094 116.1 137.044 115.994 136.938C115.887 136.831 115.837 136.7 115.837 136.544C115.837 136.388 115.887 136.263 115.994 136.15C116.1 136.038 116.225 135.981 116.375 135.981C116.537 135.981 116.669 136.038 116.775 136.15Z" fill="#E6DAC8" stroke="#E6DAC8" stroke-width="0.25" stroke-miterlimit="10"/>
<path d="M127.281 138.675C127.344 138.675 127.375 138.719 127.375 138.8C127.375 138.919 127.306 139.069 127.175 139.256L124.544 139.769L124.144 139.594L127.288 138.681L127.281 138.675Z" fill="#E6DAC8" stroke="#E6DAC8" stroke-width="0.25" stroke-miterlimit="10"/>
<path d="M127.037 135.306V135.5H124.25V135.306H127.037Z" fill="#E6DAC8" stroke="#E6DAC8" stroke-width="0.25" stroke-miterlimit="10"/>
<path d="M129.394 127.575C129.656 127.575 129.869 127.669 130.031 127.856C130.188 128.056 130.263 128.331 130.263 128.669V132.256C130.263 133.356 130.025 134.169 129.55 134.688C129.063 135.225 128.288 135.5 127.219 135.506H126.963V135.313H127.188C127.975 135.313 128.538 135.031 128.881 134.475C129.194 133.981 129.344 133.225 129.344 132.206V127.575H129.394ZM128.756 136.15C128.863 136.263 128.913 136.394 128.913 136.544C128.913 136.694 128.863 136.831 128.756 136.938C128.65 137.044 128.519 137.094 128.356 137.094C128.213 137.094 128.088 137.044 127.981 136.938C127.875 136.831 127.825 136.7 127.825 136.544C127.825 136.388 127.875 136.263 127.981 136.15C128.088 136.038 128.213 135.981 128.356 135.981C128.519 135.981 128.65 136.038 128.756 136.15Z" fill="#E6DAC8" stroke="#E6DAC8" stroke-width="0.25" stroke-miterlimit="10"/>
<path d="M134.1 125.025C134.175 125.025 134.206 125.075 134.206 125.175C134.206 125.288 134.138 125.444 134.006 125.631L131.356 126.125L130.956 125.95L134.1 125.031V125.025Z" fill="#E6DAC8" stroke="#E6DAC8" stroke-width="0.25" stroke-miterlimit="10"/>
<path d="M133.069 130.987V127.562H133.1C133.356 127.562 133.569 127.663 133.737 127.856C133.9 128.063 133.975 128.337 133.975 128.687V132.2C133.975 133.219 134.131 133.975 134.438 134.469C134.781 135.025 135.35 135.306 136.131 135.306H136.281V135.5H136.106C135.075 135.487 134.312 135.231 133.825 134.731C133.775 135 133.706 135.25 133.625 135.487L133.55 135.688C133.531 135.738 133.519 135.769 133.519 135.781C133.238 136.45 132.831 136.994 132.294 137.4C132.025 137.606 131.725 137.781 131.394 137.919C131.231 137.987 131.05 138.05 130.869 138.106C130.544 138.2 130.225 138.225 129.919 138.194C129.619 138.156 129.406 138.1 129.281 138.025C129.113 137.919 129.031 137.781 129.031 137.625C129.031 137.512 129.081 137.419 129.181 137.337C129.263 137.262 129.363 137.238 129.481 137.25C129.588 137.262 129.681 137.312 129.762 137.406C129.831 137.488 129.856 137.594 129.838 137.719C129.825 137.837 129.756 137.931 129.644 138.006C130 138.081 130.356 138.062 130.719 137.95C131.319 137.744 131.788 137.444 132.119 137.05C132.756 136.306 133.069 134.969 133.069 133.031V132.581C133.069 132.475 133.069 132.363 133.069 132.25V130.987Z" fill="#E6DAC8" stroke="#E6DAC8" stroke-width="0.25" stroke-miterlimit="10"/>
<path d="M141.963 124.794C142.038 124.794 142.069 124.844 142.069 124.944C142.069 125.056 142 125.213 141.869 125.4L139.219 125.894L138.819 125.719L141.963 124.8V124.794Z" fill="#E6DAC8" stroke="#E6DAC8" stroke-width="0.25" stroke-miterlimit="10"/>
<path d="M139.819 135.306C139.119 134.956 138.513 134.463 138.013 133.825C137.356 132.994 137.031 132.075 137.031 131.069V130.738C137.031 128.75 138 127.706 139.944 127.613C140.294 127.594 140.638 127.581 140.981 127.581C141.325 127.581 141.681 127.594 142.031 127.613C143.975 127.713 144.95 128.756 144.95 130.738V131.069C144.95 132.056 144.631 132.956 143.988 133.781C143.5 134.419 142.894 134.925 142.181 135.3H145.713V135.5H136.181V135.306H139.819ZM141.763 135.306C142.438 135 143.063 134.538 143.631 133.906C144.375 133.056 144.744 132.113 144.744 131.075C144.744 130.169 144.425 129.525 143.781 129.131C143.231 128.781 142.375 128.606 141.213 128.606H140.738C139.594 128.606 138.738 128.781 138.169 129.131C137.544 129.525 137.231 130.169 137.231 131.075C137.231 132.125 137.619 133.081 138.388 133.938C138.956 134.575 139.581 135.031 140.263 135.306H141.763Z" fill="#E6DAC8" stroke="#E6DAC8" stroke-width="0.25" stroke-miterlimit="10"/>
<path d="M147 123.138C146.788 122.938 146.681 122.675 146.681 122.356C146.681 122.063 146.788 121.806 147 121.6C147.213 121.4 147.475 121.3 147.781 121.3C148.088 121.3 148.344 121.4 148.556 121.6C148.769 121.813 148.875 122.063 148.875 122.356C148.875 122.675 148.769 122.938 148.556 123.138C148.344 123.338 148.088 123.438 147.781 123.438C147.475 123.438 147.213 123.338 147 123.138ZM148.463 122.356C148.463 122.194 148.4 122.038 148.269 121.9C148.131 121.763 147.969 121.694 147.781 121.694C147.594 121.694 147.438 121.763 147.3 121.9C147.163 122.038 147.094 122.194 147.094 122.356C147.094 122.55 147.163 122.713 147.3 122.85C147.431 122.975 147.588 123.038 147.781 123.038C148.238 123.038 148.463 122.813 148.463 122.356Z" fill="#E6DAC8" stroke="#E6DAC8" stroke-width="0.25" stroke-miterlimit="10"/>
<path d="M148.075 124.4C148.338 124.4 148.55 124.494 148.713 124.681C148.869 124.881 148.944 125.156 148.944 125.494V132.25C148.944 133.35 148.706 134.163 148.231 134.681C147.744 135.219 146.969 135.494 145.9 135.5H145.644V135.306H145.869C146.656 135.306 147.219 135.025 147.563 134.469C147.875 133.975 148.025 133.219 148.025 132.2V124.394H148.075V124.4Z" fill="#E6DAC8" stroke="#E6DAC8" stroke-width="0.25" stroke-miterlimit="10"/>
<path d="M150.031 135.5V124.4H150.075C150.637 124.4 150.919 124.75 150.919 125.444V135.5H150.031Z" fill="#E6DAC8" stroke="#E6DAC8" stroke-width="0.25" stroke-miterlimit="10"/>
<path d="M121.181 67.1625C121.081 67.0625 120.981 66.9562 120.881 66.8437C120.238 65.9312 119.581 65.0125 118.931 64.1C118.763 63.8125 118.594 63.5437 118.438 63.2562C118.306 63 118.113 62.9312 117.831 62.9312C116.65 62.95 115.481 62.9437 114.3 62.9437H113.713C113.681 62.5562 113.663 62.2125 113.631 61.875C113.631 60.8125 113.613 59.7625 113.619 58.7C113.619 58.45 113.469 58.35 113.3 58.2437C112.231 57.5375 111.156 56.825 110.088 56.1125C109.95 56.025 109.819 55.9125 109.694 55.8125C110.369 55.9188 111.031 56.0187 111.694 56.1312C112.744 56.3125 113.806 56.5062 114.856 56.6875C115.9 56.875 116.938 57.0562 117.981 57.2312C118.288 57.2812 118.594 57.3375 118.9 57.3875C119.325 57.45 119.394 57.5062 119.475 57.925C119.656 58.8375 119.813 59.75 119.988 60.65C120.306 62.3062 120.631 63.95 120.938 65.6062C121.038 66.1187 121.094 66.65 121.163 67.1625H121.181Z" fill="#E6DAC8"/>
<path d="M93.0001 55.7875C92.9001 55.875 92.7938 55.975 92.6938 56.0625C92.0001 56.5313 91.2939 56.9938 90.6001 57.45C90.1939 57.7063 89.8063 57.975 89.3938 58.2063C89.1438 58.3438 89.0438 58.525 89.0438 58.7938V60.4688C89.0251 61.0938 89.0126 61.725 89.0064 62.35C89.0001 62.7438 88.8064 62.9375 88.4314 62.9375C87.2439 62.9375 86.0501 62.95 84.8626 62.925C84.5376 62.925 84.3188 63.0063 84.2188 63.3313C83.4938 64.3625 82.7813 65.3813 82.0563 66.4125C81.8563 66.6875 81.6501 66.9688 81.4438 67.2438C81.5501 66.6063 81.6439 65.975 81.7626 65.3438C82.0501 63.825 82.3563 62.3 82.6438 60.7813C82.8251 59.8375 82.9814 58.9 83.1689 57.9563C83.2564 57.45 83.2751 57.4625 83.7939 57.3688C84.8251 57.2125 85.8439 57.0188 86.8689 56.8438C88.1564 56.625 89.4376 56.4063 90.7126 56.1813C91.3751 56.0625 92.0438 55.925 92.7064 55.8063C92.8064 55.7875 92.9063 55.7938 93.0063 55.7875H93.0001Z" fill="#E6DAC8"/>
<path d="M121.2 83.375C121.119 83.8813 121.063 84.3938 120.975 84.8938C120.619 86.7563 120.263 88.6188 119.906 90.4813C119.756 91.225 119.631 91.9688 119.487 92.7125C119.456 92.8438 119.4 92.9625 119.35 93.1063C118.15 93.3125 116.944 93.525 115.744 93.7313C114.106 94.0188 112.475 94.3188 110.838 94.6125C110.619 94.6438 110.413 94.6937 110.206 94.7125C110.119 94.7125 110.025 94.65 109.938 94.625C110.069 94.525 110.188 94.4063 110.325 94.3188C110.931 93.9 111.544 93.4875 112.156 93.0688C112.513 92.8438 112.869 92.5938 113.237 92.3875C113.537 92.2188 113.644 92.0125 113.631 91.675C113.619 90.85 113.644 90.0188 113.663 89.2C113.675 88.6938 113.713 88.1875 113.731 87.6812C113.888 87.6625 114.006 87.65 114.125 87.6438C115.394 87.6438 116.675 87.6563 117.944 87.6625C118.194 87.6625 118.3 87.5313 118.413 87.3625C119.106 86.35 119.8 85.3375 120.506 84.3375C120.731 84.0125 120.975 83.6937 121.213 83.375H121.2Z" fill="#E6DAC8"/>
<path d="M92.9126 94.725C92.3563 94.6438 91.8001 94.5875 91.2501 94.5C90.1501 94.3125 89.0376 94.125 87.9376 93.925C86.9251 93.7563 85.9251 93.5688 84.9251 93.3813C84.4814 93.3 84.0439 93.2125 83.6064 93.1563C83.3689 93.125 83.2688 93.025 83.2313 92.7875C83.0813 91.9563 82.9063 91.1313 82.7438 90.3125C82.4876 88.9813 82.2376 87.6563 81.9813 86.325C81.8001 85.425 81.6251 84.5125 81.4563 83.6063C81.4438 83.525 81.4564 83.4375 81.4689 83.3563C81.5314 83.425 81.6001 83.4938 81.6563 83.575C81.9813 84.0438 82.3189 84.5063 82.6501 84.975C83.2126 85.8 83.7813 86.6313 84.3376 87.4625C84.4438 87.6188 84.5751 87.6625 84.7563 87.6625C85.2126 87.65 85.6751 87.6438 86.1313 87.6438C87.0751 87.6563 88.0126 87.6625 88.9876 87.675C89.0001 87.8813 89.0063 88.0438 89.0188 88.2C89.0313 89.2313 89.0376 90.2625 89.0501 91.2938C89.0563 91.9125 89.3501 92.3688 89.9251 92.6625C90.7689 93.225 91.6188 93.8 92.4626 94.375C92.6188 94.4813 92.7688 94.6125 92.9313 94.7313H92.9126V94.725Z" fill="#E6DAC8"/>
<path d="M96.7001 87.3625C96.6188 87.3125 96.5501 87.2313 96.4813 87.1625C96.6626 87.1813 96.8376 87.1938 97.0188 87.225C98.1001 87.4313 99.1813 87.7188 100.269 87.8313C101.3 87.9375 102.35 87.9313 103.369 87.7125C104.3 87.5063 105.231 87.2875 106.163 87.075C106.225 87.0625 106.294 87.075 106.363 87.075C105.988 87.3313 105.606 87.6125 105.231 87.8688C104.381 88.4625 103.863 89.4375 103 90.0188C102.575 90.2938 102.006 90.725 101.569 91.0063C101.469 90.9563 99.7251 90.2188 99.6376 90.1625" fill="#E6DAC8"/>
<path d="M86.0751 75.375C86.0938 75.2875 86.0938 75.175 86.1563 75.1063C87.2438 73.5313 88.3376 71.9563 89.4376 70.3813C89.4563 70.35 89.4876 70.3438 89.5188 70.3188C89.5063 70.4 89.5188 70.4875 89.4876 70.5688C89.0938 71.7375 88.8813 72.9563 88.7563 74.1875C88.6688 74.9813 88.7188 75.8063 88.8188 76.5938C88.9563 77.6375 89.2063 78.6625 89.4063 79.6938C89.4376 79.825 89.4188 79.9625 89.4251 80.0875C89.3063 79.95 89.1876 79.8188 89.0876 79.6688" fill="#E6DAC8"/>
<path d="M116.619 75.2063C116.569 75.325 116.531 75.4563 116.463 75.5625C115.463 77 114.469 78.425 113.469 79.8625C113.406 79.95 113.319 80.0313 113.244 80.1188C113.325 79.75 113.4 79.375 113.469 79.0063C113.625 78.0938 113.788 77.1938 113.925 76.2813C114.175 74.5438 113.744 72.8813 113.369 71.2063L113.219 70.4313C113.388 70.65 113.575 70.85 113.731 71.075C114.188 71.7 114.631 72.3313 115.081 72.9688C115.594 73.7125 116.113 74.4563 116.619 75.2V75.2063Z" fill="#E6DAC8"/>
<path d="M106.244 63.4625C105.988 63.4125 105.731 63.375 105.469 63.3125C104.4 63.0438 103.319 62.8563 102.225 62.7375C100.819 62.5688 99.4688 62.8375 98.1188 63.0938C97.5313 63.2 96.9563 63.3313 96.3813 63.4625C96.7751 63.1625 97.1751 62.8688 97.5813 62.5688C98.2438 62.125 98.9188 61.675 99.5813 61.2313C100.144 60.8625 100.7 60.4875 101.256 60.1188C101.394 60.1813 101.531 60.225 101.65 60.3063C103.088 61.2563 104.525 62.2313 105.963 63.1938C106.063 63.2625 106.144 63.375 106.231 63.4625H106.244Z" fill="#E6DAC8"/>
<path d="M108.55 95.4562C108.45 95.5375 108.35 95.625 108.244 95.6937C106.075 97.1312 103.9 98.5687 101.744 100.012C101.425 100.231 101.219 100.212 100.913 100C98.4126 98.325 95.9001 96.6625 93.3813 94.9937C93.2313 94.8937 93.0751 94.8062 92.9126 94.7187C92.7563 94.6 92.6063 94.4687 92.4438 94.3625C91.6001 93.7875 90.7501 93.2125 89.9064 92.65C89.3314 92.3562 89.0376 91.9 89.0313 91.2812C89.0188 90.25 89.0126 89.2187 89.0001 88.1875C88.9876 88.0312 88.9814 87.8687 88.9689 87.6625C88.0001 87.65 87.0563 87.6437 86.1126 87.6312C85.6563 87.6312 85.1938 87.6437 84.7376 87.65C84.5563 87.65 84.4313 87.6125 84.3188 87.45C83.7626 86.6187 83.2001 85.7875 82.6314 84.9625C82.3064 84.4937 81.9688 84.0312 81.6376 83.5625C81.5751 83.4812 81.5064 83.4125 81.4501 83.3437C81.3001 83.0937 81.1501 82.8562 81.0063 82.6125C81.3313 82.1 81.6501 81.5812 82.0001 81.075C82.7313 80.0062 83.4876 78.9437 84.2313 77.875C84.7688 77.1 85.3001 76.3312 85.8501 75.5625C85.9001 75.4812 86.0001 75.4312 86.0689 75.3625C86.4564 75.925 86.8439 76.4937 87.2314 77.0562C87.8439 77.9312 88.4626 78.8 89.0751 79.6625C89.1751 79.8125 89.2938 79.9375 89.4126 80.0812C89.4313 80.1187 89.4626 80.1625 89.4938 80.2125C89.6438 80.4625 89.7938 80.7062 89.9376 80.9687C90.4063 81.625 90.8813 82.275 91.3438 82.9437C91.4813 83.1437 91.6439 83.3375 91.7626 83.5562C92.2376 84.4062 92.9689 84.9937 93.7939 85.4687C93.9501 85.55 94.1188 85.625 94.2688 85.7187C94.9626 86.175 95.6563 86.6312 96.3501 87.075C96.3876 87.1062 96.4376 87.1375 96.4813 87.1562C96.5501 87.225 96.6188 87.3062 96.7001 87.3562C98.1563 88.3375 99.6126 89.3187 101.069 90.3C101.156 90.3625 101.269 90.4062 101.369 90.4562C101.475 90.5562 101.575 90.6625 101.694 90.7562C102.05 91.0062 102.406 91.2312 102.763 91.4812C104.094 92.375 105.419 93.2625 106.738 94.1687C107.35 94.5875 107.944 95.0312 108.55 95.4562Z" fill="url(#paint0_linear_2_498)"/>
<path d="M126.731 75.275C126.631 75.4313 126.531 75.6 126.425 75.7625C124.769 78.1625 123.113 80.5625 121.456 82.9563C121.369 83.0938 121.275 83.2313 121.2 83.375C120.963 83.6938 120.725 84.0063 120.494 84.3375C119.788 85.3375 119.094 86.35 118.4 87.3625C118.294 87.5313 118.181 87.6625 117.931 87.6625C116.663 87.65 115.381 87.6438 114.113 87.6438C113.994 87.6563 113.875 87.6625 113.719 87.6813C113.7 88.1875 113.656 88.6938 113.65 89.2C113.631 90.025 113.613 90.8563 113.619 91.675C113.631 92.0125 113.519 92.2188 113.225 92.3875C112.856 92.5938 112.5 92.8438 112.144 93.0688C111.531 93.4875 110.913 93.9 110.313 94.3188C110.175 94.4063 110.056 94.525 109.925 94.625C109.625 94.8125 109.319 95 109.013 95.1875C108.863 95.2875 108.706 95.3688 108.544 95.4563C107.938 95.0313 107.344 94.5813 106.731 94.1688C105.413 93.2688 104.088 92.375 102.756 91.4813C102.4 91.2313 102.044 91.0063 101.688 90.7563C101.569 90.6688 101.469 90.5563 101.363 90.4563C101.8 90.1813 102.225 89.9 102.65 89.625C103.513 89.0375 104.375 88.4563 105.225 87.8625C105.6 87.6063 105.981 87.325 106.356 87.0688C106.988 86.65 107.613 86.2375 108.25 85.8313C108.4 85.7313 108.556 85.6438 108.719 85.5563C109.044 85.3188 109.375 85.0688 109.719 84.85C110.088 84.6125 110.381 84.325 110.631 83.9563C111.256 83.025 111.913 82.1125 112.544 81.1938C112.781 80.8438 113.013 80.4813 113.238 80.125C113.319 80.0375 113.406 79.9563 113.463 79.8688C114.463 78.4313 115.456 77.0063 116.456 75.5688C116.525 75.4625 116.563 75.3313 116.613 75.2125C116.731 75.1063 116.863 75.0125 116.963 74.8875C117.2 74.5625 117.438 74.2125 117.669 73.875C119.019 71.925 120.356 69.9813 121.7 68.025C122.156 68.6688 122.619 69.3125 123.069 69.9688C124.2 71.6063 125.331 73.2375 126.456 74.875C126.538 74.9938 126.613 75.125 126.725 75.2813L126.731 75.275Z" fill="url(#paint1_linear_2_498)"/>
<path d="M121.7 68.025C120.35 69.975 119.013 71.9188 117.669 73.875C117.444 74.2125 117.2 74.5563 116.963 74.8875C116.863 75.0188 116.738 75.1063 116.613 75.2125C116.106 74.4688 115.594 73.725 115.075 72.9813C114.631 72.35 114.181 71.7125 113.725 71.0875C113.569 70.8625 113.375 70.6625 113.213 70.4438C113.194 70.4313 113.181 70.4125 113.181 70.3938C112.763 69.7688 112.35 69.1375 111.931 68.5C111.425 67.7563 110.919 67.0125 110.413 66.2625C110.244 66.1313 110.088 65.9875 109.919 65.8688C109 65.2438 108.088 64.6313 107.163 64.0125C106.856 63.8125 106.538 63.6438 106.231 63.4688C106.144 63.3813 106.063 63.2688 105.963 63.2C104.525 62.2375 103.088 61.2688 101.65 60.3125C101.531 60.2313 101.394 60.1813 101.256 60.125C101.175 60.0438 101.106 59.9438 101.019 59.8875C98.8313 58.3938 96.6251 56.8813 94.4251 55.3875C94.2876 55.3 94.1251 55.2563 93.9813 55.1875C95.3313 54.2875 96.6751 53.3813 98.0251 52.4813C99.1126 51.7563 100.206 51.0313 101.325 50.2938C101.475 50.3938 101.625 50.4938 101.769 50.5938C104.269 52.25 106.763 53.9063 109.275 55.5625C109.406 55.6625 109.55 55.7438 109.694 55.8188C109.825 55.9188 109.95 56.025 110.088 56.1188C111.156 56.8313 112.231 57.5438 113.3 58.25C113.469 58.3563 113.619 58.4563 113.619 58.7063C113.606 59.7688 113.631 60.8188 113.631 61.8813C113.663 62.2188 113.681 62.5625 113.713 62.95H114.3C115.481 62.95 116.65 62.9625 117.831 62.9375C118.106 62.9375 118.306 63.0063 118.438 63.2625C118.594 63.55 118.763 63.8188 118.931 64.1063C119.588 65.0188 120.238 65.9375 120.881 66.85C120.981 66.9563 121.081 67.0688 121.181 67.1688C121.363 67.4563 121.531 67.7438 121.706 68.0313H121.7V68.025Z" fill="url(#paint2_linear_2_498)"/>
<path d="M101.269 60.125C100.713 60.4938 100.156 60.8688 99.5938 61.2375C98.9313 61.6813 98.2563 62.1313 97.5938 62.575C97.1876 62.875 96.7938 63.1688 96.3938 63.4688C96.3438 63.4875 96.3063 63.5188 96.2626 63.55C95.8188 63.825 95.3626 64.0938 94.9126 64.375C94.3188 64.7938 93.7438 65.2375 93.1313 65.6063C92.4063 66.0313 91.9626 66.6875 91.5126 67.3438C91.3751 67.55 91.2251 67.75 91.0876 67.9563C90.9813 68.1375 90.8688 68.3125 90.7501 68.4938C90.3313 69.1063 89.9188 69.725 89.5126 70.3375C89.4813 70.3563 89.4501 70.3688 89.4313 70.4C88.3313 71.975 87.2438 73.55 86.1501 75.125C86.0876 75.1938 86.0876 75.3063 86.0688 75.3938C86.0001 75.4625 85.9001 75.5125 85.8501 75.5938C85.3063 76.3563 84.7688 77.1313 84.2313 77.9063C83.4876 78.975 82.7376 80.0375 82.0001 81.1063C81.6501 81.6125 81.3376 82.125 81.0063 82.6438C80.0876 81.325 79.1626 80.0063 78.2501 78.6875C77.5751 77.7188 76.9126 76.7438 76.2376 75.7813C76.1376 75.625 76.0376 75.475 75.9188 75.2938C76.0501 75.1125 76.1688 74.9375 76.2876 74.7563C77.9438 72.3563 79.6001 69.9563 81.2563 67.5625C81.3251 67.4625 81.3751 67.3625 81.4376 67.2625C81.6438 66.9875 81.8563 66.7063 82.0501 66.4313C82.7751 65.4 83.4876 64.3813 84.2126 63.35C84.3126 63.025 84.5313 62.9438 84.8563 62.9438C86.0438 62.9625 87.2376 62.9563 88.4251 62.9563C88.8001 62.9563 88.9938 62.7625 89.0001 62.3688C89.0126 61.7438 89.0188 61.1125 89.0376 60.4875V58.8125C89.0376 58.5438 89.1376 58.3688 89.3876 58.225C89.8063 58 90.1876 57.7313 90.5938 57.4688C91.2876 57.0125 91.9938 56.55 92.6876 56.0813C92.7876 55.9938 92.8938 55.8938 92.9938 55.8063C93.3188 55.6063 93.6563 55.4 93.9876 55.2C94.1376 55.2688 94.2938 55.3063 94.4313 55.4C96.6313 56.8938 98.8313 58.4063 101.025 59.9C101.113 59.9625 101.181 60.0563 101.263 60.1375V60.125H101.269Z" fill="url(#paint3_linear_2_498)"/>
<path d="M107.769 75.275C107.212 75.9625 106.569 76.4625 105.956 77.0062V79.6437C105.75 79.6625 105.612 79.6812 105.475 79.6812C104.881 79.6812 104.287 79.6812 103.687 79.6937C103.506 79.6937 103.344 79.7562 103.163 79.7812C102.588 80.325 102.013 80.8625 101.456 81.375C100.919 80.8687 100.35 80.325 99.775 79.7937C99.5875 79.7562 99.4 79.6937 99.2 79.6937C98.5 79.675 97.7937 79.6812 97.0375 79.6812C96.95 79.2187 97 78.7812 96.9875 78.3437C96.9875 77.9 96.9875 77.45 96.9875 77.0062C96.95 77.0062 96.9063 77.0062 96.8875 76.9875C96.3125 76.4375 95.7437 75.8937 95.125 75.3C95.7437 74.7062 96.3125 74.15 96.875 73.6062C96.9188 73.4187 96.975 73.2187 96.9875 73.0312C96.9875 72.3562 96.9875 71.6812 96.9875 70.9375C97.9 70.9 98.7813 70.9375 99.6625 70.9187C100.281 70.3437 100.894 69.7687 101.544 69.1437C102.1 69.7062 102.681 70.3125 103.269 70.9187H105.906C105.925 71.0937 105.944 71.225 105.944 71.35C105.95 71.925 105.944 72.5 105.95 73.075C105.95 73.2562 106.012 73.4375 106.05 73.6C106.612 74.1437 107.181 74.7 107.763 75.2625V75.275H107.769Z" fill="#E6DAC8"/>
<defs>
<linearGradient id="paint0_linear_2_498" x1="84.3188" y1="80.025" x2="102.044" y2="96.7687" gradientUnits="userSpaceOnUse">
<stop stop-color="#B04344"/>
<stop offset="1" stop-color="#DE4148"/>
</linearGradient>
<linearGradient id="paint1_linear_2_498" x1="104.725" y1="92.8313" x2="123.181" y2="74.6188" gradientUnits="userSpaceOnUse">
<stop stop-color="#B04344"/>
<stop offset="1" stop-color="#DE4148"/>
</linearGradient>
<linearGradient id="paint2_linear_2_498" x1="120.831" y1="71.5438" x2="100.906" y2="55.1625" gradientUnits="userSpaceOnUse">
<stop stop-color="#B04344"/>
<stop offset="1" stop-color="#DE4148"/>
</linearGradient>
<linearGradient id="paint3_linear_2_498" x1="96.2438" y1="57.575" x2="80.1126" y2="76.5188" gradientUnits="userSpaceOnUse">
<stop stop-color="#B04344"/>
<stop offset="1" stop-color="#DE4148"/>
</linearGradient>
</defs>
</svg>
