<svg width="200" height="200" viewBox="0 0 200 200" fill="none" xmlns="http://www.w3.org/2000/svg">
<path d="M47.8 143.75L46.4125 143.256L45.4625 142.712C48.35 143.306 50.4437 141.425 51.175 138.756L48.3562 131.725C48.1937 131.381 47.7312 131.437 47.4062 131.431C47.1562 130.194 48.6625 130.762 49.4625 130.669L52.075 136.875C52.2625 135.912 54.6 131.381 54.35 130.787C54.275 130.6 53.9375 130.494 53.8937 130.269H56.3562C56.3812 130.45 56.3437 130.619 56.2937 130.794C55.725 132.744 54.175 135.944 53.3 137.919C52.425 139.894 51.4375 142.65 49.4 143.481L48.5687 143.756H47.7875L47.8 143.75Z" fill="#897852"/>
<path d="M84.6125 56.2813L117 56.25C120 56.5938 122.375 59 122.65 62.0125V93.7812C122.4 97.3688 119.613 99.7125 116.094 99.8C106.181 99.4062 95.8562 100.331 85.9937 99.8063C82.3 99.6125 79.7375 97.8313 79.1875 94.0375V61.8875C79.5312 58.9937 81.7313 56.7063 84.6125 56.2813ZM100.444 59.5188C91.1 59.7 84.9125 69.0875 88.175 77.8C88.2938 78.1125 88.8375 79.6437 89.225 79.575C89.725 79.4812 91.5125 77.2625 92.1437 76.9125C89.175 71.65 92.825 64.8375 98.5375 63.6C105.375 62.1188 111.406 67.9125 110.131 74.8C109.288 79.3875 105.119 81.5937 102.294 84.8687L102.4 85.2375L104.919 87.6188C107.881 84.3938 111.787 81.8687 113.306 77.5812C116.456 68.7 109.894 59.3437 100.438 59.525L100.444 59.5188ZM104.45 66.6375L86.975 84.05C81.3875 91.3312 90.425 100.269 97.8063 94.7437C98.1063 94.5187 99.7938 93.0125 99.8875 92.8063C100.006 92.5438 97.75 90.3438 97.4187 89.975C96.7375 90.35 96.3125 91.0313 95.725 91.5063C91.5188 94.925 86.9562 90.0687 90.2812 86.0625L107.019 69.3375C107.144 69.1563 107.081 69.0125 107.019 68.8312C106.825 68.3 105.025 66.4938 104.456 66.6375H104.45ZM104.969 74.2812C104.8 74.325 102.538 76.6188 102.538 76.7938C103.231 77.775 104.25 78.5563 105.069 79.45C105.344 79.0188 107.756 77.0312 107.719 76.8125C107.688 76.6438 105.55 74.5312 105.337 74.3875C105.206 74.3 105.15 74.2312 104.969 74.2812ZM112.744 81.925C112.388 82.3313 110.194 84.2625 110.194 84.575C110.194 84.8188 111.338 85.6688 111.619 86.0063C115.062 90.0812 109.719 94.7375 105.981 91.25L96.8688 82.1937L96.5 82.3C96.1937 82.8125 94.1 84.2625 94.1 84.7062L94.2937 85.0375C99.3562 89.0625 105.194 99.8375 112.9 95.2C118.056 92.0938 117.525 85.075 112.731 81.9312L112.744 81.925Z" fill="#735D46"/>
<path d="M52.7313 106.419V114.131C52.7313 114.356 53.0813 115.344 53.225 115.581C53.95 116.813 55.9125 117.075 56.1063 115.425C56.3938 112.988 55.8813 110.006 56.1063 107.506C56.1063 107.363 56.0813 107.225 55.9875 107.106C55.8125 106.894 55.4625 107.038 55.4563 106.8L57.6625 106.413V115.681C57.6625 115.919 56.9188 116.75 56.6688 116.894C55.2188 117.731 53.7625 117.15 52.7313 116.006C52.6625 116.363 52.225 116.775 51.9125 116.938C51.4375 117.181 49.725 117.375 49.1938 117.269C48.425 117.119 47.8563 116.475 47.2875 116.006C47.1 116.619 46.4125 117.075 45.7813 117.163C45.15 117.25 43.7 117.306 43.1375 117.106C42.5 116.881 42.2313 116.375 41.7125 116.006C41.15 117.431 38.3813 117.563 37.2563 116.894C36.025 116.163 35.0875 112.513 34.2125 111.125C33.65 110.231 32.7375 109.7 32.95 111.219L35.3563 117.175H28.025C27.6625 117.175 26.8563 116.431 26.7 116.031C26.2313 114.806 26.8375 112.794 26.5063 111.813C26.2875 111.169 25.0438 111.894 25.3563 110.894L28.0813 110.688V115.681C28.0813 115.825 28.5938 116.525 28.7938 116.525H33.5313C33.0875 114.856 31.95 113.25 31.525 111.6C31.0375 109.725 31.7438 109.381 33.5938 109.663C35.8 110 36.3313 115.931 38.0688 116.469C39.525 116.919 40.1563 116.275 40.2813 114.906C40.3375 114.263 40.3625 110.869 40.1375 110.513C40.0063 110.313 39.7 110.281 39.6313 110.05L41.7063 109.663V114.138C41.7063 114.894 42.5 116.394 43.3375 116.531C44.7875 116.763 45.7 116.619 45.8563 115.044C45.9438 114.138 45.9813 111.756 45.8625 110.894C45.7875 110.325 45.4813 110.456 45.2063 110.056C45.5313 110.088 47.4125 109.425 47.4125 109.863V114.788C47.4125 115.2 48.2625 116.344 48.7 116.481C49.0375 116.588 49.9625 116.588 50.3188 116.531C51.1063 116.406 51.2438 115.6 51.3063 114.925C51.4625 113.081 51.4625 109.631 51.3063 107.788C51.2875 107.6 51.2875 107.419 51.2125 107.238C51.1125 106.994 50.7125 107.038 50.7813 106.688L52.725 106.425L52.7313 106.419Z" fill="#735D46"/>
<path d="M169.994 106.419V115.169C169.994 115.213 169.806 115.875 169.762 115.975C169.075 117.669 166.069 117.606 164.994 116.275H164.806C164.094 117.769 162.15 118.3 160.619 117.794C160.056 117.606 159.112 116.694 159.012 116.675C158.769 116.625 158.4 117.075 158.094 117.15C157.694 117.244 157.131 117.175 156.7 117.313L142.181 117.3C141.619 119.625 139.731 120.569 137.431 120.288C137.362 119.919 137.531 120.081 137.712 119.994C139.237 119.294 140.087 118.938 140.606 117.175C141.031 115.738 141.094 112.4 140.931 110.888C140.913 110.719 140.887 110.45 140.769 110.338C140.625 110.194 140.269 110.281 140.281 110.05C140.931 110.006 141.662 109.694 142.294 109.656C142.562 109.644 142.462 109.656 142.487 109.85L142.356 116.531H144.237C144.662 116.531 144.925 115.663 144.956 115.306C145 114.869 144.994 111.756 144.888 111.6C144.775 111.431 144.35 111.513 144.3 111.219L146.506 110.956V113.806C147.906 112 149.525 109.206 152.219 110.494C154.225 111.456 154.937 114.488 154.937 116.525C155.694 116.438 156.719 116.656 157.437 116.5C159.081 116.131 158.356 111.944 160.8 111.044C162.869 110.281 164.888 111.531 165.256 113.669C165.344 114.181 165.256 114.675 165.344 115.138C165.65 116.675 168.212 117.494 168.431 114.913C168.637 112.513 168.269 109.825 168.431 107.388C168.406 107.019 168.006 107.044 167.781 106.869C167.9 106.606 169.613 106.444 169.988 106.413L169.994 106.419ZM153.387 116.525C153.425 115.056 152.781 110.819 150.85 110.694C149.056 110.581 146.613 114.925 146.381 116.525H153.387ZM161.394 111.5C161.05 111.6 160.738 112.2 160.594 112.513C160.419 112.888 159.606 115.544 159.619 115.806C159.656 116.4 160.756 117.131 161.294 117.25C164.694 117.975 164.456 110.6 161.394 111.5Z" fill="#735D46"/>
<path d="M95.6688 106.419V114.394C95.6688 114.456 95.9687 115.331 96.0312 115.456C96.7125 116.838 98.8 117.056 99.0313 115.419C99.0875 115.019 99.125 111.788 99.025 111.625C98.9688 111.538 98.425 111.506 98.4 111.219L100.606 110.956V114.65C100.606 114.738 100.856 115.356 100.925 115.5C101.712 117.175 103.519 117.038 103.719 115.038C103.775 114.494 103.787 111.331 103.6 111.044C103.475 110.85 103.188 110.919 103.069 110.763C103.188 110.5 104.9 110.338 105.275 110.306V114.781C105.275 114.856 105.725 115.8 105.819 115.925C106.525 116.919 108.106 116.888 108.263 115.563C108.325 115.019 108.331 110.656 108.194 110.438C108.106 110.294 107.769 110.269 107.738 110.05L109.812 109.663V115.688C109.812 115.725 109.494 116.238 109.425 116.338C108.388 117.719 105.813 117.45 105.081 115.881C104.169 117.594 101.525 117.681 100.413 116.144C99.1438 117.713 96.925 117.663 95.7438 116.013C95.55 116.444 94.625 117.175 94.1875 117.175H89.1938C89.075 116.281 90.3625 116.606 90.3625 116.525V108.813C90.3625 108.619 89.7187 108.581 89.7125 108.363L91.9188 107.975V116.531C92.9063 116.531 93.8938 116.788 94.1125 115.55L94.125 107.156C94.0688 106.919 93.4625 107.1 93.6 106.681L95.675 106.419H95.6688Z" fill="#735D46"/>
<path d="M73.1 116.525C72.6687 115.05 71.8125 113.719 71.3187 112.281C70.6312 110.287 70.6313 109.275 73.1562 109.663C75.4062 110.013 75.8688 116.2 77.8438 116.519C82.0125 117.194 79.8937 111.4 83.7062 110.856C88.6 110.156 89 118.594 83.425 117.937C82.2687 117.8 81.4625 116.731 81.1875 116.675C80.9875 116.637 80.4312 117.062 80.1375 117.144C75.5125 118.4 75.5437 114.25 73.9 111.388C73.6875 111.013 72.6312 109.575 72.45 110.638C72.2812 111.6 75.175 117.063 74.9187 117.306C72.9125 117.194 70.75 117.456 68.7625 117.306C67.35 117.2 66.2625 116.894 66.1062 115.294C66.0187 114.431 66.2938 112.45 66.0813 111.819C65.925 111.35 64.9812 111.519 64.9375 111.475C64.9 111.444 64.9625 110.969 64.9375 110.825L67.6625 110.694V115.688C67.6625 115.831 68.175 116.531 68.375 116.531H73.1125L73.1 116.525ZM83.6938 111.5C83.2375 111.606 82.9812 112.037 82.8 112.419C82.6437 112.744 81.775 115.594 81.7875 115.806C81.825 116.431 83 117.181 83.5688 117.275C86.8313 117.819 86.6313 110.831 83.6938 111.5Z" fill="#735D46"/>
<path d="M137.044 126.575C136.969 126.338 136.425 126.369 136.394 126.125L138.6 125.731C138.619 125.819 138.575 126.25 138.6 126.25H142.038C142.913 126.25 144.131 127.837 144.275 128.681C144.563 130.369 143.6 131.15 142.288 131.812C142.194 131.862 141.85 131.875 142.1 132.081C142.131 132.106 142.675 132.137 142.919 132.237C145.938 133.519 145.244 138.6 142.269 139.569L137.044 139.725V126.569V126.575ZM138.731 131.438H140.869C140.919 131.438 141.625 131.037 141.7 130.975C142.669 130.144 142.619 127.881 141.413 127.262C141.338 127.225 140.775 127.031 140.738 127.031H138.725V131.438H138.731ZM138.731 138.562H140.613C140.994 138.562 141.738 138.181 142.025 137.9C143.244 136.731 143.4 134.112 142.044 132.987C141.944 132.906 141.188 132.469 141.131 132.469H138.731V138.562Z" fill="#897852"/>
<path d="M107.731 131.044C107.806 131.119 107.625 131.7 107.794 131.819C109.031 130 111.894 130.3 113.044 132.081C113.756 130.275 116.887 130.137 117.906 131.7C117.975 131.8 118.237 132.356 118.237 132.406V139.081H115.9C116.2 138.662 116.487 138.544 116.55 137.981C116.687 136.844 116.675 133.806 116.55 132.662C116.331 130.762 114.244 130.919 113.494 132.462C113.369 132.712 113.05 133.613 113.05 133.831V139.081H110.713C110.738 138.731 111.044 138.731 111.194 138.331C111.475 137.575 111.469 133.619 111.362 132.662C111.162 130.844 109.244 130.912 108.4 132.294C108.269 132.5 107.863 133.638 107.863 133.831V139.081C107.481 139.006 106.2 139.275 106.062 138.869L106.044 132.281C105.869 131.344 104.331 132.4 104.619 131.044C105.038 131.125 107.619 130.931 107.731 131.044Z" fill="#897852"/>
<path d="M168.438 125.731V133.506L172.331 129.425L174.013 129.356C174.15 130.394 173.65 130.144 173.1 130.588C172.025 131.45 171.213 132.825 170.113 133.7L170.013 133.938L173.65 138.531C174.263 138.675 174.825 138.231 174.663 139.075H172.394C172.138 139.075 169.538 135.556 169.088 135.119C168.95 134.919 168.563 135.344 168.563 135.381V139.338H165.706C165.381 138.163 166.794 139.044 166.881 138.113V126.95C166.919 126.45 166.419 126.425 166.225 126.113L168.431 125.725L168.438 125.731Z" fill="#897852"/>
<path d="M137.175 108.75V115.556C137.175 115.756 136.719 116.538 136.519 116.713C136.088 117.094 135.319 117.231 134.756 117.288C133.419 117.413 128.388 117.469 127.356 116.944C125.531 116.019 126.919 113.131 126.325 111.763C126.163 111.388 125.163 111.525 125.113 111.475C125.075 111.438 125.138 110.969 125.113 110.825L127.838 110.694V115.294C127.838 115.775 128.281 116.431 128.819 116.519C129.831 116.675 133.6 116.662 134.656 116.531C135.769 116.394 135.65 115.181 135.625 114.325C135.356 114.544 135.219 114.869 134.913 115.1C133.413 116.225 131.125 115.05 130.95 113.225C130.794 111.613 131.363 110.044 132.9 109.331C133.325 109.137 134.75 108.75 135.169 108.75H137.181H137.175ZM135.619 109.4C132.863 108.806 131.213 113.462 133.288 114.775C134.331 115.437 135.619 114.037 135.619 113.094V109.4Z" fill="#735D46"/>
<path d="M40.6688 126.506V138.237C40.6688 138.537 41.9375 138.581 42.1688 138.569C44.7188 138.394 45.5063 134.988 44.6313 132.988C44.0063 131.556 42.7125 131.519 41.325 131.563C41.0813 130.831 41.8125 130.738 42.4438 130.669C44.7813 130.419 46.3438 131.762 46.5188 134.087C46.875 138.794 43.0438 140.194 39.0438 138.963L38.9938 127.606C38.9938 127.463 38.9688 127.325 38.875 127.206C38.7 126.994 38.35 127.137 38.3438 126.9L40.675 126.513L40.6688 126.506Z" fill="#897852"/>
<path d="M151.181 138.044C151.419 138.881 150.463 139.019 149.819 139.081C144.988 139.531 144.481 132.337 148.425 130.687C150.088 129.987 151.688 130.344 153.381 130.662L153.394 137.85C153.563 138.75 155.025 137.756 154.688 139.212H151.9C151.9 139.212 151.706 139.031 151.706 139.019V131.5C151.706 131.031 149.881 131.175 149.538 131.275C147.219 131.956 146.688 136.425 148.6 137.712C148.688 137.775 149.144 138.044 149.175 138.044H151.188H151.181Z" fill="#897852"/>
<path d="M100.338 138.044C100.575 138.881 99.6188 139.019 98.975 139.081C94.075 139.538 93.625 132.019 97.875 130.594C99.5 130.05 100.913 130.363 102.538 130.663L102.55 137.85C102.719 138.725 104.238 137.875 103.844 139.213H101.056C101.056 139.213 100.863 139.031 100.863 139.019V131.306C97.6125 130.319 95.9313 133.563 96.8 136.338C96.9625 136.863 97.7688 138.05 98.3313 138.05H100.344L100.338 138.044Z" fill="#897852"/>
<path d="M117.975 106.419V115.431C117.975 115.994 117.075 117.181 116.481 117.181H111.356C111.581 116.494 111.994 116.469 112.656 116.531V108.95C112.531 108.344 111.975 108.719 112.006 108.231L114.213 107.969V116.525C115.181 116.556 116.169 116.719 116.387 115.525C116.806 113.231 116.137 109.919 116.425 107.513C116.506 106.969 115.831 107.1 115.9 106.675L117.975 106.413V106.419Z" fill="#735D46"/>
<path d="M61.6812 138.044C61.9 138.85 61.0687 138.994 60.4375 139.069C55.6 139.613 54.9937 132.388 58.9625 130.725C60.6562 130.013 62.15 130.338 63.8812 130.663L63.8937 137.85C64.0625 138.725 65.5812 137.875 65.1875 139.213H62.3312V131.5C59.1625 130.038 57.5187 133.263 58.1062 136.113C58.2437 136.775 59.0562 138.05 59.8 138.05H61.6812V138.044Z" fill="#897852"/>
<path d="M68.6875 130.656V132.469C69.9063 131.319 70.8563 130.281 72.7188 130.712C73.4688 130.887 74.05 131.656 74.1375 132.406C74.275 133.556 73.875 138.019 74.275 138.625C74.425 138.85 74.75 138.737 74.65 139.087L72.7063 139.35V132.544C72.7063 131.781 71.65 131.462 70.9875 131.6C70.5875 131.681 68.6875 133.425 68.6875 133.581V139.35H67.1313C66.9438 137.05 66.9813 134.725 66.9938 132.412C66.9938 131.837 67.4 131.281 66.4813 131.187C66.5063 130.994 66.6625 130.981 66.8188 130.944C67.3813 130.806 68.1 130.731 68.6875 130.675V130.656Z" fill="#897852"/>
<path d="M158.056 130.656V132.469C159.269 131.3 160.344 130.231 162.212 130.712C162.837 130.875 163.406 131.656 163.494 132.281C163.7 133.769 163.662 135.806 163.644 137.331C163.644 137.769 163.362 138.156 163.631 138.6C163.737 138.775 164.119 138.756 164.025 139.075L162.081 139.338V132.531C162.081 131.769 161.025 131.45 160.362 131.587C159.925 131.675 158.062 133.381 158.062 133.694V139.331H156.506V131.619C156.506 131.375 156.1 131.144 155.856 131.163C155.825 131.125 155.931 130.994 155.981 130.969C156.387 130.775 157.556 130.744 158.056 130.644V130.656Z" fill="#897852"/>
<path d="M89.7 131.044V132.987C89.7 132.987 89.2813 133.125 89.1813 133.062C89 132.95 88.75 132.106 88.475 131.812C87.4563 130.731 84.725 131.238 85.2188 133.119C85.6375 134.688 89.825 134.8 90.0875 136.938C90.4938 140.244 85.7 140.362 83.5438 139.481C83.4375 139.406 83.425 137.387 83.4875 137.281C83.5188 137.237 83.9313 137.1 83.9813 137.131C84.0375 137.169 84.3375 138.006 84.5688 138.3C84.8813 138.7 85.4188 139.169 85.925 139.275C87.3875 139.581 88.8063 139.219 88.5188 137.462C88.2313 135.706 83.4438 135.731 83.7375 132.931C83.9938 130.481 87.9563 130.5 89.6938 131.038L89.7 131.044Z" fill="#897852"/>
<path d="M28.475 125.731V137.85C28.475 137.888 28.7938 138.431 28.8688 138.494C29.6938 139.219 32.2813 138.563 33.3125 138.819C33.4063 138.844 33.6938 139.312 33.6625 139.469H28.8C28.225 139.469 26.9375 138.713 26.8125 138.075C26.7438 137.713 26.9188 137.425 26.925 137.075C26.975 133.7 26.8688 130.325 26.925 126.95C26.95 126.494 26.5375 126.438 26.2688 126.175L28.475 125.725V125.731Z" fill="#897852"/>
<path d="M81.6562 126.506V139.6H79.9688V127.35C79.9688 127.156 79.325 127.119 79.3188 126.9L81.65 126.513L81.6562 126.506Z" fill="#897852"/>
<path d="M131.313 137.944C131.313 137.944 131.575 138.369 131.581 138.4C131.662 138.919 129.275 139.475 128.806 139.475C122.469 139.475 123.3 129.569 129.944 130.694C131.331 130.925 131.812 131.594 130.475 132.469C129.387 131.738 128.913 130.875 127.531 131.719C124.894 133.338 126.019 138.769 129.456 138.438C129.931 138.394 131.056 137.794 131.313 137.944Z" fill="#897852"/>
<path d="M93.4625 125.863V139.606H92.0375V126.838C92.0375 126.581 91.4812 126.35 91.3875 126.125L93.4625 125.863Z" fill="#897852"/>
<path d="M173.625 106.419V117.181H172.2V107.394C172.2 107.006 171.638 107.069 171.55 106.813L173.625 106.425V106.419Z" fill="#735D46"/>
<path d="M121.606 106.419V117.181H120.181V107.263C120.181 107.069 119.531 107.031 119.531 106.813L121.606 106.425V106.419Z" fill="#735D46"/>
<path d="M61.2937 106.419V117.181H59.8688V107.263C59.8688 107.069 59.2188 107.031 59.2188 106.813L61.2937 106.425V106.419Z" fill="#735D46"/>
<path d="M36.2563 130.656V138.369C36.2563 138.469 36.6438 138.606 36.7688 138.638C37.3875 138.8 37.5063 138.437 37.425 139.344H34.7V131.5C34.7 131.331 33.9 131.131 34.3063 130.981C34.8063 130.8 35.7 130.787 36.2563 130.662V130.656Z" fill="#897852"/>
<path d="M122.775 130.656V138.369C122.775 138.675 123.9 138.65 123.944 138.694C124.156 138.913 123.831 139.337 123.488 139.337H121.219V131.494C121.219 131.237 120.581 131.256 120.569 131.044L122.775 130.656Z" fill="#897852"/>
<path d="M111.363 121.581C111.244 120.844 111.531 121.088 112.144 121.063C110.563 119.931 112.456 117.731 113.694 118.8C114.931 119.869 112.256 120.569 113.181 119.119C111.975 118.944 112.388 120.756 113.175 121.006C113.8 121.2 114.388 120.731 114.219 121.581H111.363Z" fill="#735D46"/>
<path d="M121.569 126.925C123.025 126.488 123.406 128.425 122.262 128.788C120.912 129.213 120.562 127.225 121.569 126.925Z" fill="#897852"/>
<path d="M34.7375 127.194C35.625 126.3 37.0063 127.625 36.1875 128.581C35.3688 129.537 33.7875 128.144 34.7375 127.194Z" fill="#897852"/>
<path d="M135.706 105.544C136.8 106.9 134.056 107.869 134.181 106.094C134.244 105.231 135.231 104.956 135.706 105.544Z" fill="#735D46"/>
<path d="M46.4688 118.756C47.7375 118.494 47.9 120.469 46.6875 120.544C45.6375 120.612 45.35 118.987 46.4688 118.756Z" fill="#735D46"/>
<path d="M69.3 118.756C70.5125 118.388 70.9625 120.294 69.7312 120.494C68.6187 120.669 68.3062 119.063 69.3 118.756Z" fill="#735D46"/>
<path d="M29.7375 118.756C30.925 118.4 31.4563 120.281 30.1688 120.494C29.0188 120.681 28.8125 119.037 29.7375 118.756Z" fill="#735D46"/>
<path d="M44.0062 118.756C45.325 118.487 45.4312 120.35 44.3375 120.525C43.2437 120.7 42.9687 118.969 44.0062 118.756Z" fill="#735D46"/>
<path d="M72.675 120.25C71.9687 120.919 70.525 119.95 71.35 118.994C72.175 118.038 73.5062 119.462 72.675 120.25Z" fill="#735D46"/>
<path d="M33.1125 120.25C32.2938 121.025 30.95 119.7 31.85 118.925C32.75 118.15 33.9125 119.487 33.1125 120.25Z" fill="#735D46"/>
<path d="M40.1125 118.631C41.75 118.15 41.75 120.744 40.1125 120.263C39.4437 120.069 39.4437 118.831 40.1125 118.631Z" fill="#735D46"/>
</svg>
