<svg width="200" height="200" viewBox="0 0 200 200" fill="none" xmlns="http://www.w3.org/2000/svg">
<path d="M124.894 104.087L126.431 107.937C126.431 107.937 101.906 95.1812 69.3563 112.006C69.1625 111.844 69.7125 111.569 70.9813 110.531C72.3938 109.369 73.8563 108.294 75.3813 107.287C85.1 100.9 97.4 97.9625 108.975 99.0812C112.494 99.4187 116 100.037 119.35 101.2C120.956 101.756 122.619 102.556 124.894 104.087Z" fill="#E87200"/>
<path d="M93.525 107.181H95.45L97.9562 110.869V107.181H99.9V113.844H97.9562L95.4625 110.187V113.844H93.525V107.181Z" fill="#0055B8"/>
<path d="M106.15 112.75H103.813L103.488 113.85H101.388L103.894 107.188H106.138L108.644 113.85H106.488L106.156 112.75H106.15ZM105.725 111.306L104.988 108.912L104.263 111.306H105.725Z" fill="#54565A"/>
<path d="M110.344 107.181H114.2C114.844 107.181 115.337 107.337 115.681 107.656C116.025 107.975 116.2 108.369 116.2 108.837C116.2 109.231 116.075 109.569 115.831 109.85C115.669 110.037 115.431 110.187 115.112 110.294C115.594 110.412 115.944 110.606 116.169 110.887C116.394 111.169 116.506 111.519 116.506 111.944C116.506 112.287 116.425 112.6 116.263 112.875C116.1 113.15 115.881 113.369 115.606 113.531C115.431 113.631 115.175 113.706 114.825 113.75C114.362 113.812 114.056 113.837 113.9 113.837H110.344V107.175V107.181ZM112.419 109.8H113.312C113.631 109.8 113.856 109.744 113.981 109.631C114.106 109.519 114.169 109.362 114.169 109.15C114.169 108.956 114.106 108.806 113.981 108.694C113.856 108.587 113.638 108.531 113.325 108.531H112.419V109.794V109.8ZM112.419 112.412H113.469C113.825 112.412 114.075 112.35 114.219 112.225C114.362 112.1 114.438 111.931 114.438 111.719C114.438 111.525 114.362 111.362 114.219 111.244C114.075 111.125 113.825 111.062 113.462 111.062H112.419V112.412Z" fill="#E87200"/>
<path d="M68.25 86.8C64.0187 73.6813 74.7562 70.3187 74.7562 70.3187C86.575 66.7375 100.35 75.525 100.35 75.525L119 90.275C127.212 98.825 129.494 105.681 129.531 110.637C129.556 105.6 127.281 98.5812 118.85 89.8062L99.9312 74.85C99.9312 74.85 85.9625 65.9437 73.975 69.5687C73.975 69.5687 63.0875 72.975 67.375 86.2875C67.375 86.2875 73.3125 105.312 94.1 117.081C94.1 117.081 105.687 123.819 115.825 123.756C105.875 123.731 94.5937 117.175 94.5937 117.175C74.1 105.575 68.2437 86.8125 68.2437 86.8125L68.25 86.8Z" fill="#54565A" fill-opacity="0.5"/>
<path d="M129.525 110.625C129.494 105.675 127.206 98.8187 118.994 90.2625L100.344 75.5125C100.344 75.5125 86.575 66.7312 74.75 70.3062C74.75 70.3062 64.0125 73.6687 68.2437 86.7875C68.2437 86.7875 74.1 105.55 94.5937 117.15C94.5937 117.15 105.875 123.706 115.825 123.731C119.756 123.706 123.475 122.662 126.212 119.806C126.212 119.806 129.494 116.619 129.525 110.619V110.625ZM106.256 121.019C100.219 119.587 94.5312 116.669 89.4812 113.112C84.6812 109.731 80.3 105.062 78.1437 99.5312C76.3062 94.8062 74.9 89.3562 76.725 84.4125C78.475 79.6687 82.7625 76.625 87.7562 76.25C90.4875 76.0437 93.6937 76.3875 96.3187 77.2C97.0875 77.4375 97.8687 77.6875 98.6062 78.025L119.394 91.55C125 95.8375 126.981 105.181 126.981 105.187C128.025 110.125 127.575 114.869 124.244 118.812C120.044 123.781 111.75 122.319 106.25 121.019H106.256Z" fill="url(#paint0_linear_2_97)"/>
<path d="M107.738 56.25C107.738 56.25 99.6 83.7438 80.3563 101.45C80.3563 101.45 94.6563 94.6313 99.3813 94.9625C99.3813 94.9625 106.531 86.825 107.738 82.8625L111.588 93.75C111.588 93.75 119.725 94.7375 121.156 95.5125L107.738 56.25Z" fill="#0055B8"/>
<path d="M107.6 58.725C107.6 58.725 97.95 87.5938 79.475 102.35C79.475 102.35 96.5438 94.5563 100.756 94.85C100.756 94.85 106.525 88.3938 107.6 84.8688L111.063 95.5938C111.063 95.5938 118.2 95.9125 119.475 96.6L107.594 58.725H107.6Z" fill="url(#paint1_linear_2_97)"/>
<path d="M84.1125 128.819C84.1125 129.119 84.1875 130.219 84.325 132.219L84.4688 136.025C84.5688 137.467 84.6167 138.24 84.6125 138.344C84.6125 138.375 84.6125 138.419 84.6125 138.487C84.6125 138.969 84.5625 139.406 84.5313 139.7C84.5313 139.794 84.5313 139.875 84.5188 139.944C84.5125 140.062 84.5063 140.15 84.5313 140.219C84.5375 140.325 84.6125 140.331 84.6313 140.331C84.6875 140.331 84.725 140.294 84.775 140.2C84.7875 140.175 84.8063 140.15 84.8188 140.119C84.8625 140.044 84.9125 139.95 84.9438 139.862C85.2563 139.119 85.4125 138.219 85.4125 137.112C85.4125 137.081 85.4125 137.062 85.4125 137.056C85.4438 137.006 85.4438 136.844 85.325 134.975C85.15 132.769 85.0625 129.712 85.0375 129.344C85.2438 129.581 85.4063 129.7 85.5188 129.7C85.5813 129.7 85.6625 129.656 85.6625 129.537C85.6625 129.462 85.6375 129.394 85.6063 129.306C85.5938 129.281 85.5875 129.25 85.575 129.225C85.55 129.119 85.4375 128.706 85.1125 127.919C84.8625 127.256 84.7 126.85 84.6125 126.669C84.6 126.594 84.525 126.525 84.45 126.525C84.425 126.525 84.35 126.531 84.2875 126.662C84.0313 127.375 83.95 127.656 83.95 127.775C83.95 127.787 83.95 127.8 83.9563 127.806C84.0688 128.062 84.1188 128.375 84.1188 128.819H84.1125Z" fill="#0055B8"/>
<path d="M98.2437 132.331H98.4125C98.4563 132.331 98.4937 132.294 98.4937 132.25V132C98.4937 131.8 98.4938 131.675 98.3813 131.669C98.1438 131.587 97.9812 131.506 97.8875 131.462C97.8125 131.437 97.7875 131.419 97.7812 131.419C97.8062 131.381 97.9563 131.294 98.1 131.212L98.2 131.156C98.5687 130.95 100.231 130.325 103.244 129.194C107.087 127.744 109.075 126.987 109.094 126.975C109.106 126.975 109.113 126.962 109.125 126.956C109.175 126.906 109.263 126.769 109.35 126.556C109.4 126.462 109.4 126.406 109.4 126.394C109.4 126.35 109.363 126.313 109.319 126.313C109.275 126.313 109.213 126.312 109.125 126.356C107.963 126.769 106.8 127.2 105.681 127.612C104.85 127.919 104.019 128.231 103.194 128.531C100.012 129.706 98.3375 130.375 98.1125 130.506C97.9375 130.637 97.7687 130.806 97.5875 131.037C97.4312 131.35 97.3687 131.537 97.3687 131.7C97.3687 131.881 97.4812 132.212 98.2437 132.325V132.331Z" fill="#0055B8"/>
<path d="M98.2563 127.269C98.4938 127.231 98.6563 127.225 98.6625 127.225C99.2688 127.225 99.5188 127.256 99.6125 127.287C99.6125 127.287 99.6125 127.287 99.6063 127.287C99.575 127.319 99.35 127.475 98.9625 127.687C98.475 127.906 98.25 128.025 98.1438 128.156C98.0625 128.2 98.0188 128.244 98.0125 128.244C97.9875 128.269 97.9813 128.306 97.9938 128.337C98.0063 128.369 98.0375 128.387 98.0688 128.387C98.0813 128.387 98.1313 128.387 98.3 128.344C98.5063 128.281 98.6813 128.231 98.8375 128.194C99.2438 128.081 99.4875 128.012 99.6313 127.906C99.8 127.737 100.056 127.481 100.269 127.181C100.575 126.719 100.575 126.662 100.575 126.631C100.575 126.35 100.125 126.212 99.1938 126.212C98.9375 126.212 98.775 126.212 98.6938 126.3C98.5188 126.306 98.3813 126.369 98.2625 126.487C98.2625 126.487 98.25 126.5 98.25 126.506L98 126.969C97.95 127.062 97.95 127.119 97.95 127.131C97.95 127.256 98.0625 127.256 98.2563 127.256V127.269Z" fill="#0055B8"/>
<path d="M103.944 132.325C103.838 132.469 103.694 132.581 103.519 132.719L103.462 132.762C103.219 132.925 102.962 133.094 102.712 133.225C102.675 133.25 102.575 133.3 102.469 133.356C101.937 133.631 101.844 133.706 101.844 133.794C101.844 133.837 101.881 133.875 101.925 133.875C102.063 133.875 102.2 133.831 102.338 133.744C102.525 133.694 102.725 133.612 102.837 133.531C103.131 133.406 103.431 133.275 103.694 133.062C103.906 132.894 104.081 132.719 104.219 132.531C104.244 132.475 104.275 132.425 104.3 132.375C104.356 132.275 104.413 132.169 104.475 132.019C104.5 131.944 104.513 131.869 104.525 131.794C104.531 131.731 104.544 131.669 104.563 131.587C104.656 130.969 104.787 130.825 104.812 130.819C104.825 130.825 104.85 130.881 104.863 130.912C104.888 130.981 104.925 131.069 105.019 131.069C105.044 131.069 105.062 131.062 105.075 131.044C105.119 131 105.175 130.937 105.181 130.875C105.219 130.75 105.225 130.7 105.225 130.687C105.225 130.519 105.025 130.269 104.85 130.269C104.706 130.269 104.519 130.487 104.431 130.712L104.4 130.869C104.362 131.056 104.331 131.206 104.3 131.325C104.25 131.112 104.175 130.937 104.081 130.812C103.944 130.581 103.794 130.481 103.594 130.481C103.581 130.481 103.569 130.481 103.556 130.487C103.356 130.587 103.306 130.737 103.263 130.869C103.263 130.875 103.263 130.887 103.263 130.894C103.263 130.969 103.313 131.019 103.469 131.175C103.506 131.2 103.631 131.275 103.719 131.275C103.75 131.275 103.781 131.262 103.8 131.25C103.831 131.294 103.881 131.381 103.938 131.556L104.013 131.731C104.075 131.875 104.125 131.994 104.137 132.05C104.119 132.087 104.088 132.125 104.056 132.162C104.025 132.206 103.988 132.256 103.95 132.306L103.944 132.325Z" fill="#0055B8"/>
<path d="M84.0063 125.519C83.9688 125.556 83.925 125.581 83.875 125.612C83.825 125.644 83.7688 125.675 83.725 125.719C83.575 125.794 83.5 125.831 83.4375 125.831C83.425 125.831 83.3813 125.812 83.3438 125.8C83.3063 125.787 83.2625 125.769 83.225 125.756C83.1625 125.725 83.1125 125.669 83.1 125.669C83.1 125.669 83.125 125.631 83.225 125.569C83.25 125.556 83.2688 125.544 83.2875 125.531C83.3375 125.506 83.3562 125.494 83.3937 125.494C83.425 125.494 83.4438 125.494 83.4813 125.606C83.4813 125.619 83.4938 125.631 83.5 125.638C83.5313 125.669 83.5563 125.694 83.6 125.694C83.6438 125.694 83.675 125.669 83.7125 125.625C83.8 125.494 83.85 125.35 83.85 125.244C83.85 124.994 83.7375 124.869 83.5188 124.869C83.325 124.869 83.1 125.044 82.8313 125.394C82.675 125.513 82.6 125.688 82.6 125.913C82.6 126.056 82.7063 126.181 82.9 126.275C82.6438 126.494 82.6438 126.55 82.6438 126.569L82.6 126.794C82.6 126.875 82.6625 126.919 82.725 126.919C82.8 126.919 82.8563 126.862 82.8563 126.862L83.225 126.612C83.6813 126.3 83.9875 126.087 84.1688 125.975C84.2313 125.912 84.275 125.812 84.3188 125.625V125.544C84.3188 125.544 84.3125 125.5 84.2938 125.487C84.2625 125.45 84.225 125.444 84.2 125.444C84.1563 125.444 84.1188 125.462 84.0813 125.487C84.0688 125.494 84.05 125.506 84.0375 125.513C84.0313 125.513 84.025 125.525 84.0187 125.531L84.0063 125.519Z" fill="#0055B8"/>
<path d="M88.6312 130.494V130.831C88.6312 131.237 88.5875 131.612 88.5125 131.931C88.3437 132.331 88.2625 132.619 88.2062 132.794C88.1937 132.837 88.1812 132.875 88.175 132.9C88.175 132.906 88.175 132.919 88.175 132.925C88.175 132.981 88.1625 133.056 88.1562 133.125C88.1437 133.2 88.1375 133.275 88.1375 133.344C88.1375 134 88.3875 134.137 88.6 134.137C88.9812 134.137 89.1312 133.612 89.225 133.131V133.087C89.225 133.044 89.1875 133.006 89.1437 133.006C89.075 133.006 89.0312 133.056 89.0187 133.106C88.9125 133.312 88.8125 133.425 88.725 133.425C88.5812 133.425 88.5562 133.187 88.5562 133.05C88.5562 132.85 88.6375 132.481 88.8062 131.944C88.975 131.4 89.0625 130.931 89.0625 130.581V130.237C89.0187 129.75 88.975 129.425 88.8875 129.206C88.75 128.931 88.575 128.637 88.2437 128.35C88.2125 128.319 88.1875 128.294 88.1437 128.294C88.1 128.294 88.0687 128.319 88.0437 128.35C88.0375 128.356 88.0312 128.362 88.025 128.369L87.8625 128.694C87.8 128.769 87.8 128.856 87.875 128.925C88.3875 129.437 88.6437 129.962 88.6437 130.5L88.6312 130.494Z" fill="#0055B8"/>
<path d="M111.519 131.625C111.519 131.625 111.475 131.644 111.462 131.662L111.006 132.425L110.031 131.762C110.031 131.762 109.987 131.744 109.969 131.75C109.944 131.75 109.925 131.769 109.912 131.787L109.287 132.75C109.262 132.787 109.275 132.837 109.312 132.862L110.444 133.612C110.444 133.612 110.475 133.625 110.487 133.625C110.487 133.625 110.5 133.625 110.506 133.625C110.531 133.625 110.55 133.606 110.556 133.587L111.012 132.862L112.031 133.525C112.031 133.525 112.075 133.544 112.094 133.537C112.119 133.537 112.137 133.519 112.144 133.5L112.731 132.494C112.756 132.456 112.744 132.406 112.706 132.381L111.575 131.631C111.575 131.631 111.531 131.612 111.512 131.619L111.519 131.625Z" fill="#0055B8"/>
<path d="M132.062 128.9C132.262 128.9 132.419 128.8 132.506 128.613C132.594 128.488 132.644 128.3 132.644 128.15C132.644 128.137 132.656 128.112 132.662 128.094C132.675 128.056 132.687 128.019 132.687 127.981C132.687 127.85 132.631 127.825 132.581 127.825C132.506 127.825 132.462 127.906 132.444 127.969C132.381 128 132.319 128.025 132.262 128.025C132.231 128.025 132.137 128.025 132.137 127.856C132.137 127.638 132.275 127.406 132.5 127.019C132.55 126.931 132.606 126.838 132.662 126.738C132.756 126.644 132.837 126.519 132.875 126.394C132.913 126.35 132.906 126.313 132.894 126.288C132.881 126.256 132.831 126.225 132.8 126.225C132.737 126.225 132.669 126.275 132.575 126.375C132.569 126.381 132.562 126.387 132.556 126.394C132.519 126.462 132.488 126.5 132.406 126.581C132.406 126.581 132.394 126.594 132.394 126.6C132.356 126.669 132.306 126.737 132.25 126.812C132.137 126.975 132.012 127.156 131.931 127.35C131.731 127.675 131.625 127.988 131.625 128.275C131.625 128.819 131.887 128.9 132.044 128.9H132.062Z" fill="#0055B8"/>
<path d="M110.95 131.106C110.95 131.106 110.981 131.119 110.994 131.119C111 131.119 111.006 131.119 111.013 131.119C111.031 131.119 111.05 131.1 111.063 131.081L111.65 130.075C111.675 130.038 111.663 129.988 111.625 129.963L110.494 129.213C110.494 129.213 110.45 129.194 110.431 129.2C110.413 129.2 110.388 129.219 110.381 129.238L109.712 130.244C109.712 130.244 109.694 130.288 109.7 130.306C109.7 130.331 109.719 130.35 109.738 130.356L110.95 131.106Z" fill="#0055B8"/>
<path d="M132.237 129.662C132.237 129.662 132.187 129.744 132.15 129.8C132 130.025 131.938 130.131 131.938 130.2C131.938 130.225 131.95 130.25 131.975 130.269C131.987 130.281 132.006 130.281 132.025 130.281C132.031 130.281 132.044 130.281 132.05 130.281C132.475 130.131 133.787 129.644 137.644 128.144L137.737 128.106C137.737 128.106 137.762 128.094 137.775 128.081C137.8 128.044 138.031 127.737 138.075 127.65C138.075 127.637 138.081 127.625 138.081 127.612V127.569C138.081 127.525 138.044 127.487 138 127.487H137.956C137.956 127.487 137.937 127.487 137.925 127.487C137.106 127.8 133.081 129.325 132.281 129.619C132.262 129.625 132.244 129.644 132.237 129.662Z" fill="#0055B8"/>
<path d="M124.287 127.888C124.287 127.888 124.319 127.9 124.331 127.9C124.356 127.9 124.387 127.888 124.4 127.863L124.987 126.9C125.012 126.862 125 126.813 124.962 126.788L123.831 126.075C123.794 126.05 123.744 126.062 123.719 126.1L123.094 127.063C123.094 127.063 123.075 127.106 123.081 127.125C123.081 127.15 123.1 127.169 123.119 127.175L124.287 127.888Z" fill="#0055B8"/>
<path d="M118.619 127.775C118.856 127.737 118.981 127.731 118.981 127.731C119.456 127.731 119.669 127.762 119.762 127.781C119.712 127.812 119.625 127.856 119.544 127.906C119.45 127.956 119.344 128.012 119.231 128.081L118.987 128.212C118.731 128.356 118.575 128.437 118.5 128.512L118.419 128.594C118.419 128.594 118.387 128.656 118.4 128.687C118.412 128.719 118.444 128.737 118.475 128.737C118.487 128.737 118.537 128.737 118.662 128.694L118.781 128.662C119.344 128.512 119.65 128.431 119.831 128.294C119.956 128.169 120.169 127.956 120.337 127.7C120.506 127.494 120.606 127.262 120.606 127.187C120.606 126.95 120.269 126.856 119.438 126.856C119.225 126.856 119.106 126.856 119.031 126.9C118.881 126.906 118.744 126.975 118.625 127.094C118.619 127.1 118.612 127.106 118.606 127.112L118.4 127.519C118.344 127.581 118.344 127.637 118.344 127.65C118.344 127.775 118.462 127.775 118.606 127.775H118.619Z" fill="#0055B8"/>
<path d="M119.775 134.675C121.625 134.675 123.619 134.319 125.862 133.581C127.637 132.962 128.762 132.45 129.194 132.056C129.462 131.787 129.644 131.537 129.8 131.237C129.925 130.95 129.975 130.594 129.975 130.031C129.975 129.081 129.719 128.275 129.206 127.637C128.744 127.006 128.212 126.681 127.631 126.681C127.25 126.681 126.894 126.925 126.6 127.387C126.281 127.825 126.125 128.294 126.125 128.819C126.125 129.169 126.212 129.437 126.4 129.675C126.644 129.919 126.919 130.031 127.256 130.031H128.131C128.487 130.031 128.775 130.094 129.012 130.231C129.256 130.369 129.406 130.575 129.425 130.781C128.681 131.187 127.562 131.644 126.1 132.131C123.869 132.862 121.994 133.212 120.356 133.212C118.969 133.212 117.887 132.931 117.231 132.394C116.8 132.044 116.594 131.65 116.594 131.206C116.594 130.781 116.65 130.444 116.756 130.187C116.837 129.944 116.919 129.694 117.044 129.45C117.044 129.444 117.044 129.437 117.05 129.431C117.069 129.35 117.081 129.287 117.094 129.231C117.119 129.131 117.131 129.062 117.131 129C117.131 128.937 117.087 128.875 117.006 128.875C116.925 128.875 116.869 128.944 116.681 129.256C116.281 130.012 116.087 130.775 116.087 131.594C116.087 132.412 116.3 133.05 116.731 133.569C117.356 134.319 118.35 134.687 119.762 134.687L119.775 134.675ZM128.337 128.637C128.231 128.631 128.125 128.625 128.031 128.619C127.844 128.606 127.681 128.594 127.55 128.569C127.256 128.569 127.087 128.462 127.087 128.275C127.087 128.131 127.325 128.106 127.462 128.106C127.781 128.106 128.062 128.275 128.337 128.637Z" fill="#0055B8"/>
<path d="M74.0438 130.2C74.0438 130.2 74.0625 130.2 74.0688 130.2L74.4562 130.069C74.6187 129.988 74.7813 129.906 74.9563 129.863C75.0063 129.838 75.0562 129.813 75.1062 129.788C75.3187 129.681 75.5625 129.569 75.8063 129.394C76 129.238 76.1313 129.075 76.275 128.894L76.325 128.831C76.425 128.681 76.5063 128.5 76.5438 128.35C76.5875 128.225 76.6313 128.094 76.675 127.919C76.7063 127.706 76.7938 127.15 76.925 127.15C76.9438 127.15 76.9562 127.181 76.9812 127.225C77.0062 127.281 77.05 127.363 77.1375 127.363C77.15 127.363 77.1625 127.363 77.175 127.356C77.2125 127.338 77.2938 127.288 77.3063 127.213C77.3438 127.094 77.35 127.044 77.35 127.025C77.35 126.856 77.15 126.606 76.975 126.606C76.8 126.606 76.6563 126.763 76.5625 127.038C76.4875 127.263 76.4375 127.45 76.4063 127.606C76.35 127.425 76.2688 127.269 76.2125 127.15C76.0875 126.944 75.9063 126.819 75.725 126.819C75.7125 126.819 75.7 126.819 75.6875 126.825C75.5125 126.913 75.3937 127.019 75.3937 127.231C75.3937 127.306 75.45 127.363 75.5438 127.456C75.575 127.488 75.7063 127.575 75.8 127.575C75.8375 127.575 75.8688 127.563 75.8938 127.544C75.9375 127.594 76.0062 127.713 76.0625 127.881C76.1 128.013 76.1375 128.125 76.1688 128.206C76.2 128.294 76.225 128.369 76.225 128.4C76.225 128.45 76.1438 128.531 76.0813 128.594L75.5937 129.088C75.4687 129.169 75.3375 129.244 75.2063 129.313C75.0688 129.388 74.9313 129.463 74.8 129.544C74.7688 129.569 74.6875 129.606 74.6 129.65C74.1375 129.888 73.9688 129.994 73.9688 130.113C73.9688 130.138 73.9813 130.163 74.0063 130.181C74.0188 130.194 74.0375 130.2 74.0562 130.2H74.0438Z" fill="#0055B8"/>
<path d="M113.375 141.531C113.287 141.531 113.263 141.6 113.244 141.644C113.244 141.656 113.231 141.675 113.225 141.694C113.181 141.744 113.144 141.825 113.175 141.95C113.125 141.95 113.081 141.95 113.044 141.95C113.044 141.913 113.056 141.888 113.069 141.863C113.075 141.838 113.088 141.813 113.088 141.781C113.088 141.669 112.962 141.619 112.906 141.681L112.825 141.763C112.825 141.763 112.813 141.775 112.806 141.781L112.681 142.031C112.662 142.063 112.631 142.069 112.506 142.069C112.425 142.069 112.344 142.063 112.269 142.05C112.194 142.044 112.119 142.031 112.037 142.031C111.837 142.031 111.675 142.081 111.488 142.206C111.313 142.363 111.125 142.563 110.956 142.738C110.806 142.9 110.662 143.05 110.562 143.131C110.481 143.213 110.35 143.3 110.219 143.381C110.106 143.456 109.994 143.525 109.931 143.588C109.906 143.613 109.9 143.65 109.913 143.681C109.925 143.713 109.956 143.731 109.987 143.731C110.319 143.731 110.55 143.581 110.756 143.413C110.831 143.338 110.9 143.263 110.975 143.181C111.194 142.95 111.413 142.712 111.644 142.594C111.769 142.55 111.894 142.556 112.05 142.575C112.144 142.588 112.244 142.594 112.375 142.594C112.513 142.594 112.712 142.519 112.85 142.369C113.012 142.462 113.2 142.462 113.337 142.369C113.362 142.35 113.375 142.331 113.375 142.3C113.375 142.3 113.387 142.275 113.394 142.263C113.412 142.231 113.431 142.181 113.45 142.125C113.5 142.025 113.5 141.888 113.5 141.794C113.5 141.694 113.5 141.594 113.431 141.525C113.413 141.506 113.394 141.5 113.375 141.5V141.531Z" fill="#0055B8"/>
<path d="M92.5125 126.694C92.3687 126.338 92.2625 126.069 92.1812 125.863C92.1 125.656 92.05 125.519 92.0062 125.431C91.9625 125.338 91.9125 125.288 91.9062 125.281C91.8875 125.263 91.8687 125.256 91.85 125.256C91.7687 125.256 91.6937 125.319 91.6812 125.45C91.4 126.106 91.3062 126.388 91.3062 126.556C91.3062 126.569 91.3062 126.581 91.3125 126.594C91.4375 126.85 91.5125 127.219 91.5125 127.6C91.5125 127.869 91.6062 129.394 91.7625 131.788C91.9312 134.369 92.0937 137.575 92.0937 137.969C92.0937 138.256 92.05 138.425 91.95 138.494C91.1562 139.244 88.3687 141.694 85.8187 141.694C84.7687 141.694 83.9875 141.325 83.5062 140.606C82.9437 139.694 82.9187 138.581 83.425 137.219C83.5125 137.038 83.5562 136.9 83.5562 136.806C83.5562 136.669 83.4875 136.638 83.4312 136.638C83.3562 136.638 83.2875 136.7 83.1062 137.063C82.3937 138.488 82.4125 140.513 83.15 141.781C83.6625 142.725 84.5312 143.206 85.7312 143.206C88.1562 143.206 90.6 141.575 91.9437 139.956C92.3 139.5 92.5125 139.081 92.625 138.631C92.7687 138.088 92.8375 137.113 92.8375 135.556C92.8375 135.156 92.7125 132.344 92.5875 130.613C92.4812 129.131 92.4062 128.294 92.3812 128.081C92.7 128.462 92.8125 128.462 92.8562 128.462C92.9062 128.462 92.95 128.438 92.975 128.4C92.9937 128.369 93.0062 128.331 93.0062 128.281C93.0062 128.238 93.0062 128.144 92.9625 128.013C92.925 127.863 92.7875 127.481 92.5 126.706L92.5125 126.694Z" fill="#0055B8"/>
<path d="M114.712 136.806C114.625 136.806 114.6 136.875 114.581 136.919C114.575 136.937 114.569 136.956 114.55 136.987C114.45 137.344 114.362 137.594 114.312 137.737C114.269 137.869 114.256 137.9 114.256 137.925C114.256 138 114.313 138.1 114.406 138.194C114.438 138.225 114.475 138.262 114.494 138.287C114.406 138.375 114.225 138.431 114 138.431C113.806 138.431 113.575 138.356 113.431 138.244C113.2 138.012 113.163 137.894 113.163 137.862C113.163 137.862 113.206 137.694 113.287 137.319C113.325 137.181 113.331 137.081 113.287 137.019C113.269 136.994 113.231 136.962 113.169 136.962C113.05 136.962 112.987 137.025 112.887 137.125C112.781 137.294 112.669 137.469 112.556 137.644C112.444 137.819 112.325 138 112.225 138.156C111.863 138.6 111.469 138.794 110.95 138.794C110.063 138.794 109.944 138.456 109.944 138.169C109.944 138.069 109.975 137.875 110.069 137.644C110.1 137.512 110.094 137.419 110.044 137.356C110.013 137.312 109.963 137.294 109.906 137.294C109.831 137.294 109.731 137.35 109.644 137.437C109.106 137.85 108.525 138.181 107.906 138.431C107.131 138.731 106.438 138.887 105.844 138.887C104.781 138.887 104.206 138.637 103.388 137.819C103.181 137.656 102.981 137.45 102.8 137.231C102.369 136.894 102.081 136.756 101.831 136.756C101.256 136.756 100.675 137.137 100.138 137.856C100.1 137.844 100.063 137.844 100.031 137.844C99.925 137.844 99.7687 137.9 99.675 138.044C99.45 138.331 99.2563 138.512 99.1 138.662C99.05 138.706 99.0125 138.75 98.975 138.781C98.4938 139.175 97.975 139.394 97.5062 139.394C96.9062 139.394 96.4188 139.031 96.0938 138.35C95.7938 137.712 95.5938 136.55 95.5188 134.994C95.5063 134.606 95.4875 134.212 95.475 133.819C95.4125 132.006 95.35 130.125 95.1375 128.337C95.0188 127.131 94.8125 126.206 94.5438 125.675C94.4875 125.562 94.4375 125.462 94.3438 125.462C94.3125 125.462 94.2813 125.481 94.2688 125.506L94.1813 125.681C93.9813 126.156 93.8813 126.519 93.8813 126.756C93.8813 126.769 93.8813 126.775 93.8875 126.787C94.0875 127.275 94.2562 128.056 94.3812 129.106C94.5375 130.956 94.6188 132.9 94.7 134.781L94.7125 135.125C94.7875 137.025 94.975 138.531 95.2188 139.162C95.5875 140.219 96.4188 140.875 97.3875 140.875C98 140.875 98.6 140.606 99.0813 140.106C99.225 139.931 99.3688 139.719 99.575 139.394C100.65 140.419 101.475 140.894 102.15 140.894C102.394 140.894 102.625 140.75 102.8 140.487C103.012 140.237 103.094 139.875 103.138 139.556C103.85 140.156 104.563 140.394 105.625 140.394C106.263 140.394 106.95 140.225 107.669 139.881C108.188 139.637 108.663 139.35 109.113 138.987C109.169 138.931 109.194 138.906 109.219 138.894C109.263 139.819 109.769 140.306 110.681 140.306C111.444 140.306 112.063 139.9 112.519 139.1C112.806 139.606 113.175 139.887 113.562 139.887C114.1 139.887 114.544 139.619 114.806 139.131C115.038 138.712 115.15 138.237 115.15 137.669C115.15 137.569 115.1 137.381 115.019 137.175C114.913 136.906 114.813 136.787 114.688 136.787L114.712 136.806ZM101 138.394L101.081 138.344C101.231 138.269 101.394 138.225 101.462 138.225C101.656 138.225 101.788 138.3 101.906 138.494C102.044 138.631 102.131 138.806 102.175 139.019C102.175 139.119 102.175 139.219 102.175 139.225C102.069 139.225 101.825 139.144 101.469 138.9C101.169 138.712 100.981 138.562 100.869 138.462C100.9 138.444 100.95 138.412 101 138.381V138.394Z" fill="#0055B8"/>
<path d="M79.5187 132.162C79.1375 132.162 78.7812 132.406 78.4875 132.869C78.1687 133.306 78.0125 133.775 78.0125 134.3C78.0125 134.65 78.1 134.919 78.2875 135.156C78.5312 135.4 78.8062 135.512 79.1437 135.512H80.0187C80.2812 135.512 80.6062 135.587 80.9 135.712C81.175 135.869 81.3 136.012 81.3187 136.187C80.775 136.6 80.1562 136.962 79.5312 137.237C79.1187 137.412 78.775 137.556 78.4375 137.687C77.7687 137.956 77.1937 138.181 76.5187 138.575C75.775 138.95 75.175 139.406 74.6937 139.975C74.3187 140.394 73.975 140.819 73.6562 141.225C73.0937 141.744 72.5687 142 72.0437 142C71.7437 142 71.5375 141.906 71.4 141.7C71.2375 141.494 71.1687 141.262 71.1687 140.912C71.1687 140.525 71.3187 139.931 71.625 139.1C71.625 139.094 71.625 139.081 71.625 139.069C71.625 139.019 71.6437 138.962 71.675 138.912C71.8875 138.944 72.1 138.962 72.3062 138.962C73.2125 138.962 73.9062 138.65 74.2062 138.112C74.4125 137.781 74.5125 137.287 74.5125 136.606C74.5125 135.787 74.4187 135.1 73.9437 134.412C73.9062 134.375 73.8687 134.369 73.8437 134.369C73.7312 134.369 73.6687 134.506 73.6125 134.612L73.6 134.644C73.425 134.987 73.3375 135.337 73.3375 135.687C73.3375 135.725 73.35 135.756 73.3625 135.8C73.3625 135.819 73.3812 135.85 73.3812 135.856C73.3812 135.875 73.3812 135.887 73.3937 135.9C73.65 136.3 73.9437 136.781 73.9625 136.969C73.7812 137.312 73.1875 137.519 72.3625 137.519C72.1375 137.519 71.9062 137.5 71.725 137.475C72.0437 137.025 72.2062 136.381 72.2062 135.569C72.2062 135.144 72.15 134.812 72.0312 134.494C71.8437 134.031 71.6062 133.812 71.2875 133.812C70.9687 133.812 70.5562 134.131 70.1375 134.725C69.6812 135.306 69.45 135.944 69.45 136.619C69.45 136.956 69.475 137.3 69.625 137.581C69.4375 137.656 69.2375 137.694 69.0312 137.694C68.725 137.694 68.4437 137.606 68.2437 137.444C68.0187 137.269 67.9062 137.006 67.9062 136.7C67.9062 136.619 67.9062 136.594 67.9375 136.525C67.9375 136.512 67.9437 136.5 67.9437 136.487C67.9437 136.45 67.9562 136.406 67.9687 136.375C67.9812 136.337 67.9875 136.312 67.9875 136.281C67.9875 136.144 67.9062 136.075 67.8187 136.075C67.7437 136.075 67.6812 136.137 67.2125 136.606C66.9062 136.994 66.7187 137.175 66.675 137.206C66.6625 137.206 66.65 137.212 66.6437 137.225C66.2375 137.55 65.7562 137.725 65.2937 137.725C64.6 137.725 64.0125 137.356 63.6812 136.712C63.3812 136.075 63.1812 134.912 63.1062 133.356C63.0875 132.919 63.0875 132.6 63.0875 132.269C63.0875 131.937 63.0875 131.6 63.0687 131.144C63.025 129.744 62.9875 128.8 62.9437 128.337C62.825 127.131 62.6187 126.206 62.35 125.675C62.35 125.669 62.3437 125.662 62.3312 125.656C62.3 125.625 62.2812 125.594 62.2687 125.562C62.25 125.525 62.2187 125.462 62.15 125.462C62.0625 125.462 62.0375 125.544 62.0187 125.6C62.0125 125.625 62.0062 125.65 61.9875 125.681C61.7625 126.225 61.6437 126.537 61.6437 126.756C61.6437 126.769 61.6437 126.781 61.65 126.794C61.8937 127.281 62.0625 128.056 62.1437 129.106C62.1875 129.431 62.225 130.5 62.3125 133.487C62.3875 135.387 62.575 136.894 62.8187 137.525C63.2062 138.606 64.0312 139.275 64.9625 139.275C65.5125 139.275 66.075 139.044 66.5875 138.6C66.8937 138.294 67.1125 138.044 67.2625 137.806C67.5937 138.594 68.1062 139.025 68.8187 139.125C69.3625 139.175 69.8875 139.006 70.4625 138.594C70.6812 138.694 70.925 138.769 71.2187 138.844C70.8812 139.662 70.7062 140.4 70.7062 141.044C70.7062 141.644 70.8812 142.169 71.2312 142.606C71.5937 143.012 71.9937 143.219 72.425 143.219C72.9875 143.219 73.5125 142.919 74.0312 142.312C75.0312 141.169 75.6875 140.544 75.9812 140.275C76.225 140.112 76.6875 139.856 77.35 139.531C77.85 139.3 78.3375 139.087 78.8125 138.881C79.2875 138.675 79.775 138.462 80.2812 138.231C81.375 137.706 81.9562 136.744 81.9187 135.519C81.875 134.594 81.6 133.787 81.1062 133.131C80.6437 132.5 80.1125 132.175 79.5312 132.175L79.5187 132.162ZM80.225 134.119C79.925 134.094 79.675 134.094 79.5062 134.094H79.4437C79.0312 134.05 78.975 133.906 78.975 133.756C78.975 133.606 79.2125 133.587 79.35 133.587C79.6625 133.587 79.9687 133.775 80.225 134.119ZM70.6562 137.087C70.5062 137.006 70.3562 136.894 70.2125 136.787C70.0625 136.637 69.9875 136.494 69.95 136.387C70.0375 136.181 70.2437 135.906 70.5062 135.644C70.8562 135.231 71 135.212 71.0312 135.212C71.0625 135.212 71.175 135.244 71.3312 135.669C71.4875 135.981 71.525 136.219 71.5312 136.362C71.3687 136.631 71.0937 136.862 70.6562 137.087Z" fill="#0055B8"/>
<path d="M138.119 134.644C137.894 134.1 137.569 133.838 137.125 133.838C136.769 133.838 136.413 134.013 136.063 134.363C135.769 134.656 135.594 134.894 135.475 135.144C135.356 135.181 135.238 135.338 135.169 135.556C134.988 135.919 134.875 136.163 134.806 136.313C134.781 136.369 134.763 136.406 134.756 136.425C134.638 136.619 134.519 136.781 134.319 136.944C133.725 137.406 132.813 137.631 132.013 137.831C131.931 137.85 131.856 137.869 131.775 137.888C132.113 137.55 132.338 137.238 132.481 136.919C132.663 136.556 132.744 136.206 132.744 135.75C132.744 135.413 132.525 135.038 132.05 134.563C131.525 134.038 130.919 133.788 130.194 133.788C129.413 133.788 128.606 134.331 127.788 135.413C127.419 135.906 126.906 136.8 126.156 138.181C125.85 137.95 125.538 137.719 125.181 137.481C124.769 137.213 124.369 137.081 123.969 137.081C123.731 137.081 123.488 137.125 123.225 137.219C121.25 137.975 119.975 139.288 118.638 140.8C118.206 141.3 117.669 141.569 117.069 141.569C116.769 141.569 116.563 141.475 116.425 141.263C116.269 141.063 116.194 140.831 116.194 140.519C116.194 140.038 116.338 139.4 116.606 138.669C116.95 137.788 117.069 137.425 117.069 137.3C117.069 137.225 117.013 137.169 117 137.156C116.981 137.138 116.963 137.131 116.944 137.131C116.863 137.131 116.819 137.2 116.756 137.3L116.706 137.381C116.044 138.663 115.694 139.775 115.694 140.6C115.694 141.2 115.869 141.725 116.219 142.163C116.588 142.575 116.988 142.775 117.45 142.775C117.994 142.775 118.55 142.463 119.063 141.869C120.225 140.513 121.525 139.15 123.494 138.631C123.925 138.506 124.256 138.556 124.769 138.838C124.819 138.863 125.006 138.994 125.263 139.181C125.388 139.275 125.538 139.381 125.713 139.506C125.588 139.838 125.519 140.063 125.519 140.231C125.519 140.344 125.575 140.406 125.588 140.413C125.606 140.431 125.625 140.438 125.644 140.438C125.831 140.438 126.013 139.994 126.113 139.669C126.575 139.85 127.025 139.931 127.525 139.931C128.7 139.931 129.744 139.8 130.806 139.513C130.981 139.469 131.181 139.425 131.388 139.375C132.369 139.156 133.594 138.881 134.231 138.275C134.663 137.881 135 137.375 135.256 136.713C136.1 137.325 136.881 137.625 137.644 137.625C137.856 137.625 138.05 137.425 138.181 137.069C138.325 136.688 138.394 136.3 138.394 135.913C138.394 135.4 138.306 134.963 138.138 134.625L138.119 134.644ZM136.038 135.519C136.038 135.519 136.069 135.469 136.125 135.413C136.288 135.331 136.444 135.3 136.663 135.3C136.806 135.3 136.944 135.363 137.075 135.494C137.244 135.619 137.344 135.769 137.375 135.931C137.375 135.994 137.394 136.044 137.406 136.075C137.406 136.081 137.413 136.094 137.413 136.1C137.413 136.138 137.413 136.144 137.369 136.144C137.325 136.144 137.319 136.144 137.3 136.125C137.288 136.113 137.275 136.106 137.263 136.106C136.763 135.981 136.338 135.781 136.038 135.525V135.519ZM127.675 138.563C127.331 138.563 126.994 138.5 126.706 138.394C127.806 136.256 128.894 135.175 129.938 135.175C130.419 135.175 130.906 135.381 131.394 135.788C131.819 136.094 132.025 136.344 132.063 136.488C132.05 136.494 132.044 136.5 132.038 136.513C131.8 136.913 131.263 137.325 130.4 137.775C129.344 138.306 128.45 138.563 127.681 138.563H127.675Z" fill="#0055B8"/>
<path d="M137.287 140.069C137.144 140.069 137.044 140.113 136.937 140.219C136.856 140.3 136.812 140.381 136.769 140.456C136.737 140.475 136.719 140.5 136.706 140.519C136.7 140.531 136.694 140.538 136.681 140.55C136.675 140.55 136.669 140.563 136.662 140.569L136.537 140.819C136.494 140.913 136.375 141.1 136.231 141.206C135.537 141.644 134.744 142.025 133.731 142.413C133.562 142.494 133.487 142.531 133.331 142.575C133.287 142.588 133.262 142.625 133.269 142.669C133.269 142.713 133.312 142.744 133.35 142.744C133.519 142.744 133.7 142.744 133.825 142.7C134.537 142.556 136.012 142.263 136.556 141.488C136.644 141.338 136.719 141.163 136.762 141.05C136.762 141.044 136.762 141.038 136.769 141.031C136.962 141.163 137.194 141.238 137.4 141.238C137.512 141.238 137.581 141.106 137.6 141.069C137.65 140.969 137.65 140.831 137.65 140.7C137.65 140.569 137.65 140.431 137.6 140.325C137.512 140.15 137.406 140.069 137.275 140.069H137.287ZM137.094 140.581C137.094 140.581 137.112 140.569 137.119 140.569C137.162 140.569 137.187 140.588 137.225 140.625C137.237 140.638 137.244 140.644 137.25 140.669V140.681C137.187 140.656 137.119 140.631 137.062 140.594C137.075 140.594 137.081 140.588 137.094 140.581Z" fill="#0055B8"/>
<path d="M131.312 140.863C131.169 140.863 130.987 140.95 130.75 141.138L130.356 141.531H129.994C129.769 141.588 129.562 141.694 129.381 141.838C129.212 141.963 128.994 142.138 128.825 142.35C128.631 142.581 128.412 142.844 128.294 142.925C128.094 143.094 127.919 143.206 127.794 143.288L127.719 143.338C127.6 143.419 127.519 143.456 127.519 143.456C127.481 143.475 127.469 143.513 127.475 143.55C127.481 143.588 127.519 143.613 127.556 143.613H127.6C127.6 143.613 127.737 143.613 127.919 143.569C128 143.544 128.206 143.463 128.362 143.3C128.494 143.194 128.619 143.063 128.744 142.938C128.862 142.819 128.994 142.688 129.119 142.581C129.425 142.275 129.694 142.144 130.019 142.144H130.206C130.294 142.188 130.35 142.188 130.431 142.188C130.731 142.188 131 142.106 131.281 141.919C131.55 141.694 131.687 141.463 131.687 141.225C131.687 140.988 131.55 140.85 131.312 140.85V140.863ZM131.169 141.45C131.137 141.463 131.1 141.481 131.069 141.5C130.925 141.569 130.781 141.613 130.644 141.619C130.9 141.388 131.081 141.325 131.144 141.325C131.25 141.325 131.3 141.344 131.331 141.363C131.294 141.388 131.237 141.419 131.169 141.45Z" fill="#0055B8"/>
<path d="M80.6062 139.819C80.5375 139.819 80.4812 139.888 80.425 139.963C80.4062 139.981 80.3937 140 80.3812 140.013C80.375 140.013 80.3687 140.025 80.3625 140.031C80.325 140.106 80.2875 140.138 80.2 140.238C80.0125 140.544 79.875 140.806 79.7812 141.038C79.5562 141.494 79.5187 141.806 79.5187 142.081C79.5187 142.663 79.7562 142.75 79.8937 142.75C80.075 142.75 80.2375 142.631 80.35 142.4C80.3875 142.287 80.4312 142.119 80.4375 141.944C80.4812 141.881 80.4812 141.794 80.4812 141.75C80.4812 141.619 80.425 141.594 80.375 141.594C80.3 141.594 80.25 141.688 80.2375 141.75C80.1875 141.794 80.1375 141.794 80.1062 141.794C80.0687 141.794 79.9812 141.794 79.9812 141.587C79.9812 141.344 80.1687 140.944 80.4687 140.381C80.5562 140.256 80.6437 140.119 80.6875 139.987C80.6875 139.981 80.6875 139.969 80.6875 139.963V139.919C80.6875 139.919 80.6812 139.875 80.6625 139.863C80.6437 139.85 80.625 139.838 80.6062 139.838V139.819Z" fill="#0055B8"/>
<path d="M70.9687 129.781C70.9687 129.781 70.925 129.8 70.9187 129.819L70.4625 130.544L69.5312 129.925C69.4937 129.9 69.4437 129.906 69.4187 129.944L68.75 130.863C68.75 130.863 68.7312 130.906 68.7375 130.925C68.7437 130.944 68.7562 130.969 68.775 130.981L69.9062 131.731C69.9062 131.731 69.9375 131.744 69.95 131.744C69.95 131.744 69.9625 131.744 69.9687 131.744C69.9875 131.744 70.0125 131.725 70.0187 131.706L70.475 131.019L71.45 131.644C71.45 131.644 71.4937 131.662 71.5125 131.656C71.5375 131.656 71.5562 131.638 71.5625 131.619L72.15 130.613C72.175 130.575 72.1625 130.525 72.125 130.5L71.0375 129.788C71.0375 129.788 70.9937 129.769 70.975 129.775L70.9687 129.781Z" fill="#0055B8"/>
<path d="M64.3 129.95C64.3 129.95 64.3188 129.95 64.3313 129.95C65.3 129.569 72.6375 126.819 73.3563 126.562C73.375 126.562 73.3875 126.55 73.3938 126.531C73.4188 126.494 73.6563 126.181 73.7 126.05C73.7 126.044 73.7 126.031 73.7 126.025V125.981C73.7 125.937 73.6625 125.9 73.6188 125.9H73.575C73.575 125.9 73.5563 125.9 73.5438 125.9C72.7125 126.219 65.3563 128.994 64.5625 129.244C64.5438 129.25 64.525 129.269 64.5125 129.287C64.5 129.312 64.4688 129.362 64.4375 129.419C64.2813 129.675 64.2125 129.8 64.2125 129.869C64.2125 129.894 64.225 129.925 64.25 129.937C64.2625 129.95 64.2813 129.95 64.3 129.95Z" fill="#0055B8"/>
<path d="M65.7688 132.131C65.2938 132.35 65.0438 132.475 64.9063 132.606L64.825 132.688C64.825 132.688 64.7938 132.75 64.8063 132.781C64.8188 132.812 64.85 132.831 64.8813 132.831C64.8938 132.831 64.9438 132.831 65.1125 132.788C65.3 132.731 65.4688 132.687 65.6125 132.644C66.05 132.519 66.2938 132.456 66.4 132.344C66.5688 132.175 66.825 131.919 67.0313 131.631C67.2438 131.375 67.3438 131.15 67.3438 131.075C67.3438 130.787 66.9188 130.656 66.0063 130.656C65.7375 130.656 65.5938 130.656 65.5188 130.7C65.3063 130.712 65.1125 130.838 65.0563 130.95L64.8125 131.4C64.725 131.488 64.7125 131.55 64.7125 131.575C64.7125 131.7 64.85 131.7 65.0188 131.7C65.3 131.662 65.425 131.656 65.425 131.656C66.1125 131.656 66.3375 131.7 66.4063 131.725C66.3688 131.75 66.2375 131.831 66.1125 131.906C66.0063 131.969 65.8875 132.044 65.7688 132.119V132.131Z" fill="#0055B8"/>
<path d="M69.1938 141.044C69.1563 141.019 69.1063 141.031 69.0813 141.069L68.5875 141.794L67.6563 141.131C67.6563 141.131 67.6125 141.112 67.5938 141.119C67.5688 141.119 67.55 141.138 67.5375 141.156L66.8688 142.119C66.8688 142.119 66.85 142.163 66.8563 142.181C66.8625 142.2 66.875 142.225 66.8938 142.238L68.0625 142.988C68.0625 142.988 68.0938 143 68.1063 143C68.1063 143 68.1188 143 68.125 143C68.15 143 68.1688 142.981 68.175 142.963L68.5875 142.281L69.6 142.944C69.6 142.944 69.6438 142.962 69.6625 142.956C69.6875 142.956 69.7063 142.938 69.7125 142.919L70.3 141.875C70.3188 141.838 70.3125 141.788 70.275 141.763L69.1875 141.05L69.1938 141.044Z" fill="#0055B8"/>
<path d="M64.8875 141.044C64.85 141.019 64.8 141.031 64.775 141.069L64.2813 141.794L63.35 141.131C63.35 141.131 63.3063 141.112 63.2875 141.119C63.2625 141.119 63.2438 141.138 63.2313 141.156L62.6063 142.119C62.5813 142.156 62.5938 142.206 62.6313 142.231L63.7625 142.981C63.7625 142.981 63.7938 142.994 63.8063 142.994C63.8063 142.994 63.8188 142.994 63.825 142.994C63.8438 142.994 63.8688 142.975 63.875 142.956L64.3313 142.275L65.35 142.944C65.35 142.944 65.3938 142.962 65.4188 142.956C65.4438 142.956 65.4625 142.938 65.4688 142.913L66.0125 141.869C66.0313 141.831 66.0188 141.781 65.9813 141.763L64.8938 141.05L64.8875 141.044Z" fill="#0055B8"/>
<path d="M78.85 130.106C78.85 130.106 78.875 130.119 78.8937 130.119C78.9 130.119 78.9062 130.119 78.9125 130.119C78.9312 130.119 78.95 130.1 78.9625 130.081L79.55 129.075C79.575 129.037 79.5625 128.987 79.525 128.962L78.3937 128.212C78.3937 128.212 78.35 128.194 78.3312 128.2C78.3062 128.2 78.2875 128.219 78.2812 128.237L77.6125 129.281C77.6125 129.281 77.5937 129.325 77.6 129.344C77.6 129.369 77.6187 129.387 77.6375 129.394L78.85 130.106Z" fill="#0055B8"/>
<defs>
<linearGradient id="paint0_linear_2_97" x1="72.5187" y1="70.9937" x2="123.781" y2="122.256" gradientUnits="userSpaceOnUse">
<stop stop-color="#54565A"/>
<stop offset="1" stop-color="#54565A" stop-opacity="0.5"/>
</linearGradient>
<linearGradient id="paint1_linear_2_97" x1="99.475" y1="58.725" x2="99.475" y2="102.35" gradientUnits="userSpaceOnUse">
<stop stop-color="white" stop-opacity="0.5"/>
<stop offset="0.21" stop-color="#BED4ED" stop-opacity="0.37"/>
<stop offset="0.57" stop-color="#578FD0" stop-opacity="0.17"/>
<stop offset="0.85" stop-color="#1865BE" stop-opacity="0.05"/>
<stop offset="1" stop-color="#0055B8" stop-opacity="0"/>
</linearGradient>
</defs>
</svg>
