<svg width="200" height="200" viewBox="0 0 200 200" fill="none" xmlns="http://www.w3.org/2000/svg">
<path fill-rule="evenodd" clip-rule="evenodd" d="M83.5312 101.219H116.65C119.669 101.219 122.131 98.75 122.131 95.7375V62.6188C122.131 59.6 119.662 57.1375 116.65 57.1375H83.5312C80.5125 57.1375 78.05 59.6063 78.05 62.6188V95.7375C78.05 98.7563 80.5187 101.219 83.5312 101.219ZM82.8687 102.1H117.312C120.45 102.1 123.019 99.5313 123.019 96.3938V61.95C123.019 58.8125 120.45 56.2438 117.312 56.2438H82.8687C79.7312 56.2438 77.1625 58.8125 77.1625 61.95V96.3938C77.1625 99.5313 79.7312 102.1 82.8687 102.1Z" fill="#002C4B"/>
<path d="M147.975 120.969C147.975 118.75 149.263 117.631 151.019 117.631C152.588 117.631 154.194 118.769 154.194 121.381C154.194 124.331 152.325 124.85 151.469 124.85C149.531 124.85 147.981 123.544 147.981 120.969M146.869 121.25C146.869 122.369 146.925 123.844 145.825 124.531C145.488 124.737 145.119 124.85 144.744 124.869V125.281C145.937 125.187 147 124.556 147.394 123.306C148.044 124.5 149.331 125.281 151.012 125.281C153.381 125.281 155.288 123.562 155.288 121.1C155.213 118.844 153.7 117.237 151.088 117.237C148.475 117.237 146.869 119.231 146.869 121.25ZM138.794 117.669C140.625 117.669 141.556 119.681 141.556 121.419C141.556 123.375 140.4 124.869 138.512 124.869H131.962V120.594C131.962 119.25 132.762 117.662 134.219 117.662H138.787L138.794 117.669ZM139 117.275C138.662 117.256 138.587 117.256 138.512 117.256H134.219C133.325 117.256 132.556 117.925 131.962 118.544C131.962 117.65 132.019 117.406 132.612 117.406C132.669 117.406 132.706 117.387 132.706 117.35C132.706 117.294 132.631 117.237 132.537 117.237H130.262C130.169 117.237 130.094 117.312 130.094 117.35C130.094 117.387 130.113 117.406 130.169 117.406C130.637 117.406 130.931 117.462 130.969 118.025C130.988 118.344 130.988 120.094 130.988 121.831V124.875H128.844V125.288H138.6C140.094 125.288 141.362 124.412 142.05 123.219C142.425 124.544 143.506 125.194 144.738 125.288V124.875C142.5 124.781 142.612 122.45 142.612 121.106C142.612 118.906 141.006 117.506 138.994 117.281L139 117.275ZM126.737 120.206V118.006C126.737 117.669 126.794 117.519 127.113 117.444C127.356 117.388 127.469 117.444 127.469 117.312C127.469 117.275 127.469 117.237 127.3 117.237C126.537 117.237 125.731 117.256 124.931 117.256C124.894 117.275 124.875 117.275 124.875 117.312C124.875 117.425 124.988 117.444 125.062 117.444C125.138 117.444 125.212 117.425 125.269 117.425C125.719 117.425 125.775 117.781 125.775 118.025V123.194C125.775 126.437 125.362 126.4 124.244 127.487C125.644 126.962 126.725 125.975 126.725 124.481C126.725 124.387 126.725 124.312 126.706 124.237C127.231 124.894 128.012 125.206 128.85 125.281V124.869C127.169 124.775 126.8 123.356 126.744 122.163V120.206H126.737ZM120.056 114.462C119.587 114.462 119.256 114.837 119.256 115.262C119.256 115.687 119.594 116.062 120.056 116.062C120.487 116.062 120.856 115.706 120.856 115.262C120.856 114.819 120.481 114.462 120.056 114.462ZM116.944 120.969C116.944 118.769 118.175 117.612 120.006 117.612C121.837 117.612 123.181 119.163 123.181 121.381C123.181 123.806 121.819 124.85 120.288 124.85C118.606 124.85 116.95 123.619 116.95 120.969H116.944ZM120.225 125.281V125.262C122.762 125.15 124.237 123.194 124.237 121.081C124.237 118.619 122.35 117.237 120.056 117.237C116.494 117.237 115.819 120.094 115.819 121.25C115.819 122.556 116.456 124.087 118.019 124.869H112.794C110.669 124.869 109.806 123.113 109.806 121.381C109.806 120.8 109.919 120.225 110.106 119.719H108.988C108.819 120.15 108.744 120.612 108.744 121.081C108.744 123.619 110.681 125.281 112.794 125.281H120.219H120.225ZM103.75 124.312C103.731 124.856 103.656 125.094 103.112 125.112C103.037 125.112 103.019 125.131 103.019 125.169C103.019 125.206 103.094 125.281 103.188 125.281H105.463C105.556 125.281 105.612 125.206 105.612 125.169C105.612 125.131 105.594 125.112 105.537 125.112C104.919 125.094 104.737 125.056 104.737 124.05C104.719 115.487 104.7 114.531 104.756 113.619C104.775 113.056 105.094 113.037 105.537 113.019C105.594 113.019 105.612 113 105.612 112.981C105.612 112.925 105.556 112.869 105.463 112.869H103.188C103.094 112.869 103.019 112.925 103.019 112.981C103.019 113 103.037 113.019 103.112 113.019C103.544 113.037 103.731 113.15 103.75 113.619V124.312ZM98.1688 125.281C101.675 125 101.269 122 101.269 119.406V113.806C101.269 113.225 101.363 113.025 101.919 113.025C101.956 113.025 101.994 112.987 101.994 112.95C101.994 112.875 101.956 112.856 101.844 112.856H99.55C99.4562 112.856 99.3812 112.856 99.3812 112.95C99.3812 113.044 99.8125 113.044 99.9062 113.062C100.319 113.156 100.281 113.456 100.281 114.069C100.319 114.162 100.319 118.694 100.319 118.844V121.681C100.319 123.025 100.094 124.744 98.175 124.875V125.288L98.1688 125.281ZM92.2188 117.669C94.05 117.669 94.9812 119.681 94.9812 121.419C94.9812 123.375 93.825 124.869 91.9375 124.869H85.3875V120.594C85.3875 119.25 86.1875 117.662 87.6437 117.662H92.2125L92.2188 117.669ZM92.425 117.275C92.0875 117.256 92.0125 117.256 91.9375 117.256H87.6437C86.75 117.256 85.9812 117.925 85.3875 118.544C85.3875 117.65 85.4438 117.406 86.0375 117.406C86.0938 117.406 86.1312 117.387 86.1312 117.35C86.1312 117.294 86.0562 117.237 85.9625 117.237H83.6875C83.5937 117.237 83.5188 117.312 83.5188 117.35C83.5188 117.387 83.5375 117.406 83.5938 117.406C84.0625 117.406 84.3562 117.462 84.3937 118.025C84.4125 118.344 84.4125 120.094 84.4125 121.831V124.875H82.2688V125.288H92.025C93.5188 125.288 94.7875 124.412 95.475 123.219C95.85 124.544 96.9312 125.194 98.1625 125.288V124.875C95.925 124.781 96.0375 122.45 96.0375 121.106C96.0375 118.906 94.4312 117.506 92.4187 117.281L92.425 117.275ZM80.15 122.131C80.1313 120.338 78.5812 118.831 76.7938 118.831C74.8687 118.831 72.9312 118.906 70.9 118.756C69.7625 118.681 68.55 118.4 67.9312 117.338C68.2312 117.825 68.75 119.281 70.225 119.65C72.1812 119.969 74.2937 119.819 76.2687 119.819C76.7937 119.819 77.2938 119.819 77.8187 119.838C78.8062 119.913 79.2938 120.919 79.2938 121.85C79.2938 123.213 78.5875 124.875 77.1875 124.875H67.65V125.288H77.425C78.45 125.288 79.2937 124.506 79.7562 123.662C80.225 124.687 81.1937 125.194 82.275 125.288V124.875C80.6125 124.8 80.1688 123.381 80.15 122.131ZM67.6437 124.869C65.7063 124.737 65.5187 123 65.5187 121.656C65.5187 119.994 65.5375 115.8 65.5375 113.612C65.5375 113.181 65.7062 113.013 66.3375 113.013C66.375 113.013 66.4125 112.975 66.4125 112.937C66.4125 112.844 66.3375 112.844 66.2437 112.844H63.9875C63.875 112.844 63.8187 112.862 63.8187 112.937C63.8187 113.031 64.3062 113.05 64.3812 113.125C64.5688 113.294 64.55 113.575 64.55 114.056V120.55C64.55 122.806 64.625 125.025 67.65 125.269V124.856L67.6437 124.869ZM62.1625 120.206V118.212C62.1625 117.725 62.275 117.412 62.7812 117.412C62.8375 117.412 62.8937 117.394 62.8937 117.319C62.8937 117.281 62.875 117.244 62.725 117.244C61.9437 117.244 61.1187 117.262 60.3375 117.262C60.3125 117.275 60.3 117.294 60.3 117.319C60.3 117.469 60.6937 117.412 60.75 117.45C61.1437 117.45 61.2187 117.937 61.2187 118.231C61.2187 118.681 61.2 120.3 61.2 123.175C61.2 126.05 60.825 126.569 59.6875 127.487C60.8625 127.094 61.7187 126.237 62 125.137C62.1125 124.706 62.1687 123.662 62.1687 122.469V120.212L62.1625 120.206ZM47.5125 125.056C48.0937 125.262 48.575 125.3 49.2125 125.3H56.6937C57.2187 125.3 57.7188 125.3 58.2437 125.15C59.1187 124.906 59.6625 124.256 59.6625 123.506C59.6625 123.075 59.475 122.613 59.0625 122.181C58.1125 121.194 56.6187 121.212 55.275 121.212C54.4562 121.212 53.65 121.231 52.8312 121.231C52.125 121.137 50.5937 120.669 50.5937 119.625C50.5937 118.937 51.5062 118.263 52.35 118.225C52.7812 118.225 53.2437 118.244 53.7125 118.244C54.5687 118.244 55.45 118.169 56.1375 117.662C57.05 116.975 57.6312 115.756 57.6312 115.719C56.9812 116.912 55.5437 117.156 54.1812 117.212C53.2125 117.25 52.0937 117.287 51.25 117.85C50.6125 118.262 50.1875 118.912 50.1875 119.625C50.1875 119.906 50.2437 120.169 50.3937 120.444C50.9187 121.469 51.775 121.994 52.7812 122.012H57C58.1187 122.012 59.2 122.775 59.2 123.487C59.2 123.825 58.975 124.194 58.4375 124.531C57.9125 124.85 57.3187 124.906 56.7187 124.906C54.0687 124.906 51.625 124.888 48.9375 124.888C46.85 124.888 45.7625 123.225 45.7625 121.419C45.7625 120.856 45.875 120.281 46.0813 119.737H44.9625C44.7937 120.169 44.7188 120.65 44.7188 121.138C44.7188 123.113 45.9687 124.531 47.5187 125.056H47.5125Z" fill="#002C4B"/>
<path d="M146.05 139.644C146.05 140.95 146.05 142.012 145.963 142.575C145.919 142.981 145.875 143.231 145.6 143.3C145.488 143.344 145.306 143.369 145.169 143.369C145.1 143.369 145.056 143.437 145.056 143.481C145.056 143.569 145.144 143.594 145.281 143.594C145.713 143.594 146.569 143.55 146.681 143.55C146.769 143.55 147.631 143.594 148.331 143.594C148.488 143.594 148.556 143.55 148.556 143.481C148.556 143.437 148.513 143.369 148.444 143.369C148.306 143.369 148.081 143.344 147.881 143.3C147.45 143.231 147.406 142.981 147.338 142.575C147.269 142.012 147.269 140.95 147.269 139.644V138.312H147.338C148.013 139.1 150.969 142.237 151.6 142.737C152.206 143.187 152.594 143.506 153.313 143.575C153.631 143.6 153.9 143.6 154.281 143.6H155.006C155.256 143.6 155.325 143.556 155.325 143.487C155.325 143.419 155.238 143.375 155.144 143.375C155.05 143.375 154.65 143.331 154.262 143.194C153.606 142.925 153.45 142.744 152.275 141.681C151.688 141.162 148.756 138.231 148.394 137.825C148.687 137.487 151.1 135.206 151.438 134.869C152.069 134.281 152.337 133.969 152.906 133.719C153.2 133.606 153.494 133.537 153.694 133.537C153.806 133.537 153.831 133.494 153.831 133.425C153.831 133.356 153.788 133.312 153.625 133.312C153.288 133.312 152.363 133.356 152.269 133.356C151.931 133.356 151.5 133.312 151.231 133.312C151.119 133.312 151.05 133.356 151.05 133.425C151.05 133.469 151.094 133.537 151.187 133.537C151.3 133.562 151.369 133.65 151.369 133.806C151.369 134.031 150.988 134.394 150.6 134.775C150.056 135.337 147.556 137.8 147.331 138.069H147.262V137.256C147.262 135.137 147.262 134.75 147.306 134.325C147.331 133.85 147.444 133.65 147.8 133.581C147.981 133.537 148.05 133.537 148.138 133.537C148.206 133.537 148.25 133.494 148.25 133.425C148.25 133.356 148.181 133.312 148.05 133.312C147.619 133.312 146.763 133.356 146.65 133.356C146.581 133.356 145.7 133.312 145.069 133.312C144.913 133.312 144.844 133.356 144.844 133.425C144.844 133.494 144.912 133.537 144.956 133.537C145.094 133.537 145.319 133.562 145.431 133.581C145.906 133.65 145.975 133.85 146.019 134.325C146.044 134.756 146.044 135.137 146.044 137.256V139.65L146.05 139.644ZM133.1 135.331C133.531 135.806 135.131 137.475 136.756 139.169C138.225 140.725 140.256 142.731 140.412 142.869C141.2 143.569 141.338 143.681 141.475 143.681C141.563 143.681 141.588 143.612 141.588 142.712L141.631 134.769C141.631 133.956 141.656 133.687 142.125 133.575C142.262 133.55 142.375 133.55 142.444 133.55C142.556 133.55 142.625 133.462 142.625 133.412C142.625 133.325 142.488 133.325 142.356 133.325C141.769 133.325 141.319 133.35 141.163 133.35C141.006 133.35 140.325 133.325 139.694 133.325C139.538 133.325 139.425 133.325 139.425 133.412C139.425 133.456 139.425 133.55 139.538 133.55C139.65 133.55 139.969 133.575 140.212 133.619C140.644 133.687 140.731 134 140.756 134.881L140.894 141.675C140.462 141.225 138.975 139.6 137.575 138.175C135.387 135.944 133.356 133.775 133.131 133.55C132.975 133.394 132.75 133.144 132.588 133.144C132.475 133.144 132.406 133.281 132.406 133.819V141.581C132.406 142.825 132.338 143.181 132 143.294C131.794 143.362 131.525 143.362 131.413 143.362C131.344 143.362 131.3 143.406 131.3 143.475C131.3 143.562 131.387 143.587 131.525 143.587C132.156 143.587 132.769 143.544 132.9 143.544C133.013 143.544 133.575 143.587 134.369 143.587C134.525 143.587 134.638 143.562 134.638 143.475C134.638 143.406 134.569 143.362 134.5 143.362C134.388 143.362 134.069 143.362 133.8 143.294C133.419 143.181 133.306 142.862 133.256 141.737L133.1 135.331ZM123.462 139.237C123.419 139.237 123.394 139.212 123.419 139.15L124.725 135.425C124.812 135.219 124.881 135.219 124.95 135.425L126.35 139.15C126.375 139.219 126.375 139.237 126.306 139.237H123.462ZM121.431 142.1C121.162 142.775 120.888 143.25 120.256 143.319C120.144 143.344 119.938 143.362 119.825 143.362C119.756 143.362 119.712 143.406 119.712 143.475C119.712 143.544 119.8 143.587 119.981 143.587C120.544 143.587 121.269 143.544 121.4 143.544C121.556 143.544 122.325 143.587 122.662 143.587C122.775 143.587 122.863 143.562 122.863 143.475C122.863 143.406 122.819 143.362 122.706 143.362H122.594C122.344 143.362 122.119 143.275 122.119 143C122.119 142.75 122.188 142.412 122.319 142.075L123.106 139.906C123.131 139.837 123.194 139.794 123.263 139.794H126.488C126.575 139.794 126.6 139.819 126.625 139.881L127.887 142.994C127.975 143.219 127.844 143.331 127.75 143.356C127.681 143.381 127.663 143.381 127.663 143.444C127.663 143.531 127.888 143.531 128.156 143.556C129.125 143.581 130.162 143.581 130.369 143.581C130.525 143.581 130.688 143.556 130.688 143.469C130.688 143.381 130.6 143.356 130.506 143.356C130.369 143.356 130.169 143.356 129.962 143.287C129.644 143.175 129.262 142.994 128.769 141.8C127.912 139.725 125.656 134.131 125.387 133.562C125.25 133.244 125.206 133.069 125.05 133.069C124.963 133.069 124.912 133.137 124.731 133.587L121.412 142.094L121.431 142.1ZM113.444 138.287C113.444 138.219 113.469 138.2 113.512 138.2C113.737 138.2 114.438 138.2 114.619 138.225C114.956 138.294 115.406 138.294 115.881 138.587C116.988 139.287 117.238 140.462 117.238 141.069C117.238 142.806 116.112 143.144 115.181 143.144C114.912 143.144 114.325 143.119 113.938 142.962C113.506 142.756 113.506 142.581 113.444 141.95V138.294V138.287ZM113.444 133.956C113.444 133.887 113.488 133.844 113.625 133.819C113.825 133.775 114.188 133.75 114.325 133.75C115.744 133.75 116.331 134.9 116.331 135.937C116.331 136.594 116.081 137.044 115.787 137.406C115.494 137.725 115.181 137.744 114.388 137.744C113.869 137.744 113.619 137.7 113.531 137.675C113.462 137.65 113.444 137.631 113.444 137.537V133.95V133.956ZM112.231 139.644C112.231 140.95 112.231 142.012 112.144 142.575C112.1 142.981 112.075 143.3 111.781 143.344C111.669 143.369 111.488 143.412 111.35 143.412C111.281 143.412 111.237 143.437 111.237 143.481C111.237 143.569 111.325 143.594 111.463 143.594C111.688 143.594 112.025 143.594 112.319 143.569C112.588 143.569 112.863 143.544 112.881 143.544C112.95 143.544 113.356 143.569 113.806 143.569C114.237 143.612 114.756 143.612 115 143.612C117.412 143.612 118.544 142.125 118.544 140.612C118.544 139.1 117.144 138.106 116.062 137.794C116.787 137.137 117.481 136.487 117.481 135.4C117.481 134.675 116.875 133.325 114.525 133.325C113.869 133.325 113.219 133.35 112.875 133.35C112.806 133.35 111.881 133.325 111.25 133.325C111.094 133.325 111.025 133.35 111.025 133.437C111.025 133.481 111.094 133.506 111.138 133.506C111.275 133.506 111.5 133.531 111.613 133.55C112.088 133.619 112.156 133.869 112.2 134.319C112.225 134.769 112.225 135.156 112.225 137.25V139.644H112.231ZM99.2562 139.237C99.2125 139.237 99.1875 139.212 99.2125 139.15L100.519 135.425C100.606 135.219 100.675 135.219 100.744 135.425L102.144 139.15C102.169 139.219 102.169 139.237 102.1 139.237H99.2562ZM97.225 142.1C96.9562 142.775 96.6812 143.25 96.05 143.319C95.9375 143.344 95.7313 143.362 95.6188 143.362C95.55 143.362 95.5062 143.406 95.5062 143.475C95.5062 143.544 95.5938 143.587 95.775 143.587C96.3375 143.587 97.0625 143.544 97.1937 143.544C97.35 143.544 98.1188 143.587 98.4562 143.587C98.5687 143.587 98.6625 143.562 98.6625 143.475C98.6625 143.406 98.6188 143.362 98.5063 143.362H98.3937C98.1437 143.362 97.9188 143.275 97.9188 143C97.9188 142.75 97.9875 142.412 98.1188 142.075L98.9062 139.906C98.9313 139.837 98.9938 139.794 99.0625 139.794H102.288C102.375 139.794 102.4 139.819 102.425 139.881L103.687 142.994C103.775 143.219 103.644 143.331 103.55 143.356C103.481 143.381 103.462 143.381 103.462 143.444C103.462 143.531 103.688 143.531 103.956 143.556C104.925 143.581 105.962 143.581 106.169 143.581C106.325 143.581 106.488 143.556 106.488 143.469C106.488 143.381 106.4 143.356 106.306 143.356C106.169 143.356 105.969 143.356 105.763 143.287C105.444 143.175 105.062 142.994 104.569 141.8C103.712 139.725 101.456 134.131 101.181 133.562C101.044 133.244 101 133.069 100.844 133.069C100.756 133.069 100.706 133.137 100.525 133.587L97.2062 142.094L97.225 142.1ZM88.925 134.05C88.925 133.962 88.9688 133.912 89.0375 133.894C89.175 133.85 89.625 133.806 90.0313 133.806C91.5438 133.806 92.4688 134.775 92.4688 136.494C92.4688 137.531 92.1063 138.231 91.6313 138.544C91.2938 138.769 90.9063 138.794 90.5688 138.794C89.9375 138.794 89.2125 138.706 89.0125 138.587C88.9437 138.544 88.925 138.5 88.925 138.406V134.05ZM87.7063 139.644C87.7063 140.95 87.7063 142.037 87.6188 142.575C87.575 142.981 87.55 143.231 87.2563 143.3C87.1438 143.344 86.9625 143.369 86.825 143.369C86.7562 143.369 86.7125 143.437 86.7125 143.481C86.7125 143.569 86.8 143.594 86.9375 143.594C87.3688 143.594 88.3125 143.55 88.3375 143.55C88.4062 143.55 89.2875 143.594 90.05 143.594C90.2063 143.594 90.275 143.55 90.275 143.481C90.275 143.437 90.25 143.369 90.1625 143.369C90.025 143.369 89.7313 143.344 89.5312 143.3C89.1 143.231 89.0375 142.981 88.9875 142.575C88.9188 142.031 88.9188 140.975 88.9188 139.662V139.35C88.9188 139.262 88.9438 139.237 89.0063 139.237L90.7875 139.262C90.9 139.262 90.925 139.287 90.9875 139.35C91.2813 139.712 91.9125 140.594 92.5 141.312C93.3125 142.35 93.8063 143.006 94.4188 143.319C94.7813 143.5 95.1187 143.587 95.9062 143.587H96.7875C97.0563 143.587 97.15 143.562 97.15 143.475C97.15 143.431 97.0813 143.362 97.0125 143.362C96.925 143.362 96.7875 143.362 96.5187 143.319C96.1562 143.275 95.7062 143.137 94.9375 142.369C94.125 141.531 93.1563 140.294 92.0063 138.869C93.3125 137.737 93.7438 136.769 93.7438 135.756C93.7438 134.806 93.1125 134.175 92.75 133.906C92.025 133.387 91.0375 133.319 90.1562 133.319C89.7062 133.319 88.5312 133.344 88.3937 133.344C88.3062 133.344 87.3562 133.319 86.725 133.319C86.5687 133.319 86.5 133.344 86.5 133.431C86.5 133.475 86.5688 133.544 86.6125 133.544C86.75 133.544 86.975 133.569 87.0875 133.569C87.5625 133.637 87.6312 133.862 87.675 134.312C87.7 134.762 87.7 135.15 87.7 137.244V139.637L87.7063 139.644ZM78.5 139.237C78.4562 139.237 78.4313 139.212 78.4562 139.15L79.7625 135.425C79.85 135.219 79.9188 135.219 79.9875 135.425L81.3875 139.15C81.4125 139.219 81.4125 139.237 81.3437 139.237H78.5ZM76.4688 142.1C76.2 142.775 75.925 143.25 75.2938 143.319C75.1813 143.344 74.975 143.362 74.8625 143.362C74.7938 143.362 74.75 143.406 74.75 143.475C74.75 143.544 74.8375 143.587 75.0187 143.587C75.5812 143.587 76.3063 143.544 76.4375 143.544C76.5938 143.544 77.3625 143.587 77.7 143.587C77.8125 143.587 77.9062 143.562 77.9062 143.475C77.9062 143.406 77.8625 143.362 77.75 143.362H77.6375C77.3875 143.362 77.1625 143.275 77.1625 143C77.1625 142.75 77.2313 142.412 77.3688 142.075L78.1563 139.906C78.1813 139.837 78.2438 139.794 78.3125 139.794H81.5375C81.625 139.794 81.65 139.819 81.675 139.881L82.9375 142.994C83.025 143.219 82.8937 143.331 82.8 143.356C82.7312 143.381 82.7125 143.381 82.7125 143.444C82.7125 143.531 82.9375 143.531 83.2063 143.556C84.175 143.581 85.2125 143.581 85.4188 143.581C85.575 143.581 85.7375 143.556 85.7375 143.469C85.7375 143.381 85.65 143.356 85.5563 143.356C85.4188 143.356 85.2188 143.356 85.0125 143.287C84.6938 143.175 84.3125 142.994 83.8188 141.8C82.9625 139.725 80.7063 134.131 80.4313 133.562C80.2938 133.244 80.25 133.069 80.0937 133.069C80.0062 133.069 79.9562 133.137 79.775 133.587L76.4563 142.094L76.4688 142.1ZM72.475 137.25C72.475 135.131 72.475 134.769 72.5 134.319C72.5438 133.844 72.6125 133.644 72.9938 133.575C73.175 133.55 73.2438 133.55 73.3563 133.55C73.4 133.55 73.4688 133.481 73.4688 133.437C73.4688 133.35 73.4 133.325 73.2438 133.325C72.8125 133.325 71.9375 133.35 71.8438 133.35C71.775 133.35 70.875 133.325 70.2438 133.325C70.0875 133.325 70.0187 133.35 70.0187 133.437C70.0187 133.481 70.0625 133.55 70.1313 133.55C70.2688 133.55 70.5125 133.575 70.625 133.575C71.075 133.644 71.1438 133.869 71.1688 134.319C71.1938 134.769 71.1938 135.175 71.1938 137.275V137.569C71.1938 137.637 71.1688 137.637 71.125 137.637H65.2563C65.2125 137.637 65.1875 137.637 65.1875 137.569V134.319C65.2313 133.844 65.3 133.644 65.6812 133.575C65.8625 133.55 65.95 133.55 66.0438 133.55C66.0875 133.55 66.1562 133.481 66.1562 133.437C66.1562 133.35 66.0875 133.325 65.9312 133.325C65.5 133.325 64.6 133.35 64.5563 133.35C64.4688 133.35 63.5625 133.325 62.9313 133.325C62.775 133.325 62.7063 133.35 62.7063 133.437C62.7063 133.481 62.775 133.55 62.8188 133.55C62.9563 133.55 63.1812 133.575 63.2937 133.575C63.7687 133.644 63.8375 133.869 63.8813 134.319C63.9062 134.769 63.9062 135.131 63.9062 137.25V139.644C63.9062 140.95 63.9063 142.012 63.8188 142.575C63.775 142.981 63.75 143.231 63.4562 143.3C63.3438 143.344 63.1625 143.369 63.025 143.369C62.9562 143.369 62.9125 143.437 62.9125 143.481C62.9125 143.569 63 143.594 63.1375 143.594C63.5687 143.594 64.4688 143.55 64.5563 143.55C64.6 143.55 65.5063 143.594 66.2938 143.594C66.45 143.594 66.5188 143.55 66.5188 143.481C66.5188 143.437 66.475 143.369 66.4062 143.369C66.2688 143.369 65.975 143.344 65.75 143.3C65.3438 143.231 65.3 142.981 65.2563 142.575C65.1875 142.012 65.1875 140.975 65.1875 139.662V138.306C65.1875 138.237 65.2125 138.237 65.2563 138.237H71.125C71.1688 138.237 71.1938 138.237 71.1938 138.306V139.662C71.1938 140.969 71.1937 142.006 71.15 142.575C71.1062 142.956 71.0625 143.231 70.7688 143.3C70.6313 143.344 70.475 143.369 70.3375 143.369C70.2688 143.369 70.225 143.437 70.225 143.481C70.225 143.569 70.2938 143.594 70.45 143.594C70.8813 143.594 71.7812 143.55 71.85 143.55C71.9375 143.55 72.8188 143.594 73.5875 143.594C73.7437 143.594 73.8375 143.55 73.8375 143.481C73.8375 143.437 73.7938 143.369 73.7 143.369C73.5875 143.369 73.2688 143.344 73.0688 143.3C72.6375 143.231 72.6188 142.981 72.575 142.575C72.5063 142.012 72.4875 140.95 72.4875 139.644V137.25H72.475ZM54.6938 139.237C54.65 139.237 54.625 139.212 54.65 139.15L55.9563 135.425C56.0437 135.219 56.1125 135.219 56.1813 135.425L57.5812 139.15C57.6062 139.219 57.6062 139.237 57.5375 139.237H54.6938ZM52.6687 142.1C52.4 142.775 52.125 143.25 51.4938 143.319C51.3813 143.344 51.175 143.362 51.0625 143.362C50.9937 143.362 50.95 143.406 50.95 143.475C50.95 143.544 51.0375 143.587 51.2187 143.587C51.7812 143.587 52.5063 143.544 52.6375 143.544C52.7938 143.544 53.5625 143.587 53.9 143.587C54.0125 143.587 54.1 143.562 54.1 143.475C54.1 143.406 54.0562 143.362 53.9437 143.362H53.8312C53.5812 143.362 53.3563 143.275 53.3563 143C53.3563 142.75 53.425 142.412 53.5625 142.075L54.35 139.906C54.375 139.837 54.4375 139.794 54.5063 139.794H57.7313C57.8188 139.794 57.8437 139.819 57.8687 139.881L59.1313 142.994C59.2188 143.219 59.0875 143.331 58.9938 143.356C58.925 143.381 58.9063 143.381 58.9063 143.444C58.9063 143.531 59.1313 143.531 59.4 143.556C60.3688 143.581 61.4063 143.581 61.6125 143.581C61.7688 143.581 61.9312 143.556 61.9312 143.469C61.9312 143.381 61.8438 143.356 61.75 143.356C61.6125 143.356 61.4125 143.356 61.2063 143.287C60.8875 143.175 60.5062 142.994 60.0125 141.8C59.1562 139.725 56.9 134.131 56.6313 133.562C56.4938 133.244 56.45 133.069 56.2938 133.069C56.2063 133.069 56.1562 133.137 55.975 133.587L52.6563 142.094L52.6687 142.1ZM46.9125 143.75C47.6812 143.75 48.5625 143.681 49.1437 143.275C50.1375 142.619 50.45 141.762 50.45 140.975C50.45 139.8 49.8625 138.856 48.15 137.706L47.7688 137.437C46.3688 136.487 45.9438 135.994 45.9438 135.137C45.9438 134.187 46.7813 133.669 47.8188 133.669C49.0813 133.669 49.5313 134.187 49.6438 134.325C49.7125 134.481 49.825 134.844 49.825 135C49.85 135.112 49.8688 135.181 49.9625 135.181C50.075 135.181 50.075 135.094 50.075 134.887C50.075 133.962 50.1438 133.512 50.1438 133.444C50.1438 133.356 50.1 133.331 50.0063 133.331C49.8938 133.331 49.7813 133.331 49.5125 133.287C49.175 133.2 48.6125 133.131 48.0438 133.131C46.1938 133.131 44.95 134.081 44.95 135.681C44.95 136.631 45.425 137.444 46.9562 138.594L47.5875 139.069C48.8313 139.994 49.35 140.444 49.35 141.412C49.35 142.45 48.65 143.219 47.25 143.219C46.3 143.219 45.2625 142.881 45.0375 141.887C44.9937 141.687 44.9937 141.506 44.9937 141.394C44.9937 141.281 44.95 141.237 44.8562 141.237C44.7875 141.237 44.7437 141.306 44.7437 141.462C44.7187 141.662 44.675 142.231 44.675 142.906C44.675 143.269 44.675 143.312 44.875 143.4C45.4375 143.694 46.25 143.762 46.9063 143.762L46.9125 143.75Z" fill="#A77B18"/>
<path fill-rule="evenodd" clip-rule="evenodd" d="M102.944 82.225L101.894 83.275C98.425 79.8187 92.5938 80.0375 88.8563 83.775C85.1188 87.5125 84.9 93.3437 88.3563 96.8125L87.3063 97.8625C81.0063 81.1437 86 75.7125 102.938 82.2313" fill="#002C4B"/>
<path fill-rule="evenodd" clip-rule="evenodd" d="M103.138 76.325L104.188 77.375C100.731 80.8438 100.95 86.675 104.688 90.4125C108.425 94.15 114.256 94.375 117.725 90.9125L118.775 91.9625C102.056 98.2625 96.625 93.2688 103.144 76.3313" fill="#002C4B"/>
<path fill-rule="evenodd" clip-rule="evenodd" d="M97.0375 76.325L95.9875 77.375C99.4438 80.8438 99.225 86.675 95.4875 90.4125C91.75 94.15 85.9187 94.375 82.45 90.9125L81.4 91.9625C98.1188 98.2625 103.55 93.2688 97.0312 76.3313" fill="#002C4B"/>
<path fill-rule="evenodd" clip-rule="evenodd" d="M97.2375 82.225L98.2875 83.275C101.756 79.8187 107.587 80.0375 111.325 83.775C115.062 87.5125 115.281 93.3437 111.825 96.8125L112.875 97.8625C119.175 81.1437 114.181 75.7125 97.2437 82.2313" fill="#002C4B"/>
<path fill-rule="evenodd" clip-rule="evenodd" d="M118.775 66.3938L117.725 67.4438C114.256 63.9875 108.425 64.2063 104.687 67.9438C100.95 71.6813 100.731 77.5125 104.187 80.9813L103.138 82.0313C96.8375 65.3125 101.831 59.8813 118.769 66.4" fill="#A77B18"/>
<path fill-rule="evenodd" clip-rule="evenodd" d="M87.3063 60.4938L88.3563 61.5375C84.9 65.0063 85.1188 70.8375 88.8563 74.575C92.5938 78.3125 98.425 78.5313 101.894 75.075L102.944 76.125C86.225 82.425 80.7938 77.4313 87.3125 60.4938" fill="#002C4B"/>
<path fill-rule="evenodd" clip-rule="evenodd" d="M112.875 60.4938L111.825 61.5375C115.281 65.0063 115.062 70.8375 111.325 74.575C107.587 78.3125 101.756 78.5313 98.2875 75.075L97.2375 76.125C113.956 82.425 119.387 77.4313 112.869 60.4938" fill="#A77B18"/>
<path fill-rule="evenodd" clip-rule="evenodd" d="M81.4062 66.3938L82.4562 67.4438C85.925 63.9875 91.7562 64.2063 95.4937 67.9438C99.2312 71.6813 99.45 77.5125 95.9937 80.9813L97.0438 82.0313C103.344 65.3125 98.35 59.8813 81.4125 66.4" fill="#002C4B"/>
</svg>
