<svg width="200" height="200" viewBox="0 0 200 200" fill="none" xmlns="http://www.w3.org/2000/svg">
<path d="M23.0625 90.0562C23.3813 90.0562 23.65 89.9437 23.875 89.725C24.1 89.5 24.2125 89.225 24.2125 88.9125C24.2125 88.6 24.1 88.3312 23.875 88.1C23.6563 87.8812 23.3813 87.7687 23.0625 87.7687C22.7438 87.7687 22.4813 87.8812 22.2625 88.1C22.0375 88.325 21.925 88.6 21.925 88.9125C21.925 89.225 22.0375 89.5125 22.2625 89.7312C22.4813 89.95 22.75 90.0562 23.0625 90.0562Z" fill="#155957"/>
<path d="M23.1375 99.6C25.8688 99.6 27.4 98.325 27.7313 95.7812H38.2188V91.5812C38.2188 89.0375 36.9688 87.7625 34.4625 87.7625C33.0875 87.7625 32.0063 88.1688 31.2188 88.9875C30.5063 89.7313 30.15 90.6687 30.15 91.7937C30.15 92.9187 30.4563 93.7187 31.075 94.1687C30.8438 94.0937 30.5375 94.0563 30.15 94.0563H27.8063V87.975H25.6188V94.7375C25.6188 96.8375 24.8438 97.8938 23.2938 97.8938C21.7438 97.8938 20.9375 96.825 20.9375 94.6937C20.9375 93.675 21.0938 92.6125 21.4063 91.5063L19.1438 91.9188C18.8813 92.8813 18.7438 93.8688 18.7438 94.8875C18.7438 98.0313 20.2063 99.6062 23.1313 99.6062L23.1375 99.6ZM32.85 90.125C33.2125 89.7062 33.7 89.4937 34.3063 89.4937C35.4875 89.4937 36.0813 90.2813 36.0813 91.85V94.0563H34.8188C33.1625 94.0563 32.3313 93.2813 32.3313 91.7313C32.3313 91.075 32.5063 90.5375 32.85 90.125Z" fill="#155957"/>
<path d="M52.4062 86.5812C52.725 86.5812 52.9937 86.4688 53.2187 86.25C53.4437 86.0312 53.5562 85.75 53.5562 85.4375C53.5562 85.125 53.4437 84.8562 53.2187 84.625C53 84.4062 52.725 84.2937 52.4062 84.2937C52.0875 84.2937 51.825 84.4062 51.5937 84.625C51.375 84.85 51.2625 85.125 51.2625 85.4375C51.2625 85.75 51.375 86.0375 51.5937 86.2562C51.8187 86.475 52.0937 86.5812 52.4062 86.5812Z" fill="#155957"/>
<path d="M58.6437 86.7187C58.9562 86.7187 59.225 86.6062 59.4375 86.3875C59.65 86.1687 59.7562 85.9 59.7562 85.5937C59.7562 85.2875 59.65 85.0062 59.4375 84.7937C59.2187 84.575 58.9562 84.4625 58.6437 84.4625C58.3312 84.4625 58.0812 84.575 57.8625 84.7937C57.65 85.0125 57.5437 85.2812 57.5437 85.5937C57.5437 85.9062 57.65 86.175 57.8625 86.3875C58.075 86.6062 58.3312 86.7187 58.6437 86.7187Z" fill="#155957"/>
<path d="M61.4 86.7187C61.7 86.7187 61.9625 86.6062 62.1813 86.3875C62.3938 86.1687 62.5 85.9 62.5 85.5937C62.5 85.2875 62.3938 85.0062 62.1813 84.7937C61.9688 84.575 61.7125 84.4625 61.4 84.4625C61.0875 84.4625 60.8375 84.575 60.6188 84.7937C60.4063 85.0125 60.3 85.2812 60.3 85.5937C60.3 85.9062 60.4063 86.175 60.6188 86.3875C60.8313 86.6062 61.0875 86.7187 61.4 86.7187Z" fill="#155957"/>
<path d="M66.9063 84.0813H64.7188V94.0625H61.4375V87.9813H59.25V94.0625H55.6187C56.1 93.4 56.3375 92.5563 56.3375 91.5438C56.3375 90.3563 56.0375 89.4313 55.4437 88.7813C54.8375 88.1125 53.9625 87.775 52.825 87.775C51.925 87.775 51.1 88.0375 50.35 88.5625C49.5562 89.1188 48.9813 89.8875 48.625 90.8625H48.5938C48.7312 90.1563 48.7937 89.3375 48.7937 88.4063V87.9875H46.6V94.0688H42.9688V84.0875H40.7812V95.7938H66.9063V84.0875V84.0813ZM51.4437 94.0563H48.7625C48.9437 92.8375 49.3625 91.7813 50.025 90.9C50.725 89.9688 51.5125 89.5063 52.375 89.5063C53.5063 89.5063 54.0688 90.225 54.0688 91.6625C54.0688 93.2563 53.1937 94.0563 51.4437 94.0563Z" fill="#155957"/>
<path d="M71.9125 84.0813H69.725V95.7875H71.9125V84.0813Z" fill="#155957"/>
<path d="M87.2375 86.5812C87.5562 86.5812 87.825 86.4688 88.05 86.25C88.275 86.025 88.3875 85.75 88.3875 85.4375C88.3875 85.125 88.275 84.8562 88.05 84.625C87.8312 84.4062 87.5562 84.2937 87.2375 84.2937C86.9187 84.2937 86.6562 84.4062 86.4375 84.625C86.2125 84.85 86.1 85.125 86.1 85.4375C86.1 85.75 86.2125 86.0375 86.4375 86.2562C86.6562 86.475 86.925 86.5812 87.2375 86.5812Z" fill="#155957"/>
<path d="M90.0625 94.6187C90.8563 93.8437 91.2563 92.8437 91.2563 91.6375C91.2563 90.35 90.9063 89.375 90.2125 88.7125C89.55 88.0875 88.6063 87.775 87.3938 87.775C86.1813 87.775 85.1313 88.1625 84.3438 88.9437C83.5625 89.7187 83.175 90.7062 83.175 91.9125C83.175 92.8937 83.4188 93.6125 83.9063 94.0687H83.3563C82.0375 94.0687 81.0813 93.7875 80.4813 93.225C79.9 92.6812 79.6063 91.8125 79.6063 90.6312C79.6063 89.6312 79.7938 88.7187 80.175 87.8937L77.8313 88.275C77.5438 89.0625 77.4 89.9312 77.4 90.8875C77.4 92.4875 77.85 93.6812 78.7563 94.4812C79.75 95.3625 81.3313 95.8 83.5 95.8H87.0375C88.275 95.8 89.2875 95.4125 90.075 94.6312L90.0625 94.6187ZM85.3625 91.7125C85.3625 90.9812 85.5563 90.4187 85.9438 90.0187C86.2813 89.6687 86.7125 89.4937 87.2313 89.4937C88.4438 89.4937 89.05 90.2437 89.05 91.75C89.05 92.4937 88.8688 93.075 88.5125 93.4875C88.1813 93.8687 87.7438 94.0625 87.2 94.0625C85.975 94.0625 85.3625 93.2812 85.3625 91.7187V91.7125Z" fill="#155957"/>
<path d="M118.394 91.5875C118.394 89.0437 117.144 87.7687 114.638 87.7687C113.263 87.7687 112.181 88.175 111.394 88.9937C110.681 89.7375 110.325 90.675 110.325 91.8C110.325 92.925 110.631 93.725 111.25 94.175C111.019 94.1 110.713 94.0625 110.325 94.0625H108.031C108.513 93.4 108.75 92.5562 108.75 91.5437C108.75 90.3562 108.45 89.4312 107.856 88.7812C107.25 88.1125 106.375 87.775 105.238 87.775C104.338 87.775 103.513 88.0375 102.763 88.5625C101.969 89.1187 101.394 89.8875 101.038 90.8625H101.006C101.144 90.1562 101.206 89.3375 101.206 88.4062V87.9875H99.0063V94.0687H95.6688V87.9875H93.4813V95.9812C93.4813 96.8375 93.3188 97.4437 93.0001 97.8125C92.7188 98.1375 92.2813 98.3 91.6813 98.3C91.2438 98.3 90.7938 98.2375 90.3375 98.1062L90.175 99.85C90.6188 99.9562 91.0813 100.012 91.5688 100.012C94.3063 100.012 95.6688 98.6312 95.6688 95.8625V95.8H118.381V91.6L118.394 91.5875ZM103.869 94.0562H101.188C101.369 92.8375 101.788 91.7812 102.45 90.9C103.15 89.9687 103.938 89.5062 104.8 89.5062C105.931 89.5062 106.494 90.225 106.494 91.6625C106.494 93.2562 105.619 94.0562 103.869 94.0562ZM116.256 94.0562H114.994C113.338 94.0562 112.506 93.2812 112.506 91.7312C112.506 91.075 112.681 90.5375 113.025 90.125C113.388 89.7062 113.875 89.4937 114.481 89.4937C115.663 89.4937 116.256 90.2812 116.256 91.85V94.0562Z" fill="#155957"/>
<path d="M27.7437 103.369H19.225V104.725H22.6812V114.175H24.2875V104.725H27.7437V103.369Z" fill="#155957"/>
<path d="M33.0875 108.687C33.0875 106.869 32 106.075 30.0312 106.069C27.7312 106.062 27.0187 107.3 26.9062 108.45H28.375C28.5125 107.844 28.7312 107.237 29.975 107.237C31.3687 107.237 31.5875 108.031 31.5875 108.706V109.344H30.2812C27.9312 109.344 26.5312 110.156 26.5312 111.931C26.5312 113.137 27.3312 114.362 29.2062 114.362C30.7187 114.362 31.3312 113.7 31.6062 113.187C31.625 113.619 31.6687 114 31.7312 114.175H33.1937C33.15 113.956 33.0875 113.112 33.0875 112.387V108.694V108.687ZM31.6 110.606C31.6 111.969 31.3625 113.194 29.55 113.194C28.6125 113.194 28.0875 112.619 28.0875 111.844C28.0875 110.794 28.8625 110.369 30.3938 110.369H31.6V110.612V110.606Z" fill="#155957"/>
<path d="M41.775 102.769H40.25V107.031C40.0438 106.606 39.425 106.069 38.075 106.069C35.875 106.069 34.525 107.856 34.525 110.294C34.525 112.731 35.7813 114.362 37.8125 114.362C39.0875 114.362 39.8688 113.894 40.2563 113.112C40.2625 113.394 40.2938 113.962 40.3313 114.181H41.8C41.7875 113.425 41.7875 112.694 41.7875 111.956V102.775L41.775 102.769ZM38.1625 113.087C36.95 113.087 36.1 112.094 36.1 110.25C36.1 108.406 36.9063 107.344 38.2563 107.344C39.9688 107.344 40.3063 108.437 40.3063 110.119C40.3063 111.8 39.9438 113.081 38.1625 113.081V113.087Z" fill="#155957"/>
<path d="M49.6375 108.687C49.6375 106.869 48.55 106.075 46.5813 106.069C44.2813 106.062 43.5688 107.3 43.4563 108.45H44.925C45.0625 107.844 45.2813 107.237 46.5251 107.237C47.9188 107.237 48.1375 108.031 48.1375 108.706V109.344H46.8313C44.4813 109.344 43.0813 110.156 43.0813 111.931C43.0813 113.137 43.8813 114.362 45.7563 114.362C47.2688 114.362 47.8813 113.7 48.1563 113.187C48.1751 113.619 48.2188 114 48.2813 114.175H49.7438C49.7 113.956 49.6375 113.112 49.6375 112.387V108.694V108.687ZM48.15 110.606C48.15 111.969 47.9125 113.194 46.1 113.194C45.1625 113.194 44.6375 112.619 44.6375 111.844C44.6375 110.794 45.4125 110.369 46.9438 110.369H48.15V110.612V110.606Z" fill="#155957"/>
<path d="M60.075 106.069C58.7375 106.069 58 106.713 57.5687 107.444C57.2687 106.638 56.5312 106.069 55.4062 106.069C54.1687 106.069 53.4937 106.737 53.125 107.419C53.125 107.037 53.0875 106.481 53.0625 106.256H51.5938C51.6062 106.906 51.6062 107.613 51.6062 108.3V114.175H53.1187V109.781C53.1187 108.3 53.6937 107.369 54.8937 107.369C56.0937 107.369 56.35 108.231 56.35 109.206V114.175H57.85V109.631C57.85 108.263 58.3687 107.363 59.5937 107.363C60.8187 107.363 61.0813 108.281 61.0813 109.156V114.175H62.5812V108.975C62.5812 106.85 61.3875 106.075 60.0812 106.075L60.075 106.069Z" fill="#155957"/>
<path d="M70.8938 106.256H69.3688V110.4C69.3688 112.3 68.8375 113.05 67.4688 113.05C66.225 113.05 65.9125 112.138 65.9125 111.131V106.256H64.3938V111.456C64.3938 113.638 65.6251 114.363 67.0126 114.363C68.2126 114.363 68.9625 113.9 69.3688 113.044C69.375 113.5 69.3938 113.969 69.4251 114.175H70.9125C70.9063 113.663 70.9001 112.638 70.9001 111.869V106.256H70.8938Z" fill="#155957"/>
<path d="M76.8437 106.069C75.3375 106.069 74.6937 106.856 74.3875 107.5C74.3875 107.263 74.3687 106.481 74.325 106.256H72.8438C72.8625 106.862 72.8625 107.569 72.8625 108.25V114.175H74.3875V109.937C74.3875 108.381 74.975 107.369 76.3625 107.369C77.525 107.369 77.9563 108.144 77.9563 109.281V114.175H79.4812V109.094C79.4812 107.013 78.3437 106.069 76.8375 106.069H76.8437Z" fill="#155957"/>
<path d="M91.4125 108.431C92.225 108.137 92.9313 107.331 92.9313 106.081C92.9313 104.6 91.8812 103.369 89.5375 103.369H85.2812V114.175H89.65C91.7438 114.175 93.2813 113 93.2813 111C93.2813 109.444 92.1688 108.681 91.4188 108.437L91.4125 108.431ZM86.85 104.669H89.45C90.65 104.669 91.3188 105.3 91.3188 106.225C91.3188 107.225 90.7375 107.819 89.2563 107.819H86.85V104.669ZM89.4125 112.875H86.85V109.119H89.1875C90.9062 109.119 91.625 109.862 91.625 110.981C91.625 112.256 90.75 112.875 89.4125 112.875Z" fill="#155957"/>
<path d="M100.875 108.687C100.875 106.869 99.7875 106.075 97.8187 106.069C95.5187 106.062 94.8062 107.3 94.6937 108.45H96.1625C96.3 107.844 96.5187 107.237 97.7625 107.237C99.1562 107.237 99.375 108.031 99.375 108.706V109.344H98.0687C95.7187 109.344 94.3187 110.156 94.3187 111.931C94.3187 113.137 95.1187 114.362 96.9937 114.362C98.5062 114.362 99.1187 113.7 99.3937 113.187C99.4125 113.619 99.4562 114 99.5187 114.175H100.981C100.937 113.956 100.875 113.112 100.875 112.387V108.694V108.687ZM99.3812 110.606C99.3812 111.969 99.1437 113.194 97.3312 113.194C96.3937 113.194 95.8687 112.619 95.8687 111.844C95.8687 110.794 96.6437 110.369 98.175 110.369H99.3812V110.612V110.606Z" fill="#155957"/>
<path d="M106.831 106.069C105.325 106.069 104.681 106.856 104.375 107.5C104.375 107.263 104.356 106.481 104.313 106.256H102.831C102.85 106.862 102.85 107.569 102.85 108.25V114.175H104.375V109.937C104.375 108.381 104.963 107.369 106.35 107.369C107.513 107.369 107.944 108.144 107.944 109.281V114.175H109.469V109.094C109.469 107.013 108.331 106.069 106.825 106.069H106.831Z" fill="#155957"/>
<path d="M115.131 109.325L118.069 106.256H116.269C115.194 107.456 113.587 109.169 112.937 109.95V102.769H111.412V114.175H112.937V111.419L114.094 110.3L116.625 114.175H118.394L115.131 109.325Z" fill="#155957"/>
<path d="M155.394 109.962L161.875 116.425C162.381 116.931 163.206 116.931 163.712 116.425C164.225 115.912 164.219 115.087 163.706 114.581L157.262 108.206C156.981 107.931 156.606 107.775 156.212 107.775H154.544C154.15 107.775 153.769 107.931 153.487 108.212L152.419 109.281C151.562 110.144 150.169 110.144 149.306 109.281C148.45 108.425 148.45 107.031 149.306 106.169L150.675 104.8C150.881 104.594 151 104.319 151.006 104.025L151.144 97.95C151.15 97.6437 151.031 97.3437 150.812 97.125L148.437 94.75C147.944 94.2563 147.144 94.2625 146.656 94.7562C146.175 95.2437 146.181 96.0312 146.663 96.5187L148.05 97.9125C148.263 98.125 148.381 98.4125 148.381 98.7125V101.406C148.381 101.706 148.263 101.994 148.05 102.206L142.537 107.719H142.531L141.594 108.65C141.438 108.806 141.438 109.069 141.594 109.225L150.694 118.35L150.612 118.244L153.287 120.919C153.787 121.419 154.594 121.419 155.094 120.919C155.594 120.419 155.594 119.606 155.094 119.112L150.638 114.675L150.9 114.388L155.787 119.256C157.906 121.369 158.775 121.369 159.312 120.831C159.85 120.294 159.85 119.419 159.312 118.875L152.894 112.475L153.175 112.212L160.294 119.312C161.325 120.344 162.206 120.344 162.75 119.8C163.294 119.256 163.294 118.375 162.262 117.344L155.144 110.25L155.4 109.975L155.394 109.962Z" fill="#21B5E9"/>
<path d="M145.312 100.119L138.85 106.6C138.344 107.106 138.344 107.931 138.85 108.438C139.362 108.95 140.187 108.944 140.694 108.431L147.069 101.988C147.344 101.706 147.5 101.331 147.5 100.938V99.2688C147.5 98.875 147.344 98.4938 147.062 98.2125L145.994 97.1438C145.131 96.2875 145.131 94.8938 145.994 94.0313C146.85 93.175 148.244 93.175 149.106 94.0313L150.475 95.4C150.681 95.6063 150.956 95.725 151.25 95.7313L157.325 95.8688C157.631 95.875 157.931 95.7563 158.15 95.5375L160.525 93.1625C161.019 92.6688 161.012 91.8688 160.519 91.3813C160.031 90.9 159.244 90.9063 158.756 91.3875L157.362 92.775C157.15 92.9875 156.862 93.1063 156.562 93.1063H153.869C153.569 93.1063 153.281 92.9875 153.069 92.775L147.556 87.2625H147.562L146.625 86.3188C146.469 86.1625 146.206 86.1625 146.05 86.3188L136.925 95.4188L137.031 95.3375L134.356 98.0125C133.856 98.5125 133.856 99.3188 134.356 99.8188C134.856 100.319 135.669 100.319 136.162 99.8188L140.6 95.3625L140.887 95.625L136.019 100.513C133.906 102.631 133.906 103.5 134.444 104.038C134.981 104.575 135.856 104.575 136.4 104.038L142.8 97.6188L143.062 97.9L135.962 105.019C134.931 106.05 134.931 106.931 135.475 107.475C136.019 108.019 136.9 108.019 137.931 106.988L145.025 99.8688L145.3 100.125L145.312 100.119Z" fill="#B5D339"/>
<path d="M165.187 99.85L171.65 93.3688C172.156 92.8625 172.156 92.0375 171.65 91.5313C171.137 91.0188 170.312 91.025 169.806 91.5375L163.431 97.9813C163.156 98.2625 163 98.6375 163 99.0313V100.7C163 101.094 163.156 101.475 163.437 101.756L164.506 102.825C165.369 103.681 165.369 105.075 164.506 105.938C163.65 106.794 162.256 106.794 161.394 105.938L160.025 104.569C159.819 104.363 159.544 104.244 159.25 104.238L153.175 104.1C152.869 104.094 152.569 104.213 152.35 104.431L149.975 106.806C149.481 107.3 149.487 108.1 149.981 108.588C150.469 109.069 151.256 109.063 151.744 108.581L153.137 107.194C153.35 106.981 153.637 106.863 153.937 106.863H156.631C156.931 106.863 157.219 106.981 157.431 107.194L162.944 112.706H162.937L163.875 113.65C164.031 113.806 164.294 113.806 164.45 113.65L173.575 104.55L173.469 104.631L176.144 101.956C176.644 101.456 176.644 100.65 176.144 100.15C175.644 99.65 174.831 99.65 174.337 100.15L169.9 104.606L169.612 104.344L174.481 99.4563C176.594 97.3375 176.594 96.4688 176.056 95.9313C175.519 95.3938 174.644 95.3938 174.1 95.9313L167.7 102.35L167.437 102.069L174.537 94.95C175.569 93.9188 175.569 93.0375 175.025 92.4938C174.481 91.95 173.6 91.95 172.569 92.9813L165.475 100.1L165.2 99.8438L165.187 99.85Z" fill="#B5D339"/>
<path d="M155.1 90.0375L148.619 83.575C148.113 83.0688 147.288 83.0688 146.781 83.575C146.269 84.0875 146.275 84.9125 146.788 85.4188L153.231 91.7938C153.513 92.0688 153.888 92.225 154.281 92.225H155.95C156.344 92.225 156.725 92.0688 157.006 91.7875L158.075 90.7188C158.931 89.8562 160.325 89.8562 161.188 90.7188C162.044 91.575 162.044 92.9688 161.188 93.8313L159.819 95.2C159.613 95.4063 159.494 95.6813 159.488 95.975L159.35 102.05C159.344 102.356 159.463 102.656 159.681 102.875L162.056 105.25C162.55 105.744 163.35 105.738 163.838 105.244C164.319 104.756 164.313 103.969 163.831 103.481L162.444 102.088C162.231 101.875 162.113 101.588 162.113 101.288V98.5938C162.113 98.2938 162.231 98.0063 162.444 97.7938L167.956 92.2812H167.963L168.9 91.35C169.056 91.1938 169.056 90.9313 168.9 90.775L159.8 81.65L159.881 81.7563L157.206 79.0813C156.706 78.5813 155.9 78.5813 155.4 79.0813C154.9 79.5813 154.9 80.3938 155.4 80.8875L159.856 85.325L159.594 85.6125L154.706 80.7438C152.588 78.6313 151.719 78.6313 151.181 79.1688C150.644 79.7063 150.644 80.5813 151.181 81.125L157.6 87.525L157.319 87.7875L150.2 80.6875C149.169 79.6563 148.288 79.6563 147.744 80.2C147.2 80.7438 147.2 81.625 148.231 82.6563L155.35 89.75L155.094 90.025L155.1 90.0375Z" fill="#21B5E9"/>
<path d="M155.25 124.512C151.969 124.512 148.687 123.262 146.194 120.769L134.481 109.056C132.062 106.637 130.731 103.419 130.731 100C130.731 96.5812 132.062 93.3625 134.481 90.9437L146.194 79.2312C151.187 74.2375 159.312 74.2375 164.306 79.2312L176.019 90.9437C178.437 93.3625 179.769 96.5812 179.769 100C179.769 103.419 178.437 106.637 176.019 109.056L164.306 120.769C161.812 123.262 158.531 124.512 155.25 124.512ZM155.25 76.2937C152.175 76.2937 149.1 77.4625 146.762 79.8062L135.05 91.5187C132.781 93.7875 131.531 96.8 131.531 100.006C131.531 103.212 132.781 106.225 135.05 108.494L146.762 120.206C151.444 124.887 159.056 124.887 163.737 120.206L175.45 108.494C177.719 106.225 178.962 103.212 178.962 100.006C178.962 96.8 177.712 93.7875 175.45 91.5187L163.737 79.8062C161.4 77.4687 158.325 76.2937 155.25 76.2937Z" fill="#B5D339"/>
<path d="M155.25 126C151.438 126 147.625 124.55 144.725 121.644L133.606 110.525C127.8 104.719 127.8 95.275 133.606 89.475L144.725 78.3562C150.531 72.55 159.975 72.55 165.775 78.3562L176.894 89.475C182.7 95.2812 182.7 104.725 176.894 110.525L165.775 121.644C162.875 124.544 159.063 126 155.25 126ZM155.25 74.8062C151.644 74.8062 148.038 76.1812 145.294 78.925L134.175 90.0437C128.688 95.5312 128.688 104.469 134.175 109.956L145.294 121.075C150.781 126.562 159.719 126.562 165.206 121.075L176.325 109.956C181.813 104.469 181.813 95.5312 176.325 90.0437L165.206 78.925C162.463 76.1812 158.856 74.8062 155.25 74.8062Z" fill="#B5D339"/>
</svg>
