<svg width="200" height="200" viewBox="0 0 200 200" fill="none" xmlns="http://www.w3.org/2000/svg">
<path fill-rule="evenodd" clip-rule="evenodd" d="M146.131 75C159.938 75 171.131 86.1938 171.131 100C171.131 113.806 159.938 125 146.131 125C132.325 125 121.131 113.806 121.131 100C121.131 86.1938 132.325 75 146.131 75Z" fill="#304365"/>
<path d="M146.344 119.681C146.325 119.6 146.306 119.506 146.281 119.4C146.256 119.294 146.231 119.181 146.213 119.075C146.188 118.962 146.169 118.856 146.15 118.756C146.131 118.656 146.113 118.569 146.106 118.506C146 117.931 145.887 117.362 145.769 116.8C145.644 116.231 145.525 115.662 145.406 115.094C145.287 114.525 145.181 113.956 145.081 113.387C144.981 112.812 144.9 112.244 144.844 111.669C144.819 111.487 144.794 111.319 144.775 111.169C144.75 111.019 144.756 110.844 144.781 110.644C144.806 110.444 144.894 110.237 145.037 110.031C145.181 109.825 145.356 109.619 145.569 109.419C145.781 109.219 146.019 109.019 146.275 108.825C146.531 108.631 146.794 108.456 147.05 108.287C147.312 108.125 147.556 107.975 147.794 107.844C148.025 107.712 148.225 107.606 148.394 107.531C148.419 107.519 148.444 107.5 148.469 107.475C148.494 107.45 148.512 107.431 148.525 107.406C148.537 107.381 148.537 107.362 148.525 107.344C148.512 107.325 148.475 107.319 148.413 107.325C148.3 107.337 148.144 107.369 147.95 107.419C147.756 107.462 147.55 107.519 147.338 107.575C147.125 107.631 146.925 107.694 146.744 107.756C146.556 107.819 146.419 107.875 146.331 107.919C145.975 108.106 145.662 108.356 145.406 108.675C145.15 108.994 144.944 109.344 144.788 109.731C144.631 110.119 144.519 110.519 144.456 110.937C144.394 111.356 144.381 111.756 144.419 112.137C144.475 112.712 144.556 113.287 144.656 113.856C144.762 114.431 144.869 115 144.987 115.569C145.106 116.137 145.225 116.706 145.35 117.275C145.475 117.844 145.588 118.412 145.688 118.987C145.688 119.019 145.681 119.025 145.656 119.006C145.638 118.987 145.606 118.956 145.569 118.919C145.531 118.881 145.494 118.837 145.45 118.794C145.406 118.75 145.369 118.712 145.331 118.687C145.281 118.644 145.238 118.637 145.206 118.675C145.169 118.712 145.169 118.769 145.206 118.85C145.225 118.912 145.275 119.025 145.35 119.187C145.425 119.35 145.519 119.537 145.625 119.737C145.731 119.937 145.831 120.137 145.944 120.337C146.05 120.537 146.144 120.706 146.219 120.837C146.244 120.875 146.269 120.894 146.3 120.881C146.331 120.869 146.35 120.85 146.362 120.819C146.362 120.8 146.381 120.744 146.4 120.662C146.419 120.581 146.444 120.487 146.462 120.394C146.481 120.3 146.5 120.206 146.519 120.131C146.531 120.05 146.544 120.006 146.538 119.994C146.525 119.962 146.494 119.912 146.45 119.856C146.406 119.8 146.381 119.744 146.362 119.687L146.344 119.681Z" fill="white"/>
<path d="M152.575 118.769C152.562 118.738 152.525 118.694 152.437 118.644C152.356 118.594 152.306 118.55 152.281 118.513C152.212 118.406 152.144 118.306 152.075 118.206C152.006 118.106 151.938 118 151.869 117.9C151.644 117.563 151.375 117.231 151.05 116.906C150.731 116.581 150.381 116.256 150.013 115.931C149.644 115.606 149.262 115.275 148.869 114.95C148.475 114.619 148.088 114.288 147.719 113.944C147.344 113.6 146.994 113.256 146.663 112.9C146.331 112.544 146.044 112.175 145.8 111.8C145.494 111.325 145.3 110.788 145.225 110.194C145.212 110.131 145.188 110.119 145.15 110.15C145.113 110.181 145.081 110.25 145.063 110.369C145.025 110.738 145.031 111.094 145.087 111.431C145.144 111.775 145.269 112.1 145.463 112.413C145.706 112.794 146 113.156 146.325 113.519C146.656 113.875 147.006 114.225 147.375 114.563C147.75 114.9 148.131 115.238 148.525 115.569C148.919 115.9 149.3 116.225 149.663 116.55C150.025 116.875 150.369 117.2 150.694 117.525C151.012 117.85 151.287 118.188 151.512 118.525C151.519 118.525 151.519 118.538 151.512 118.544C151.5 118.55 151.494 118.55 151.475 118.544C151.394 118.513 151.319 118.488 151.25 118.469C151.181 118.45 151.119 118.438 151.056 118.425C151 118.413 150.962 118.425 150.944 118.456C150.919 118.488 150.919 118.519 150.937 118.556C150.962 118.594 151.038 118.663 151.175 118.756C151.313 118.85 151.456 118.95 151.625 119.056C151.794 119.163 151.956 119.269 152.125 119.375C152.294 119.481 152.425 119.563 152.525 119.625C152.556 119.644 152.581 119.625 152.581 119.581C152.594 119.544 152.6 119.494 152.6 119.419C152.6 119.344 152.6 119.269 152.6 119.181C152.6 119.1 152.6 119.019 152.594 118.95C152.594 118.875 152.581 118.819 152.575 118.775V118.769Z" fill="white"/>
<path d="M143.4 108.044C143.4 108.044 143.344 108.031 143.325 108.062C143.225 108.187 143.131 108.337 143.044 108.512C142.956 108.687 142.875 108.875 142.8 109.075C142.731 109.269 142.669 109.469 142.613 109.663C142.556 109.856 142.513 110.031 142.488 110.187C142.363 110.875 142.256 111.569 142.169 112.262C142.088 112.956 142.013 113.656 141.95 114.356C141.888 115.056 141.831 115.756 141.769 116.456C141.706 117.156 141.638 117.856 141.556 118.556C141.55 118.587 141.538 118.594 141.519 118.569C141.506 118.544 141.488 118.506 141.463 118.462C141.438 118.412 141.413 118.362 141.388 118.3C141.363 118.237 141.331 118.194 141.306 118.162C141.269 118.112 141.231 118.1 141.194 118.119C141.156 118.144 141.131 118.2 141.131 118.287C141.131 118.35 141.144 118.469 141.169 118.65C141.194 118.831 141.231 119.031 141.269 119.25C141.313 119.469 141.356 119.694 141.4 119.912C141.444 120.137 141.481 120.325 141.519 120.469C141.525 120.519 141.55 120.544 141.581 120.544C141.613 120.544 141.638 120.531 141.656 120.5C141.669 120.481 141.694 120.437 141.744 120.362C141.788 120.287 141.838 120.212 141.888 120.125C141.938 120.037 141.981 119.963 142.019 119.888C142.056 119.819 142.075 119.775 142.069 119.756C142.069 119.725 142.056 119.669 142.031 119.6C142.006 119.531 141.994 119.469 141.994 119.412C141.994 119.331 142.006 119.231 142.013 119.125C142.019 119.012 142.031 118.906 142.038 118.794C142.044 118.681 142.056 118.569 142.069 118.469C142.081 118.362 142.094 118.275 142.1 118.206C142.181 117.512 142.25 116.819 142.313 116.112C142.375 115.412 142.438 114.712 142.5 114.012C142.563 113.312 142.638 112.619 142.725 111.919C142.813 111.219 142.913 110.525 143.044 109.837C143.094 109.55 143.156 109.262 143.213 108.981C143.275 108.7 143.344 108.419 143.419 108.137C143.438 108.087 143.431 108.05 143.4 108.031V108.044Z" fill="white"/>
<path d="M144.675 109.131C144.756 108.944 144.819 108.75 144.869 108.556C144.919 108.362 144.937 108.169 144.937 107.981C144.937 107.794 144.9 107.619 144.825 107.462C144.75 107.306 144.637 107.175 144.481 107.069C144.325 106.962 144.119 106.887 143.856 106.85C143.606 106.819 143.306 106.819 142.963 106.85C142.619 106.887 142.262 106.95 141.906 107.037C141.55 107.131 141.206 107.237 140.875 107.362C140.55 107.487 140.281 107.625 140.069 107.769C139.869 107.906 139.719 108.069 139.631 108.25C139.544 108.437 139.469 108.637 139.406 108.856C139.362 109.012 139.337 109.212 139.319 109.456C139.3 109.7 139.319 109.944 139.362 110.194C139.406 110.437 139.494 110.662 139.612 110.862C139.731 111.069 139.906 111.2 140.131 111.275C140.294 111.325 140.462 111.306 140.631 111.212C140.8 111.119 140.956 110.994 141.088 110.831C141.219 110.669 141.319 110.494 141.381 110.3C141.444 110.106 141.444 109.937 141.381 109.787C141.344 109.687 141.275 109.606 141.175 109.55C141.075 109.487 140.963 109.437 140.844 109.394C140.719 109.35 140.594 109.306 140.456 109.262C140.319 109.219 140.2 109.169 140.094 109.106C139.987 109.044 139.906 108.969 139.844 108.881C139.781 108.794 139.756 108.681 139.775 108.544C139.919 108.45 140.081 108.356 140.275 108.269C140.469 108.181 140.681 108.094 140.906 108.019C141.131 107.944 141.369 107.875 141.612 107.812C141.856 107.75 142.094 107.7 142.325 107.662C142.556 107.625 142.781 107.606 142.994 107.594C143.206 107.581 143.394 107.594 143.562 107.612C143.85 107.65 144.062 107.744 144.206 107.881C144.35 108.025 144.444 108.187 144.475 108.381C144.506 108.575 144.494 108.781 144.438 109C144.381 109.225 144.287 109.431 144.169 109.631C144.069 109.787 143.969 109.937 143.869 110.075C143.769 110.212 143.675 110.331 143.594 110.431C143.519 110.512 143.494 110.581 143.519 110.625C143.544 110.669 143.588 110.656 143.656 110.594C143.938 110.312 144.181 109.994 144.394 109.644C144.494 109.487 144.581 109.312 144.663 109.125L144.675 109.131ZM140.444 110.119C140.575 110.144 140.7 110.2 140.819 110.275C140.869 110.3 140.887 110.331 140.887 110.369C140.887 110.406 140.869 110.431 140.831 110.456C140.794 110.481 140.75 110.5 140.688 110.512C140.625 110.525 140.562 110.525 140.494 110.512C140.387 110.487 140.294 110.419 140.206 110.312C140.119 110.206 140.069 110.1 140.056 109.994C140.181 110.05 140.306 110.094 140.444 110.119Z" fill="white"/>
<path d="M140.356 107.256C140.525 107.119 140.681 106.975 140.819 106.825C140.962 106.669 141.075 106.506 141.169 106.331C141.262 106.156 141.312 105.981 141.325 105.8C141.337 105.619 141.3 105.438 141.212 105.263C141.125 105.081 140.969 104.913 140.75 104.744C140.537 104.588 140.262 104.438 139.931 104.288C139.594 104.144 139.237 104.019 138.862 103.919C138.487 103.819 138.112 103.738 137.75 103.688C137.387 103.638 137.075 103.625 136.812 103.656C136.669 103.669 136.531 103.706 136.394 103.756C136.256 103.806 136.125 103.869 136.006 103.95C135.881 104.031 135.775 104.125 135.669 104.231C135.569 104.338 135.481 104.456 135.419 104.581C135.362 104.688 135.312 104.819 135.269 104.981C135.225 105.144 135.187 105.3 135.15 105.463C135.119 105.625 135.087 105.763 135.056 105.894C135.025 106.019 134.994 106.106 134.962 106.15C134.95 106.163 134.937 106.156 134.925 106.138C134.912 106.119 134.9 106.094 134.881 106.063C134.862 106.031 134.85 106 134.837 105.969C134.825 105.938 134.812 105.913 134.8 105.9C134.762 105.863 134.731 105.85 134.7 105.863C134.669 105.875 134.65 105.9 134.644 105.938C134.637 106.063 134.631 106.238 134.619 106.456C134.606 106.675 134.612 106.925 134.631 107.206C134.644 107.294 134.687 107.319 134.756 107.281C134.794 107.263 134.844 107.238 134.9 107.194C134.962 107.15 135.025 107.106 135.087 107.063C135.162 107.013 135.237 106.963 135.319 106.9C135.331 106.863 135.331 106.813 135.319 106.756C135.3 106.7 135.3 106.656 135.319 106.631C135.475 106.375 135.587 106.119 135.662 105.863C135.737 105.606 135.806 105.369 135.85 105.15C135.9 104.931 135.944 104.744 135.981 104.575C136.019 104.413 136.081 104.294 136.162 104.225C136.337 104.213 136.538 104.213 136.763 104.225C136.988 104.244 137.219 104.275 137.469 104.319C137.719 104.363 137.969 104.419 138.219 104.488C138.475 104.556 138.719 104.631 138.95 104.719C139.181 104.806 139.4 104.9 139.594 105C139.794 105.1 139.962 105.2 140.106 105.306C140.35 105.488 140.5 105.681 140.562 105.881C140.625 106.081 140.619 106.281 140.562 106.475C140.5 106.669 140.387 106.856 140.219 107.031C140.05 107.206 139.862 107.35 139.65 107.475C139.644 107.475 139.631 107.481 139.625 107.488C139.656 107.45 139.687 107.419 139.719 107.381C139.837 107.225 139.894 107.081 139.888 106.938C139.881 106.794 139.825 106.663 139.725 106.55C139.625 106.438 139.487 106.344 139.306 106.269C139.131 106.2 138.931 106.163 138.719 106.156C138.5 106.156 138.275 106.194 138.037 106.269C137.8 106.35 137.575 106.475 137.35 106.656C137.237 106.744 137.15 106.85 137.087 106.969C137.025 107.088 136.975 107.213 136.937 107.344C136.9 107.475 136.875 107.613 136.869 107.75C136.862 107.888 136.856 108.025 136.856 108.163C136.525 108.206 136.206 108.244 135.9 108.256C135.6 108.275 135.369 108.288 135.212 108.3C135.162 108.3 135.087 108.331 134.981 108.381C134.875 108.431 134.775 108.488 134.681 108.544C134.594 108.6 134.519 108.656 134.469 108.7C134.419 108.744 134.419 108.769 134.475 108.763C134.844 108.731 135.237 108.706 135.65 108.681C136.062 108.656 136.469 108.631 136.862 108.6C136.881 108.856 136.9 109.106 136.9 109.344C136.9 109.581 136.9 109.8 136.875 109.994C136.806 109.931 136.762 109.888 136.744 109.863C136.725 109.838 136.694 109.806 136.644 109.775C136.562 109.719 136.519 109.719 136.5 109.763C136.481 109.806 136.481 109.863 136.5 109.925C136.512 109.963 136.537 110.044 136.569 110.163C136.606 110.281 136.644 110.406 136.681 110.538C136.725 110.669 136.762 110.794 136.806 110.894C136.844 111 136.875 111.056 136.9 111.069C136.931 111.088 136.981 111.075 137.031 111.038C137.087 111 137.144 110.95 137.2 110.894C137.256 110.838 137.312 110.781 137.356 110.719C137.4 110.656 137.431 110.606 137.45 110.575C137.475 110.556 137.481 110.519 137.469 110.463C137.456 110.406 137.437 110.319 137.406 110.194C137.444 109.963 137.469 109.713 137.481 109.438C137.494 109.163 137.481 108.856 137.456 108.519C137.906 108.475 138.319 108.356 138.706 108.175C138.844 108.106 138.975 108.025 139.1 107.938C139.35 107.838 139.594 107.725 139.837 107.588C140.006 107.494 140.175 107.381 140.344 107.244L140.356 107.256ZM137.85 108.075C137.687 108.106 137.556 108.119 137.456 108.119C137.444 107.913 137.444 107.688 137.456 107.444C137.475 107.194 137.519 106.981 137.594 106.794C137.75 106.75 137.925 106.738 138.125 106.769C138.325 106.8 138.506 106.85 138.675 106.931C138.837 107.006 138.962 107.1 139.056 107.206C139.144 107.313 139.156 107.425 139.087 107.544C139.037 107.638 138.944 107.719 138.806 107.788C138.669 107.856 138.512 107.919 138.344 107.963C138.175 108.006 138.012 108.044 137.85 108.075Z" fill="white"/>
<path d="M135.019 87.525C135.019 87.525 135.056 87.55 135.081 87.5375C135.206 87.4625 135.337 87.3937 135.475 87.3312C135.612 87.2687 135.756 87.2125 135.894 87.1625C135.919 87.15 135.931 87.1437 135.937 87.1437C135.944 87.1437 135.937 87.125 135.931 87.0875C135.906 87.0313 135.869 86.9562 135.819 86.8625C135.775 86.7687 135.731 86.6813 135.687 86.6C135.806 86.5313 135.937 86.4687 136.069 86.4125C136.2 86.3562 136.331 86.3063 136.462 86.2625C136.487 86.25 136.5 86.2438 136.506 86.2438C136.512 86.2438 136.506 86.2187 136.5 86.1875C136.456 86.1125 136.406 86.0063 136.337 85.8625C136.269 85.7188 136.219 85.6188 136.181 85.55C136.169 85.5438 136.156 85.5312 136.15 85.525C136.137 85.5125 136.131 85.5125 136.119 85.525C136.075 85.5375 136.019 85.5625 135.944 85.5938C135.869 85.625 135.794 85.6563 135.706 85.6938C135.625 85.7313 135.544 85.7687 135.462 85.8062C135.381 85.85 135.312 85.8813 135.256 85.9125C135.231 85.9313 135.225 85.9437 135.237 85.9625C135.281 86.0375 135.325 86.1125 135.369 86.1938C135.412 86.275 135.462 86.3625 135.506 86.4563C135.456 86.475 135.394 86.4938 135.319 86.525C135.244 86.5563 135.169 86.5875 135.094 86.6187C135.019 86.65 134.944 86.6875 134.875 86.725C134.8 86.7625 134.744 86.7938 134.694 86.8188C134.675 86.8313 134.662 86.8437 134.669 86.8625C134.725 86.9625 134.787 87.075 134.85 87.1875C134.912 87.3063 134.975 87.4188 135.025 87.5313L135.019 87.525Z" fill="white"/>
<path d="M140.781 80.1625C140.837 80.2125 140.875 80.2625 140.9 80.3125C140.931 80.3875 140.969 80.475 141.012 80.575C141.056 80.675 141.1 80.7812 141.144 80.8812C141.187 80.9875 141.231 81.0875 141.269 81.1875C141.306 81.2875 141.337 81.3687 141.362 81.4312C141.575 81.975 141.787 82.5125 142.012 83.0437C142.237 83.5812 142.462 84.1125 142.681 84.65C142.906 85.1875 143.119 85.725 143.319 86.2625C143.525 86.8 143.713 87.35 143.881 87.9C143.969 88.1812 144.05 88.4625 144.125 88.7437C144.2 89.025 144.269 89.3062 144.325 89.5875C144.337 89.6375 144.362 89.6687 144.4 89.6687C144.437 89.6687 144.456 89.6562 144.462 89.6187C144.494 89.4625 144.506 89.2875 144.506 89.0937C144.506 88.9 144.487 88.6937 144.462 88.4875C144.431 88.2812 144.4 88.075 144.356 87.875C144.312 87.675 144.269 87.5 144.225 87.35C144.056 86.8 143.869 86.25 143.662 85.7062C143.456 85.1625 143.244 84.625 143.019 84.0875C142.794 83.5562 142.569 83.0187 142.344 82.4812C142.119 81.9437 141.9 81.4062 141.694 80.8687C141.688 80.8375 141.694 80.825 141.719 80.8438C141.744 80.8563 141.775 80.8813 141.819 80.9125C141.863 80.9438 141.906 80.9812 141.962 81.0187C142.012 81.0562 142.062 81.0875 142.1 81.1062C142.156 81.1312 142.194 81.1313 142.219 81.0875C142.244 81.05 142.237 80.9875 142.194 80.9062C142.162 80.85 142.1 80.75 141.987 80.6C141.881 80.45 141.756 80.2937 141.619 80.1187C141.481 79.9437 141.338 79.7687 141.194 79.5937C141.05 79.4187 140.931 79.2687 140.831 79.1562C140.8 79.1187 140.769 79.1 140.744 79.1187C140.719 79.1312 140.7 79.1562 140.694 79.1937C140.694 79.2125 140.694 79.2687 140.681 79.3562C140.675 79.4437 140.669 79.5375 140.662 79.6375C140.662 79.7375 140.656 79.825 140.656 79.9062C140.656 79.9875 140.656 80.0313 140.669 80.0438C140.681 80.075 140.719 80.1125 140.775 80.1625H140.781Z" fill="white"/>
<path d="M167.013 97.7188C167.013 97.7188 166.981 97.6688 166.95 97.6563C166.931 97.6563 166.875 97.6375 166.794 97.6188C166.712 97.6 166.625 97.575 166.525 97.55C166.431 97.525 166.344 97.5063 166.262 97.4938C166.181 97.4813 166.137 97.475 166.125 97.4813C166.094 97.4875 166.044 97.5188 165.987 97.5625C165.931 97.6063 165.875 97.6375 165.819 97.6563C165.737 97.675 165.644 97.7 165.537 97.725C165.431 97.75 165.325 97.775 165.212 97.8C165.1 97.825 164.994 97.8438 164.894 97.8688C164.787 97.8875 164.706 97.9063 164.638 97.9188C163.956 98.0438 163.275 98.1875 162.594 98.3375C161.912 98.4875 161.231 98.6313 160.556 98.7813C159.875 98.925 159.737 98.9688 159.05 99.0938C158.362 99.2188 157.675 99.325 156.981 99.4063C156.694 99.4375 156.406 99.4688 156.125 99.4938C155.838 99.5188 155.55 99.5375 155.262 99.5438C155.206 99.5438 155.175 99.5563 155.169 99.5938C155.163 99.625 155.169 99.65 155.206 99.6625C155.35 99.7188 155.525 99.7688 155.719 99.8C155.912 99.8313 156.113 99.8563 156.319 99.8688C156.525 99.8813 156.731 99.8813 156.931 99.875C157.131 99.875 157.312 99.8625 157.469 99.8438C158.156 99.7625 158.844 99.6563 159.531 99.5313C160.213 99.4063 160.35 99.3625 161.038 99.2125C161.719 99.0625 162.4 98.9125 163.081 98.7625C163.762 98.6125 164.444 98.475 165.131 98.3438C165.162 98.3438 165.175 98.35 165.156 98.3688C165.138 98.3938 165.106 98.4188 165.069 98.4563C165.031 98.4938 164.987 98.5313 164.937 98.5813C164.894 98.625 164.856 98.6625 164.831 98.7C164.794 98.75 164.794 98.7938 164.825 98.825C164.856 98.8563 164.919 98.8625 165 98.8313C165.062 98.8125 165.169 98.7625 165.338 98.6875C165.5 98.6063 165.681 98.5188 165.875 98.4125C166.069 98.3063 166.269 98.2 166.469 98.0938C166.669 97.9875 166.831 97.8938 166.963 97.8125C167.006 97.7875 167.025 97.7625 167.019 97.7313L167.013 97.7188Z" fill="white"/>
<path d="M146.012 81.3687C146.606 81.2937 148.119 81.2937 148.1 81.5125C148.088 81.6562 145.994 82.65 145.9 82.725C145.831 82.7812 145.856 82.9125 146 82.8812C146.506 82.75 147.594 82.4687 147.919 82.2375C148.287 82.0125 149.119 80.925 149.131 80.6312C149.144 80.2312 147.775 80.2187 147.481 80.2062C146.481 80.1937 146.481 80.175 145.969 80.9875C145.744 81.3312 145.7 81.4 146.012 81.375V81.3687Z" fill="white"/>
<path d="M163.281 107.469C163.144 108.056 162.625 109.487 162.431 109.4C162.3 109.337 162.094 107.012 162.062 106.894C162.031 106.806 161.906 106.787 161.881 106.937C161.825 107.462 161.719 108.587 161.819 108.975C161.906 109.4 162.625 110.562 162.9 110.681C163.269 110.831 163.75 109.537 163.869 109.262C164.225 108.319 164.237 108.325 163.656 107.562C163.419 107.231 163.362 107.169 163.281 107.469Z" fill="white"/>
<path d="M153.462 113.581C153.075 114.044 151.969 115.081 151.838 114.913C151.75 114.8 152.606 112.631 152.631 112.513C152.644 112.425 152.538 112.35 152.45 112.463C152.163 112.906 151.563 113.863 151.475 114.25C151.363 114.669 151.475 116.031 151.675 116.263C151.931 116.563 152.944 115.631 153.175 115.444C153.919 114.763 153.931 114.775 153.756 113.831C153.687 113.425 153.675 113.344 153.469 113.575L153.462 113.581Z" fill="white"/>
<path d="M159.025 89.775C158.944 89.775 158.894 89.875 159.006 89.9375C159.425 90.1438 160.338 90.575 160.688 90.6063C161.069 90.6625 162.25 90.4 162.431 90.2C162.669 89.9375 161.737 89.1375 161.537 88.9563C160.856 88.3688 160.869 88.3563 160.056 88.625C159.706 88.7313 159.637 88.7563 159.869 88.9125C160.319 89.2063 161.356 90.075 161.225 90.2125C161.137 90.3 159.137 89.7813 159.025 89.775Z" fill="white"/>
<path d="M142.1 93.1125C142.275 93.4062 142.719 93.1562 142.919 93.0125C143.219 92.8062 143.612 92.2687 143.7 91.9312C143.725 91.8375 143.737 91.7562 143.669 91.8312C143.412 92.1125 142.362 93.2 142.169 92.8187C141.981 92.4625 142.394 91.3062 141.987 91.1625C141.8 91.1062 141.631 91.275 141.5 91.3812C141.25 91.5937 141.244 91.5875 141.3 91.8937C141.306 92.0187 141.319 92.05 141.387 91.975C141.444 91.9187 141.806 91.5562 141.981 91.5687C142.062 91.7937 141.75 92.5125 142.106 93.1125H142.1Z" fill="white"/>
<path d="M149.019 108.813C149.012 108.9 149.075 108.875 149.094 108.825C149.331 107.788 149.575 108.225 149.994 108.088C150.706 107.85 150.987 106.544 151.537 105.763C151.562 105.731 151.794 105.469 151.669 105.519C150.812 105.894 150.869 107.363 149.962 107.663C149.562 107.794 149.369 107.481 149.075 108.131C148.937 108.131 148.725 108.119 148.619 108.225C148.462 108.381 148.5 108.756 148.556 108.938C148.569 108.969 148.65 109.225 148.694 109.15C148.731 109.081 148.75 108.969 148.762 108.906C148.762 108.881 148.637 108.7 148.669 108.619C148.687 108.575 148.937 108.55 149.025 108.569C149.012 108.644 149.006 108.806 149.012 108.819L149.019 108.813Z" fill="white"/>
<path d="M153.956 95.1875C154.106 95.5562 154.156 95.9375 154.375 96.2062C154.619 96.5125 155.131 96.7 155.462 96.5C156.137 96.075 154.894 95.5812 154.487 95.4937C154.481 95.3875 154.425 95.2562 154.369 95.1187C154.081 94.4187 152.762 94.2437 151.95 93.75C151.919 93.7312 151.637 93.5188 151.7 93.6375C152.137 94.4688 153.587 94.3 153.95 95.1812L153.956 95.1875ZM155.212 96.4375C154.962 96.4375 154.556 95.8625 154.55 95.6375C154.737 95.6937 155.587 96.0937 155.212 96.4375Z" fill="white"/>
<path d="M152.819 81.2562C152.881 81.2875 153.006 81.2375 153.069 81.2687C153.319 81.4 153.1 82.5562 152.912 83.0937C152.887 83.1375 152.85 83.325 153.025 83.2562C153.5 83.075 154.412 81.2937 154.875 81.5437C155.062 81.6437 155.05 82 155.112 82.0375C155.219 82.0937 155.531 81.7375 155.581 81.6437C155.681 81.4562 155.519 81.0875 155.35 80.9937C154.681 80.6312 153.562 82.4812 153.462 82.4062C153.45 82.4 154.012 80.6312 153.269 80.225C153.144 80.1562 152.606 80.45 152.556 80.5437C152.487 80.6687 152.694 81.1812 152.819 81.25V81.2562Z" fill="white"/>
<path d="M162.344 101.681C162.294 101.675 162.113 101.7 162.231 101.844C162.569 102.231 164.538 102.481 164.463 103.006C164.431 103.219 164.1 103.331 164.088 103.4C164.069 103.525 164.506 103.694 164.613 103.706C164.819 103.737 165.106 103.456 165.138 103.262C165.244 102.506 163.137 102.081 163.175 101.962C163.175 101.944 165.019 101.869 165.138 101.025C165.156 100.881 164.7 100.481 164.594 100.462C164.456 100.444 164.05 100.812 164.025 100.956C164.013 101.025 164.106 101.131 164.094 101.2C164.056 101.481 162.906 101.675 162.337 101.681H162.344Z" fill="white"/>
<path d="M128.7 90.475C128.819 90.5437 129.338 90.35 129.406 90.225C129.438 90.1625 129.394 90.0312 129.425 89.9687C129.563 89.725 130.7 89.9687 131.231 90.1687C131.275 90.1937 131.456 90.2375 131.394 90.0562C131.225 89.5687 129.475 88.6125 129.738 88.15C129.844 87.9625 130.194 87.9812 130.231 87.9187C130.294 87.8125 129.944 87.4937 129.856 87.4375C129.675 87.3312 129.3 87.4875 129.206 87.6562C128.831 88.3187 130.638 89.4937 130.563 89.5937C130.556 89.6062 128.813 89 128.4 89.7375C128.331 89.8625 128.606 90.4062 128.7 90.4625V90.475Z" fill="white"/>
<path d="M127.662 106.037C127.794 105.994 128.006 105.487 127.969 105.35C127.944 105.281 127.819 105.231 127.8 105.162C127.719 104.894 128.675 104.225 129.181 103.969C129.231 103.956 129.387 103.85 129.212 103.775C128.744 103.569 126.856 104.194 126.7 103.687C126.637 103.481 126.894 103.238 126.875 103.169C126.837 103.05 126.369 103.088 126.269 103.119C126.069 103.181 125.925 103.563 125.981 103.744C126.206 104.475 128.287 103.95 128.312 104.075C128.312 104.094 126.687 104.95 126.931 105.769C126.975 105.906 127.556 106.075 127.662 106.044V106.037Z" fill="white"/>
<path d="M158.9 114.994C158.862 115.031 158.869 115.144 158.825 115.181C158.606 115.394 157.562 114.681 157.425 114.575C157.55 114.281 157.225 113.781 157.156 113.831C157.106 113.856 157.181 114.075 157.05 114.206C157.012 114.244 156.881 114.269 156.837 114.244C157.15 113.687 157.181 113.231 156.637 112.656C156.181 112.169 155.956 112.138 155.412 111.75C155.106 111.525 154.806 111.313 154.525 111.056C154.456 110.988 154.425 111.056 154.456 111.106C154.706 111.469 155.231 111.863 155.706 112.2C156.081 112.475 156.319 112.519 156.625 112.844C157.125 113.369 156.356 114.112 156.044 114.394C156.025 114.412 156.2 114.825 156.262 114.806C156.656 114.738 157.162 114.869 157.375 114.681C157.394 115.088 158.487 116.2 158.188 116.488C158.069 116.606 157.812 116.519 157.775 116.556C157.706 116.625 157.894 116.944 157.944 116.994C158.056 117.119 158.381 117.094 158.494 116.987C158.912 116.581 157.825 115.275 157.894 115.206C157.906 115.194 159.087 116.063 159.569 115.6C159.65 115.525 159.55 115.056 159.481 114.987C159.412 114.919 158.981 114.925 158.906 115.006L158.9 114.994Z" fill="white"/>
<path d="M133.287 109.919C133.337 109.938 133.412 109.938 133.512 109.919C133.612 109.9 133.787 109.863 134.025 109.806C134.062 109.806 134.062 109.794 134.044 109.769V109.744C133.025 109.263 133.85 109.65 132.862 109.131C131.875 108.613 130.894 108.063 129.925 107.488C129.869 107.456 129.819 107.45 129.781 107.456C129.744 107.469 129.644 107.481 129.487 107.506C129.225 107.575 129.125 107.625 129.181 107.65C130.15 108.225 131.125 108.775 132.106 109.3C133.087 109.825 132.262 109.438 133.281 109.919H133.287Z" fill="white"/>
<path d="M152.35 85.2937C153.962 85.5875 155.562 85.925 157.137 86.3C158.712 86.675 160.287 87.0937 161.869 87.55C161.912 87.5625 161.956 87.5687 161.987 87.575C162.019 87.575 162.062 87.575 162.1 87.5562C162.144 87.5437 162.194 87.5187 162.262 87.4812C162.331 87.45 162.419 87.4 162.531 87.3437C162.719 87.25 162.862 87.175 162.95 87.1125C163.044 87.05 163.05 87.0125 162.969 86.9937C161.394 86.5375 159.819 86.1187 158.237 85.7375C156.662 85.3562 155.062 85.0187 153.45 84.725C153.375 84.7187 153.262 84.7437 153.106 84.8125C152.956 84.8812 152.7 85.0062 152.35 85.1937C152.312 85.2062 152.306 85.225 152.319 85.2562L152.344 85.3L152.35 85.2937Z" fill="white"/>
<path d="M133.256 91.8687C133.256 91.8687 133.288 91.9062 133.313 91.8875L133.35 91.8625C133.475 90.3812 133.644 88.9187 133.85 87.4625C134.056 86.0125 134.294 84.5562 134.569 83.0937C134.575 83.0562 134.581 83.0187 134.581 82.9875C134.581 82.9562 134.569 82.925 134.55 82.8875C134.531 82.85 134.506 82.8062 134.469 82.7437C134.431 82.6875 134.388 82.6062 134.325 82.5125C134.225 82.35 134.15 82.2312 134.087 82.15C134.025 82.075 133.988 82.0687 133.981 82.1375C133.706 83.5937 133.463 85.05 133.256 86.5062C133.05 87.9625 132.881 89.425 132.75 90.9062C132.75 90.975 132.788 91.075 132.856 91.2062C132.931 91.3375 133.063 91.5562 133.256 91.8562V91.8687Z" fill="white"/>
<path d="M140.938 115.725C139.475 115.563 138.025 115.363 136.588 115.125C135.15 114.888 133.713 114.613 132.275 114.306C132.238 114.3 132.2 114.294 132.169 114.294C132.138 114.294 132.106 114.3 132.069 114.319C132.031 114.338 131.988 114.363 131.925 114.394C131.869 114.431 131.788 114.475 131.694 114.531C131.531 114.625 131.413 114.706 131.331 114.763C131.256 114.825 131.25 114.863 131.319 114.869C132.756 115.175 134.194 115.456 135.631 115.694C137.069 115.938 138.519 116.138 139.981 116.3C140.05 116.3 140.15 116.269 140.281 116.2C140.413 116.131 140.631 116 140.938 115.813C140.969 115.8 140.975 115.781 140.956 115.756L140.931 115.719L140.938 115.725Z" fill="white"/>
<path d="M165.338 105.6C165.294 105.575 165.237 105.537 165.156 105.487C165.081 105.437 165 105.387 164.919 105.337L164.694 105.212C164.625 105.175 164.587 105.156 164.581 105.156C164.344 105.175 164.1 105.187 163.844 105.194C163.587 105.194 163.344 105.194 163.113 105.169C162.006 105.025 160.931 104.8 159.888 104.537C158.844 104.269 157.787 103.969 156.725 103.631C156.362 103.519 156.031 103.431 155.725 103.369C155.419 103.306 155.131 103.281 154.869 103.287C154.606 103.294 154.356 103.344 154.125 103.425C153.894 103.512 153.656 103.644 153.419 103.819L152.981 104.144C152.831 104.256 152.681 104.375 152.531 104.506C152.531 104.519 152.519 104.531 152.506 104.55C152.494 104.569 152.506 104.587 152.519 104.606C152.6 104.687 152.681 104.756 152.75 104.819L153.025 105.056C153.075 105.106 153.131 105.119 153.188 105.087C153.256 105.037 153.337 104.987 153.425 104.937C153.512 104.887 153.606 104.844 153.706 104.8C153.806 104.756 153.912 104.725 154.019 104.694C154.125 104.669 154.231 104.656 154.344 104.656C154.494 104.656 154.631 104.681 154.756 104.712C154.881 104.75 155.012 104.806 155.156 104.887C155.231 104.931 155.319 105.012 155.412 105.144C155.506 105.275 155.587 105.412 155.644 105.562C155.706 105.712 155.744 105.862 155.75 106C155.756 106.137 155.719 106.244 155.637 106.3C155.55 106.362 155.412 106.387 155.244 106.369C155.075 106.35 154.894 106.344 154.706 106.331C154.519 106.325 154.337 106.331 154.156 106.369C153.975 106.4 153.838 106.506 153.725 106.681C153.638 106.819 153.594 106.962 153.581 107.119C153.569 107.275 153.581 107.437 153.619 107.6C153.656 107.762 153.712 107.931 153.787 108.094C153.862 108.256 153.956 108.412 154.062 108.55C153.925 108.437 153.775 108.337 153.606 108.237C153.444 108.144 153.275 108.069 153.106 108.012C152.937 107.956 152.781 107.944 152.625 107.956C152.469 107.975 152.331 108.05 152.206 108.175C152.062 108.306 151.962 108.456 151.894 108.625C151.825 108.8 151.775 108.969 151.737 109.144C151.7 109.319 151.662 109.494 151.631 109.656C151.6 109.819 151.55 109.969 151.481 110.087C151.337 109.8 151.181 109.6 151.025 109.475C150.862 109.35 150.706 109.287 150.55 109.269C150.394 109.256 150.244 109.294 150.094 109.381C149.95 109.469 149.819 109.587 149.7 109.731C149.581 109.875 149.475 110.056 149.387 110.262C149.3 110.469 149.244 110.687 149.219 110.912C149.031 110.569 148.825 110.369 148.606 110.3C148.387 110.231 148.187 110.256 148 110.381C147.812 110.5 147.662 110.7 147.537 110.981C147.412 111.262 147.375 111.587 147.431 111.969C147.437 112.031 147.462 112.112 147.506 112.225C147.55 112.337 147.6 112.45 147.65 112.556C147.7 112.669 147.756 112.756 147.806 112.831C147.856 112.906 147.894 112.937 147.925 112.931C147.937 112.925 147.95 112.881 147.962 112.8C147.975 112.725 147.987 112.637 147.994 112.537C148 112.437 148.006 112.344 148.006 112.256C148.006 112.169 148.006 112.106 148.006 112.081C148.006 112.062 147.987 112.037 147.95 112L147.85 111.894C147.812 111.856 147.781 111.812 147.744 111.762C147.712 111.719 147.687 111.675 147.675 111.631C147.731 111.55 147.837 111.469 147.981 111.4C148.125 111.331 148.244 111.275 148.35 111.25C148.5 111.212 148.612 111.212 148.706 111.262C148.794 111.306 148.862 111.375 148.906 111.469C148.95 111.562 148.975 111.675 148.975 111.8C148.975 111.925 148.962 112.05 148.931 112.169C148.919 112.212 148.937 112.244 148.981 112.256C149.025 112.269 149.062 112.256 149.087 112.212C149.156 112.125 149.225 111.994 149.281 111.825C149.337 111.656 149.419 111.475 149.506 111.287C149.6 111.1 149.719 110.919 149.869 110.737C150.012 110.556 150.212 110.419 150.475 110.3C150.625 110.237 150.75 110.206 150.869 110.219C150.987 110.225 151.087 110.262 151.181 110.331C151.269 110.4 151.344 110.494 151.4 110.619C151.456 110.744 151.487 110.881 151.487 111.044C151.487 111.075 151.5 111.106 151.519 111.137C151.544 111.169 151.569 111.169 151.6 111.15C151.662 111.119 151.725 111.012 151.787 110.837L152 110.231C152.081 110.006 152.181 109.775 152.3 109.544C152.419 109.312 152.581 109.125 152.788 108.969C152.95 108.85 153.119 108.8 153.294 108.819C153.469 108.844 153.644 108.9 153.825 108.987C154.006 109.081 154.175 109.194 154.337 109.331C154.506 109.469 154.65 109.587 154.781 109.694C155.106 109.956 155.456 110.206 155.837 110.444C156.212 110.681 156.581 110.85 156.95 110.956C156.987 110.969 157.019 110.956 157.044 110.925C157.069 110.887 157.075 110.862 157.062 110.837C157.037 110.8 156.994 110.731 156.95 110.631C156.9 110.537 156.85 110.437 156.794 110.337L156.637 110.069C156.594 109.987 156.556 109.944 156.538 109.937C156.406 109.887 156.231 109.812 156 109.694C155.775 109.581 155.55 109.45 155.325 109.306C155.1 109.162 154.894 109.012 154.706 108.862C154.519 108.706 154.394 108.569 154.337 108.45C154.287 108.356 154.25 108.262 154.237 108.156C154.219 108.05 154.219 107.95 154.237 107.85C154.25 107.75 154.275 107.65 154.319 107.562C154.356 107.469 154.406 107.394 154.469 107.325C154.556 107.212 154.656 107.144 154.775 107.119C154.894 107.094 155.012 107.081 155.137 107.081C155.262 107.081 155.394 107.1 155.525 107.125C155.662 107.15 155.781 107.169 155.9 107.175C156.012 107.181 156.119 107.175 156.206 107.144C156.294 107.112 156.356 107.05 156.4 106.956C156.475 106.775 156.506 106.575 156.481 106.362C156.456 106.15 156.394 105.944 156.294 105.744C156.194 105.544 156.062 105.35 155.9 105.169C155.744 104.987 155.569 104.825 155.387 104.681C155.2 104.537 155.019 104.419 154.825 104.319C154.694 104.25 154.562 104.194 154.444 104.156C154.769 103.962 155.1 103.856 155.469 103.844C155.9 103.831 156.381 103.906 156.912 104.087C157.962 104.444 159 104.781 160.037 105.094C161.075 105.406 162.144 105.656 163.244 105.831C163.519 105.862 163.8 105.887 164.1 105.9C164.394 105.912 164.656 105.906 164.875 105.881C165.1 105.856 165.256 105.819 165.356 105.769C165.456 105.719 165.444 105.65 165.331 105.569L165.338 105.6Z" fill="white"/>
<path d="M157.4 108.1C157.4 108.1 157.356 108.119 157.35 108.125C157.344 108.125 157.344 108.15 157.35 108.181C157.381 108.263 157.425 108.381 157.469 108.544C157.512 108.7 157.55 108.819 157.575 108.894C157.587 108.9 157.594 108.913 157.606 108.925C157.612 108.938 157.625 108.938 157.637 108.925C157.681 108.913 157.75 108.888 157.831 108.856C157.912 108.825 158.006 108.788 158.094 108.744C158.187 108.7 158.281 108.656 158.375 108.606L158.612 108.475C158.612 108.475 158.65 108.438 158.638 108.419L158.531 108.156C158.494 108.069 158.456 107.969 158.419 107.869C158.475 107.844 158.544 107.819 158.619 107.775C158.7 107.738 158.781 107.694 158.862 107.65C158.944 107.606 159.025 107.556 159.106 107.5L159.3 107.363C159.3 107.363 159.331 107.331 159.331 107.306L159.15 106.956C159.081 106.831 159.025 106.706 158.969 106.594C158.956 106.575 158.931 106.575 158.906 106.588C158.775 106.688 158.637 106.781 158.494 106.869C158.35 106.956 158.2 107.031 158.05 107.094C158.025 107.106 158.012 107.113 158.006 107.119C158 107.119 158.006 107.144 158.013 107.175L158.112 107.419L158.231 107.706C158.094 107.788 157.956 107.863 157.812 107.931C157.669 108 157.525 108.056 157.381 108.1H157.4Z" fill="white"/>
<path d="M158.869 107.956C158.869 107.956 158.862 107.981 158.875 108.013C158.906 108.1 158.95 108.225 159 108.388C159.05 108.55 159.094 108.669 159.137 108.738C159.137 108.769 159.156 108.781 159.187 108.775C159.237 108.756 159.3 108.725 159.388 108.681C159.475 108.638 159.563 108.594 159.663 108.538C159.763 108.488 159.856 108.431 159.95 108.363C160.044 108.3 160.119 108.244 160.181 108.194C160.206 108.175 160.219 108.156 160.212 108.138L160.044 107.763C159.988 107.625 159.931 107.5 159.881 107.375C159.869 107.356 159.844 107.356 159.812 107.369C159.675 107.488 159.525 107.588 159.375 107.681C159.225 107.775 159.069 107.85 158.919 107.925C158.894 107.938 158.875 107.95 158.869 107.956Z" fill="white"/>
<path d="M160.05 110.35C160.05 110.35 160.019 110.325 159.981 110.337C159.819 110.444 159.65 110.537 159.475 110.625C159.3 110.712 159.125 110.781 158.95 110.844C158.925 110.856 158.906 110.862 158.894 110.869C158.887 110.869 158.881 110.894 158.881 110.937L158.925 111.212L158.975 111.537C158.812 111.619 158.644 111.694 158.475 111.756C158.306 111.819 158.137 111.869 157.969 111.912C157.937 111.925 157.919 111.931 157.912 111.937C157.906 111.937 157.9 111.962 157.9 112C157.912 112.094 157.925 112.225 157.931 112.406C157.931 112.581 157.944 112.712 157.956 112.794C157.969 112.806 157.975 112.812 157.981 112.831C157.987 112.844 158 112.844 158.019 112.837C158.075 112.825 158.15 112.806 158.244 112.775C158.344 112.744 158.45 112.712 158.562 112.675C158.675 112.637 158.787 112.594 158.9 112.55L159.187 112.425C159.225 112.406 159.237 112.387 159.231 112.362L159.187 112.069C159.169 111.969 159.156 111.856 159.144 111.744C159.206 111.725 159.287 111.694 159.381 111.656C159.475 111.619 159.575 111.581 159.675 111.537C159.775 111.494 159.875 111.444 159.969 111.394L160.212 111.256C160.212 111.256 160.256 111.225 160.256 111.2L160.156 110.794C160.119 110.65 160.087 110.506 160.062 110.369L160.05 110.35Z" fill="white"/>
<path d="M135.494 111.875C135.494 111.875 135.475 111.831 135.475 111.825C135.475 111.819 135.45 111.812 135.413 111.819L135.144 111.862L134.825 111.912C134.75 111.75 134.694 111.587 134.638 111.425C134.588 111.256 134.544 111.094 134.513 110.931C134.506 110.906 134.5 110.887 134.494 110.875C134.494 110.869 134.469 110.862 134.431 110.862C134.344 110.875 134.213 110.887 134.038 110.9C133.869 110.906 133.738 110.919 133.663 110.931C133.65 110.937 133.644 110.95 133.625 110.95C133.613 110.95 133.606 110.969 133.619 110.987C133.631 111.037 133.644 111.112 133.669 111.212C133.694 111.306 133.719 111.412 133.756 111.519C133.788 111.625 133.825 111.737 133.869 111.844L133.975 112.125C133.994 112.162 134.013 112.175 134.031 112.169L134.319 112.119C134.419 112.1 134.525 112.087 134.638 112.069C134.656 112.131 134.681 112.206 134.712 112.3C134.744 112.394 134.781 112.487 134.819 112.587C134.856 112.681 134.9 112.781 134.944 112.875L135.063 113.112C135.063 113.112 135.094 113.156 135.119 113.156L135.513 113.05C135.65 113.012 135.788 112.981 135.925 112.956C135.944 112.944 135.95 112.925 135.944 112.894C135.85 112.737 135.769 112.569 135.694 112.394C135.619 112.219 135.556 112.05 135.506 111.881L135.494 111.875Z" fill="white"/>
<path d="M132.319 105.05C133.294 104.581 134.294 104.131 135.312 103.694C135.45 103.637 135.606 103.569 135.787 103.487C135.969 103.406 136.15 103.319 136.337 103.219C136.525 103.119 136.706 103.019 136.875 102.906C137.044 102.8 137.187 102.681 137.312 102.562C137.431 102.444 137.519 102.319 137.569 102.194C137.619 102.069 137.612 101.937 137.55 101.8C137.45 101.575 137.331 101.356 137.206 101.156L136.819 100.537C136.687 100.325 136.562 100.106 136.444 99.875C136.325 99.6437 136.219 99.3937 136.138 99.1187C136.069 98.8875 136.025 98.6375 136 98.3687C136.012 98.3687 136.025 98.3812 136.037 98.3812C136.244 98.4562 136.494 98.5187 136.781 98.5875C137.069 98.65 137.35 98.6812 137.631 98.6875C137.913 98.6875 138.156 98.6625 138.369 98.6C138.581 98.5375 138.719 98.425 138.787 98.25C138.831 98.15 138.837 98.025 138.812 97.8812C138.788 97.7375 138.75 97.5812 138.687 97.4062C138.631 97.2312 138.556 97.0437 138.469 96.8437L138.206 96.225C138.112 96.0125 138.025 95.8062 137.931 95.6C137.837 95.3937 137.75 95.2 137.662 95.025C137.544 94.7937 137.387 94.5875 137.187 94.4062C136.987 94.225 136.787 94.0437 136.575 93.8687L137.025 94.0562C137.194 94.125 137.362 94.2 137.537 94.2687C137.712 94.3375 137.894 94.4 138.069 94.4562C138.244 94.5125 138.412 94.5437 138.562 94.5562C138.712 94.5687 138.85 94.5562 138.962 94.5125C139.081 94.4687 139.169 94.3875 139.237 94.2625C139.356 94.0375 139.45 93.8187 139.537 93.5937L139.787 92.9062C139.869 92.675 139.969 92.4437 140.069 92.2062C140.175 91.9687 140.306 91.7312 140.469 91.5C140.631 91.2687 140.837 91.0437 141.075 90.8375C141.319 90.6312 141.612 90.4437 141.969 90.2875C142 90.275 142.012 90.2125 142 90.1C141.994 89.9875 141.994 89.875 142 89.7625C142 89.65 141.987 89.5437 141.975 89.45C141.962 89.3562 141.925 89.3187 141.869 89.3437C141.487 89.5 141.106 89.65 140.731 89.7875C140.356 89.9312 139.981 90.0812 139.6 90.2437C139.225 90.4062 138.85 90.5812 138.475 90.7687C138.1 90.9625 137.731 91.1812 137.369 91.4375C137.4 91.2875 137.406 91.125 137.388 90.95C137.369 90.775 137.344 90.6 137.306 90.425C137.269 90.25 137.231 90.0812 137.187 89.9187C137.144 89.7562 137.106 89.6125 137.075 89.4812C137.044 89.35 137.025 89.2437 137.012 89.1625C137.006 89.0812 137.012 89.0312 137.056 89.0187C137.081 89.0187 137.131 89.0375 137.2 89.0812L137.456 89.2562C137.562 89.325 137.675 89.3937 137.8 89.4562C137.925 89.5187 138.056 89.5625 138.2 89.5937C138.344 89.6187 138.487 89.6187 138.631 89.5812C138.781 89.55 138.925 89.4625 139.069 89.3312C139.2 89.2125 139.331 89.0812 139.45 88.925C139.569 88.7687 139.694 88.6125 139.812 88.45L140.162 87.9562C140.275 87.7937 140.394 87.6375 140.513 87.4937C140.806 87.7312 141.094 87.8937 141.375 87.9875C141.644 88.075 141.931 88.075 142.256 87.9875C142.25 88.0375 142.238 88.0937 142.231 88.15C142.213 88.3062 142.2 88.4437 142.2 88.5687C142.2 88.95 142.281 89.2875 142.431 89.5687C142.581 89.85 142.775 90.0875 143.019 90.2687C143.262 90.45 143.55 90.5875 143.869 90.6812C144.194 90.775 144.531 90.8125 144.881 90.8062C145.294 90.8 145.756 90.7437 146.269 90.6437C146.556 90.5875 146.837 90.5187 147.125 90.4437C147.056 90.6062 146.994 90.7625 146.95 90.925C146.887 91.1375 146.856 91.3437 146.85 91.5437C146.844 91.75 146.875 91.9375 146.944 92.1125C147.012 92.2875 147.131 92.4375 147.3 92.5625C147.462 92.6875 147.687 92.775 147.969 92.8312C148.15 92.8687 148.35 92.8875 148.581 92.8812C148.812 92.8812 149.056 92.8625 149.312 92.8312C149.569 92.8 149.831 92.7625 150.1 92.7062C150.369 92.65 150.625 92.5875 150.875 92.5125C151.125 92.4437 151.356 92.3625 151.575 92.275C151.787 92.1875 151.975 92.0937 152.131 92C152.294 91.9 152.45 91.7562 152.594 91.5625C152.737 91.3687 152.837 91.1812 152.9 90.9937C152.95 90.85 152.975 90.7187 152.962 90.6062C152.956 90.4937 152.937 90.3875 152.912 90.2875C152.887 90.1875 152.862 90.0812 152.837 89.975C152.812 89.8687 152.812 89.7437 152.825 89.6V89.5812L153.219 89.65L153.775 89.75C153.681 89.8562 153.612 89.9625 153.562 90.0562C153.512 90.15 153.481 90.2437 153.469 90.3312C153.456 90.4187 153.456 90.5125 153.469 90.6125C153.481 90.7125 153.506 90.825 153.544 90.9437L153.369 91.0437C153.3 91.0812 153.237 91.1187 153.181 91.1562C153.125 91.1937 153.075 91.2375 153.044 91.275C153.006 91.3125 152.994 91.3437 153 91.375C153.006 91.4125 153.037 91.425 153.081 91.425C153.125 91.425 153.181 91.4125 153.244 91.3875C153.306 91.3625 153.381 91.3312 153.456 91.3L153.675 91.2C153.894 91.5437 154.144 91.8875 154.438 92.2375C154.731 92.5875 155.037 92.9375 155.362 93.3C155.681 93.6562 156.006 94.0125 156.331 94.3625C156.662 94.7125 156.969 95.0437 157.275 95.35C157.394 95.4687 157.525 95.6 157.662 95.75C157.806 95.9 157.925 96.0312 158.019 96.15C157.744 96.4062 157.537 96.6562 157.406 96.9125C157.287 97.1437 157.244 97.4062 157.269 97.7C157.044 97.6375 156.812 97.5875 156.575 97.5562C156.369 97.525 156.15 97.5062 155.913 97.5062C155.681 97.5062 155.45 97.525 155.225 97.5625C155 97.6 154.794 97.6625 154.6 97.7437C154.406 97.8312 154.244 97.9437 154.112 98.0937C153.981 98.2375 153.894 98.4187 153.856 98.6312C153.812 98.8437 153.831 99.1 153.912 99.3875C153.987 99.6687 154.125 99.9812 154.312 100.331C154.5 100.681 154.725 101.025 154.981 101.369C155.237 101.712 155.506 102.025 155.781 102.312C156.056 102.6 156.319 102.819 156.569 102.969C156.7 103.05 156.837 103.119 156.987 103.169C157.137 103.219 157.294 103.25 157.45 103.262C157.606 103.275 157.762 103.269 157.919 103.25C158.075 103.225 158.225 103.181 158.369 103.119C158.487 103.069 158.612 102.987 158.762 102.881C158.906 102.775 159.044 102.662 159.181 102.55C159.312 102.437 159.438 102.331 159.544 102.244C159.65 102.156 159.737 102.1 159.794 102.087C159.812 102.087 159.825 102.094 159.819 102.119C159.819 102.144 159.812 102.175 159.806 102.212C159.8 102.25 159.794 102.287 159.781 102.325C159.769 102.362 159.769 102.387 159.769 102.406C159.769 102.462 159.794 102.494 159.831 102.506C159.869 102.519 159.9 102.506 159.931 102.481C160.025 102.375 160.144 102.231 160.3 102.05C160.456 101.869 160.619 101.656 160.788 101.406C160.831 101.319 160.813 101.269 160.731 101.256C160.688 101.25 160.625 101.237 160.544 101.237C160.462 101.237 160.381 101.225 160.3 101.225C160.206 101.212 160.1 101.206 159.994 101.206C159.956 101.231 159.925 101.275 159.9 101.331C159.875 101.394 159.85 101.425 159.812 101.437C159.512 101.55 159.244 101.694 159.006 101.862C158.769 102.031 158.562 102.187 158.375 102.344C158.194 102.494 158.025 102.631 157.881 102.744C157.737 102.856 157.606 102.919 157.494 102.925C157.331 102.819 157.162 102.681 156.981 102.519C156.8 102.356 156.625 102.169 156.444 101.962C156.262 101.756 156.087 101.537 155.913 101.312C155.738 101.087 155.581 100.856 155.437 100.625C155.294 100.394 155.175 100.169 155.069 99.95C154.962 99.7312 154.887 99.5312 154.831 99.3437C154.744 99.025 154.744 98.7562 154.825 98.5437C154.906 98.3312 155.037 98.1625 155.225 98.0375C155.412 97.9125 155.625 97.8312 155.887 97.7937C156.144 97.7562 156.406 97.7562 156.662 97.7937C156.869 97.825 157.069 97.8625 157.256 97.9125C157.269 97.9125 157.287 97.9187 157.3 97.925C157.331 98.0375 157.381 98.125 157.456 98.1937C157.556 98.2875 157.675 98.3562 157.812 98.4C157.95 98.4437 158.094 98.4687 158.25 98.4687C158.406 98.4687 158.55 98.4687 158.687 98.45C159.006 98.4187 159.231 98.325 159.381 98.1625C159.525 98 159.606 97.8 159.619 97.5687C159.631 97.3375 159.587 97.0812 159.481 96.825C159.375 96.5687 159.237 96.3312 159.069 96.125C159.05 96.1062 159.031 96.0875 159.012 96.0625C159.037 96.025 159.05 96 159.056 95.9937C159.062 95.9812 159.075 95.9687 159.1 95.9437C159.306 95.7375 159.587 95.5312 159.95 95.3187C160.312 95.1062 160.7 94.9 161.106 94.6937C161.519 94.4937 161.925 94.3062 162.325 94.1312C162.725 93.9562 163.069 93.8062 163.35 93.675C163.425 93.6437 163.481 93.6125 163.531 93.5937C163.581 93.575 163.625 93.5562 163.669 93.5312C163.712 93.5125 163.763 93.4875 163.812 93.4687C163.862 93.45 163.931 93.4187 164.013 93.3937C164.038 93.3875 164.044 93.3937 164.037 93.425C164.031 93.45 164.012 93.4875 163.981 93.5312C163.956 93.575 163.919 93.6187 163.887 93.675C163.85 93.725 163.825 93.775 163.812 93.8125C163.794 93.8687 163.8 93.9125 163.844 93.9375C163.881 93.9625 163.938 93.95 164.006 93.9062C164.056 93.875 164.156 93.7937 164.287 93.675C164.425 93.5562 164.575 93.4125 164.737 93.2562C164.9 93.1 165.062 92.9437 165.225 92.7812C165.387 92.625 165.519 92.4875 165.625 92.375C165.656 92.3437 165.663 92.3125 165.65 92.2875C165.631 92.2625 165.606 92.2437 165.569 92.2437C165.55 92.2437 165.494 92.2437 165.406 92.2437C165.319 92.2437 165.231 92.2437 165.131 92.2437C165.037 92.2437 164.95 92.25 164.862 92.2562C164.781 92.2625 164.737 92.275 164.725 92.2875C164.694 92.3062 164.663 92.3437 164.619 92.4062C164.575 92.4687 164.531 92.5125 164.481 92.5375C164.194 92.675 163.906 92.8125 163.625 92.9437C163.337 93.075 163.062 93.2062 162.794 93.3312C162.512 93.4625 162.169 93.6187 161.769 93.7937C161.369 93.9687 160.962 94.1562 160.55 94.3625C160.138 94.5625 159.756 94.775 159.394 94.9875C159.05 95.1875 158.781 95.3875 158.581 95.5812L158.319 95.2812C158.231 95.1812 158.15 95.0937 158.075 95.025C157.937 94.8687 157.794 94.7062 157.644 94.55L157.25 94.125C157.5 94.1875 157.75 94.225 158.019 94.2437C158.281 94.2625 158.531 94.2312 158.769 94.1312C158.956 94.0562 159.112 93.9125 159.225 93.7C159.331 93.4875 159.406 93.2375 159.438 92.9625C159.469 92.6875 159.456 92.4062 159.406 92.125C159.35 91.8437 159.263 91.6 159.144 91.4062C158.981 91.15 158.769 90.9312 158.512 90.7625C158.256 90.5937 157.975 90.4625 157.669 90.375C157.362 90.2875 157.05 90.2375 156.731 90.2187C156.412 90.2062 156.106 90.2187 155.812 90.25C155.519 90.2812 155.244 90.3312 155 90.4C154.75 90.4687 154.544 90.525 154.369 90.575C154.237 90.3062 154.181 90.0562 154.219 89.825C154.256 89.5937 154.425 89.4062 154.744 89.2812C154.775 89.2625 154.787 89.2375 154.781 89.2062C154.775 89.175 154.744 89.15 154.706 89.1437L153.912 88.9875L153.112 88.8125H153.094C153.031 88.825 152.969 88.85 152.912 88.8812L152.788 88.925L152.594 89.225C152.537 89.3125 152.487 89.4062 152.444 89.5C152.337 89.7187 152.287 89.9 152.294 90.0437C152.3 90.1875 152.325 90.3187 152.362 90.4375C152.4 90.5562 152.431 90.6687 152.469 90.7812C152.5 90.8937 152.5 91.025 152.456 91.175C152.3 91.2687 152.112 91.3625 151.9 91.45C151.687 91.5375 151.45 91.6187 151.2 91.6875C150.95 91.7562 150.687 91.825 150.425 91.8812C150.156 91.9375 149.9 91.9812 149.644 92.0062C149.387 92.0312 149.144 92.05 148.912 92.05C148.681 92.05 148.475 92.0375 148.294 92.0062C147.981 91.95 147.744 91.8375 147.594 91.675C147.444 91.5125 147.35 91.325 147.325 91.1125C147.294 90.9 147.325 90.675 147.4 90.4375C147.412 90.4125 147.419 90.3812 147.431 90.3562C147.55 90.3187 147.675 90.2812 147.794 90.2437C148.312 90.075 148.806 89.8875 149.287 89.6687C149.762 89.45 150.175 89.2187 150.506 88.975C150.731 88.8125 150.887 88.6062 150.987 88.3625C151.081 88.1187 151.131 87.8562 151.131 87.5875C151.131 87.3187 151.081 87.0437 150.994 86.7687C150.906 86.4937 150.787 86.25 150.637 86.0312C150.487 85.8125 150.312 85.6375 150.106 85.5125C149.906 85.3812 149.688 85.325 149.456 85.3375C149.269 85.3437 149.1 85.4312 148.956 85.5937C148.812 85.7562 148.7 85.9437 148.625 86.1625C148.544 86.3812 148.512 86.6062 148.519 86.8312C148.525 87.0562 148.587 87.2375 148.706 87.375C148.781 87.4625 148.881 87.5187 149.006 87.5437C149.131 87.5687 149.269 87.5812 149.412 87.5812C149.556 87.5812 149.706 87.5812 149.862 87.5687C150.019 87.5625 150.162 87.5687 150.3 87.5937C150.431 87.6187 150.55 87.6625 150.644 87.7312C150.744 87.8 150.806 87.9125 150.844 88.0562C150.5 88.2875 150.094 88.5187 149.612 88.7312C149.137 88.95 148.637 89.1375 148.119 89.3062C147.6 89.475 147.081 89.6125 146.575 89.7187C146.062 89.825 145.606 89.8812 145.194 89.8875C144.937 89.8875 144.656 89.8687 144.344 89.8125C144.031 89.7562 143.744 89.6625 143.481 89.5312C143.219 89.4 142.994 89.2187 142.806 88.9937C142.625 88.7687 142.531 88.4937 142.525 88.1625C142.525 88.0687 142.525 87.9625 142.537 87.8562C142.587 87.8187 142.637 87.7812 142.669 87.7312C142.756 87.6125 142.812 87.4875 142.837 87.3437C142.862 87.2 142.869 87.05 142.856 86.8937C142.844 86.7375 142.819 86.5937 142.788 86.4625C142.712 86.15 142.581 85.9375 142.381 85.8187C142.181 85.7 141.956 85.6562 141.712 85.6812C141.462 85.7062 141.212 85.7937 140.962 85.9437C140.712 86.0875 140.506 86.2625 140.331 86.4562C140.325 86.4625 140.319 86.475 140.312 86.4812C140.3 86.4812 140.294 86.475 140.288 86.4687C140.275 86.4687 140.256 86.45 140.231 86.4375C140.037 86.3 139.825 86.1 139.6 85.8312C139.375 85.5625 139.15 85.2812 138.931 84.975C138.712 84.6687 138.5 84.3625 138.3 84.0562C138.1 83.75 137.925 83.4937 137.781 83.2812C137.737 83.2125 137.7 83.1562 137.669 83.1187C137.637 83.075 137.612 83.0312 137.587 82.9937C137.556 82.95 137.531 82.9062 137.5 82.8625C137.469 82.8187 137.431 82.7562 137.394 82.6812C137.375 82.65 137.381 82.6375 137.412 82.6437C137.444 82.6437 137.481 82.6625 137.525 82.6812C137.569 82.7 137.625 82.725 137.681 82.75C137.737 82.775 137.787 82.7937 137.831 82.8C137.894 82.8125 137.931 82.8 137.95 82.75C137.969 82.7062 137.95 82.65 137.887 82.5812C137.844 82.5375 137.756 82.4562 137.612 82.3437C137.469 82.2312 137.312 82.1125 137.131 81.975C136.95 81.8437 136.769 81.7062 136.581 81.575C136.4 81.4437 136.244 81.3312 136.119 81.25C136.075 81.2187 136.044 81.2125 136.025 81.2375C136 81.2562 135.994 81.2875 136 81.3312C136 81.35 136.012 81.4062 136.031 81.4875C136.05 81.5687 136.069 81.6625 136.087 81.7562C136.106 81.85 136.125 81.9375 136.144 82.0187C136.169 82.0937 136.181 82.1375 136.194 82.15C136.219 82.175 136.262 82.2062 136.331 82.2375C136.4 82.2687 136.45 82.3062 136.481 82.35C136.669 82.6125 136.856 82.8812 137.037 83.1375C137.219 83.4 137.394 83.65 137.562 83.9C137.706 84.1125 137.881 84.3687 138.081 84.675C138.281 84.975 138.494 85.2812 138.719 85.5875C138.937 85.8937 139.162 86.1812 139.387 86.4437C139.569 86.6562 139.744 86.8312 139.906 86.9625C139.894 86.975 139.881 86.9875 139.869 87L139.544 87.4187C139.431 87.5625 139.319 87.7 139.206 87.8375C139.094 87.975 138.975 88.1 138.856 88.2187C138.737 88.3375 138.612 88.4375 138.487 88.525C138.325 88.6437 138.175 88.7125 138.037 88.725C137.9 88.7375 137.775 88.725 137.65 88.675C137.525 88.6312 137.412 88.5687 137.306 88.4875C137.2 88.4062 137.1 88.3312 137.012 88.25C136.925 88.175 136.844 88.1187 136.769 88.075C136.694 88.0312 136.625 88.0312 136.569 88.075C136.481 88.1312 136.425 88.2562 136.419 88.4437C136.412 88.6312 136.419 88.8437 136.45 89.0625C136.481 89.2875 136.525 89.5062 136.575 89.7187C136.631 89.9312 136.669 90.0937 136.681 90.2062C136.725 90.5687 136.712 90.9312 136.65 91.2875C136.587 91.6437 136.494 91.975 136.369 92.2937C136.387 92.3375 136.4 92.3812 136.419 92.425L136.487 92.575C136.512 92.6312 136.55 92.7 136.587 92.7687C136.631 92.8437 136.688 92.9375 136.763 93.0437C136.781 93.075 136.806 93.0937 136.837 93.1062C136.869 93.1187 136.894 93.1062 136.919 93.075C137.044 92.925 137.206 92.7562 137.419 92.5687C137.631 92.3812 137.856 92.2062 138.1 92.05C138.344 91.8875 138.587 91.7562 138.831 91.6437C139.075 91.5312 139.287 91.4562 139.469 91.4187C139.294 91.775 139.125 92.1562 138.975 92.55C138.825 92.95 138.65 93.3062 138.431 93.6375C138.319 93.7875 138.162 93.8625 137.962 93.8625C137.756 93.8625 137.537 93.825 137.306 93.75C137.069 93.675 136.838 93.5875 136.606 93.475L136.012 93.2C135.737 93.0812 135.462 92.9687 135.194 92.8625C134.925 92.7562 134.65 92.6625 134.369 92.575C134.087 92.4875 133.794 92.4125 133.481 92.35C133.175 92.2875 132.844 92.2375 132.494 92.2062C132.419 92.2062 132.325 92.2062 132.212 92.2062C132.1 92.2062 131.994 92.225 131.894 92.2375C131.8 92.2562 131.725 92.2812 131.675 92.3187C131.625 92.35 131.631 92.3875 131.687 92.425L131.9 92.6062C131.981 92.675 132.069 92.75 132.15 92.8125C132.237 92.8812 132.313 92.9375 132.388 92.9875C132.463 93.0375 132.513 93.0625 132.544 93.0562C132.781 93.0625 133.081 93.0875 133.437 93.1375C133.794 93.1875 134.156 93.2562 134.525 93.3375C134.887 93.425 135.231 93.525 135.556 93.6375C135.875 93.75 136.125 93.8562 136.3 93.9562C136.362 93.9937 136.437 94.05 136.512 94.1312C136.587 94.2125 136.656 94.3 136.706 94.4062C136.819 94.6437 136.937 94.9437 137.081 95.2937C137.219 95.6437 137.35 95.9875 137.475 96.3312C137.6 96.675 137.7 96.9812 137.775 97.2687C137.85 97.5562 137.863 97.7812 137.788 97.9687C137.725 98.125 137.631 98.2375 137.5 98.2937C137.369 98.3562 137.212 98.3875 137.044 98.3875C136.869 98.3875 136.687 98.3687 136.494 98.3125C136.3 98.2625 136.119 98.2062 135.95 98.1437C135.95 98.1437 135.95 98.1437 135.944 98.1437C135.937 97.8375 135.969 97.5 136.062 97.1437C136.069 97.1125 136.031 97.0625 135.937 97C135.844 96.9375 135.756 96.8687 135.675 96.8C135.581 96.7312 135.494 96.675 135.412 96.625C135.331 96.575 135.281 96.5812 135.262 96.65C135.15 97.0562 135.037 97.4437 134.919 97.8312C134.8 98.2187 134.687 98.6125 134.581 99.0125C134.475 99.4125 134.387 99.825 134.306 100.237C134.225 100.656 134.175 101.087 134.15 101.531C134.05 101.412 133.925 101.312 133.781 101.219C133.637 101.125 133.481 101.037 133.319 100.962C133.156 100.881 133.006 100.812 132.85 100.75C132.7 100.687 132.556 100.625 132.437 100.569C132.319 100.512 132.219 100.462 132.15 100.419C132.081 100.375 132.05 100.337 132.062 100.3C132.075 100.275 132.119 100.25 132.2 100.225L132.494 100.125C132.612 100.087 132.731 100.037 132.856 99.975C132.981 99.9125 133.1 99.8375 133.206 99.7375C133.312 99.6375 133.4 99.5187 133.462 99.3812C133.525 99.2437 133.55 99.075 133.537 98.8812C133.537 98.6375 133.487 98.4312 133.387 98.275C133.287 98.1125 133.162 97.975 133.006 97.8687C132.85 97.7562 132.675 97.6625 132.487 97.6C132.294 97.5312 132.112 97.475 131.925 97.4187C132.137 97.4187 132.35 97.4062 132.569 97.375C132.787 97.3437 132.981 97.2937 133.162 97.2125C133.344 97.1375 133.494 97.025 133.619 96.8875C133.744 96.75 133.825 96.5625 133.856 96.325C133.912 96.1125 133.919 95.925 133.869 95.7437C133.819 95.5625 133.737 95.3937 133.619 95.2375C133.5 95.0812 133.356 94.9375 133.181 94.8062C133.006 94.675 132.825 94.5562 132.631 94.45C132.438 94.3437 132.244 94.25 132.056 94.175C131.869 94.1 131.694 94.0375 131.538 93.9812C130.913 93.775 130.281 93.625 129.631 93.5375C128.981 93.45 128.337 93.3562 127.687 93.25C127.656 93.2375 127.656 93.2187 127.681 93.1937C127.706 93.1687 127.75 93.1375 127.806 93.1062C127.862 93.0687 127.925 93.0312 127.994 92.9875C128.062 92.9437 128.119 92.9062 128.162 92.8687C128.231 92.8187 128.262 92.7625 128.25 92.7C128.237 92.6375 128.188 92.6062 128.1 92.6062C128.038 92.6062 127.906 92.6187 127.712 92.6562C127.519 92.6937 127.3 92.75 127.056 92.8187C126.812 92.8875 126.569 92.9625 126.325 93.05C126.081 93.1375 125.875 93.2125 125.712 93.2812C125.662 93.3 125.637 93.3375 125.625 93.3875C125.619 93.4375 125.625 93.4812 125.65 93.5125L125.769 93.6375C125.831 93.7062 125.906 93.775 125.975 93.8437C126.05 93.9125 126.119 93.975 126.194 94.0312C126.262 94.0875 126.3 94.1125 126.319 94.1187C126.356 94.1062 126.412 94.0812 126.487 94.0375C126.562 93.9937 126.631 93.975 126.687 93.9687L126.981 93.9812L127.319 94C127.431 94.0062 127.544 94.0187 127.644 94.025C127.744 94.0375 127.831 94.0437 127.9 94.0562C128.556 94.1437 129.212 94.2187 129.862 94.2875C130.512 94.3562 131.15 94.4937 131.775 94.6812C131.975 94.7375 132.175 94.7937 132.375 94.8562C132.569 94.9187 132.762 94.9937 132.956 95.075C132.994 95.125 133.019 95.1937 133.025 95.275C133.031 95.3562 133.031 95.4437 133.025 95.5375C133.012 95.6312 133 95.725 132.981 95.8125C132.962 95.9 132.944 95.9812 132.925 96.0562C132.856 96.3312 132.719 96.5187 132.506 96.6437C132.294 96.7625 132.05 96.8437 131.781 96.8875C131.512 96.925 131.244 96.9375 130.969 96.925C130.694 96.9062 130.462 96.8937 130.281 96.875C129.812 96.8312 129.344 96.7937 128.875 96.7437C128.406 96.6937 127.937 96.6812 127.462 96.7125C127.05 96.7312 126.669 96.7687 126.312 96.8312C125.956 96.8937 125.638 96.9625 125.356 97.0437C125.256 97.0625 125.212 97.1125 125.212 97.1812C125.212 97.25 125.275 97.3062 125.394 97.3375C125.487 97.3687 125.587 97.4125 125.7 97.4562C125.812 97.5 125.919 97.5437 126.025 97.5812C126.131 97.6187 126.219 97.65 126.294 97.675C126.369 97.7 126.412 97.7125 126.425 97.7125C126.65 97.6937 126.875 97.6625 127.106 97.6375C127.337 97.6062 127.569 97.5812 127.8 97.5562C128.275 97.5187 128.744 97.5187 129.219 97.55C129.687 97.5812 130.162 97.6 130.625 97.6125C130.9 97.625 131.187 97.65 131.487 97.6937C131.787 97.7375 132.062 97.7937 132.325 97.8562C132.375 97.9 132.412 97.9625 132.444 98.0437C132.475 98.125 132.5 98.2062 132.519 98.3062C132.537 98.4 132.55 98.4937 132.556 98.5875C132.562 98.6812 132.562 98.7625 132.556 98.8375C132.55 99.0437 132.512 99.2 132.437 99.3187C132.362 99.4375 132.275 99.5312 132.163 99.6C132.056 99.6687 131.937 99.725 131.806 99.7562C131.681 99.7937 131.556 99.8187 131.444 99.8437C131.331 99.8687 131.231 99.8937 131.156 99.9312C131.081 99.9625 131.037 100.019 131.031 100.094C131.019 100.2 131.087 100.319 131.231 100.437C131.375 100.562 131.544 100.681 131.737 100.794C131.931 100.906 132.131 101.006 132.331 101.1C132.531 101.187 132.681 101.256 132.775 101.312C133.087 101.5 133.362 101.731 133.6 102C133.837 102.269 134.044 102.55 134.219 102.844C134.262 102.856 134.312 102.875 134.356 102.881L134.512 102.919C134.575 102.931 134.644 102.944 134.725 102.956C134.812 102.969 134.913 102.975 135.044 102.987C135.081 102.987 135.112 102.987 135.137 102.969C135.162 102.956 135.175 102.925 135.162 102.887C135.119 102.694 135.087 102.456 135.069 102.175C135.05 101.894 135.056 101.606 135.075 101.312C135.1 101.019 135.144 100.744 135.2 100.481C135.263 100.219 135.331 100 135.412 99.8312C135.581 100.194 135.775 100.562 135.994 100.925C136.212 101.287 136.381 101.65 136.512 102.025C136.562 102.212 136.537 102.375 136.425 102.512C136.312 102.656 136.169 102.781 135.981 102.9C135.794 103.012 135.594 103.119 135.369 103.2C135.15 103.287 134.956 103.362 134.787 103.431C133.756 103.844 132.744 104.262 131.75 104.687C130.756 105.119 129.775 105.612 128.819 106.194C128.587 106.344 128.356 106.512 128.119 106.694C127.887 106.875 127.687 107.05 127.531 107.212C127.375 107.375 127.275 107.506 127.231 107.612C127.188 107.712 127.244 107.756 127.381 107.744C127.431 107.737 127.5 107.725 127.587 107.719C127.675 107.706 127.769 107.694 127.862 107.675L128.112 107.625C128.187 107.606 128.225 107.6 128.231 107.6C128.4 107.431 128.581 107.262 128.775 107.094C128.962 106.925 129.163 106.769 129.35 106.637C130.288 106.031 131.256 105.506 132.231 105.037L132.319 105.05ZM158.225 97.3C158.281 97.0812 158.375 96.9 158.512 96.75C158.556 96.7937 158.6 96.8812 158.631 97.0062C158.669 97.1312 158.681 97.2625 158.675 97.3937C158.669 97.525 158.631 97.6437 158.569 97.7437C158.506 97.8437 158.406 97.9 158.269 97.9125C158.187 97.7125 158.169 97.5125 158.225 97.2937V97.3ZM155.556 90.7312C155.9 90.6937 156.244 90.7 156.581 90.7562C156.919 90.8062 157.237 90.9125 157.525 91.075C157.812 91.2312 158.05 91.4562 158.219 91.725C158.387 92 158.475 92.325 158.475 92.6937C158.475 93.0625 158.356 93.475 158.106 93.9062C157.787 93.8 157.469 93.625 157.137 93.3812C156.806 93.1437 156.494 92.8812 156.181 92.6062C155.869 92.325 155.575 92.0437 155.294 91.75C155.012 91.4562 154.781 91.1937 154.6 90.9437C154.894 90.8437 155.212 90.775 155.556 90.7375V90.7312ZM149.644 86.6812C149.469 86.7062 149.306 86.6937 149.156 86.6562C149.094 86.6375 149.062 86.6125 149.05 86.575C149.037 86.5375 149.05 86.5 149.075 86.4625C149.1 86.4187 149.144 86.3812 149.2 86.35C149.256 86.3187 149.325 86.2937 149.406 86.2875C149.45 86.2812 149.506 86.2875 149.562 86.3C149.625 86.3187 149.681 86.3375 149.75 86.3687C149.812 86.4 149.875 86.4375 149.925 86.4875C149.981 86.5375 150.025 86.5937 150.05 86.6625C149.95 86.6562 149.812 86.6625 149.644 86.6812ZM141.325 86.775C141.45 86.725 141.587 86.6875 141.725 86.675C141.862 86.6625 141.994 86.675 142.106 86.725C142.219 86.7687 142.288 86.8625 142.319 86.9937C142.125 87.1062 141.912 87.1562 141.681 87.1375C141.45 87.1187 141.244 87.0562 141.075 86.9375C141.119 86.8812 141.2 86.8312 141.331 86.775H141.325Z" fill="white"/>
<path d="M138.05 100.106C138.113 100.019 138.188 99.9375 138.269 99.85C138.35 99.7688 138.444 99.6938 138.538 99.625C138.55 99.6125 138.563 99.6063 138.563 99.6C138.563 99.6 138.556 99.5875 138.525 99.575L138.388 99.525C138.331 99.5 138.275 99.475 138.219 99.45L138.05 99.375C137.994 99.35 137.95 99.3313 137.919 99.325C137.913 99.325 137.9 99.325 137.888 99.325C137.875 99.325 137.863 99.325 137.856 99.3313C137.825 99.35 137.788 99.3813 137.744 99.425L137.588 99.5625C137.531 99.6125 137.481 99.6625 137.431 99.7188C137.381 99.775 137.35 99.8188 137.319 99.8625C137.306 99.875 137.306 99.8875 137.319 99.9L137.65 100.019C137.769 100.056 137.881 100.1 137.981 100.138C138 100.138 138.025 100.138 138.044 100.119L138.05 100.106Z" fill="white"/>
<path d="M129.487 100.094C129.487 100.094 129.506 100.05 129.513 100.038C129.513 100.025 129.506 100.013 129.475 99.9813C129.4 99.9313 129.3 99.8438 129.163 99.7313C129.031 99.6188 128.931 99.5313 128.869 99.4875C128.856 99.4875 128.844 99.4875 128.831 99.4813C128.819 99.4813 128.806 99.4813 128.8 99.5C128.775 99.5438 128.737 99.6125 128.687 99.7063C128.644 99.7938 128.594 99.8938 128.544 100C128.494 100.106 128.45 100.213 128.406 100.325L128.294 100.613C128.281 100.65 128.287 100.675 128.306 100.681L128.55 100.85C128.637 100.906 128.725 100.969 128.813 101.038C128.781 101.094 128.75 101.175 128.706 101.263C128.669 101.356 128.631 101.45 128.594 101.55C128.556 101.65 128.525 101.756 128.494 101.856L128.425 102.119C128.425 102.119 128.419 102.175 128.437 102.188L128.8 102.388C128.931 102.456 129.05 102.531 129.169 102.606C129.194 102.613 129.206 102.606 129.225 102.569C129.262 102.381 129.312 102.2 129.375 102.013C129.437 101.831 129.506 101.656 129.581 101.494C129.594 101.463 129.6 101.444 129.6 101.438C129.6 101.425 129.587 101.413 129.556 101.388L129.331 101.231L129.062 101.044C129.119 100.869 129.181 100.706 129.256 100.538C129.331 100.375 129.406 100.219 129.494 100.075L129.487 100.094Z" fill="white"/>
<path d="M149.006 83.7875C149.156 83.8875 149.3 83.9937 149.444 84.1125C149.587 84.2312 149.712 84.3562 149.831 84.4812C149.85 84.5 149.869 84.5125 149.875 84.5187C149.881 84.525 149.9 84.5187 149.931 84.4937L150.062 84.3875C150.119 84.3437 150.175 84.3 150.237 84.2562C150.3 84.2125 150.356 84.1687 150.412 84.125C150.469 84.0812 150.512 84.0437 150.537 84.0187C150.537 84.0125 150.544 84.0062 150.55 83.9875C150.556 83.975 150.55 83.9625 150.537 83.95C150.5 83.9125 150.45 83.8562 150.381 83.7875L150.156 83.5687C150.075 83.4937 149.987 83.4187 149.894 83.35C149.806 83.2812 149.725 83.225 149.662 83.1812C149.637 83.1625 149.619 83.1562 149.594 83.1687L149.294 83.4437C149.187 83.5437 149.081 83.6375 148.975 83.7187C148.962 83.7375 148.969 83.7562 148.987 83.7812L149.006 83.7875Z" fill="white"/>
<path d="M140.819 112.969C140.906 112.956 140.956 112.894 140.819 112.887C140.294 112.869 139.731 112.887 139.181 112.95C138.625 113.006 138.075 113.1 137.581 113.244C137.488 113.081 137.206 112.744 137 112.706C136.8 112.675 136.531 112.781 136.45 112.894C136.319 113.075 136.356 113.425 136.506 113.769C136.65 114.112 136.906 114.45 137.156 114.6C137.381 114.731 137.544 114.506 137.619 114.406C137.8 114.356 137.95 114.262 138.013 114.156C138.113 113.969 137.831 113.631 137.731 113.437C138.313 113.325 138.813 113.25 139.3 113.187C139.794 113.125 140.281 113.069 140.819 112.969ZM136.919 113.594C136.819 113.475 136.625 113.069 136.713 112.95C136.844 112.937 137.138 113.312 137.169 113.4C137.081 113.462 136.981 113.531 136.919 113.594ZM137.188 113.994C137.144 113.837 137.25 113.7 137.356 113.612C137.469 113.787 137.587 113.956 137.612 114.15C137.569 114.225 137.25 114.206 137.188 113.994Z" fill="white"/>
<path d="M29.1437 102.713H31.1812V108.581C31.1812 110.313 31.7375 111.45 33.2937 111.45C34.85 111.45 35.4062 110.313 35.4062 108.581V102.713H37.4437V109.206C37.4437 111.931 35.9 113.05 33.2937 113.05C30.6875 113.05 29.1437 111.931 29.1437 109.206V102.713Z" fill="#304365"/>
<path d="M39.2938 105.375H41.1438V106.394H41.175C41.7875 105.538 42.6188 105.2 43.6375 105.2C45.4125 105.2 46.1875 106.45 46.1875 108.144V112.875H44.2375V108.869C44.2375 107.95 44.225 106.713 42.9688 106.713C41.5563 106.713 41.25 108.244 41.25 109.2V112.869H39.3V105.369L39.2938 105.375Z" fill="#304365"/>
<path d="M47.9688 102.144H49.9188V104.006H47.9688V102.144ZM47.9688 105.375H49.9188V112.875H47.9688V105.375Z" fill="#304365"/>
<path d="M52.35 106.8H50.9062V105.375H52.35V103.875L54.3 103.25V105.375H56.0313V106.8H54.3V110.294C54.3 110.938 54.475 111.531 55.2188 111.531C55.5688 111.531 55.9062 111.456 56.1062 111.325L56.1625 112.869C55.7563 112.987 55.3063 113.044 54.7188 113.044C53.1875 113.044 52.3438 112.1 52.3438 110.612V106.8H52.35Z" fill="#304365"/>
<path d="M63.1313 112.45C62.4188 112.844 61.6 113.05 60.5563 113.05C58.0813 113.05 56.6375 111.625 56.6375 109.163C56.6375 106.994 57.7875 105.2 60.1188 105.2C62.9 105.2 63.6875 107.106 63.6875 109.731H58.5063C58.5938 110.938 59.4375 111.625 60.65 111.625C61.5938 111.625 62.4125 111.275 63.1375 110.869V112.456L63.1313 112.45ZM61.8188 108.388C61.7625 107.444 61.325 106.625 60.2313 106.625C59.1375 106.625 58.5875 107.381 58.5 108.388H61.8188Z" fill="#304365"/>
<path d="M69.9438 112.031H69.9125C69.3312 112.756 68.5312 113.05 67.6125 113.05C65.3125 113.05 64.4688 111.156 64.4688 109.106C64.4688 107.056 65.3125 105.206 67.6125 105.206C68.5875 105.206 69.275 105.544 69.8562 106.256H69.8875V101.963H71.8375V112.881H69.9438V112.038V112.031ZM68.15 111.531C69.4437 111.531 69.8687 110.163 69.8687 109.1C69.8687 108.038 69.375 106.713 68.1187 106.713C66.8625 106.713 66.5 108.094 66.5 109.1C66.5 110.106 66.8625 111.531 68.1437 111.531H68.15Z" fill="#304365"/>
<path d="M77.5438 102.713H81.1C82.4125 102.713 84.375 103.094 84.375 105.319C84.375 106.525 83.5625 107.375 82.35 107.588V107.619C83.7313 107.75 84.6813 108.681 84.6813 109.931C84.6813 112.494 82.3813 112.875 81.1 112.875H77.5438V102.713ZM79.5813 106.813H80.4125C81.2688 106.813 82.3375 106.625 82.3375 105.575C82.3375 104.394 81.3063 104.306 80.3688 104.306H79.5813V106.813ZM79.5813 111.269H80.5438C81.4875 111.269 82.6375 111.038 82.6375 109.856C82.6375 108.531 81.5625 108.325 80.5438 108.325H79.5813V111.269Z" fill="#304365"/>
<path d="M86.3375 105.769C87.0937 105.419 88.1125 105.2 88.9437 105.2C91.2312 105.2 92.175 106.144 92.175 108.363V109.325C92.175 110.081 92.1875 110.65 92.2062 111.206C92.2187 111.775 92.25 112.3 92.2937 112.881H90.575C90.5 112.488 90.5 111.994 90.4875 111.763H90.4562C90.0062 112.594 89.0312 113.056 88.1437 113.056C86.8187 113.056 85.525 112.256 85.525 110.831C85.525 109.713 86.0625 109.056 86.8062 108.688C87.55 108.325 88.5125 108.25 89.325 108.25H90.4C90.4 107.044 89.8625 106.631 88.7125 106.631C87.8812 106.631 87.05 106.95 86.4 107.444L86.3437 105.769H86.3375ZM88.625 111.619C89.2187 111.619 89.6875 111.356 89.9937 110.95C90.3125 110.525 90.4 109.988 90.4 109.406H89.5562C88.6812 109.406 87.3875 109.55 87.3875 110.7C87.3875 111.338 87.925 111.619 88.625 111.619Z" fill="#304365"/>
<path d="M93.8375 105.375H95.6875V106.394H95.7187C96.3312 105.538 97.1625 105.2 98.1812 105.2C99.9562 105.2 100.731 106.45 100.731 108.144V112.875H98.7812V108.869C98.7812 107.95 98.7687 106.713 97.5125 106.713C96.1 106.713 95.7937 108.244 95.7937 109.2V112.869H93.8437V105.369L93.8375 105.375Z" fill="#304365"/>
<path d="M102.513 101.95H104.469V108.375H104.494L106.825 105.375H109.125L106.331 108.725L109.475 112.875H107L104.494 109.231H104.469V112.875H102.513V101.95Z" fill="#304365"/>
<path d="M29.2062 115.556H31.6562V116.25H30.0937V117.331H31.5812V118.025H30.0937V119.956H29.2062V115.556Z" fill="#304365"/>
<path d="M33.6562 116.631C34.6187 116.631 35.3562 117.281 35.3562 118.35C35.3562 119.281 34.7312 120.025 33.6562 120.025C32.5812 120.025 31.9625 119.281 31.9625 118.35C31.9625 117.275 32.7 116.631 33.6562 116.631ZM33.6562 119.375C34.3062 119.375 34.475 118.794 34.475 118.25C34.475 117.75 34.2125 117.287 33.6562 117.287C33.1 117.287 32.8437 117.769 32.8437 118.25C32.8437 118.787 33.0125 119.375 33.6562 119.375Z" fill="#304365"/>
<path d="M35.925 116.706H36.675V117.444H36.6875C36.725 117.144 37.075 116.631 37.575 116.631C37.6563 116.631 37.7438 116.631 37.8313 116.656V117.506C37.7563 117.462 37.6063 117.437 37.45 117.437C36.7625 117.437 36.7625 118.294 36.7625 118.762V119.956H35.9188V116.706H35.925Z" fill="#304365"/>
<path d="M43.1625 119.894C42.8437 119.969 42.4937 120.031 42.1562 120.031C40.7312 120.031 39.7437 119.319 39.7437 117.831C39.7437 116.344 40.6625 115.481 42.1562 115.481C42.4437 115.481 42.8312 115.538 43.15 115.663L43.0875 116.406C42.75 116.219 42.45 116.175 42.1375 116.175C41.2312 116.175 40.6625 116.869 40.6625 117.769C40.6625 118.669 41.2187 119.338 42.1562 119.338C42.5062 119.338 42.9125 119.263 43.1187 119.156L43.1562 119.894H43.1625Z" fill="#304365"/>
<path d="M45.1125 116.631C46.075 116.631 46.8125 117.281 46.8125 118.35C46.8125 119.281 46.1875 120.025 45.1125 120.025C44.0375 120.025 43.4188 119.281 43.4188 118.35C43.4188 117.275 44.1563 116.631 45.1125 116.631ZM45.1125 119.375C45.7625 119.375 45.9313 118.794 45.9313 118.25C45.9313 117.75 45.6688 117.287 45.1125 117.287C44.5563 117.287 44.3 117.769 44.3 118.25C44.3 118.787 44.4688 119.375 45.1125 119.375Z" fill="#304365"/>
<path d="M47.35 116.706H48.1375V117.162H48.15C48.4125 116.762 48.8 116.631 49.1125 116.631C49.5687 116.631 49.8875 116.8 50.0687 117.206C50.2625 116.812 50.6875 116.631 51.0812 116.631C51.8812 116.631 52.1062 117.181 52.1062 117.906V119.956H51.2625V118.019C51.2625 117.719 51.2625 117.287 50.775 117.287C50.2125 117.287 50.1437 117.956 50.1437 118.381V119.956H49.3V118.019C49.3 117.719 49.3 117.287 48.8125 117.287C48.25 117.287 48.1812 117.956 48.1812 118.381V119.956H47.3375V116.706H47.35Z" fill="#304365"/>
<path d="M52.8375 116.706H53.625V117.162H53.6375C53.9 116.762 54.2875 116.631 54.6 116.631C55.0563 116.631 55.375 116.8 55.5563 117.206C55.75 116.812 56.175 116.631 56.5688 116.631C57.3688 116.631 57.5938 117.181 57.5938 117.906V119.956H56.75V118.019C56.75 117.719 56.75 117.287 56.2625 117.287C55.7 117.287 55.6313 117.956 55.6313 118.381V119.956H54.7875V118.019C54.7875 117.719 54.7875 117.287 54.3 117.287C53.7375 117.287 53.6688 117.956 53.6688 118.381V119.956H52.825V116.706H52.8375Z" fill="#304365"/>
<path d="M60.9438 119.775C60.6375 119.944 60.2813 120.031 59.825 120.031C58.75 120.031 58.1313 119.413 58.1313 118.35C58.1313 117.413 58.6313 116.638 59.6375 116.638C60.8438 116.638 61.1813 117.463 61.1813 118.6H58.9375C58.975 119.125 59.3375 119.419 59.8625 119.419C60.275 119.419 60.625 119.269 60.9375 119.088V119.775H60.9438ZM60.375 118.013C60.35 117.6 60.1625 117.25 59.6875 117.25C59.2125 117.25 58.975 117.575 58.9375 118.013H60.375Z" fill="#304365"/>
<path d="M61.75 116.706H62.5V117.444H62.5125C62.55 117.144 62.9 116.631 63.4 116.631C63.4812 116.631 63.5687 116.631 63.6562 116.656V117.506C63.5812 117.462 63.4312 117.437 63.275 117.437C62.5875 117.437 62.5875 118.294 62.5875 118.762V119.956H61.7437V116.706H61.75Z" fill="#304365"/>
<path d="M66.0625 117.412C65.9125 117.344 65.75 117.294 65.4875 117.294C64.9625 117.294 64.6313 117.712 64.6313 118.319C64.6313 118.925 64.9125 119.381 65.5062 119.381C65.7437 119.381 66.0125 119.294 66.1562 119.231L66.1938 119.931C65.95 120.006 65.6937 120.037 65.35 120.037C64.2875 120.037 63.75 119.312 63.75 118.325C63.75 117.337 64.3063 116.644 65.3188 116.644C65.6563 116.644 65.9062 116.681 66.1375 116.75L66.0625 117.419V117.412Z" fill="#304365"/>
<path d="M69.2437 119.775C68.9375 119.944 68.5812 120.031 68.1312 120.031C67.0562 120.031 66.4375 119.413 66.4375 118.35C66.4375 117.413 66.9375 116.638 67.9437 116.638C69.15 116.638 69.4875 117.463 69.4875 118.6H67.2437C67.2812 119.125 67.65 119.419 68.1687 119.419C68.5812 119.419 68.9313 119.269 69.25 119.088V119.775H69.2437ZM68.675 118.013C68.65 117.6 68.4625 117.25 67.9875 117.25C67.5125 117.25 67.275 117.575 67.2375 118.013H68.675Z" fill="#304365"/>
<path d="M74.4875 118.525C74.7 118.281 74.75 117.906 74.7625 117.569H75.5312C75.5062 118.131 75.325 118.656 74.9687 119.075L75.7562 119.956H74.675L74.3812 119.569C74.075 119.881 73.6187 120.038 73.1812 120.038C72.3125 120.038 71.6125 119.581 71.6125 118.756C71.6125 118.225 71.8375 117.844 72.5375 117.544C72.2 117.225 71.925 116.988 71.925 116.481C71.925 115.813 72.6437 115.481 73.2625 115.481C73.8812 115.481 74.5312 115.763 74.5312 116.475C74.5312 117.081 74.1625 117.363 73.6812 117.644L74.4875 118.525ZM72.9937 118.019C72.7062 118.169 72.4562 118.375 72.4562 118.725C72.4562 119.113 72.7875 119.375 73.2 119.375C73.4937 119.375 73.775 119.3 73.9687 119.113L72.9937 118.019ZM73.7625 116.55C73.7625 116.244 73.5312 116.094 73.275 116.094C73.0187 116.094 72.7687 116.238 72.7687 116.563C72.7687 116.806 73.0125 117.019 73.1875 117.188C73.4062 117.075 73.7625 116.806 73.7625 116.55Z" fill="#304365"/>
<path d="M77.75 115.556H78.6312V119.956H77.75V115.556Z" fill="#304365"/>
<path d="M79.3875 116.706H80.1875V117.15H80.2C80.4625 116.775 80.825 116.631 81.2625 116.631C82.0313 116.631 82.3688 117.175 82.3688 117.906V119.956H81.525V118.225C81.525 117.831 81.5188 117.294 80.975 117.294C80.3625 117.294 80.2313 117.956 80.2313 118.375V119.962H79.3875V116.712V116.706Z" fill="#304365"/>
<path d="M82.7625 116.706H83.6688L84.4813 119.075H84.4938L85.275 116.706H86.1188L84.9188 119.956H83.9688L82.7625 116.706Z" fill="#304365"/>
<path d="M89.1187 119.775C88.8125 119.944 88.4562 120.031 88 120.031C86.925 120.031 86.3062 119.413 86.3062 118.35C86.3062 117.413 86.8062 116.638 87.8125 116.638C89.0187 116.638 89.3562 117.463 89.3562 118.6H87.1125C87.15 119.125 87.5187 119.419 88.0375 119.419C88.45 119.419 88.8 119.269 89.1187 119.088V119.775ZM88.55 118.013C88.525 117.6 88.3375 117.25 87.8625 117.25C87.3875 117.25 87.15 117.575 87.1125 118.013H88.55Z" fill="#304365"/>
<path d="M91.8313 117.394C91.575 117.306 91.3813 117.256 91.075 117.256C90.85 117.256 90.575 117.338 90.575 117.619C90.575 118.138 92.0438 117.806 92.0438 118.981C92.0438 119.738 91.3688 120.038 90.6813 120.038C90.3625 120.038 90.0313 119.981 89.725 119.9L89.775 119.206C90.0375 119.338 90.3188 119.419 90.6063 119.419C90.8188 119.419 91.1625 119.338 91.1625 119.019C91.1625 118.381 89.6938 118.819 89.6938 117.644C89.6938 116.944 90.3063 116.638 90.9688 116.638C91.3688 116.638 91.625 116.7 91.8875 116.756L91.8313 117.394Z" fill="#304365"/>
<path d="M92.8687 117.325H92.2437V116.706H92.8687V116.056L93.7125 115.787V116.706H94.4625V117.325H93.7125V118.837C93.7125 119.112 93.7875 119.375 94.1125 119.375C94.2625 119.375 94.4062 119.344 94.5 119.287L94.525 119.956C94.35 120.006 94.15 120.031 93.9 120.031C93.2375 120.031 92.875 119.625 92.875 118.981V117.331L92.8687 117.325Z" fill="#304365"/>
<path d="M94.9125 116.706H95.7V117.162H95.7125C95.975 116.762 96.3625 116.631 96.675 116.631C97.1312 116.631 97.45 116.8 97.6313 117.206C97.825 116.812 98.25 116.631 98.65 116.631C99.45 116.631 99.675 117.181 99.675 117.906V119.956H98.8312V118.019C98.8312 117.719 98.8312 117.287 98.3438 117.287C97.7812 117.287 97.7125 117.956 97.7125 118.381V119.956H96.8687V118.019C96.8687 117.719 96.8688 117.287 96.3813 117.287C95.8188 117.287 95.75 117.956 95.75 118.381V119.956H94.9062V116.706H94.9125Z" fill="#304365"/>
<path d="M103.019 119.775C102.713 119.944 102.356 120.031 101.9 120.031C100.825 120.031 100.206 119.413 100.206 118.35C100.206 117.413 100.706 116.638 101.713 116.638C102.919 116.638 103.256 117.463 103.256 118.6H101.012C101.05 119.125 101.419 119.419 101.938 119.419C102.35 119.419 102.7 119.269 103.019 119.088V119.775ZM102.456 118.013C102.431 117.6 102.244 117.25 101.769 117.25C101.294 117.25 101.056 117.575 101.019 118.013H102.456Z" fill="#304365"/>
<path d="M103.806 116.706H104.606V117.15H104.619C104.881 116.775 105.244 116.631 105.681 116.631C106.45 116.631 106.781 117.175 106.781 117.906V119.956H105.938V118.225C105.938 117.831 105.937 117.294 105.387 117.294C104.775 117.294 104.644 117.956 104.644 118.375V119.962H103.8V116.712L103.806 116.706Z" fill="#304365"/>
<path d="M107.825 117.325H107.2V116.706H107.825V116.056L108.669 115.787V116.706H109.419V117.325H108.669V118.837C108.669 119.112 108.744 119.375 109.069 119.375C109.219 119.375 109.363 119.344 109.456 119.287L109.481 119.956C109.306 120.006 109.106 120.031 108.856 120.031C108.194 120.031 107.831 119.625 107.831 118.981V117.331L107.825 117.325Z" fill="#304365"/>
<path d="M36.6125 87.525H29.0187V85.9563H33.275C33.275 84.3125 32.3812 83.5875 30.3 83.5875V82.2188C31.3312 82.2188 32.0562 82.2875 32.4937 82.4438C34.1125 83.0188 34.9187 84.1813 34.9187 85.95H36.6187V87.5313L36.6125 87.525ZM45.8062 87.525H36.2437V85.9563H42.9C42.8625 85.3375 42.6437 84.8063 42.2312 84.3625C41.775 83.8563 41.1625 83.6 40.425 83.6C39.6875 83.6 38.925 83.9625 38.4687 84.4438C38.3062 84.2188 38.0375 83.8563 37.65 83.3313C38.45 82.5 39.4062 82.0875 40.5437 82.0875C41.2375 82.0875 41.8437 82.2188 42.375 82.4625C43.6312 83.0625 44.3687 84.2188 44.5687 85.9563H45.8125V87.525H45.8062ZM48.9687 81.325H47.5125V79.975H48.9687V81.325ZM46.7687 81.325H45.3125V79.975H46.7687V81.325ZM50.8187 87.525H45.5312V85.9563H46.6125C47.1625 85.9563 47.4437 85.5813 47.4437 84.8313V82.2188H49.0937V84.775C49.0937 85.2063 49.025 85.5938 48.8937 85.9563H50.8187V87.525ZM58.5937 87.525H56.7187C56.2375 88.1938 55.5 88.5313 54.525 88.5313C53.55 88.5313 52.7875 88.1938 52.3 87.525H50.5062V85.9563H51.8187C51.8187 84.2688 52.7812 83.2125 54.4812 83.2125C56.1812 83.2125 57.225 84.2313 57.225 85.9563H58.5937V87.525ZM55.5937 85.925C55.5937 85 55.2437 84.5313 54.55 84.5313H54.4312C53.8312 84.5313 53.4375 85.0938 53.4375 85.8563C53.4375 86.6188 53.8375 87.2063 54.525 87.2063C55.2125 87.2063 55.5937 86.7125 55.5937 85.9313V85.925ZM61.6625 85.2688C61.6625 85.8875 61.4875 86.4063 61.1437 86.8188C60.7562 87.3 60.2187 87.5313 59.525 87.5313H57.975V85.9625H59.1812C59.7312 85.9625 60.0125 85.575 60.0125 84.8125V79.9813H61.6562V85.2688H61.6625ZM64.5 87.525H62.8562V79.9625H64.5V87.525ZM76.7125 81.325H75.2562V79.975H76.7125V81.325ZM78.6375 84.8563C78.6375 86.475 77.55 87.5313 75.9437 87.5313H71.7C69.1125 87.5313 67.8187 86.4438 67.8187 84.25V82.5375H69.4375V84.25C69.4375 85.5188 70.05 85.9625 71.7375 85.9625H73.425C73.2937 85.625 73.2375 85.2563 73.2375 84.875C73.2375 83.2438 74.2562 82.2125 75.8875 82.2125C77.5187 82.2125 78.6437 83.2438 78.6437 84.8625L78.6375 84.8563ZM77.0062 84.9C77.0062 83.975 76.6562 83.5188 75.9625 83.5188H75.8562C75.225 83.5188 74.85 84.1063 74.85 84.8438C74.85 85.675 75.2687 86.2063 75.9375 86.2063C76.6062 86.2063 77.0062 85.6438 77.0062 84.9063V84.9ZM84.6125 87.5313H82.7937C82.525 88.8188 81.4687 89.4625 79.6062 89.4625V88.1375C80.6875 88.1375 81.225 87.6188 81.225 86.5875V82.2125H82.875V85.95H84.6125V87.5188V87.5313ZM96.125 87.5313H83.9937V85.9625H85.4687C86.0062 85.9625 86.3 85.6813 86.3 84.8375V82.7875H87.9437V84.3C88.975 82.9875 90.3375 82.2 91.65 82.2C93.575 82.2 94.7 83.5625 94.85 85.9625H96.125V87.5313ZM93.1375 85.9563L93.15 85.7438C93.15 84.5375 92.55 83.625 91.5187 83.625C90.3125 83.625 89.2312 84.4125 88.3312 85.9563H93.1375ZM103.906 87.5313H102.031C101.55 88.2 100.812 88.5375 99.8375 88.5375C98.8625 88.5375 98.1 88.2 97.6125 87.5313H95.8187V85.9625H97.1312C97.1312 84.275 98.0937 83.2188 99.7937 83.2188C101.494 83.2188 102.537 84.2375 102.537 85.9625H103.906V87.5313ZM100.906 85.925C100.906 85 100.556 84.5313 99.8625 84.5313H99.7437C99.1437 84.5313 98.75 85.0938 98.75 85.8563C98.75 86.6188 99.15 87.2063 99.8375 87.2063C100.525 87.2063 100.906 86.7125 100.906 85.9313V85.925ZM106.981 85.2688C106.981 85.8875 106.806 86.4063 106.462 86.8188C106.075 87.3 105.537 87.5313 104.844 87.5313H103.294V85.9625H104.5C105.05 85.9625 105.331 85.575 105.331 84.8125V79.9813H106.975V85.2688H106.981ZM109.812 87.5313H108.169V79.9688H109.812V87.5313Z" fill="#304365"/>
<path d="M30.675 94.2V97.375C30.675 98.775 30.1312 99.45 28.8687 99.5187V98.9437C29.6687 98.9437 30.075 98.5062 30.075 97.4875V94.2H30.675ZM33.725 98.1062H33.0437C32.7312 98.1062 32.475 97.9937 32.2625 97.7812C32.0125 97.5375 31.8937 97.1937 31.8937 96.7375V92.5375H32.5125V96.375C32.5125 96.7687 32.575 97.0562 32.6875 97.225C32.7812 97.3687 32.9437 97.4562 33.175 97.4937C33.2375 97.5 33.3062 97.5 33.725 97.5V98.1V98.1062ZM35.4187 98.1062H33.6V97.5062H35.4187V98.1062ZM37.1187 98.1062H35.3V97.5062H37.1187V98.1062ZM38.825 98.1062H37.0062V97.5062H38.825V98.1062ZM40.5312 98.1062H38.7125V97.5062H40.5312V98.1062ZM42.2312 98.1062H40.4125V97.5062H42.2312V98.1062ZM43.9375 98.1062H42.1187V97.5062H43.9375V98.1062ZM49.3 98.1062H47.9812C47.6562 98.6062 47.175 98.8562 46.5375 98.8562C45.9 98.8562 45.375 98.6062 45.0562 98.1062H43.7812V97.5062H44.7937C44.75 97.325 44.725 97.125 44.725 96.9125C44.725 96.3437 44.8875 95.8812 45.2062 95.5125C45.5312 95.1437 45.9812 94.9625 46.5375 94.9625C47.0937 94.9625 47.5437 95.15 47.8625 95.5187C48.1625 95.8687 48.3187 96.3375 48.3187 96.9062C48.3187 97.1187 48.2937 97.3187 48.2437 97.5062H49.2937V98.1062H49.3ZM47.6187 96.8437C47.6187 96.4562 47.5437 96.1437 47.3875 95.9125C47.2062 95.6312 46.9375 95.4937 46.5687 95.4937C46.2 95.4937 45.8812 95.65 45.6812 95.95C45.5187 96.2 45.4375 96.525 45.4375 96.95C45.4375 97.3375 45.5125 97.6562 45.6812 97.8937C45.8812 98.175 46.1625 98.3125 46.5312 98.3125C47.2562 98.3125 47.6125 97.825 47.6125 96.8437H47.6187ZM50.5562 92.625H49.9437V91.8937H50.5562V92.625ZM51.1125 93.5812H50.5V92.85H51.1125V93.5812ZM49.9875 93.5812H49.375V92.85H49.9875V93.5812ZM52.0875 98.1062H49.1187V97.5125H49.6687C50.0375 97.5125 50.2812 97.3937 50.4 97.1625C50.4875 97 50.5312 96.725 50.5312 96.325V94.2H51.1312V96.5937C51.1312 96.9625 51.0812 97.275 50.9687 97.5062H52.0875V98.1062ZM53.9437 93.5812H53.3312V92.85H53.9437V93.5812ZM52.8187 93.5812H52.2062V92.85H52.8187V93.5812ZM54.9062 98.1062H51.9375V97.5125H52.4875C52.8562 97.5125 53.1 97.3937 53.2187 97.1625C53.3062 97 53.35 96.725 53.35 96.325V94.2H53.95V96.5937C53.95 96.9625 53.9 97.275 53.7875 97.5062H54.9062V98.1062ZM61.6812 94.2V96.5937C61.6812 97.6 61.2625 98.1062 60.4062 98.1062H54.7125V97.5062H55.5125C56.0625 97.5062 56.3625 97.1375 56.425 96.4062V94.2062H57.025V96.6C57.025 96.95 56.975 97.2437 56.8812 97.475V97.5062H58.0062C58.5562 97.5062 58.7375 97.2375 58.7375 96.325V94.2H59.3375V96.5937C59.3375 96.9625 59.2875 97.275 59.175 97.5062H60.2062C60.85 97.5062 61.0687 97.2375 61.0687 96.325V94.2H61.6812ZM66.3875 92.5375V96.5875C66.3875 97.5937 65.9687 98.1 65.125 98.1H62.6375V97.5062H64.0375L62.925 93.1937H63.5812L64.6625 97.5062H64.9187C65.2812 97.5062 65.5187 97.3875 65.65 97.1437C65.7375 96.9875 65.7812 96.7125 65.7812 96.3187V92.5312H66.3812L66.3875 92.5375ZM68.1437 98.1062H67.5437V92.5375H68.1437V98.1062ZM72.4 96.0937V97.375C72.4 98.775 71.85 99.45 70.5812 99.5187V98.9437C71.375 98.9437 71.775 98.4625 71.7937 97.4875C71.6062 97.8125 71.2687 97.9812 70.7812 97.9812C69.8375 97.9812 69.1375 97.1875 69.1375 96.0687C69.1375 94.95 69.8 94.175 70.7812 94.175C71.7625 94.175 72.4 94.975 72.4 96.0937ZM71.8187 96.0937C71.8187 95.3187 71.3875 94.7062 70.75 94.7062C70.1125 94.7062 69.7375 95.3062 69.7375 96.0562C69.7375 96.8062 70.1687 97.4312 70.7937 97.4312C71.4187 97.4312 71.8187 96.8375 71.8187 96.0875V96.0937ZM77.3312 93.5812H76.7187V92.85H77.3312V93.5812ZM76.2062 93.5812H75.5937V92.85H76.2062V93.5812ZM78.25 96.1125C78.25 96.6812 78.0875 97.1562 77.7687 97.525C77.4312 97.9125 76.975 98.1125 76.4187 98.1125C75.8625 98.1125 75.3937 97.925 75.0562 97.5437C74.7375 97.1937 74.575 96.7187 74.575 96.125C74.575 95.5312 74.7375 95.0812 75.075 94.7125C75.4125 94.325 75.8687 94.1375 76.425 94.1375C76.9812 94.1375 77.45 94.325 77.7875 94.7062C78.1 95.0687 78.25 95.5437 78.25 96.1187V96.1125ZM77.5625 96.0625C77.5625 95.6562 77.4875 95.325 77.3312 95.075C77.1312 94.7937 76.85 94.6437 76.4625 94.6437C76.05 94.6437 75.7375 94.8 75.5312 95.1062C75.3562 95.375 75.275 95.725 75.275 96.1625C75.275 96.5687 75.3625 96.9 75.5312 97.15C75.7375 97.45 76.0312 97.6 76.4187 97.6C77.1875 97.6 77.5625 97.0812 77.5625 96.0625ZM80.7062 94.2V97.375C80.7062 98.775 80.1625 99.45 78.9 99.5187V98.9437C79.7 98.9437 80.1062 98.5062 80.1062 97.4875V94.2H80.7062ZM83.75 98.1062H83.0687C82.7562 98.1062 82.5 97.9937 82.2875 97.7812C82.0375 97.5375 81.9187 97.1937 81.9187 96.7375V92.5375H82.5375V96.375C82.5375 96.7687 82.6 97.0562 82.7125 97.225C82.8062 97.3687 82.9687 97.4562 83.2062 97.4937C83.2687 97.5 83.3375 97.5 83.7562 97.5V98.1L83.75 98.1062ZM85.4437 98.1062H83.625V97.5062H85.4437V98.1062ZM87.15 98.1062H85.3312V97.5062H87.15V98.1062ZM88.8562 98.1062H87.0375V97.5062H88.8562V98.1062ZM90.5562 98.1062H88.7375V97.5062H90.5562V98.1062ZM92.2625 98.1062H90.4437V97.5062H92.2625V98.1062ZM93.9688 98.1062H92.15V97.5062H93.9688V98.1062ZM95.6687 98.1062H93.85V97.5062H95.6687V98.1062ZM102.381 98.1062H95.4687V97.5062H100.7C100.706 97.3937 100.719 97.2937 100.719 97.1937C100.719 95.7375 99.95 94.9062 98.6 94.9062C97.8687 94.9062 97.325 95.1875 96.9812 95.7562C96.8937 95.6625 96.725 95.4875 96.4562 95.225C96.95 94.6125 97.65 94.3125 98.5875 94.3125C100.3 94.3125 101.425 95.45 101.425 97.2375V97.5062H102.369V98.1062H102.381ZM99.0687 99.4187H98.4562V98.6875H99.0687V99.4187ZM104.2 93.5812H103.587V92.85H104.2V93.5812ZM103.069 93.5812H102.456V92.85H103.069V93.5812ZM105.162 98.1062H102.194V97.5125H102.744C103.112 97.5125 103.356 97.3937 103.475 97.1625C103.562 97 103.606 96.725 103.606 96.325V94.2H104.206V96.5937C104.206 96.9625 104.156 97.275 104.044 97.5062H105.162V98.1062ZM107.981 98.1062H105.012V97.5125H105.562C105.931 97.5125 106.175 97.3937 106.294 97.1625C106.381 97 106.425 96.725 106.425 96.325V92.5375H107.025V96.5875C107.025 96.9562 106.975 97.2687 106.862 97.5H107.981V98.1V98.1062ZM109.85 92.5375V96.5875C109.85 97.5937 109.431 98.1 108.587 98.1H107.837V97.5062H108.387C108.756 97.5062 109 97.3875 109.119 97.1437C109.206 96.9875 109.25 96.7125 109.25 96.3187V92.5312H109.85V92.5375Z" fill="#304365"/>
</svg>
