<svg width="200" height="200" viewBox="0 0 200 200" fill="none" xmlns="http://www.w3.org/2000/svg">
<path d="M106.494 110.569C105.213 110.444 103.588 109.569 102.731 108.613C101.481 107.231 101.081 105.263 100.106 103.781C100.056 103.706 100.031 103.594 99.9125 103.613C99.3 104.825 98.7813 106.125 98.1063 107.306C97.05 109.156 95.4 110.325 93.2563 110.563H86.7875L63.1188 62.6625L63.1438 62.4938H71.4C74.9875 62.7375 77.6125 64.6063 79.275 67.7125C80.5 69.9938 81.625 72.4438 82.7875 74.7688C86.4375 82.1 90.0313 89.4563 93.6563 96.8L100.025 84.275L112.981 110.55H106.5L106.494 110.569Z" fill="#034694"/>
<path d="M137.006 62.575L114.637 107.525L108.35 94.8812L107.837 93.6687C111.337 86.7187 114.712 79.7062 118.2 72.75C120.5 68.1562 122.219 63.0875 128.219 62.5687H137.012L137.006 62.575Z" fill="#27AAE2"/>
<path d="M104.412 62.6688L104.594 62.8813C106.787 67.5938 109.325 72.1563 111.537 76.8563C111.656 77.1125 112.025 77.7938 112.075 77.9938C112.106 78.1188 112.094 78.2063 112.037 78.3188L106.262 89.9875L106.1 90.0813L99.875 77.5563L93.6875 90.0813L87.7687 78.2563L87.7437 78.0625L95.3875 62.6813L104.419 62.6688H104.412Z" fill="#1A75BC"/>
<path d="M142.35 116.769C140.744 114.344 137.012 114.738 135.956 117.444C135.537 118.519 135.638 119.531 136.138 120.556H134.475V118.638C134.475 117.138 133.012 115.419 131.525 115.219C130.137 115.031 128.419 115.306 127 115.219C126.781 115.281 125.75 116.513 125.431 116.763C125.356 116.819 125.337 116.9 125.212 116.869V115.206H123.4V120.563H120.794V115.206H118.981C118.806 117.731 118.975 120.288 118.894 122.825C118.712 123.556 118.019 124.138 117.244 124.106V125.988C119.162 125.931 120.775 124.388 120.787 122.438H130.737C131.387 121.944 131.937 121.244 132.587 120.7V122.438H139.281C139.481 122.413 139.519 122.2 139.644 122.075C140.1 121.6 140.594 121.063 141.131 120.7V122.438H142.944V118.2C142.944 117.938 142.519 117.019 142.35 116.763V116.769ZM132.587 120.556H125.206V117.006H131.031C131.644 117.006 132.587 117.875 132.587 118.488V120.55V120.556ZM141.131 120.556H138.85C138.687 120.556 138 120.038 137.875 119.869C136.663 118.2 138.719 116.156 140.406 117.338C140.675 117.525 141.138 118.169 141.138 118.494V120.556H141.131Z" fill="#15589F"/>
<path d="M80.2875 122.437L80.4375 122.369L82.1 120.7L82.1375 122.437C82.1875 122.437 82.2312 122.437 82.2812 122.437C82.3062 122.437 82.3312 122.437 82.3562 122.437C82.4312 122.437 82.5 122.437 82.575 122.437C83.0562 122.45 83.5437 122.425 84.025 122.437C83.9375 121.156 84.1437 119.719 84.025 118.456C83.8812 116.919 82.3625 115.125 80.7312 115.125H73.8875V117.006H80.5125C81.1 117.006 82.1437 117.825 82.1437 118.419V120.556H72.1562V118.494C72.1562 118.494 72.075 118.119 72.05 118.019C71.7625 116.675 70.2937 115.125 68.8625 115.125H67.0187V117.006H68.7187C69.3187 117.006 70.275 117.894 70.275 118.488V120.55H65.2062V122.431H68.5L70.275 120.694V122.431H80.3L80.2875 122.437Z" fill="#15589F"/>
<path d="M90.3875 120.706V122.769C90.3875 123.412 89.25 124.319 88.575 124.181V125.956C88.575 126.156 89.4313 125.981 89.575 125.944C91.1313 125.544 92.2563 124.038 92.2688 122.45L93.425 122.413L95.1625 120.713V122.344C95.1625 122.344 95.2625 122.45 95.2687 122.45H97.0438V112.75H95.2687C95.2687 112.75 95.1625 112.85 95.1625 112.856V120.562H92.2688V118.281C92.2688 117.781 91.6375 116.669 91.2938 116.288C88.8313 113.594 84.3375 115.925 85.0625 119.55C85.4 121.238 86.9563 122.45 88.6688 122.444L90.3875 120.706ZM87.1688 119.831C85.8188 117.9 88.6938 115.881 90.0625 117.738C90.125 117.819 90.3875 118.319 90.3875 118.356V120.562H88.25C87.9938 120.562 87.325 120.063 87.1688 119.831Z" fill="#15589F"/>
<path d="M67.875 127.906V134.275C67.875 134.375 67.625 134.775 67.5438 134.881C66.7313 135.963 65.025 135.806 64.4938 134.544C64.4625 134.475 64.3313 134.081 64.3313 134.056V127.794H62.5563C62.3875 127.794 62.5188 128.156 62.525 128.263C62.5625 129.931 62.6375 131.988 62.525 133.625C62.4438 134.788 61.7563 135.75 60.475 135.594C59.7438 135.506 58.9 134.744 58.9 133.981V127.794H57.0875V134.487C57.0875 134.625 57.375 135.325 57.4625 135.488C58.625 137.763 61.7188 138.106 63.425 136.256C65.1 138.175 68.4313 137.688 69.45 135.331C69.5063 135.2 69.7563 134.425 69.7563 134.338V127.788H67.9813C67.9813 127.788 67.875 127.888 67.875 127.894V127.906Z" fill="#15589F"/>
<path d="M115.362 120.706V122.338C115.362 122.338 115.462 122.444 115.469 122.444H117.244V118.175C117.244 118.175 117.119 118.206 117.1 118.125C116.937 117.475 117.006 117.331 116.581 116.7C114.512 113.656 109.781 115.4 110.006 119.081C110.037 119.587 110.194 120.119 110.444 120.562H104.687C104.137 120.562 103.275 119.544 103.275 119.006V115.206H101.462V119.294C101.462 120.794 103.412 122.481 104.9 122.444H113.644L115.362 120.706ZM111.812 118.787C111.812 118.075 112.331 117.281 113.025 117.106C113.806 116.906 114.706 117.138 115.131 117.856C115.175 117.931 115.362 118.312 115.362 118.35V120.556C114.712 120.481 113.844 120.656 113.225 120.556C112.481 120.431 111.812 119.519 111.812 118.781V118.787Z" fill="#15589F"/>
<path d="M114.894 128.087C114.756 128.025 114.125 127.8 114.025 127.8H108.05V137.425H109.862V135.762C109.987 135.731 110.006 135.812 110.081 135.869C110.519 136.2 111.175 137.131 111.562 137.356C111.65 137.406 111.681 137.412 111.781 137.431C112.681 137.55 114.444 137.506 115.219 137.025C116.75 136.062 116.956 133.981 115.812 132.625C117.094 131.244 116.637 128.856 114.9 128.087H114.894ZM113.875 135.612H109.856V133.512H113.731C114.181 133.512 114.675 134.05 114.706 134.5C114.737 134.931 114.325 135.612 113.875 135.612ZM114.712 130.725C114.706 131.012 114.287 131.706 114.019 131.706H109.856V129.606C110.981 129.669 112.181 129.525 113.3 129.606C113.987 129.656 114.737 129.881 114.712 130.731V130.725Z" fill="#15589F"/>
<path d="M92.9562 127.8H86.8375V137.425H88.7187V135.763L90.5 137.481C91.7437 137.281 92.9125 137.688 94.0875 137.113C96.325 136.025 96.35 133.506 96.1687 131.306C96.0312 129.606 94.7 127.969 92.95 127.794L92.9562 127.8ZM94.3 133.988C94.2562 134.525 93.9812 135.013 93.525 135.313C93.4125 135.388 92.9125 135.613 92.8125 135.613H88.65V129.788C88.65 129.788 88.75 129.681 88.7562 129.681H92.9562C93.45 129.681 94.1625 130.506 94.2625 130.981C94.3812 131.544 94.35 133.369 94.3 133.994V133.988Z" fill="#15589F"/>
<path d="M141.131 131.6C141.131 132.306 140.2 133.231 139.5 133.231H135.481V127.8H133.6V137.425H135.481V133.369L137.287 135.075C138.025 135.119 139.387 134.95 140.044 135.213C140.9 135.556 141.219 136.563 141.131 137.419H142.831C142.831 137.419 142.887 137.513 142.937 137.494V136.225C142.937 136.094 142.619 135.281 142.531 135.113C142.35 134.763 142.081 134.444 141.781 134.2C141.787 134.088 142.337 133.531 142.45 133.344C142.556 133.163 142.944 132.25 142.944 132.1V127.794H141.131V131.594V131.6Z" fill="#15589F"/>
<path d="M70.8813 130.044C70.8313 130.163 70.625 130.738 70.625 130.8V137.425H72.4375V133.369C72.5625 133.338 72.5812 133.419 72.6562 133.475C72.9813 133.725 74.0438 135 74.25 135.063C74.7813 135.225 75.5063 135 76.0563 135.106V137.425H77.8687V130.875C77.8687 130.475 77.375 129.5 77.1125 129.175C75.3875 127.031 71.9187 127.494 70.8875 130.044H70.8813ZM76.0563 133.225H72.4375V131.163C72.4375 131.163 72.5875 130.613 72.6062 130.569C72.625 130.525 73.0937 130.063 73.1687 130.006C74.0812 129.338 75.4 129.65 75.8687 130.694C75.9062 130.781 76.0563 131.181 76.0563 131.231V133.225Z" fill="#15589F"/>
<path d="M117.806 129.7C117.7 129.906 117.388 130.75 117.388 130.944V137.425H119.2V133.369C119.325 133.337 119.344 133.419 119.419 133.475C119.675 133.669 120.863 135.031 120.975 135.031H122.819V137.419H124.631V130.794C124.631 130.55 124.256 129.744 124.113 129.506C122.694 127.156 119.094 127.262 117.819 129.694L117.806 129.7ZM122.819 133.225H119.2V131.231C119.2 131.162 119.406 130.65 119.463 130.55C120.088 129.394 121.788 129.362 122.519 130.444C122.588 130.55 122.819 131 122.819 131.081V133.219V133.225Z" fill="#15589F"/>
<path d="M100.781 127.794C99.1375 127.75 97.05 129.206 97.05 130.944V137.425H98.8625V131.019C98.8625 130.919 99.2187 130.337 99.3062 130.231C100.356 129.056 102.481 129.825 102.481 131.381V133.225H98.9312C98.9 133.35 98.9812 133.369 99.0375 133.444C99.1687 133.612 100.519 135.037 100.631 135.037H102.475V137.425H104.287V131.019C104.287 129.362 102.362 127.837 100.781 127.794Z" fill="#15589F"/>
<path d="M84.1625 133.225H80.5438V127.794H78.7313V137.419H80.5438V133.294C80.8375 133.431 82.1938 135.031 82.3188 135.031H84.0563C84.0563 135.031 84.1625 135.131 84.1625 135.138V137.419H85.975V127.794H84.1625V133.225Z" fill="#15589F"/>
<path d="M129.3 127.794C127.65 127.731 125.494 129.181 125.494 130.944V137.388C125.494 137.388 125.594 137.494 125.6 137.494H127.262C127.262 137.494 127.369 137.394 127.369 137.388V131.088C127.369 131.025 127.581 130.581 127.644 130.494C128.319 129.431 129.919 129.388 130.619 130.45C130.694 130.563 130.919 131.063 130.919 131.163V137.425H132.8V131.094C132.8 129.406 130.9 127.856 129.294 127.8L129.3 127.794Z" fill="#15589F"/>
<path d="M60.5937 122.444C60.6625 122.437 61.4875 121.694 61.6125 121.575C61.6937 121.494 62.4 120.575 62.5187 120.706V122.444H64.3312V118.137C64.3312 118.044 63.9625 117.131 63.8812 116.994C62.6562 114.775 59.4937 114.512 57.8875 116.475C55.9687 118.819 57.6062 122.35 60.5937 122.45V122.444ZM61.4125 117.137C61.9312 117.331 62.5187 118.081 62.5187 118.637V120.556H60.3125C60.0437 120.556 59.3562 120.031 59.2 119.787C58.25 118.281 59.7312 116.506 61.4125 117.144V117.137Z" fill="#15589F"/>
<path d="M99.6187 112.744H97.8438V122.444H99.6187V112.744Z" fill="#15589F"/>
<path d="M62.5188 112.744H58.9V114.625H62.5188V112.744Z" fill="#15589F"/>
<path d="M114.562 114.512V112.85C114.562 112.85 114.463 112.744 114.456 112.744H112.681V114.625H114.456C114.456 114.625 114.562 114.525 114.562 114.519V114.512Z" fill="#15589F"/>
</svg>
