<svg width="200" height="200" viewBox="0 0 200 200" fill="none" xmlns="http://www.w3.org/2000/svg">
<path d="M142.075 81.8313V101.588H145.725L141.987 108.169L142.044 127.563L168.687 81.9126H157.281L147.331 99.1188L143.45 99.175L153.425 81.8313H142.075Z" fill="#C6872F"/>
<path d="M142.075 81.8313H153.431L143.45 99.175L147.331 99.1188L157.281 81.9126H168.687V81.9188L142.044 127.563L141.987 108.169L145.725 101.588H142.075V81.8313Z" fill="#C6872F"/>
<path fill-rule="evenodd" clip-rule="evenodd" d="M139.237 78.9375V79.8937V120.031V120.981H140.194H141.175V120.031H140.194V79.8937H172.644L173.281 78.9375H140.194H139.237Z" fill="#C6872F"/>
<path d="M151.662 118L178.306 118.169L178.225 98.4062L174.512 98.4375L178.281 91.8625V72.4375L151.662 118ZM176.887 100.831L168.369 115.656H164.512L173.125 100.844L176.887 100.831Z" fill="#200B09"/>
<path d="M151.662 118L178.306 118.169L178.225 98.4063L174.512 98.4313L178.281 91.8563V72.4313L151.662 117.994V118ZM164.512 115.65L173.125 100.844L176.887 100.831L168.369 115.656H164.512V115.65Z" fill="#884B39"/>
<path fill-rule="evenodd" clip-rule="evenodd" d="M181.25 78.9375H180.294H179.344V79.8937H180.294V120.031H147.806L147.275 120.981H180.294H181.25V120.031V79.8937V78.9375Z" fill="#884B39"/>
<path d="M26.7938 97.1062C26.9375 96.9124 27.0313 96.6812 27.0875 96.4124C27.1438 96.1437 27.1688 95.7874 27.1688 95.3374V86.7625H29.3938V95.1312H30.9125V96.8437H29.3188C29.2625 97.2125 29.1625 97.55 29.0188 97.8562C28.875 98.1625 28.6563 98.4437 28.3688 98.7C28.0313 99 27.6563 99.2 27.2438 99.3062C26.8313 99.4125 26.3375 99.4625 25.7563 99.4625H22.4C21.8188 99.4625 21.325 99.4062 20.9125 99.3062C20.5 99.2 20.125 99 19.7875 98.7C19.575 98.5187 19.4063 98.3125 19.2688 98.1C19.1375 97.8812 19.0313 97.65 18.9563 97.4062C18.8813 97.1625 18.825 96.9 18.8 96.625C18.7688 96.3437 18.7563 96.05 18.7563 95.7437V89.3999H20.9813V95.3437C20.9813 95.7875 21.0063 96.15 21.0625 96.4187C21.1125 96.6875 21.2125 96.9187 21.3563 97.1062C21.5563 97.3812 21.8063 97.5562 22.1063 97.6375C22.4 97.7187 22.75 97.7562 23.1625 97.7562H25.0063C25.4125 97.7562 25.7688 97.7125 26.0625 97.6375C26.3625 97.5562 26.6125 97.3812 26.8125 97.1062H26.7938ZM22.9313 85.3125V83.5437H25.1563V85.3125H22.9313Z" fill="#884B39"/>
<path d="M30.7563 96.825V95.1375H30.975C31.3875 95.1375 31.725 95.0875 31.9688 95C32.2125 94.9125 32.4188 94.75 32.5813 94.5375C32.75 94.3062 32.8625 94.0437 32.9125 93.75C32.9688 93.4625 32.9938 93.1562 33 92.8312V92.5812V86.7875H35.225V92.575L35.275 93.9437C35.35 94.2125 35.4625 94.425 35.625 94.5812C35.7875 94.7375 35.9688 94.8625 36.175 94.9437C36.375 95.025 36.5938 95.0812 36.825 95.1062C37.05 95.1312 37.2688 95.1437 37.475 95.1437H37.7125V96.8312H36.8063C36.5938 96.8312 36.3688 96.825 36.1438 96.8125C35.9188 96.8 35.6938 96.7687 35.4625 96.7187C35.2375 96.6687 35.0125 96.5937 34.7938 96.4937C34.575 96.3937 34.3688 96.2562 34.175 96.0812C33.9813 96.25 33.7688 96.3875 33.5563 96.4875C33.3438 96.5875 33.1188 96.6625 32.8938 96.7125C32.6688 96.7687 32.4313 96.8 32.1875 96.8125C31.9438 96.825 31.6938 96.8312 31.4375 96.8312H30.7688L30.7563 96.825ZM31.65 100.15V98.3812H33.875V100.15H31.65ZM34.6313 100.15V98.3812H36.8563V100.15H34.6313Z" fill="#884B39"/>
<path d="M37.5125 95.1375H39.1375C38.9562 94.8687 38.8188 94.5875 38.7188 94.2937C38.6188 93.9937 38.5438 93.7 38.4938 93.4125C38.4375 93.125 38.4063 92.8437 38.3938 92.575C38.3813 92.3062 38.375 92.0625 38.375 91.85C38.375 91.5687 38.3875 91.25 38.4125 90.8875C38.4375 90.525 38.4937 90.15 38.5812 89.775C38.6687 89.4 38.8 89.0312 38.9687 88.6687C39.1375 88.3125 39.3688 88 39.6688 87.7375C39.95 87.475 40.2562 87.275 40.6 87.1312C40.9437 86.9875 41.2938 86.8812 41.6563 86.8187C42.0188 86.75 42.375 86.7062 42.7375 86.6937C43.0937 86.675 43.425 86.6687 43.7313 86.6687C44.0375 86.6687 44.3625 86.675 44.7188 86.6937C45.075 86.7125 45.4312 86.75 45.7937 86.8187C46.1562 86.8875 46.5063 86.9875 46.8563 87.1312C47.2 87.275 47.5125 87.475 47.7938 87.7375C48.0938 88.0062 48.325 88.3125 48.4937 88.6687C48.6625 89.0312 48.7937 89.3937 48.8812 89.7687C48.9687 90.1437 49.0188 90.5062 49.0438 90.8562C49.0688 91.2125 49.0812 91.5125 49.0812 91.775C49.0812 92.5812 49.0063 93.25 48.8625 93.7937C48.7188 94.3375 48.5312 94.7875 48.3 95.1437H49.9312V96.8562H37.5V95.1437L37.5125 95.1375ZM40.675 91.825C40.675 92.0312 40.675 92.2437 40.6875 92.4625C40.6937 92.675 40.7188 92.8875 40.7625 93.0937C40.8063 93.3062 40.8687 93.5125 40.95 93.7187C41.0375 93.9187 41.1563 94.1187 41.3188 94.3C41.4688 94.475 41.6313 94.6125 41.8125 94.725C41.9938 94.8312 42.175 94.9125 42.3688 94.975C42.5563 95.0312 42.7563 95.075 42.9563 95.1C43.1563 95.125 43.35 95.1375 43.5437 95.1375H43.725C43.9312 95.1375 44.1438 95.125 44.3625 95.1062C44.575 95.0875 44.7813 95.05 44.9875 94.9937C45.1938 94.9375 45.3875 94.8562 45.5813 94.7437C45.7688 94.6312 45.95 94.4812 46.1188 94.3C46.2875 94.1187 46.4188 93.925 46.5063 93.725C46.6 93.525 46.6625 93.325 46.7063 93.1187C46.75 92.9125 46.775 92.7 46.7812 92.4812C46.7937 92.2687 46.7938 92.0437 46.7938 91.825V91.225C46.7938 91.0562 46.7812 90.8812 46.7625 90.7C46.7437 90.5187 46.7125 90.3375 46.6625 90.15C46.6125 89.9687 46.5437 89.7937 46.4625 89.625C46.3812 89.4562 46.275 89.3062 46.1438 89.1687C45.975 88.9875 45.7937 88.8437 45.6 88.7437C45.4062 88.6375 45.2 88.5625 44.9937 88.5062C44.7875 88.45 44.575 88.4125 44.3625 88.4C44.15 88.3812 43.9375 88.375 43.7375 88.375C43.5563 88.375 43.3562 88.3812 43.1375 88.4C42.9187 88.4187 42.7 88.45 42.4813 88.5062C42.2625 88.5625 42.05 88.6437 41.85 88.7437C41.6437 88.85 41.4687 88.9937 41.3125 89.1687C41.15 89.35 41.0313 89.5562 40.9438 89.7937C40.8625 90.0312 40.8 90.275 40.7625 90.525C40.725 90.775 40.7 91.0062 40.6938 91.2375C40.6875 91.4687 40.6812 91.6625 40.6812 91.825H40.675ZM41.1312 85.275V83.5062H43.3563V85.275H41.1312ZM44.1125 85.275V83.5062H46.3375V85.275H44.1125Z" fill="#884B39"/>
<path d="M49.7625 96.825V95.1375H49.9813C50.3938 95.1375 50.7313 95.0875 50.975 95C51.2188 94.9125 51.425 94.75 51.5875 94.5375C51.7563 94.3062 51.8688 94.0437 51.9188 93.75C51.975 93.4625 52 93.1562 52.0063 92.8312V92.5812V86.7875H54.2313V92.575L54.2813 93.9437C54.3563 94.2125 54.4688 94.425 54.6313 94.5812C54.7938 94.7375 54.975 94.8625 55.1813 94.9437C55.3813 95.025 55.6 95.0812 55.8313 95.1062C56.0563 95.1312 56.275 95.1437 56.4813 95.1437H56.7188V96.8312H55.8125C55.6 96.8312 55.375 96.825 55.15 96.8125C54.925 96.8 54.7 96.7687 54.4688 96.7187C54.2438 96.6687 54.0188 96.5937 53.8 96.4937C53.5813 96.3937 53.375 96.2562 53.1813 96.0812C52.9875 96.25 52.775 96.3875 52.5625 96.4875C52.35 96.5875 52.125 96.6625 51.9 96.7125C51.675 96.7687 51.4375 96.8 51.1938 96.8125C50.95 96.825 50.7 96.8312 50.4438 96.8312H49.775L49.7625 96.825ZM50.6563 100.15V98.3812H52.8813V100.15H50.6563ZM53.6375 100.15V98.3812H55.8625V100.15H53.6375Z" fill="#884B39"/>
<path d="M56.5187 96.8437V95.1312H57.6C58.0125 95.1312 58.35 95.0812 58.5937 94.9937C58.8375 94.9062 59.0437 94.7437 59.2062 94.5312C59.3875 94.2937 59.5 94.0124 59.55 93.7062C59.6 93.3937 59.625 93.075 59.625 92.7375V83.5437H61.85V93.4062C61.85 93.75 61.825 94.0624 61.7687 94.3312C61.7125 94.5999 61.6437 94.8437 61.5562 95.05C61.4687 95.2625 61.3625 95.4437 61.2437 95.6062C61.1187 95.7625 60.9937 95.9 60.8687 96.0187C60.6625 96.2062 60.45 96.35 60.2312 96.4562C60.0125 96.5625 59.7875 96.6437 59.55 96.7062C59.3187 96.7624 59.0687 96.7999 58.825 96.8124C58.575 96.8312 58.3187 96.8375 58.0562 96.8375H56.525L56.5187 96.8437Z" fill="#884B39"/>
<path d="M63.4813 83.55H65.7063V96.8437H63.4813V83.55Z" fill="#884B39"/>
<path d="M73.1563 91.9625C73.1563 92.3875 73.175 92.8 73.2125 93.1875C73.25 93.575 73.3625 93.925 73.5563 94.2375C73.65 94.4062 73.7625 94.5437 73.8938 94.6562C74.025 94.7687 74.1813 94.8624 74.3563 94.9374C74.5375 95.0062 74.7438 95.0625 74.9813 95.0875C75.2188 95.1187 75.4875 95.1375 75.7938 95.1375H77.1C76.7375 94.3312 76.55 93.1687 76.55 91.6625C76.55 90.8687 76.6188 90.1624 76.7438 89.5374C76.8813 88.9062 77.175 88.3562 77.6125 87.875C77.8438 87.6125 78.0938 87.4124 78.35 87.2624C78.6063 87.1124 78.8688 86.9999 79.1375 86.9312C79.4063 86.8625 79.6688 86.8187 79.9375 86.8C80.2063 86.7812 80.4625 86.775 80.7188 86.775H83.9625C84.2625 86.775 84.5438 86.7937 84.8188 86.8312C85.0938 86.8687 85.35 86.9812 85.5938 87.1749C85.8563 87.3999 86.0125 87.6375 86.075 87.9C86.15 88.175 86.1875 88.4187 86.1875 88.6375V93.4125C86.1875 93.7562 86.1625 94.0687 86.1063 94.3375C86.0563 94.6125 85.9813 94.85 85.8938 95.0625C85.8 95.2687 85.7 95.4562 85.575 95.6124C85.4563 95.7687 85.3313 95.9125 85.2 96.025C84.9938 96.2062 84.7813 96.3562 84.5625 96.4625C84.3438 96.5687 84.1188 96.65 83.8813 96.7125C83.6438 96.7687 83.4 96.8062 83.1563 96.8187C82.9063 96.8375 82.65 96.8437 82.3875 96.8437H74.9125C74.6813 96.8437 74.4188 96.8312 74.1438 96.8124C73.8688 96.7937 73.5875 96.7375 73.3063 96.65C73.0188 96.5562 72.7375 96.425 72.4563 96.2437C72.175 96.0625 71.9125 95.8062 71.675 95.4749C71.4875 95.2249 71.3375 94.9625 71.2313 94.6812C71.125 94.4 71.0375 94.1062 70.9813 93.8062C70.925 93.5 70.8875 93.1937 70.875 92.875C70.8563 92.5562 70.85 92.2375 70.85 91.9125V88.9562H73.1563V91.9625ZM80.3125 95.0687C80.4875 95.0937 80.6563 95.1125 80.825 95.125C80.9938 95.1375 81.1625 95.1437 81.3188 95.1437H81.95C82.3625 95.1374 82.7 95.0875 82.9438 94.9937C83.1938 94.9 83.3938 94.7437 83.5563 94.5312C83.7 94.3437 83.8 94.125 83.8563 93.8875C83.9188 93.65 83.95 93.4 83.9625 93.1375V89.2875C83.9625 89.1437 83.9438 89.025 83.9125 88.925C83.8813 88.825 83.8 88.7312 83.675 88.6375C83.575 88.575 83.4813 88.5375 83.3813 88.5187C83.2875 88.5 83.1875 88.4875 83.0875 88.4875H81.1875C80.8188 88.4875 80.4813 88.5437 80.175 88.65C79.8688 88.7625 79.6313 88.9125 79.4625 89.1062C79.3125 89.2875 79.1875 89.5062 79.1063 89.7687C79.0188 90.0312 78.9625 90.2937 78.925 90.5562C78.8875 90.825 78.8688 91.075 78.8625 91.3062C78.8563 91.5374 78.85 91.7124 78.85 91.8312C78.85 92.2749 78.8688 92.6562 78.9063 92.9749C78.9438 93.2874 78.9875 93.5562 79.0438 93.7687C79.1 93.9812 79.1563 94.15 79.225 94.275C79.2875 94.4 79.35 94.4937 79.4125 94.5562C79.6688 94.8499 79.9625 95.0187 80.3 95.0749L80.3125 95.0687ZM80.5063 85.3125V83.5437H82.7313V85.3125H80.5063Z" fill="#884B39"/>
<path d="M87.0875 98.5187C87.3875 98.525 87.65 98.5187 87.875 98.5125C88.0937 98.5062 88.2937 98.4812 88.4625 98.45C88.6312 98.4187 88.7812 98.3687 88.9125 98.3125C89.0437 98.2562 89.1812 98.175 89.3062 98.0875C89.4375 97.9937 89.55 97.8937 89.6437 97.7812C89.7375 97.6687 89.8187 97.5437 89.8812 97.3875C89.95 97.2375 89.9937 97.0562 90.0312 96.8562C90.0687 96.6562 90.0812 96.4187 90.0812 96.15V86.7875H92.3062V95.1437H93.9562V96.8562H92.3062C92.2875 97.2562 92.225 97.6062 92.1312 97.9C92.0312 98.1937 91.9187 98.4437 91.7875 98.6562C91.6562 98.8625 91.5187 99.0375 91.3812 99.175C91.2375 99.3125 91.1187 99.425 91.0187 99.5C90.6062 99.7937 90.0875 99.9937 89.4562 100.119C88.825 100.237 88.0375 100.281 87.0812 100.244V98.5312L87.0875 98.5187Z" fill="#884B39"/>
<path d="M93.7188 96.8437V95.1312H95.4562V86.775H97.6812L97.6688 88.1062C97.8313 87.8812 98.025 87.6937 98.25 87.5437C98.475 87.3937 98.7125 87.2687 98.9625 87.1687C99.2125 87.0687 99.4688 86.9937 99.725 86.9437C99.9875 86.8937 100.225 86.8562 100.444 86.8312C100.663 86.8062 100.863 86.7875 101.044 86.7875C101.225 86.7875 101.35 86.7875 101.438 86.7875H105.775C106.05 86.7875 106.331 86.8062 106.631 86.8437C106.931 86.8812 107.219 86.9562 107.506 87.0625C107.794 87.1687 108.075 87.3312 108.344 87.5437C108.619 87.75 108.856 88.025 109.075 88.3625C109.25 88.65 109.381 88.9375 109.481 89.2375C109.575 89.5375 109.644 89.8375 109.688 90.1437C109.731 90.4437 109.756 90.75 109.762 91.05C109.769 91.3562 109.775 91.6437 109.775 91.9312C109.775 92.2437 109.769 92.5375 109.756 92.8187C109.744 93.1 109.712 93.375 109.675 93.6375C109.631 93.9 109.569 94.1562 109.487 94.4062C109.406 94.6562 109.3 94.9062 109.163 95.1437H110.669V96.8562H93.7188V96.8437ZM100.769 88.4875C99.8875 88.5187 99.175 88.7937 98.65 89.3062C98.1187 89.8187 97.7938 90.55 97.6688 91.5062L97.6563 95.1437H104.831C105.137 95.1437 105.406 95.125 105.638 95.0937C105.875 95.0625 106.081 95.0125 106.263 94.9437C106.444 94.875 106.606 94.7812 106.738 94.6625C106.869 94.5437 106.988 94.4062 107.075 94.2437C107.269 93.925 107.381 93.575 107.419 93.1812C107.456 92.7875 107.475 92.375 107.475 91.95C107.475 91.3062 107.444 90.775 107.375 90.3375C107.313 89.9062 107.181 89.5562 106.994 89.2875C106.856 89.1 106.7 88.9562 106.519 88.85C106.337 88.7437 106.156 88.6687 105.962 88.6125C105.775 88.5562 105.581 88.525 105.387 88.5125C105.2 88.5 105.025 88.4937 104.869 88.4937H100.769V88.4875Z" fill="#884B39"/>
<path d="M110.431 96.8437V95.1312H110.8C110.95 95.1312 111.119 95.125 111.313 95.1125C111.5 95.1 111.694 95.0625 111.894 95C112.088 94.9312 112.275 94.8312 112.456 94.6937C112.637 94.5562 112.787 94.3562 112.906 94.1062C112.963 93.9875 113.025 93.8062 113.094 93.5687C113.163 93.3312 113.206 92.9687 113.231 92.4937V91.8437C113.231 91.5625 113.244 91.2437 113.269 90.8812C113.294 90.5187 113.35 90.1437 113.438 89.7687C113.525 89.3937 113.656 89.025 113.825 88.6625C113.994 88.3062 114.225 87.9937 114.525 87.7312C114.806 87.4687 115.113 87.2687 115.456 87.125C115.8 86.9812 116.15 86.875 116.513 86.8125C116.875 86.7437 117.231 86.7 117.594 86.6875C117.95 86.6687 118.281 86.6625 118.588 86.6625C118.894 86.6625 119.219 86.6687 119.575 86.6875C119.931 86.7062 120.287 86.7437 120.65 86.8125C121.012 86.8812 121.363 86.9875 121.713 87.125C122.056 87.2687 122.369 87.4687 122.65 87.7312C122.95 88 123.181 88.3125 123.35 88.6687C123.519 89.025 123.65 89.3937 123.738 89.7687C123.825 90.1437 123.875 90.5062 123.9 90.8562C123.925 91.2125 123.938 91.5125 123.938 91.775C123.938 92.3125 123.906 92.8 123.838 93.225C123.775 93.6562 123.681 94.0375 123.569 94.3687C123.456 94.7 123.319 94.9937 123.163 95.2437C123.006 95.5 122.831 95.7062 122.644 95.8812C122.375 96.1375 122.069 96.3312 121.725 96.475C121.375 96.6187 121.013 96.725 120.644 96.7937C120.275 96.8625 119.906 96.9062 119.55 96.925C119.194 96.9437 118.869 96.9562 118.581 96.9562C118.275 96.9562 117.95 96.9437 117.588 96.925C117.231 96.9062 116.869 96.8625 116.506 96.7875C116.144 96.7187 115.794 96.6125 115.444 96.4687C115.1 96.325 114.794 96.125 114.513 95.875C114.494 95.8625 114.463 95.8375 114.425 95.8C114.219 96.0187 113.988 96.2 113.738 96.3375C113.488 96.475 113.225 96.575 112.963 96.65C112.7 96.725 112.438 96.775 112.169 96.8C111.9 96.825 111.65 96.8375 111.406 96.8375H110.413L110.431 96.8437ZM116.169 89.1687C115.975 89.4 115.838 89.6625 115.756 89.9375C115.669 90.2187 115.619 90.5062 115.588 90.8C115.556 91.1 115.55 91.3937 115.556 91.6812C115.563 91.975 115.556 92.25 115.544 92.5062C115.563 92.8437 115.613 93.1687 115.7 93.5C115.788 93.825 115.95 94.1312 116.181 94.4062C116.344 94.5937 116.525 94.7437 116.725 94.85C116.919 94.9625 117.119 95.0437 117.325 95.1C117.531 95.1562 117.744 95.1937 117.956 95.2125C118.169 95.2312 118.381 95.2437 118.588 95.2437C118.794 95.2437 119.006 95.2312 119.219 95.2125C119.431 95.1937 119.638 95.1562 119.844 95.1C120.044 95.0437 120.244 94.9625 120.438 94.85C120.625 94.7375 120.806 94.5875 120.975 94.4062C121.138 94.225 121.269 94.025 121.356 93.8187C121.444 93.6125 121.513 93.4 121.556 93.175C121.6 92.9562 121.625 92.7312 121.631 92.5C121.638 92.275 121.644 92.05 121.644 91.825V91.225C121.644 91.0562 121.631 90.8812 121.613 90.7C121.594 90.5187 121.563 90.3375 121.513 90.15C121.463 89.9687 121.4 89.7937 121.313 89.625C121.231 89.4562 121.125 89.3062 120.994 89.1687C120.831 88.9875 120.65 88.8437 120.45 88.7437C120.256 88.6375 120.056 88.5625 119.844 88.5062C119.638 88.45 119.425 88.4125 119.213 88.4C119 88.3812 118.794 88.375 118.588 88.375C118.406 88.375 118.206 88.3812 117.988 88.4C117.769 88.4187 117.55 88.45 117.331 88.5062C117.113 88.5625 116.9 88.6437 116.694 88.7437C116.494 88.85 116.313 88.9937 116.156 89.1687H116.169Z" fill="#884B39"/>
<path d="M22.4688 111.894L18.8875 105.481H21.4375L23.5688 109.937L25.5688 105.481H27.9938L24.6 111.85V115.75H22.4688V111.894Z" fill="#C6872F"/>
<path d="M28.4875 115.75L32.1125 105.481H34.6L38.2313 115.75H35.9563L35.2688 113.65H31.375L30.6938 115.75H28.4875ZM33.325 107.769L31.9688 111.894H34.6938L33.325 107.769Z" fill="#C6872F"/>
<path d="M47.9625 116.487L46.7375 115.356C46.0062 115.806 45.1187 116.031 44.0875 116.031C42.575 116.031 41.3687 115.55 40.4875 114.587C39.6 113.631 39.1562 112.331 39.1562 110.681C39.1562 109.031 39.6 107.669 40.4875 106.681C41.375 105.7 42.575 105.206 44.0875 105.206C45.6 105.206 46.8063 105.7 47.6875 106.681C48.575 107.662 49.0187 109 49.0187 110.675C49.0187 112.162 48.6562 113.362 47.9375 114.281L49.0562 115.331L47.9625 116.487ZM44.1813 113.006L45.2625 111.856L46.3938 112.875C46.725 112.306 46.8875 111.569 46.8875 110.662C46.8875 109.525 46.6375 108.631 46.1375 107.994C45.6437 107.35 44.9562 107.031 44.0812 107.031C43.2062 107.031 42.5188 107.35 42.0188 107.994C41.525 108.637 41.2813 109.531 41.2813 110.662C41.2813 111.794 41.525 112.637 42.0188 113.269C42.5063 113.894 43.1937 114.206 44.075 114.206C44.5 114.206 44.8812 114.137 45.225 113.975L44.175 113.006H44.1813Z" fill="#C6872F"/>
<path d="M50.7437 115.75V105.481H58.2875V107.306H52.8812V109.494H57.8937V111.25H52.8812V113.925H58.525V115.75H50.7437Z" fill="#C6872F"/>
<path d="M60.2687 115.75V105.481H67.8125V107.306H62.4062V109.494H67.4187V111.25H62.4062V113.925H68.0562V115.75H60.2687Z" fill="#C6872F"/>
<path d="M71.6875 115.75H69.6875V105.481H71.9312L76.0437 112.687V105.481H78.0438V115.75H75.9188L71.6875 108.356V115.75Z" fill="#C6872F"/>
<path d="M83.5938 115.737V105.487H88.5625C89.55 105.487 90.325 105.719 90.8813 106.175C91.4438 106.637 91.725 107.275 91.725 108.087C91.725 108.944 91.4125 109.594 90.7812 110.031C90.725 110.069 90.6688 110.106 90.6188 110.144C90.5625 110.181 90.5 110.212 90.4375 110.237C90.6812 110.325 90.8938 110.437 91.075 110.569C91.7313 111.019 92.0562 111.675 92.0562 112.537C92.0562 113.587 91.7313 114.387 91.0875 114.925C90.4438 115.469 89.4937 115.737 88.2375 115.737H83.5938ZM85.65 111.231V113.956H88.25C89.3625 113.956 89.925 113.469 89.925 112.5C89.925 111.656 89.3562 111.231 88.2125 111.231H85.65ZM85.65 107.244V109.512H88.1C89.1625 109.512 89.6937 109.112 89.6937 108.3C89.6937 107.594 89.1313 107.244 88.0125 107.244H85.65Z" fill="#C6872F"/>
<path d="M93.125 115.75L96.75 105.481H99.2375L102.869 115.75H100.594L99.9063 113.65H96.0125L95.3312 115.75H93.125ZM97.9625 107.769L96.6063 111.894H99.3312L97.9625 107.769Z" fill="#C6872F"/>
<path d="M106.15 115.75H104.15V105.481H106.394L110.506 112.687V105.481H112.506V115.75H110.381L106.15 108.356V115.75Z" fill="#C6872F"/>
<path d="M114.738 115.75V105.481H116.869V109.737L120.8 105.481H123.538L119.438 109.681L123.806 115.75H121L117.913 111.237L116.869 112.3V115.75H114.738Z" fill="#C6872F"/>
</svg>
